<svg id="Capa_1" data-name="Capa 1" xmlns="http://www.w3.org/2000/svg" viewBox="0 0 325.49 390.28"><defs><style>.cls-1{fill:#fff;}</style></defs><path class="cls-1" d="M0,0V390.28H325.49V.38ZM277.28,226v60.43l-22.17,55.41H240.86V317.08h12.06V305H240.86V293h12.06V280.92H240.86V249.41H228.81v31.51H96.44V249.41h-12v31.51H72.33V293H84.39V305H72.33v12H84.39v24.74h-14L48.22,286.41V132.08H74.94v7.45l8.33,16.66h26.35L118,139.53v-7.45h89.6v7.45l8.33,16.66h26.35l8.33-16.66v-7.45h26.72v45.69h-6V226Zm-48.47,91.1v24.74H96.44V317.08ZM96.44,305V293H228.81V305ZM277.28,120H250.56V108h-16V81.4h0a29.9,29.9,0,0,0-59.77,1.12V120H150.49V82.52h-.07a30.2,30.2,0,0,0-60.32,0h0V108H74.94v12H48.22V48.47H277.28Zm-69.73-12v12H186.86V82.52a17.85,17.85,0,0,1,35.7,0V108Zm12,12h18.91v16.66l-3.73,7.45H223.32l-3.72-7.45ZM102.12,108V83.86a18.14,18.14,0,0,1,36.25-.71V120H118V108Zm3.78,12v16.66l-3.73,7.45H90.71L87,136.69V120ZM277.28,36.42H48.22V12.1l229.06.27Zm36.17,341.82H12.05V12.06l24.12,0V288.73l26.05,65.14h201l26.06-65.14V226h6V177.77h-6V12.38l24.12,0Z"/></svg>