<svg width="48" height="48" viewBox="0 0 48 48" xmlns="http://www.w3.org/2000/svg">
<path d="M4 4V6H9V8C8.99947 8.39411 9.07671 8.78446 9.22729 9.14867C9.37787 9.51289 9.59882 9.84381 9.87751 10.1225C10.1562 10.4012 10.4871 10.6221 10.8513 10.7727C11.2155 10.9233 11.6059 11.0005 12 11H13V13H15V11H16C16.3941 11.0005 16.7845 10.9233 17.1487 10.7727C17.5129 10.6221 17.8438 10.4012 18.1225 10.1225C18.4012 9.84381 18.6221 9.51289 18.7727 9.14867C18.9233 8.78446 19.0005 8.39411 19 8V6H44V4H4ZM17 9H11V6H17V9ZM38 32V23.9L37 19.9V17C36.9984 16.47 36.7872 15.9622 36.4125 15.5875C36.0378 15.2128 35.53 15.0016 35 15H33C32.47 15.0016 31.9622 15.2128 31.5875 15.5875C31.2128 15.9622 31.0016 16.47 31 17V19.9L30.02 23.7L30 32H28V23.9L27 19.9V17C26.9984 16.47 26.7872 15.9622 26.4125 15.5875C26.0378 15.2128 25.53 15.0016 25 15H23C22.47 15.0016 21.9622 15.2128 21.5875 15.5875C21.2128 15.9622 21.0016 16.47 21 17V19.9L20.02 23.7L20 32H18V23.9L17 19.9V17C16.9984 16.47 16.7872 15.9622 16.4125 15.5875C16.0378 15.2128 15.53 15.0016 15 15H13C12.47 15.0016 11.9622 15.2128 11.5875 15.5875C11.2128 15.9622 11.0016 16.47 11 17V19.9L10.02 23.7L10 32C8.4087 32 6.88258 32.6321 5.75736 33.7574C4.63214 34.8826 4 36.4087 4 38C4 39.5913 4.63214 41.1174 5.75736 42.2426C6.88258 43.3679 8.4087 44 10 44H38C39.5913 44 41.1174 43.3679 42.2426 42.2426C43.3679 41.1174 44 39.5913 44 38C44 36.4087 43.3679 34.8826 42.2426 33.7574C41.1174 32.6321 39.5913 32 38 32ZM32 24L32.98 20.2L33 17H35V20L36 24V32H32V24ZM22 24L22.98 20.2L23 17H25V20L26 24V32H22V24ZM12 24L12.98 20.2L13 17H15V20L16 24V32H12V24ZM38 42H10C8.93913 42 7.92172 41.5786 7.17157 40.8284C6.42143 40.0783 6 39.0609 6 38C6 36.9391 6.42143 35.9217 7.17157 35.1716C7.92172 34.4214 8.93913 34 10 34H38C39.0609 34 40.0783 34.4214 40.8284 35.1716C41.5786 35.9217 42 36.9391 42 38C42 39.0609 41.5786 40.0783 40.8284 40.8284C40.0783 41.5786 39.0609 42 38 42ZM12 38C12 38.3956 11.8827 38.7822 11.6629 39.1111C11.4432 39.44 11.1308 39.6964 10.7654 39.8478C10.3999 39.9991 9.99778 40.0387 9.60982 39.9616C9.22186 39.8844 8.86549 39.6939 8.58579 39.4142C8.30608 39.1345 8.1156 38.7781 8.03843 38.3902C7.96126 38.0022 8.00087 37.6001 8.15224 37.2346C8.30362 36.8692 8.55996 36.5568 8.88886 36.3371C9.21776 36.1173 9.60444 36 10 36C10.5304 36 11.0391 36.2107 11.4142 36.5858C11.7893 36.9609 12 37.4696 12 38ZM15.6 36C15.2044 36 14.8178 36.1173 14.4889 36.3371C14.16 36.5568 13.9036 36.8692 13.7522 37.2346C13.6009 37.6001 13.5613 38.0022 13.6384 38.3902C13.7156 38.7781 13.9061 39.1345 14.1858 39.4142C14.4655 39.6939 14.8219 39.8844 15.2098 39.9616C15.5978 40.0387 15.9999 39.9991 16.3654 39.8478C16.7308 39.6964 17.0432 39.44 17.2629 39.1111C17.4827 38.7822 17.6 38.3956 17.6 38C17.6 37.7374 17.5483 37.4773 17.4478 37.2346C17.3472 36.992 17.1999 36.7715 17.0142 36.5858C16.8285 36.4001 16.608 36.2528 16.3654 36.1522C16.1227 36.0517 15.8626 36 15.6 36ZM21.2 36C20.8044 36 20.4178 36.1173 20.0889 36.3371C19.76 36.5568 19.5036 36.8692 19.3522 37.2346C19.2009 37.6001 19.1613 38.0022 19.2384 38.3902C19.3156 38.7781 19.5061 39.1345 19.7858 39.4142C20.0655 39.6939 20.4219 39.8844 20.8098 39.9616C21.1978 40.0387 21.5999 39.9991 21.9654 39.8478C22.3308 39.6964 22.6432 39.44 22.8629 39.1111C23.0827 38.7822 23.2 38.3956 23.2 38C23.2 37.4696 22.9893 36.9609 22.6142 36.5858C22.2391 36.2107 21.7304 36 21.2 36ZM26.8 36C26.4044 36 26.0178 36.1173 25.6889 36.3371C25.36 36.5568 25.1036 36.8692 24.9522 37.2346C24.8009 37.6001 24.7613 38.0022 24.8384 38.3902C24.9156 38.7781 25.1061 39.1345 25.3858 39.4142C25.6655 39.6939 26.0219 39.8844 26.4098 39.9616C26.7978 40.0387 27.1999 39.9991 27.5654 39.8478C27.9308 39.6964 28.2432 39.44 28.4629 39.1111C28.6827 38.7822 28.8 38.3956 28.8 38C28.8 37.4696 28.5893 36.9609 28.2142 36.5858C27.8391 36.2107 27.3304 36 26.8 36ZM32.4 36C32.0044 36 31.6178 36.1173 31.2889 36.3371C30.96 36.5568 30.7036 36.8692 30.5522 37.2346C30.4009 37.6001 30.3613 38.0022 30.4384 38.3902C30.5156 38.7781 30.7061 39.1345 30.9858 39.4142C31.2655 39.6939 31.6219 39.8844 32.0098 39.9616C32.3978 40.0387 32.7999 39.9991 33.1654 39.8478C33.5308 39.6964 33.8432 39.44 34.0629 39.1111C34.2827 38.7822 34.4 38.3956 34.4 38C34.4 37.4696 34.1893 36.9609 33.8142 36.5858C33.4391 36.2107 32.9304 36 32.4 36ZM38 36C37.6044 36 37.2178 36.1173 36.8889 36.3371C36.56 36.5568 36.3036 36.8692 36.1522 37.2346C36.0009 37.6001 35.9613 38.0022 36.0384 38.3902C36.1156 38.7781 36.3061 39.1345 36.5858 39.4142C36.8655 39.6939 37.2219 39.8844 37.6098 39.9616C37.9978 40.0387 38.3999 39.9991 38.7654 39.8478C39.1308 39.6964 39.4432 39.44 39.6629 39.1111C39.8827 38.7822 40 38.3956 40 38C40 37.4696 39.7893 36.9609 39.4142 36.5858C39.0391 36.2107 38.5304 36 38 36Z" />
</svg>
