<svg xmlns="http://www.w3.org/2000/svg" viewBox="0 0 10 10">
  <path d="m 8.5727081,5.62578 v 2.97725 q 0,0.16127 -0.1178498,0.27912 Q 8.3370085,9 8.1757405,9 H 5.7939349 V 6.61819 H 4.2060646 V 9 H 1.824259 Q 1.6629909,9 1.5451412,8.88215 1.4272914,8.7643 1.4272914,8.60303 V 5.62578 q 0,-0.006 0.0031,-0.0186 0.0031,-0.0124 0.0031,-0.0186 L 4.9999998,2.64852 8.5665054,5.58856 q 0.0062,0.0124 0.0062,0.0372 z M 9.955892,5.19779 9.5713297,5.65679 q -0.049621,0.0558 -0.130255,0.0682 h -0.018608 q -0.080634,0 -0.130255,-0.0434 L 4.9999998,2.10269 0.70778771,5.6816 Q 0.63335631,5.7312 0.55892486,5.725 0.47829087,5.7126 0.42866987,5.6568 L 0.04410752,5.1978 Q -0.00551343,5.1358 6.8917799e-4,5.05204 0.00689178,4.96834 0.06891799,4.91869 L 4.5286008,1.20331 q 0.1984838,-0.16127 0.471399,-0.16127 0.2729153,0 0.471399,0.16127 L 6.9848377,2.46864 V 1.25913 q 0,-0.0868 0.055824,-0.14266 0.055824,-0.0558 0.1426602,-0.0558 h 1.1909028 q 0.086837,0 0.1426602,0.0558 0.055824,0.0558 0.055824,0.14266 V 3.7898 l 1.3583734,1.12888 q 0.062026,0.0496 0.068229,0.13335 0.0062,0.0837 -0.043418,0.14576 z" />
</svg>
