<?xml version="1.0" encoding="utf-8"?>
<svg version="1.1" xmlns="http://www.w3.org/2000/svg" viewBox="0 0 24 24">
<path d="M18,3H6C4.3,3,3,4.3,3,6v12c0,1.7,1.3,3,3,3h12c1.7,0,3-1.3,3-3V6C21,4.3,19.7,3,18,3z M12,13.4
	l2.6,2.6L12,18.6L9.4,16L12,13.4z M8,14.6L5.4,12L8,9.4l2.6,2.6L8,14.6z M13.4,12L16,9.4l2.6,2.6L16,14.6L13.4,12z M12,10.6L9.4,8
	L12,5.4L14.6,8L12,10.6z M14.4,5h3.2L16,6.6L14.4,5z M8,6.6L6.4,5h3.2L8,6.6z M5,9.6V6.4L6.6,8L5,9.6z M6.6,16L5,17.6v-3.2L6.6,16z
	 M9.6,19H6.4L8,17.4L9.6,19z M16,17.4l1.6,1.6h-3.2L16,17.4z M17.4,16l1.6-1.6v3.2L17.4,16z M17.4,8L19,6.4v3.2L17.4,8z" />
</svg>
