<?xml version="1.0" encoding="UTF-8"?><svg id="a" xmlns="http://www.w3.org/2000/svg" viewBox="0 0 50 49.99998"><path d="M25,0C11.19289,0,0,11.19288,0,24.99999s11.19289,24.99999,25,24.99999,25-11.19288,25-24.99999S38.80711,0,25,0Zm3.10746,37.64835h-6.11131V18.9691h6.11131v18.67925Zm-.77685-21.64856c-.61019,.62144-1.38704,.93216-2.33061,.93216-.94408,0-1.72099-.31072-2.33061-.93216-.61013-.62155-.91494-1.40377-.91494-2.34787,0-.96677,.30481-1.75502,.91494-2.36518,.60962-.6096,1.38652-.91496,2.33061-.91496,.94357,0,1.72042,.30536,2.33061,.91496,.60962,.61017,.91494,1.39841,.91494,2.36518,0,.9441-.30532,1.72632-.91494,2.34787Z"/></svg>