<svg width="48" height="48" viewBox="0 0 48 48" xmlns="http://www.w3.org/2000/svg">
<path d="M40.0175 21C40.016 23.1746 39.5719 25.3262 38.7123 27.3237C37.8527 29.3212 36.5956 31.1229 35.0175 32.6191V43H33.0175V32.1808C33.0175 32.0402 33.0471 31.9011 33.1045 31.7727C33.1619 31.6444 33.2457 31.5295 33.3505 31.4357C34.8176 30.1215 35.9914 28.513 36.7955 26.715C37.5996 24.9169 38.016 22.9697 38.0175 21C38.0175 19.1043 37.6326 17.2284 36.886 15.486C36.1394 13.7435 35.0467 12.1708 33.6741 10.8633C32.3016 9.55575 30.6778 8.54056 28.9012 7.87928C27.1246 7.218 25.2322 6.92442 23.3388 7.01631C19.6908 7.24159 16.2701 8.86501 13.7888 11.5487C11.3075 14.2323 9.95667 17.7695 10.0175 21.424V22C10.0176 22.14 9.98814 22.2784 9.9311 22.4062L6.4145 30.3185L9.26 31.03C9.4763 31.0841 9.66831 31.209 9.80553 31.3847C9.94274 31.5605 10.0173 31.777 10.0173 32V37C10.0179 37.5303 10.2288 38.0386 10.6038 38.4136C10.9787 38.7885 11.4871 38.9994 12.0173 39H18.0173C18.2825 39 18.5369 39.1054 18.7244 39.2929C18.9119 39.4804 19.0173 39.7348 19.0173 40V43H17.0173V41H12.0173C10.9568 40.9989 9.94003 40.5771 9.19013 39.8272C8.44023 39.0773 8.01844 38.0605 8.0173 37V32.7814L4.7749 31.97C4.63331 31.9347 4.50116 31.8689 4.38775 31.7771C4.27435 31.6852 4.18244 31.5697 4.11849 31.4385C4.05454 31.3073 4.0201 31.1638 4.0176 31.0179C4.01509 30.872 4.04459 30.7273 4.104 30.594L8.0175 21.7878V21.424C7.95598 17.2551 9.50462 13.223 12.341 10.1671C15.1775 7.11126 19.0831 5.26699 23.2451 5.01821C25.4088 4.91377 27.5711 5.24974 29.6011 6.00576C31.6311 6.76178 33.4864 7.92212 35.0546 9.41644C36.6229 10.9108 37.8714 12.7079 38.7244 14.6991C39.5775 16.6902 40.0174 18.8338 40.0175 21ZM31.0175 17.4538C30.92 19.0434 30.3187 20.5606 29.3007 21.7854C29.1434 22.0168 28.9833 22.2527 28.8261 22.4963C28.4018 23.0812 28.1245 23.7597 28.0175 24.4743V27.989L24.0175 30.6555L20.0175 27.989V24.4745C19.9105 23.7599 19.6332 23.0814 19.2089 22.4965C19.0516 22.2529 18.8915 22.0165 18.7343 21.7856C17.7163 20.5609 17.115 19.0436 17.0175 17.454C17.0175 15.5975 17.755 13.817 19.0678 12.5043C20.3805 11.1915 22.161 10.454 24.0175 10.454C25.874 10.454 27.6545 11.1915 28.9672 12.5043C30.28 13.817 31.0175 15.5975 31.0175 17.454V17.4538ZM26.0175 25.4538H22.0175V26.9187L24.0175 28.2522L26.0175 26.9187V25.4538ZM29.0175 17.4538C29.0175 16.1277 28.4907 14.856 27.553 13.9183C26.6154 12.9806 25.3436 12.4538 24.0175 12.4538C22.6914 12.4538 21.4196 12.9806 20.482 13.9183C19.5443 14.856 19.0175 16.1277 19.0175 17.4538C19.1285 18.6405 19.6083 19.7626 20.3895 20.6628C20.5546 20.9065 20.7235 21.155 20.8886 21.4113C21.3065 22.041 21.6284 22.7294 21.8438 23.4538H23.0175V19.4538H21.0175V17.4538H27.0175V19.4538H25.0175V23.4538H26.1911C26.4065 22.7294 26.7284 22.041 27.1464 21.4113C27.3114 21.155 27.4804 20.9065 27.6454 20.6628C28.4266 19.7627 28.9065 18.6407 29.0176 17.454L29.0175 17.4538Z" />
</svg>
