<svg width="24" height="24" viewBox="0 0 24 24" xmlns="http://www.w3.org/2000/svg">
<path d="M20 9V6H18V3H6V6H4V9H2V18C1.99948 18.3941 2.07671 18.7845 2.22729 19.1487C2.37787 19.5129 2.59883 19.8438 2.87751 20.1225C3.15619 20.4012 3.48712 20.6221 3.85133 20.7727C4.21554 20.9233 4.60589 21.0005 5 21H19C19.3941 21.0005 19.7845 20.9233 20.1487 20.7727C20.5129 20.6221 20.8438 20.4012 21.1225 20.1225C21.4012 19.8438 21.6221 19.5129 21.7727 19.1487C21.9233 18.7845 22.0005 18.3941 22 18V9H20ZM8 5H16V6H8V5ZM6 8H18V9H6V8ZM20 19H4V11H20V19ZM10 13H14V15H10V13Z" />
</svg>
