<?xml version="1.0" encoding="utf-8"?>
<svg version="1.1" xmlns="http://www.w3.org/2000/svg" viewBox="0 0 24 24">
<path d="M3.7,6.3C3.1,5.7,2,6.1,2,7v10c0,0.9,1.1,1.3,1.7,0.7l5-5c0.4-0.4,0.4-1,0-1.4L3.7,6.3z M4,14.6V9.4L6.6,12L4,14.6z" />
<path d="M20.3,6.3l-5,5c-0.4,0.4-0.4,1,0,1.4l5,5c0.6,0.6,1.7,0.2,1.7-0.7V7C22,6.1,20.9,5.7,20.3,6.3z" />
<circle cx="12" cy="8" r="1" />
<circle cx="12" cy="4" r="1" />
<circle cx="12" cy="12" r="1" />
<circle cx="12" cy="16" r="1" />
<circle cx="12" cy="20" r="1" />
</svg>
