<?xml version="1.0" encoding="utf-8"?>
<svg version="1.1" xmlns="http://www.w3.org/2000/svg" viewBox="0 0 24 24">
<path d="M11.9,3c-2.2,0-4.4,0.8-6,2.3V2h-2v7h7V7H7c1.3-1.3,3-2,4.9-2c3.9,0,7,3.1,7,7c0,0.5,0.5,1,1,1s1-0.5,1-1
	C20.9,7,16.9,3,11.9,3z" />
<path d="M4.9,16c-0.5,0.3-0.5,1-0.2,1.4c0,0,0,0,0,0c0.2,0.3,0.5,0.4,0.8,0.4c0.2,0,0.4-0.1,0.6-0.2c0.5-0.3,0.5-1,0.2-1.4
	C6,15.8,5.4,15.7,4.9,16z" />
<path d="M5,13c-0.1-0.6-0.6-0.9-1.1-0.9c-0.5,0.1-0.9,0.6-0.8,1.1c0.1,0.5,0.5,0.9,1,0.9c0,0,0.1,0,0.1,0C4.7,14,5.1,13.5,5,13z" />
<path d="M9,18.4c-0.5-0.2-1.1,0-1.3,0.5c-0.2,0.5,0,1.1,0.5,1.3c0.1,0.1,0.3,0.1,0.4,0.1c0.4,0,0.8-0.2,0.9-0.6
	C9.7,19.2,9.5,18.6,9,18.4z" />
<path d="M19.4,15c-0.5-0.3-1.1-0.1-1.4,0.4c-0.3,0.5-0.1,1.1,0.4,1.4c0.1,0.1,0.3,0.1,0.5,0.1c0.4,0,0.7-0.2,0.9-0.5
	C20.1,15.8,19.9,15.2,19.4,15z" />
<path d="M15.7,17.9c-0.5,0.3-0.6,0.9-0.3,1.4c0.2,0.3,0.5,0.5,0.9,0.5c0.2,0,0.4-0.1,0.5-0.2c0.5-0.3,0.6-0.9,0.3-1.4
	C16.8,17.7,16.2,17.6,15.7,17.9z" />
<path d="M12.4,19c-0.5,0-1,0.5-0.9,1.1c0,0.5,0.5,0.9,1,0.9c0,0,0.1,0,0.1,0c0.5,0,1-0.5,0.9-1.1C13.5,19.4,13,18.9,12.4,19z" />
</svg>
