<?xml version="1.0" encoding="UTF-8"?>
<svg width="14px" height="14px" viewBox="0 0 14 14" version="1.1" xmlns="http://www.w3.org/2000/svg" xmlns:xlink="http://www.w3.org/1999/xlink">
    <!-- Generator: Sketch 52.2 (67145) - http://www.bohemiancoding.com/sketch -->
    <title>Shape</title>
    <desc>Created with Sketch.</desc>
    <g id="Symbols" stroke="none" stroke-width="1" fill="none" fill-rule="evenodd">
        <g id="Panel/-Print-settings-custom" transform="translate(-32.000000, -157.000000)" fill="#999999" fill-rule="nonzero">
            <g id="Print-settings">
                <g id="noun_Search_860389">
                    <g transform="translate(32.000000, 157.000000)">
                        <g id="Group">
                            <g id="Shape">
                                <path d="M10.2242373,9.21452652 L13.7917958,12.782085 C14.0693364,13.0596257 14.07024,13.5087044 13.7894722,13.7894722 C13.5106483,14.0682962 13.0545722,14.064283 12.782085,13.7917958 L9.21452652,10.2242373 C6.97377165,11.9681155 3.73256035,11.8102461 1.67294351,9.75062929 C-0.557647836,7.52003797 -0.557647836,3.90353485 1.67294351,1.67294351 C3.90353485,-0.557647836 7.52003797,-0.557647836 9.75062929,1.67294351 C11.8102461,3.73256035 11.9681155,6.97377165 10.2242373,9.21452652 Z M8.74091861,8.74091861 C10.4138621,7.06797507 10.4138621,4.35559774 8.74091861,2.68265423 C7.06797507,1.00971073 4.35559774,1.00971073 2.68265423,2.68265423 C1.00971073,4.35559774 1.00971073,7.06797507 2.68265423,8.74091861 C4.35559774,10.4138621 7.06797507,10.4138621 8.74091861,8.74091861 Z"></path>
                            </g>
                        </g>
                    </g>
                </g>
            </g>
        </g>
    </g>
</svg>