<svg xmlns="http://www.w3.org/2000/svg" viewBox="0 0 13 13">
    <path d="M12.96 5.778c-.021-.182-.234-.32-.419-.32-.595 0-1.124-.35-1.346-.89a1.45 1.45 0 0 1 .364-1.608.361.361 0 0 0 .04-.49 6.43 6.43 0 0 0-1.03-1.04.362.362 0 0 0-.494.04c-.388.43-1.084.589-1.621.364A1.444 1.444 0 0 1 7.576.423a.36.36 0 0 0-.32-.38A6.485 6.485 0 0 0 5.795.04a.362.362 0 0 0-.321.372 1.447 1.447 0 0 1-.89 1.387c-.532.217-1.223.06-1.61-.366a.362.362 0 0 0-.49-.041A6.46 6.46 0 0 0 1.43 2.43a.362.362 0 0 0 .04.493 1.44 1.44 0 0 1 .363 1.622c-.225.534-.78.879-1.415.879a.354.354 0 0 0-.375.319A6.51 6.51 0 0 0 .04 7.222c.02.183.24.32.426.32a1.426 1.426 0 0 1 1.338.89c.227.554.08 1.2-.364 1.608a.36.36 0 0 0-.04.49c.303.384.65.734 1.029 1.04.149.12.365.103.495-.04.389-.43 1.084-.589 1.62-.364.561.235.914.802.88 1.41a.36.36 0 0 0 .318.38 6.44 6.44 0 0 0 1.463.005.362.362 0 0 0 .322-.373 1.445 1.445 0 0 1 .889-1.386c.535-.218 1.223-.058 1.61.366.128.14.34.157.49.041a6.476 6.476 0 0 0 1.052-1.04.361.361 0 0 0-.039-.493 1.44 1.44 0 0 1-.364-1.622c.22-.527.755-.88 1.33-.88l.08.001a.362.362 0 0 0 .38-.319c.058-.488.058-.985.003-1.478zM6.51 8.682a2.17 2.17 0 0 1-2.168-2.168A2.17 2.17 0 0 1 6.51 4.346a2.17 2.17 0 0 1 2.168 2.168A2.17 2.17 0 0 1 6.51 8.682z"/>
</svg>
