<svg width="24" height="24" viewBox="0 0 24 24" xmlns="http://www.w3.org/2000/svg">
<path d="M19 3H5C4.20435 3 3.44129 3.31607 2.87868 3.87868C2.31607 4.44129 2 5.20435 2 6V9C2.00225 9.69895 2.18821 10.385 2.53924 10.9894C2.89027 11.5939 3.39402 12.0954 4 12.4437V22H20V12.4437C20.606 12.0954 21.1097 11.5939 21.4608 10.9894C21.8118 10.385 21.9977 9.69895 22 9V6C22 5.20435 21.6839 4.44129 21.1213 3.87868C20.5587 3.31607 19.7956 3 19 3ZM10 5H14V9C14 9.53043 13.7893 10.0391 13.4142 10.4142C13.0391 10.7893 12.5304 11 12 11C11.4696 11 10.9609 10.7893 10.5858 10.4142C10.2107 10.0391 10 9.53043 10 9V5ZM4 9V5H8V9C8 9.53043 7.78929 10.0391 7.41421 10.4142C7.03914 10.7893 6.53043 11 6 11C5.46957 11 4.96086 10.7893 4.58579 10.4142C4.21071 10.0391 4 9.53043 4 9ZM18 20H14V15H10V20H6V13C6.56991 12.9982 7.13276 12.8738 7.65038 12.6353C8.168 12.3968 8.62828 12.0498 9 11.6178C9.37052 12.0512 9.83056 12.3992 10.3485 12.6378C10.8663 12.8764 11.4298 13 12 13C12.5702 13 13.1337 12.8764 13.6515 12.6378C14.1694 12.3992 14.6295 12.0512 15 11.6178C15.3717 12.0498 15.832 12.3968 16.3496 12.6353C16.8672 12.8738 17.4301 12.9982 18 13V20ZM20 9C20 9.53043 19.7893 10.0391 19.4142 10.4142C19.0391 10.7893 18.5304 11 18 11C17.4696 11 16.9609 10.7893 16.5858 10.4142C16.2107 10.0391 16 9.53043 16 9V5H20V9Z" />
</svg>
