<svg id="Capa_1" data-name="Capa 1" xmlns="http://www.w3.org/2000/svg" viewBox="0 0 227.31 249.44"><defs><style>.cls-1{fill:#fff;}</style></defs><path class="cls-1" d="M227.31,249l-3.19-48.62.66-158.12L177,42.38l0-21.31a21.11,21.11,0,0,0-42.22.07l0,21.31-42.91.08,0-21.31a21.11,21.11,0,1,0-42.21.08l0,21.31L1.8,42.69,3,200.37,0,249.44Zm-75.77-74.45,0-12,10.26,0,0-12.42-10.27,0,0-11.49-12.41,0,0,11.49-50.9.1,0-11.5-12.41,0,0,11.49-10.58,0,0,12.41,10.57,0,0,12h-6l0,12.41h6l0,10.34c-4.29-.87-7.54-1.73-9.66-2.34C51.85,164,45.63,122.56,42.92,92.57l22.83,0v8.2L74,109.58l22.39,0,8.21-8.88,0-8.2,17.17,0v8.2l8.24,8.85,22.39,0,8.21-8.88,0-8.2,23.25,0c-2.6,30-8.68,71.49-22.9,102.64-2.06.61-5.2,1.46-9.35,2.33l0-10.29h5.89l0-12.42Zm-63.32.12,0-12,50.9-.09,0,12ZM139.15,187l0,12.37a198.34,198.34,0,0,1-25.6,1.68,197.9,197.9,0,0,1-25.3-1.56l0-12.4Zm-47-105.88,0,14.68L91,97.15l-11.57,0-1.23-1.33,0-14.68Zm56-.1,0,14.68L147,97.05l-11.57,0-1.23-1.33,0-14.68Zm-1-59.92a8.7,8.7,0,1,1,17.39,0l0,21.31-17.38,0Zm38.69,33.65c-.09,5.62-.34,14.1-1,24.55l-.05.59-24.2,0,0-11.35-13.34,0,0-13.8Zm-51.05.1,0,13.79-13.08,0,0,11.34-17.17,0,0-11.35-12.66,0,0-13.8ZM62,21.27a8.7,8.7,0,0,1,17.39,0l0,21.31L62,42.58ZM79.44,55l0,13.8-13.75,0,0,11.34L42,80.17l-.05-.6c-.7-10.42-1-18.91-1.09-24.54Zm-65.14.12,14.07,0C28.75,78.4,32,152.85,56.14,202.93l1.1,2.28,2.39.87c.85.3,21.19,7.46,54,7.4s53.08-7.29,53.94-7.6l2.38-.87,1.1-2.28c24-50.17,26.94-124.63,27.24-148l14.06,0-.59,146.06,2.34,35.85L13.2,237l2.23-36.29Z"/></svg>