<svg id="Capa_1" data-name="Capa 1" xmlns="http://www.w3.org/2000/svg" viewBox="0 0 321.89 283.31"><defs><style>.cls-1{fill:#fff;}</style></defs><path class="cls-1" d="M232.09,52.74V30.93a29.6,29.6,0,0,0-59.18-1h0V52.68l-24.07,0v-23h0A29.9,29.9,0,0,0,89,29.6v23l-89-.1V283.31H321.89V52.84Zm-5.74,164.54v18.24H95.29V217.28ZM95.29,205.35V194.07H226.35v11.28Zm143,11.93h11.94V205.35H238.28V194.07h11.94V182.14H238.28V167H226.35v15.14H95.29V167H83.36v15.14H71.42v11.93H83.36v11.28H71.42v11.93H83.36v18.24H68L59.41,220,49.3,109.86H74v7.38l8.25,16.49h26.09l8.25-16.49v-7.38H205.3v7.38l8.25,16.49h26.09l8.24-16.5v-7.37H272.6L262.48,220l-8.57,15.51H238.28ZM236,97.92v16.5l-3.69,7.38H220.92l-3.69-7.38V97.92ZM205.3,86V97.93H116.59V86H100.91V64.15l119.25.13V86ZM104.66,97.92v16.5L101,121.8H89.62l-3.69-7.38V97.92ZM276.79,64.34,273.7,97.93H247.88V86H232.09V64.29Zm-92-33.41a17.68,17.68,0,0,1,35.35,0v21.8l-35.35,0Zm-83.9-1.33a18,18,0,0,1,35.93,0h0v23l-35.89,0ZM89,86H74V97.93H48.21L45.1,64.09l43.88,0ZM310.34,271.77H11.54V64.05l21.58,0L47.76,223.59l13.17,23.86H261l13.18-23.86L288.76,64.35l21.58,0Z"/></svg>