<?xml version="1.0" encoding="UTF-8"?>
<svg width="78px" height="53px" viewBox="0 0 78 53" version="1.1" xmlns="http://www.w3.org/2000/svg" xmlns:xlink="http://www.w3.org/1999/xlink">
    <!-- Generator: Sketch 52.6 (67491) - http://www.bohemiancoding.com/sketch -->
    <title>Group-cloud Copy</title>
    <desc>Created with Sketch.</desc>
    <g id="Sign-in-/Message-restyle" stroke="none" stroke-width="1" fill="none" fill-rule="evenodd">
        <g id="Artboard" transform="translate(-162.000000, -16.000000)">
            <g id="Group-cloud-Copy" transform="translate(162.000000, 16.000000)">
                <path d="M71.6139989,39.7264219 C71.5196898,37.5579439 70.9711289,35.5059663 70.0601048,33.6613194 L71.6937566,33.6613194 C72.8434847,33.6613194 73.787904,32.731337 73.787904,31.5991845 L73.8289659,31.5991845 L73.8289659,6.57052798 C73.8289659,6.1257538 73.4594104,5.80228166 73.0487931,5.80228166 L58.158788,5.80228166 L58.158788,25.1687374 C57.4862997,25.0807183 56.800231,25.0352941 56.103441,25.0352941 C55.374501,25.0352941 54.6572944,25.0850068 53.9550947,25.1811929 L53.9550947,5.80228166 L53.8935021,5.80228166 L53.8935021,4.68260671 C53.7612249,4.35507342 53.4329996,4.13943248 53.0774006,4.13943248 L24.4830482,4.13943248 C23.9749094,4.13943248 23.605354,4.54882691 23.605354,5.0037096 L23.605354,33.1609482 C23.605354,34.4346197 24.6678259,35.4808499 25.9612699,35.4808499 L41.3906551,35.4808499 C40.8638727,37.0247578 40.5782993,38.67857 40.5782993,40.3983852 C40.5782993,41.0436856 40.6185041,41.6796936 40.6965701,42.3040902 L25.2683535,42.3040902 C24.7602147,42.3495785 24.252076,42.5315316 23.8825205,42.8499495 L23.605354,43.122879 C23.3281874,43.5777618 22.7738542,43.6687383 22.219521,43.6687383 L19.7250218,43.6687383 C19.5864385,43.6687383 19.4478552,43.5322734 19.4478552,43.3958088 L19.4478552,39.7264219 L5.21483793,39.7264219 C4.76315904,39.7668558 4.31148018,39.928592 3.98298644,40.2116301 L3.73661615,40.4542343 C3.49024586,40.8585745 2.99750527,40.9394424 2.50476467,40.9394424 L0.287432013,40.9394424 C0.164246864,40.9394424 0.0410617159,40.8181403 0.0410617159,40.6968382 L0.0410617159,2.5675603 C0.0410617159,2.44625825 0.164246864,2.3249562 0.287432013,2.3249562 L19.4478552,2.3249562 L19.4478552,0.50037096 C19.4478552,0.363906153 19.5864385,0.227441345 19.7250218,0.227441345 L57.8816214,0.227441345 C58.0202046,0.227441345 58.158788,0.363906153 58.158788,0.50037096 L58.158788,2.3249562 L77.3192117,2.3249562 C77.4423969,2.3249562 77.565582,2.44625825 77.565582,2.5675603 L77.565582,40.6968382 C77.565582,40.8181403 77.4423969,40.9394424 77.3192117,40.9394424 L75.101879,40.9394424 C74.6502001,40.8990083 74.1985212,40.7372724 73.8700276,40.4542343 L73.6236573,40.2116301 C73.377287,39.8072899 72.8845464,39.7264219 72.3918058,39.7264219 L71.6139989,39.7264219 Z M19.4478552,5.80228166 L4.51678875,5.80228166 C4.06510989,5.80228166 3.73661615,6.16618781 3.73661615,6.57052798 L3.73661615,31.5991845 C3.73661615,32.731337 4.68103562,33.6613194 5.83076366,33.6613194 L19.4478552,33.6613194 L19.4478552,5.80228166 Z" id="Combined-Shape" fill="#E5E5E5" fill-rule="nonzero"></path>
                <g id="Group" transform="translate(43.578299, 28.035294)" fill="#3282FF">
                    <path d="M12.5251415,24.7888094 C5.60769686,24.7888094 1.77635684e-14,19.2396454 1.77635684e-14,12.3944047 C1.77635684e-14,5.54916401 5.60769686,-4.26325641e-14 12.5251415,-4.26325641e-14 C19.4425861,-4.26325641e-14 25.050283,5.54916401 25.050283,12.3944047 C25.050283,19.2396454 19.4425861,24.7888094 12.5251415,24.7888094 Z M17.9438152,10.4266859 C17.7896596,9.07601357 16.6334927,8.04314651 15.2460924,8.04314651 C14.8607034,8.04314651 14.5523922,8.12259783 14.244081,8.28150044 C13.5503809,7.16918208 12.3171362,6.45412027 11.0068137,6.45412027 C8.84863548,6.45412027 7.15292402,8.20204914 7.15292402,10.4266859 C7.15292402,10.4266859 7.15292402,10.4266859 7.15292402,10.5061372 C5.84260152,10.6650398 4.8405902,11.8568095 4.8405902,13.2074818 C4.8405902,14.7170567 6.0738349,15.9882777 7.53831299,15.9882777 C8.69447989,15.9882777 16.1710259,15.9882777 17.5584262,15.9882777 C19.0229043,15.9882777 20.256149,14.7170567 20.256149,13.2074818 C20.256149,11.7773582 19.2541376,10.6650398 17.9438152,10.4266859 Z" id="Combined-Shape"></path>
                </g>
            </g>
        </g>
    </g>
</svg>