<svg id="Capa_1" data-name="Capa 1" xmlns="http://www.w3.org/2000/svg" viewBox="0 0 1000 1000"><defs><style>.cls-1{fill:none;stroke:#fff;stroke-miterlimit:10;stroke-width:40.8px;}.cls-2{fill:#fff;}</style></defs><polygon class="cls-1" points="275.78 214.28 724.84 214.28 643.19 377.58 765.66 785.81 234.96 785.81 357.43 377.58 275.78 214.28"/><path class="cls-2" d="M549.3,612.07v31.4h-109v-24.8l52.4-49q7.6-7.2,10.2-12.3a22.38,22.38,0,0,0,2.6-10.3q0-6.8-4.6-10.6t-13.4-3.8a29.73,29.73,0,0,0-14.3,3.5,28.71,28.71,0,0,0-10.7,10.1l-29.4-16.4a57.57,57.57,0,0,1,23-21.4q14.81-7.8,35-7.8,16,0,28.3,5.2a43.83,43.83,0,0,1,19.2,14.9,37.83,37.83,0,0,1,6.9,22.5,48.57,48.57,0,0,1-4.9,21.5q-4.89,10.1-18.9,22.9l-26.4,24.4Z"/></svg>