<svg id="Capa_1" data-name="Capa 1" xmlns="http://www.w3.org/2000/svg" viewBox="0 0 30 30"><defs><style>.cls-1{fill:#1d1d1b;}</style></defs><path d="M27.28,27.84,21.91,9.94,25.8,2.16H4.2L8.09,9.94,2.72,27.84ZM14.68,12.68A5.49,5.49,0,1,1,9.2,18.16,5.48,5.48,0,0,1,14.68,12.68Z"/><path class="cls-1" d="M13.86,16.66a1.24,1.24,0,0,1,.6-.15.86.86,0,0,1,.57.16.57.57,0,0,1,.19.44,1,1,0,0,1-.11.44,2.13,2.13,0,0,1-.43.51l-2.2,2.06v1h4.58V19.84H14.79l1.11-1a3.59,3.59,0,0,0,.79-1A2.06,2.06,0,0,0,16.9,17a1.61,1.61,0,0,0-.29-.94,1.82,1.82,0,0,0-.81-.62,2.94,2.94,0,0,0-1.19-.22,3.06,3.06,0,0,0-1.46.33,2.32,2.32,0,0,0-1,.89l1.24.69A1.18,1.18,0,0,1,13.86,16.66Z"/></svg>