<?xml version="1.0" encoding="utf-8"?>
<svg version="1.1" xmlns="http://www.w3.org/2000/svg" viewBox="0 0 24 24">
<path d="M17.8,5c-0.4-1.2-1.5-2-2.8-2s-2.4,0.8-2.8,2H3v2h9.2c0.4,1.2,1.5,2,2.8,2s2.4-0.8,2.8-2H21V5H17.8z
	 M15,7c-0.6,0-1-0.4-1-1s0.4-1,1-1s1,0.4,1,1S15.6,7,15,7z M9,9c-1.3,0-2.4,0.8-2.8,2H3v2h3.2c0.4,1.2,1.5,2,2.8,2s2.4-0.8,2.8-2H21
	v-2h-9.2C11.4,9.8,10.3,9,9,9z M9,13c-0.6,0-1-0.4-1-1s0.4-1,1-1s1,0.4,1,1S9.6,13,9,13z M15,15c-1.3,0-2.4,0.8-2.8,2H3v2h9.2
	c0.4,1.2,1.5,2,2.8,2s2.4-0.8,2.8-2H21v-2h-3.2C17.4,15.8,16.3,15,15,15z M15,19c-0.6,0-1-0.4-1-1s0.4-1,1-1s1,0.4,1,1
	S15.6,19,15,19z" />
</svg>
