<?xml version="1.0" encoding="utf-8"?>
<svg version="1.1" xmlns="http://www.w3.org/2000/svg" viewBox="0 0 24 24">
<path d="M12,3.4l6,6l-6,6l-6-6L12,3.4 M5.3,7.3c-1.2,1.2-1.2,3.1,0,4.2l4.6,4.6c1.2,1.2,3.1,1.2,4.2,0l4.6-4.6
	c1.2-1.2,1.2-3.1,0-4.2l-4.6-4.6c-1.2-1.2-3.1-1.2-4.2,0L5.3,7.3z" />
<polygon points="20.4,18 22,19.6 20.6,21 19,19.4 17.4,21 16,19.6 17.6,18 16,16.4 17.4,15 19,16.6 20.6,15 22,16.4" />
<polygon points="3,11.8 3,21 5,21 5,13.8" />
<path d="M13,18.7V21h-2v-2.3c0.3,0.1,0.7,0.1,1,0.1S12.7,18.8,13,18.7z" />
<path d="M8.6,17.4c0.1,0.1,0.3,0.3,0.4,0.4V21H7v-5.2L8.6,17.4z" />
</svg>
