<?xml version="1.0" encoding="UTF-8"?>
<svg width="16px" height="16px" viewBox="0 0 16 16" version="1.1" xmlns="http://www.w3.org/2000/svg" xmlns:xlink="http://www.w3.org/1999/xlink">
    <!-- Generator: Sketch 63.1 (92452) - https://sketch.com -->
    <title>warning</title>
    <desc>Created with Sketch.</desc>
    <g id="warning" stroke="none" stroke-width="1" fill="none" fill-rule="evenodd">
        <g id="Warning" transform="translate(0.000000, 1.000000)" fill="#000000" fill-rule="nonzero">
            <path d="M15.2727273,11.6363636 L9.23636364,0.8 C9.00246505,0.33139139 8.52373903,0.0352931909 8,0.0352931909 C7.47626097,0.0352931909 6.99753495,0.33139139 6.76363636,0.8 L0.727272727,11.6363636 C0.433127714,12.0765996 0.433127714,12.6506731 0.727272727,13.0909091 C0.97144313,13.5450025 1.44810945,13.8253945 1.96363636,13.8183177 L14.0363636,13.8183177 C14.5518905,13.8253945 15.0285569,13.5450025 15.2727273,13.0909091 C15.5668723,12.6506731 15.5668723,12.0765996 15.2727273,11.6363636 L15.2727273,11.6363636 Z M1.96363636,12.3636364 L8,1.52727273 L14.0363636,12.3636364 L1.96363636,12.3636364 Z" id="Shape"></path>
            <rect id="Rectangle" x="7.27272727" y="4.36363636" width="1.45454545" height="4.36363636"></rect>
            <rect id="Rectangle" x="7.27272727" y="10.1818182" width="1.45454545" height="1.45454545"></rect>
        </g>
    </g>
</svg>