<svg width="48" height="48" viewBox="0 0 48 48" xmlns="http://www.w3.org/2000/svg">
<path d="M24 44C20.0444 44 16.1776 42.827 12.8886 40.6294C9.59961 38.4318 7.03616 35.3082 5.5224 31.6537C4.00865 27.9992 3.61258 23.9778 4.38429 20.0982C5.15599 16.2186 7.06081 12.6549 9.85786 9.85787C12.6549 7.06082 16.2186 5.15601 20.0982 4.3843C23.9778 3.6126 27.9991 4.00867 31.6537 5.52242C35.3082 7.03617 38.4318 9.59962 40.6294 12.8886C42.827 16.1776 44 20.0444 44 24C43.994 29.3025 41.885 34.3861 38.1355 38.1355C34.3861 41.885 29.3025 43.994 24 44ZM24 6.00001C20.4399 6.00001 16.9598 7.05569 13.9997 9.03356C11.0396 11.0114 8.73254 13.8226 7.37016 17.1117C6.00778 20.4008 5.65132 24.02 6.34586 27.5116C7.04039 31.0033 8.75473 34.2106 11.2721 36.7279C13.7894 39.2453 16.9967 40.9596 20.4884 41.6541C23.98 42.3487 27.5992 41.9922 30.8883 40.6298C34.1774 39.2675 36.9886 36.9604 38.9664 34.0003C40.9443 31.0402 42 27.5601 42 24C41.9945 19.2278 40.0964 14.6526 36.7219 11.2781C33.3474 7.90364 28.7722 6.00546 24 6.00001ZM27.9785 26.9C29.9229 25.8647 32 23.2461 32 19.0044C31.9554 16.8303 31.1249 14.7458 29.6621 13.1367C28.9093 12.4166 28.018 11.8571 27.0423 11.4921C26.0666 11.1272 25.0269 10.9644 23.9863 11.0137C22.9464 10.9639 21.9073 11.1267 20.9325 11.4919C19.9576 11.8572 19.0674 12.4174 18.3163 13.1382C16.859 14.75 16.036 16.8357 16 19.0083L18 18.9946C18.0422 17.3494 18.6608 15.7712 19.748 14.5356C20.3156 14.0097 20.9836 13.6038 21.7119 13.3423C22.4402 13.0808 23.2138 12.969 23.9863 13.0137C29.92 13.0137 30 18.7544 30 19C30 22.36 28.4707 24.3721 27.042 25.1328C25.0879 26.1641 23 28.772 23 33H25C25 29.6611 26.5371 27.6606 27.9785 26.9ZM25 35H23V37H25V35Z" />
</svg>
