<svg width="48" height="48" viewBox="0 0 48 48" xmlns="http://www.w3.org/2000/svg">
<path d="M39,14 V8 H27 V14 H21 V8 H9 V14 H7 C6.20435,14 5.44129 14.3161 4.87868,14.8787 C4.31607,15.4413 4 16.2044 4,17V37 C4,37.7956 4.31607 38.5587 4.87868,39.1213 C5.44129,39.6839 6.20435 40 7,40 H41 C41.7957,40 42.5587 39.6839 43.1213,39.1213 C43.6839,38.5587 44 37.7956 44,37V17 C44,16.2044 43.6839 15.4413 43.1213,14.8787 C42.5587,14.3161 41.7957 14 41,14 H39 Z M29,10 H37 V14 H29 V10 Z M11,10 H19 V14 H11 V10 Z M42,38 H6 V16 H42 V38 Z"/>
</svg>
