<svg width="48" height="48" viewBox="0 0 48 48" xmlns="http://www.w3.org/2000/svg">
<path d="M31 21H10V19H31V21ZM22 25H10V27H22V25ZM14 4H41C41.7957 4 42.5587 4.31607 43.1213 4.87868C43.6839 5.44129 44 6.20435 44 7V24C44 24.7956 43.6839 25.5587 43.1213 26.1213C42.5587 26.6839 41.7957 27 41 27H37V33C37 33.5304 36.7893 34.0391 36.4142 34.4142C36.0391 34.7893 35.5304 35 35 35H21.4141L12 44.4141V35H7C6.20435 35 5.44129 34.6839 4.87868 34.1213C4.31607 33.5587 4 32.7956 4 32V15C4 14.2044 4.31607 13.4413 4.87868 12.8787C5.44129 12.3161 6.20435 12 7 12H11V7C11 6.20435 11.3161 5.44129 11.8787 4.87868C12.4413 4.31607 13.2044 4 14 4ZM35 14H6V33H14V39.5859L20.5859 33H35V14ZM42 6H13V12H34C34.7956 12 35.5587 12.3161 36.1213 12.8787C36.6839 13.4413 37 14.2044 37 15V25H42V6Z" />
</svg>
