<svg id="Capa_1" data-name="Capa 1" xmlns="http://www.w3.org/2000/svg" viewBox="0 0 325.49 311.02"><defs><style>.cls-1{fill:#fff;}</style></defs><path class="cls-1" d="M0,0V311H325.49V.38ZM277.28,207.69V227l-21.49,35.6H240.86V248h12.06v-12H240.86V223.87h12.06V211.82H240.86V192.5H228.81v19.32H96.44V192.5h-12v19.32H72.33v12.05H84.39v12.06H72.33v12H84.39v14.57h-14L48.22,207.14V132.08H74.94v7.45l8.33,16.66h26.35L118,139.53v-7.45h89.6v7.45l8.33,16.66h26.35l8.33-16.66v-7.45h26.72v27.4h-6v48.21ZM228.81,248v14.57H96.44V248Zm-132.37-12V223.87H228.81v12.06ZM277.28,120H250.56V108h-16V81.4h0a29.9,29.9,0,0,0-59.77,1.12V120H150.49V82.52h-.07a30.2,30.2,0,0,0-60.32,0h0V108H74.94v12H48.22V48.47H277.28Zm-69.73-12v12H186.86V82.52a17.85,17.85,0,0,1,35.7,0V108Zm12,12h18.91v16.67l-3.73,7.45H223.32l-3.72-7.45ZM102.12,108V83.86a18.14,18.14,0,0,1,36.25-.72V120H118V108Zm3.78,12v16.67l-3.73,7.45H90.71L87,136.69V120Zm171.38-83.6H48.22V12.1l229.06.27ZM313.45,299H12.05V12.06l24.12,0V209.46L62.22,274.6H262.59l26.74-44.3V207.69h6V159.48h-6V12.38l24.12,0Z"/></svg>