<?xml version="1.0" encoding="UTF-8"?>
<svg width="32px" height="32px" viewBox="0 0 32 32" version="1.1" xmlns="http://www.w3.org/2000/svg" xmlns:xlink="http://www.w3.org/1999/xlink">
    <!-- Generator: Sketch 52.2 (67145) - http://www.bohemiancoding.com/sketch -->
    <title>Icon/ group printer/ disconnected</title>
    <desc>Created with Sketch.</desc>
    <g id="Icon/-group-printer/-disconnected" stroke="none" stroke-width="1" fill="none" fill-rule="evenodd">
        <g id="Icon/-group-printer/-connected" transform="translate(0.000000, 6.000000)">
            <g id="printer-group">
                <path d="M8,16.9319728 L2.15026455,16.9319728 C1.96402116,16.9492063 1.77777778,17.0181406 1.64232804,17.1387755 L1.54074074,17.2421769 C1.43915344,17.4145125 1.23597884,17.4489796 1.03280423,17.4489796 L0.118518519,17.4489796 C0.0677248677,17.4489796 0.0169312169,17.3972789 0.0169312169,17.3455782 L0.0169312169,1.09433107 C0.0169312169,1.04263039 0.0677248677,0.990929705 0.118518519,0.990929705 L8,0.990929705 L8,2.47301587 L1.86243386,2.47301587 C1.67619048,2.47301587 1.54074074,2.62811791 1.54074074,2.80045351 L1.54074074,13.4680272 C1.54074074,13.9505669 1.93015873,14.3469388 2.4042328,14.3469388 L8,14.3469388 L8,16.9319728 Z" id="Combined-Shape" fill="#08073F" fill-rule="nonzero"></path>
                <g id="UM3" transform="translate(23.777778, 0.904762)"></g>
                <path d="M24,0.990929705 L31.8814815,0.990929705 C31.9322751,0.990929705 31.9830688,1.04263039 31.9830688,1.09433107 L31.9830688,17.3455782 C31.9830688,17.3972789 31.9322751,17.4489796 31.8814815,17.4489796 L30.9671958,17.4489796 C30.7809524,17.431746 30.594709,17.3628118 30.4592593,17.2421769 L30.357672,17.1387755 C30.2560847,16.9664399 30.0529101,16.9319728 29.8497354,16.9319728 L24,16.9319728 L24,14.3469388 L29.5619048,14.3469388 C30.0359788,14.3469388 30.4253968,13.9505669 30.4253968,13.4680272 L30.442328,13.4680272 L30.442328,2.80045351 C30.442328,2.61088435 30.2899471,2.47301587 30.1206349,2.47301587 L24,2.47301587 L24,0.990929705 Z" id="Combined-Shape" fill="#08073F" fill-rule="nonzero"></path>
                <g id="Group-Copy-2" transform="translate(8.000000, 0.000000)" fill="#08073F" fill-rule="nonzero">
                    <g id="UM3" transform="translate(0.000000, 0.000000)">
                        <path d="M15.8666667,0.0969387755 L0.133333333,0.0969387755 C0.0761904762,0.0969387755 0.019047619,0.155102041 0.019047619,0.213265306 L0.019047619,18.4959184 C0.019047619,18.5540816 0.0761904762,18.6122449 0.133333333,18.6122449 L1.16190476,18.6122449 C1.39047619,18.6122449 1.61904762,18.5734694 1.73333333,18.3795918 L1.84761905,18.2632653 C2,18.127551 2.20952381,18.05 2.41904762,18.0306122 L13.5809524,18.0306122 C13.8095238,18.0306122 14.0380952,18.0693878 14.152381,18.2632653 L14.2666667,18.3795918 C14.4190476,18.5153061 14.6285714,18.5928571 14.8380952,18.6122449 L15.8666667,18.6122449 C15.9238095,18.6122449 15.9809524,18.5540816 15.9809524,18.4959184 L15.9809524,0.213265306 C15.9809524,0.155102041 15.9238095,0.0969387755 15.8666667,0.0969387755 Z M14.2285714,14.1336735 C14.2285714,14.6765306 13.7904762,15.122449 13.2571429,15.122449 L2.7047619,15.122449 C2.17142857,15.122449 1.73333333,14.6765306 1.73333333,14.1336735 L1.73333333,2.13265306 C1.73333333,1.93877551 1.88571429,1.76428571 2.0952381,1.76428571 L13.8857143,1.76428571 C14.0761905,1.76428571 14.247619,1.91938776 14.247619,2.13265306 L14.247619,14.1336735 L14.2285714,14.1336735 Z" id="Shape"></path>
                    </g>
                </g>
            </g>
        </g>
    </g>
</svg>