<svg id="Capa_1" data-name="Capa 1" xmlns="http://www.w3.org/2000/svg" viewBox="0 0 317.93 249.37"><defs><style>.cls-1{fill:#fff;}</style></defs><path class="cls-1" d="M317.93,249.37l-3.11-48.67.94-158.25H267.9V21.12a21.13,21.13,0,0,0-42.25,0V42.45H92.27V21.12a21.12,21.12,0,1,0-42.24,0V42.45H2.17l1,157.81L0,249.37ZM229.8,174.72H88.43v-12H229.8Zm0,12.42v10.23c-64.47,7.59-114,4.16-141.37.66V187.14Zm12.42-12.42v-12H252.5V150.32H242.22v-11.5H229.8v11.5H88.43v-11.5H76v11.5H65.43v12.42H76v12H70v12.42h6v9.09c-3.76-.62-6.67-1.16-8.61-1.56C52.21,158.75,45.74,120.18,43,92.44H66.08v8.21l8.23,8.87H96.72l8.23-8.87V92.44h107.6v8.21l8.23,8.87h22.41l8.23-8.87V92.44h23.66c-4.87,56.19-19,92-23.34,102-3.2.48-6.38.94-9.52,1.36v-8.66h5.89V174.72Zm-4.15-106V54.87h38.67c-.1,5.62-.37,14.11-1.05,24.57l-.05.59H251.42V68.68ZM239,81.09V95.78l-1.23,1.33H226.2L225,95.78V81.09ZM225.65,68.68h-13.1V80H105V68.68H92.27V54.87H225.65ZM42.24,79.44c-.68-10.44-1-18.94-1.05-24.57H79.85V68.68H66.08V80H42.29ZM78.5,81.09h14V95.78l-1.23,1.33H79.73L78.5,95.78Zm159.57-60a8.71,8.71,0,0,1,17.41,0V42.45H238.07Zm-175.62,0a8.7,8.7,0,1,1,17.4,0V42.45H62.45ZM14.66,54.87h14c-.12,12.17.51,83.39,28.67,147.69l1.23,2.82,3,.72c2.06.5,35.39,8.36,91.72,8.36a678.63,678.63,0,0,0,103.72-8.25l3.15-.49,1.44-2.85c1.12-2.23,27.34-55.32,27.63-148h14.1l-.85,146.18,2.27,35.9H13.24l2.29-36.33Z"/></svg>