<svg width="215" height="264" viewBox="0 0 215 264" fill="none" xmlns="http://www.w3.org/2000/svg">
<path d="M48.0901 70.97C48.0901 70.97 78.3101 -1.23003 96.0901 2.32997C113.87 5.88997 105.63 69.83 105.63 69.83" stroke="#061884" stroke-width="4" stroke-linecap="round"/>
<path d="M166.95 80.97C166.95 80.97 136.73 8.76997 118.95 12.33C101.17 15.89 109.41 79.83 109.41 79.83" stroke="#061884" stroke-width="4" stroke-linecap="round"/>
<path d="M186.32 262.83L186.03 262.55C185.98 262.5 180.54 257.55 170.93 257.55H43.9501C39.0813 257.517 34.3749 259.299 30.7501 262.55L30.4601 262.85H22.4601C20.1759 262.844 18.3256 260.994 18.3201 258.71V74.11C18.3256 71.8258 20.1759 69.9755 22.4601 69.97H192.63C194.917 69.97 196.77 71.8235 196.77 74.11V258.69C196.77 260.976 194.917 262.83 192.63 262.83H186.32Z" fill="#F3F8FE"/>
<path d="M22.39 68.97H192.63H192.65C195.489 68.97 197.79 71.2712 197.79 74.11V258.69C197.79 261.529 195.489 263.83 192.65 263.83H185.94L185.36 263.28C185.31 263.23 180.21 258.53 170.95 258.53H43.95C39.3441 258.485 34.8857 260.153 31.44 263.21L30.85 263.83H22.39C19.5535 263.824 17.2555 261.526 17.25 258.69V74.11C17.2555 71.2735 19.5535 68.9755 22.39 68.97ZM195.77 74.11C195.77 72.3758 194.364 70.97 192.63 70.97H22.39C20.6581 70.9755 19.2555 72.3781 19.25 74.11V258.69C19.2555 260.422 20.6581 261.824 22.39 261.83H30.04C33.8378 258.365 38.8093 256.471 43.95 256.53H170.93C181.09 256.53 186.72 261.83 186.72 261.83H192.63C194.364 261.83 195.77 260.424 195.77 258.69V74.11Z" fill="#061884"/>
<path d="M42.2601 230.82C35.8117 230.815 30.5856 225.588 30.5801 219.14V91.28C30.5801 90.1755 31.4755 89.28 32.5801 89.28H182.46C183.565 89.28 184.46 90.1755 184.46 91.28V219.14C184.455 225.588 179.228 230.815 172.78 230.82H42.2601Z" fill="white"/>
<path d="M32.5701 88.28H182.43C184.087 88.28 185.43 89.6232 185.43 91.28V219.14C185.43 226.143 179.753 231.82 172.75 231.82H42.2501C35.2471 231.82 29.5701 226.143 29.5701 219.14V91.28C29.5701 89.6232 30.9132 88.28 32.5701 88.28ZM183.46 91.3C183.46 90.7477 183.012 90.3 182.46 90.3V90.28H32.5801C32.0278 90.28 31.5801 90.7277 31.5801 91.28V219.14C31.5856 225.036 36.364 229.815 42.2601 229.82H172.78C178.676 229.815 183.455 225.036 183.46 219.14V91.3Z" fill="#F3F8FE"/>
<path d="M32.5701 86.28H182.43C185.191 86.28 187.43 88.5186 187.43 91.28V219.14C187.419 227.243 180.853 233.809 172.75 233.82H42.2501C34.1471 233.809 27.5811 227.243 27.5701 219.14V91.28C27.5701 88.5186 29.8086 86.28 32.5701 86.28ZM185.46 91.3C185.46 89.6432 184.117 88.3 182.46 88.3V88.28H32.5801C30.9232 88.28 29.5801 89.6232 29.5801 91.28V219.14C29.5801 226.143 35.2571 231.82 42.2601 231.82H172.78C179.783 231.82 185.46 226.143 185.46 219.14V91.3Z" fill="#061884"/>
<path d="M124.83 171.85H89.4801L71.8101 202.46L89.4801 233.07H124.83L142.51 202.46L124.83 171.85Z" fill="#DDE9FD"/>
<circle cx="181.23" cy="238.99" r="1.65" fill="#061884"/>
<circle cx="33.37" cy="238.99" r="1.65" fill="#061884"/>
<circle cx="181.3" cy="74.43" r="1.65" fill="#061884"/>
<circle cx="133.35" cy="74.43" r="1.65" fill="#061884"/>
<circle cx="82.7401" cy="74.43" r="1.65" fill="#061884"/>
<circle cx="33.44" cy="74.43" r="1.65" fill="#061884"/>
<rect x="54.3301" y="242.91" width="7.01" height="2.47" fill="#061884"/>
<rect x="82.3101" y="225.41" width="50.41" height="26.44" rx="2.33" fill="white"/>
<path d="M84.6401 224.41H130.38C132.221 224.41 133.715 225.899 133.72 227.74V249.51C133.715 251.351 132.221 252.84 130.38 252.84H84.6401C82.801 252.84 81.3101 251.349 81.3101 249.51V227.74C81.3101 226.857 81.6609 226.01 82.2854 225.385C82.9099 224.761 83.7569 224.41 84.6401 224.41ZM131.72 227.74C131.715 227.004 131.116 226.41 130.38 226.41H84.6401C83.9055 226.41 83.3101 227.005 83.3101 227.74V249.51C83.3074 249.864 83.4466 250.203 83.6966 250.453C83.9466 250.703 84.2865 250.843 84.6401 250.84H130.38C130.735 250.843 131.075 250.704 131.327 250.454C131.579 250.204 131.72 249.865 131.72 249.51V227.74Z" fill="#061884"/>
<path d="M84.6399 226.41H130.38C131.116 226.41 131.714 227.004 131.72 227.74V249.51C131.72 249.865 131.578 250.204 131.327 250.454C131.075 250.704 130.734 250.843 130.38 250.84H84.6399C84.2863 250.843 83.9464 250.703 83.6964 250.453C83.4464 250.203 83.3072 249.864 83.3099 249.51V227.74C83.3099 227.387 83.45 227.049 83.6994 226.8C83.9488 226.55 84.2871 226.41 84.6399 226.41ZM129.72 248.84V228.41H85.3099V248.84H129.72Z" fill="#C5DBFB"/>
<path d="M1.94995 262.83H213.07" stroke="#061884" stroke-width="2" stroke-linecap="round"/>
<path d="M96.6501 110.48C95.0887 110.479 93.6977 109.493 93.1801 108.02L88.8101 96.02C88.6586 95.6102 88.5808 95.1768 88.5801 94.74V90.2H126.45V94.95C126.448 95.3835 126.371 95.8134 126.22 96.22L121.82 108.1C121.294 109.552 119.915 110.52 118.37 110.52L96.6501 110.48Z" fill="white"/>
<path d="M87.5801 89.2H127.42V91.22V94.97C127.419 95.5227 127.321 96.071 127.13 96.59L122.73 108.45C122.064 110.302 120.308 111.538 118.34 111.54H96.6501C94.672 111.542 92.908 110.295 92.2501 108.43L87.8701 96.43C87.6787 95.9113 87.5805 95.3628 87.5801 94.81V89.2ZM125.44 94.95V91.2H89.5801V94.8C89.5813 95.1208 89.6388 95.439 89.7501 95.74L94.1201 107.74C94.5004 108.811 95.5132 109.528 96.6501 109.53H118.36C119.487 109.531 120.493 108.822 120.87 107.76L125.27 95.88C125.381 95.5824 125.439 95.2676 125.44 94.95Z" fill="#061884"/>
<path d="M100.33 112.36C99.7409 112.361 99.1776 112.119 98.7726 111.691C98.3677 111.264 98.1569 110.688 98.1899 110.1L99.0199 96.2C99.1084 95.1623 99.9784 94.3662 101.02 94.37H114.11C115.12 94.3945 115.943 95.1908 116 96.2L116.83 110.11C116.859 110.696 116.649 111.27 116.25 111.7C115.845 112.13 115.28 112.373 114.69 112.37L100.33 112.36Z" fill="white"/>
<path d="M100.95 93.4099H113.99C115.538 93.4363 116.812 94.6363 116.93 96.1799L117.76 110.09C117.813 110.954 117.505 111.802 116.91 112.431C116.315 113.06 115.486 113.414 114.62 113.41H100.26C99.3959 113.412 98.5696 113.056 97.9768 112.427C97.3841 111.798 97.0776 110.952 97.13 110.09L97.95 96.1799C98.0705 94.6135 99.379 93.4053 100.95 93.4099ZM115.06 96.2499C115.004 95.741 114.572 95.3568 114.06 95.3599L114.11 95.4099H101.02C100.769 95.3935 100.522 95.4785 100.334 95.6458C100.146 95.813 100.033 96.0487 100.02 96.2999L99.19 110.2C99.1847 110.506 99.3024 110.801 99.5168 111.019C99.7312 111.237 100.024 111.36 100.33 111.36H114.74C115.055 111.361 115.356 111.231 115.572 111.002C115.788 110.772 115.899 110.464 115.88 110.15L115.06 96.2499Z" fill="#061884"/>
<path d="M86.9501 94.86C84.1334 94.86 81.8501 92.5767 81.8501 89.76C81.8501 86.9434 84.1334 84.66 86.9501 84.66H128.16C130.977 84.66 133.26 86.9434 133.26 89.76C133.26 92.5767 130.977 94.86 128.16 94.86H86.9501Z" fill="white"/>
<path d="M86.9501 83.66H128.16C131.529 83.66 134.26 86.3911 134.26 89.76C134.26 93.129 131.529 95.86 128.16 95.86H86.9501C83.5812 95.86 80.8501 93.129 80.8501 89.76C80.8501 86.3911 83.5812 83.66 86.9501 83.66ZM132.22 89.76C132.22 87.4957 130.384 85.66 128.12 85.66H86.9501C84.6857 85.66 82.8501 87.4957 82.8501 89.76C82.8501 92.0244 84.6857 93.86 86.9501 93.86H128.12C130.384 93.86 132.22 92.0244 132.22 89.76Z" fill="#061884"/>
</svg>
