<svg xmlns="http://www.w3.org/2000/svg" xmlns:xlink="http://www.w3.org/1999/xlink" viewBox="0 0 300 300"><line x1="1" y1="262.9992" x2="247" y2="262.9992" style="fill:none;stroke:#061884;stroke-linecap:round;stroke-miterlimit:10;stroke-width:2px"/><path d="M44.185,73.0035c6.71-16.4124,31.53-74.21,47.02-70.864,15.78,3.3964,11.36,57.3984,10.01,70.864" style="fill:none;stroke:#061884;stroke-linecap:round;stroke-miterlimit:10;stroke-width:4px"/><path d="M103.525,73.0035c-1.39-20.6379-1.97-57.1387,10.91-59.9157,12.95-2.797,32.43,37.15,42.38,59.9157" style="fill:none;stroke:#061884;stroke-linecap:round;stroke-miterlimit:10;stroke-width:4px"/><path d="M150,256c10.3947,0,19.3619,3.1155,23.5245,6.1707a4.1113,4.1113,0,0,0,2.427.8293H189a4,4,0,0,0,4-4V77a4,4,0,0,0-4-4H13a4,4,0,0,0-4,4V259a4,4,0,0,0,4,4H26.0487a4.1113,4.1113,0,0,0,2.427-.8293C32.6383,259.1155,41.6054,256,52,256Z" style="fill:#f3f8fe;stroke:#061884;stroke-miterlimit:10;stroke-width:2px"/><circle cx="23" cy="237.9995" r="2" style="fill:#061884"/><circle cx="179" cy="237.9995" r="2" style="fill:#061884"/><circle cx="23" cy="80" r="2" style="fill:#061884"/><circle cx="75" cy="80" r="2" style="fill:#061884"/><circle cx="127" cy="80" r="2" style="fill:#061884"/><circle cx="179" cy="80" r="2" style="fill:#061884"/><path d="M34,226.5A10.5118,10.5118,0,0,1,23.5,216V95A2.5026,2.5026,0,0,1,26,92.5H176a2.5026,2.5026,0,0,1,2.5,2.5V216A10.5118,10.5118,0,0,1,168,226.5Z" style="fill:#fff"/><path d="M176,94a1.0011,1.0011,0,0,1,1,1V216a9.01,9.01,0,0,1-9,9H34a9.01,9.01,0,0,1-9-9V95a1.0011,1.0011,0,0,1,1-1H176m0-3H26a4,4,0,0,0-4,4V216a12,12,0,0,0,12,12H168a12,12,0,0,0,12-12V95a4,4,0,0,0-4-4Z" style="fill:#f3f8fe"/><path d="M168,228H34a12,12,0,0,1-12-12V95a4,4,0,0,1,4-4H176a4,4,0,0,1,4,4V216A12,12,0,0,1,168,228Z" style="fill:none;stroke:#061884;stroke-miterlimit:10;stroke-width:2px"/><line x1="50" y1="243" x2="58" y2="243" style="fill:none;stroke:#061884;stroke-miterlimit:10;stroke-width:2px"/><polygon points="100.5 145.001 74.392 154.65 60.5 179.082 65.325 206.866 86.609 225.001 114.392 225.001 135.676 206.866 140.5 179.082 126.609 154.65 100.5 145.001" style="fill:#dde9fd"/><rect x="78.5" y="221.5" width="45" height="25" rx="0.5" style="fill:#fff"/><path d="M122,223v22H80V223h42m1-3H79a2,2,0,0,0-2,2v24a2,2,0,0,0,2,2h44a2,2,0,0,0,2-2V222a2,2,0,0,0-2-2Z" style="fill:#dde9fd"/><rect x="77" y="220" width="48" height="28" rx="2" style="fill:none;stroke:#061884;stroke-linecap:round;stroke-miterlimit:10;stroke-width:2px"/><path d="M88.2109,109a2.8962,2.8962,0,0,1-2.7763-2.0063L82,94.7124V90h38v4.7124l-3.4287,12.2607A2.9013,2.9013,0,0,1,113.7891,109Z" style="fill:#fff"/><path d="M119,91v3.575l-3.3918,12.1286A1.88,1.88,0,0,1,113.7889,108H88.2111a1.88,1.88,0,0,1-1.8193-1.2964L83,94.575V91h36m2-2H81v5.8494l.0739.2642,3.3918,12.1286A3.9119,3.9119,0,0,0,88.2111,110h25.5778a3.901,3.901,0,0,0,3.7337-2.7175l3.4035-12.1689L121,94.8494V89Z" style="fill:#061884"/><path d="M92.2207,112.0005a2.9483,2.9483,0,0,1-2.2109-.9771,2.6751,2.6751,0,0,1-.6621-2.0883l1.77-13.9346H110.88l1.7695,13.9282a2.6763,2.6763,0,0,1-.6621,2.0947,2.9449,2.9449,0,0,1-2.21.9771Z" style="fill:#fff"/><path d="M109.9989,96.0007l1.6586,13.054a1.808,1.808,0,0,1-1.88,1.946H92.2207a1.808,1.808,0,0,1-1.88-1.946l1.6586-13.054h18m1.762-2H90.2369l-.222,1.7479-1.6586,13.054a3.6814,3.6814,0,0,0,.9063,2.8852,3.9493,3.9493,0,0,0,2.9581,1.3129H109.777a3.9491,3.9491,0,0,0,2.9582-1.313,3.6739,3.6739,0,0,0,.908-2.8712l-1.66-13.0679-.222-1.7479Z" style="fill:#061884"/><path d="M122.5,86.0007h-43a5,5,0,0,0,0,10h43a5,5,0,0,0,0-10Z" style="fill:#fff;stroke:#061884;stroke-linecap:round;stroke-miterlimit:10;stroke-width:2px"/><line x1="101" y1="96" x2="101" y2="86" style="fill:none;stroke:#061884;stroke-miterlimit:10;stroke-width:2px"/><path d="M107.1018,142H257.8982A6.1018,6.1018,0,0,1,264,148.1018V252a0,0,0,0,1,0,0H101a0,0,0,0,1,0,0V148.1018A6.1018,6.1018,0,0,1,107.1018,142Z" style="fill:#f3f8fe;stroke:#061884;stroke-miterlimit:10;stroke-width:2px"/><path d="M107,253a1,1,0,0,1-1-1V148.6748A1.6766,1.6766,0,0,1,107.6748,147H256.65a2.3523,2.3523,0,0,1,2.35,2.35V252a1,1,0,0,1-1,1Z" style="fill:#fff"/><path d="M256.65,148a1.35,1.35,0,0,1,1.35,1.35V252H107V148.675a.675.675,0,0,1,.675-.675H256.65m0-2H107.675A2.6781,2.6781,0,0,0,105,148.675V252a2,2,0,0,0,2,2H258a2,2,0,0,0,2-2V149.35a3.3538,3.3538,0,0,0-3.35-3.35Z" style="fill:#061884"/><path d="M256,150V250H109V150H256m.65-2H107.675a.675.675,0,0,0-.675.675V252H258V149.35a1.35,1.35,0,0,0-1.35-1.35Z" style="fill:#f3f8fe"/><line x1="83" y1="263" x2="283" y2="263" style="fill:#fff;stroke:#061884;stroke-linecap:round;stroke-linejoin:round;stroke-width:2px"/><path d="M96.127,263a10.0114,10.0114,0,0,1-10-10,1,1,0,0,1,1-1H278.6729a1,1,0,0,1,1,1,10.0115,10.0115,0,0,1-10,10Z" style="fill:#f3f8fe"/><path d="M278.6732,253a9,9,0,0,1-9,9H96.1267a9,9,0,0,1-9-9H278.6732m0-2H87.1267a2,2,0,0,0-2,2,11.0125,11.0125,0,0,0,11,11H269.6732a11.0125,11.0125,0,0,0,11-11,2,2,0,0,0-2-2Zm0,4h0Z" style="fill:#061884"/><path d="M198,252H168a3,3,0,0,0,3,3h24a3,3,0,0,0,3-3Z" style="fill:#061884"/><rect x="130.5" y="185.5" width="14" height="24" rx="1" style="fill:#dde9fd"/><rect x="148.5" y="185.5" width="14" height="24" rx="1" style="fill:#dde9fd"/><rect x="166.5" y="185.5" width="14" height="24" rx="1" style="fill:#dde9fd"/><rect x="184.5" y="185.5" width="14" height="24" rx="1" style="fill:#dde9fd"/><rect x="202.5" y="185.5" width="14" height="24" rx="1" style="fill:#dde9fd"/><rect x="220.5" y="185.5" width="14" height="24" rx="1" style="fill:#dde9fd"/><path d="M141.291,197.4919a11.3945,11.3945,0,0,1-.3828,3.168,4.0258,4.0258,0,0,1-1.2246,2.0161,3.3125,3.3125,0,0,1-2.2012.7041,3.0843,3.0843,0,0,1-2.8554-1.56,8.5457,8.5457,0,0,1-.92-4.3282,11.56,11.56,0,0,1,.377-3.1679,3.9439,3.9439,0,0,1,1.207-2.0078,3.3008,3.3008,0,0,1,2.1914-.6963,3.1319,3.1319,0,0,1,2.8653,1.5439A8.32,8.32,0,0,1,141.291,197.4919Zm-6.1758,0a8.8357,8.8357,0,0,0,.5352,3.52,2.0238,2.0238,0,0,0,3.6641.0078,11.4591,11.4591,0,0,0,0-7.0318,2.0209,2.0209,0,0,0-3.6641,0A8.7835,8.7835,0,0,0,135.1152,197.4919Z" style="fill:#061884"/><path d="M159.292,197.4919a11.3982,11.3982,0,0,1-.3828,3.168,4.0258,4.0258,0,0,1-1.2246,2.0161,3.3125,3.3125,0,0,1-2.2012.7041,3.0845,3.0845,0,0,1-2.8555-1.56,8.5458,8.5458,0,0,1-.92-4.3282,11.56,11.56,0,0,1,.377-3.1679,3.9439,3.9439,0,0,1,1.207-2.0078,3.3006,3.3006,0,0,1,2.1914-.6963,3.1318,3.1318,0,0,1,2.8652,1.5439A8.32,8.32,0,0,1,159.292,197.4919Zm-6.1758,0a8.8339,8.8339,0,0,0,.5352,3.52,2.0237,2.0237,0,0,0,3.664.0078,11.4571,11.4571,0,0,0,0-7.0318,2.0208,2.0208,0,0,0-3.664,0A8.7817,8.7817,0,0,0,153.1162,197.4919Z" style="fill:#061884"/><path d="M177.293,197.4919a11.3982,11.3982,0,0,1-.3828,3.168,4.0259,4.0259,0,0,1-1.2247,2.0161,3.312,3.312,0,0,1-2.2011.7041,3.0845,3.0845,0,0,1-2.8555-1.56,8.5458,8.5458,0,0,1-.92-4.3282,11.5645,11.5645,0,0,1,.3769-3.1679,3.944,3.944,0,0,1,1.2071-2.0078,3.3006,3.3006,0,0,1,2.1914-.6963,3.1318,3.1318,0,0,1,2.8652,1.5439A8.32,8.32,0,0,1,177.293,197.4919Zm-6.1758,0a8.836,8.836,0,0,0,.5351,3.52,2.0238,2.0238,0,0,0,3.6641.0078,11.4591,11.4591,0,0,0,0-7.0318,2.0209,2.0209,0,0,0-3.6641,0A8.7838,8.7838,0,0,0,171.1172,197.4919Z" style="fill:#061884"/><path d="M195.2939,197.4919a11.3945,11.3945,0,0,1-.3828,3.168,4.0251,4.0251,0,0,1-1.2246,2.0161,3.312,3.312,0,0,1-2.2011.7041,3.0845,3.0845,0,0,1-2.8555-1.56,8.5458,8.5458,0,0,1-.92-4.3282,11.5645,11.5645,0,0,1,.3769-3.1679,3.9446,3.9446,0,0,1,1.207-2.0078,3.3008,3.3008,0,0,1,2.1915-.6963,3.1318,3.1318,0,0,1,2.8652,1.5439A8.32,8.32,0,0,1,195.2939,197.4919Zm-6.1757,0a8.836,8.836,0,0,0,.5351,3.52,2.0238,2.0238,0,0,0,3.6641.0078,11.4591,11.4591,0,0,0,0-7.0318,2.0209,2.0209,0,0,0-3.6641,0A8.7838,8.7838,0,0,0,189.1182,197.4919Z" style="fill:#061884"/><path d="M213.2949,197.4919a11.3945,11.3945,0,0,1-.3828,3.168,4.0258,4.0258,0,0,1-1.2246,2.0161,3.3123,3.3123,0,0,1-2.2012.7041,3.0843,3.0843,0,0,1-2.8554-1.56,8.5457,8.5457,0,0,1-.92-4.3282,11.56,11.56,0,0,1,.377-3.1679,3.9439,3.9439,0,0,1,1.207-2.0078,3.3008,3.3008,0,0,1,2.1914-.6963,3.1319,3.1319,0,0,1,2.8653,1.5439A8.32,8.32,0,0,1,213.2949,197.4919Zm-6.1758,0a8.8357,8.8357,0,0,0,.5352,3.52,2.0238,2.0238,0,0,0,3.6641.0078,11.4591,11.4591,0,0,0,0-7.0318,2.0209,2.0209,0,0,0-3.6641,0A8.7835,8.7835,0,0,0,207.1191,197.4919Z" style="fill:#061884"/><path d="M231.2959,197.4919a11.3982,11.3982,0,0,1-.3828,3.168,4.0258,4.0258,0,0,1-1.2246,2.0161,3.3125,3.3125,0,0,1-2.2012.7041,3.0845,3.0845,0,0,1-2.8555-1.56,8.5469,8.5469,0,0,1-.92-4.3282,11.56,11.56,0,0,1,.377-3.1679,3.9439,3.9439,0,0,1,1.207-2.0078,3.3008,3.3008,0,0,1,2.1914-.6963,3.1317,3.1317,0,0,1,2.8652,1.5439A8.32,8.32,0,0,1,231.2959,197.4919Zm-6.1758,0a8.8357,8.8357,0,0,0,.5352,3.52,2.0237,2.0237,0,0,0,3.664.0078,11.4571,11.4571,0,0,0,0-7.0318,2.0208,2.0208,0,0,0-3.664,0A8.7835,8.7835,0,0,0,225.12,197.4919Z" style="fill:#061884"/></svg>
