<?xml version="1.0" encoding="UTF-8" standalone="no"?>
<!-- Created with Inkscape (http://www.inkscape.org/) -->

<svg
   xmlns:dc="http://purl.org/dc/elements/1.1/"
   xmlns:cc="http://creativecommons.org/ns#"
   xmlns:rdf="http://www.w3.org/1999/02/22-rdf-syntax-ns#"
   xmlns:svg="http://www.w3.org/2000/svg"
   xmlns="http://www.w3.org/2000/svg"
   xmlns:sodipodi="http://sodipodi.sourceforge.net/DTD/sodipodi-0.dtd"
   xmlns:inkscape="http://www.inkscape.org/namespaces/inkscape"
   width="500"
   height="500"
   viewBox="0 0 132.29167 132.29167"
   version="1.1"
   id="svg8"
   inkscape:version="0.92.2 (5c3e80d, 2017-08-06)"
   sodipodi:docname="avatar_no_user.svg">
  <defs
     id="defs2" />
  <sodipodi:namedview
     id="base"
     pagecolor="#ffffff"
     bordercolor="#666666"
     borderopacity="1.0"
     inkscape:pageopacity="1"
     inkscape:pageshadow="2"
     inkscape:zoom="0.98994949"
     inkscape:cx="264.32988"
     inkscape:cy="275.53798"
     inkscape:document-units="mm"
     inkscape:current-layer="layer1"
     showgrid="false"
     units="px"
     inkscape:pagecheckerboard="true"
     showguides="true"
     inkscape:guide-bbox="true"
     inkscape:window-width="1920"
     inkscape:window-height="1137"
     inkscape:window-x="2872"
     inkscape:window-y="-8"
     inkscape:window-maximized="1" />
  <metadata
     id="metadata5">
    <rdf:RDF>
      <cc:Work
         rdf:about="">
        <dc:format>image/svg+xml</dc:format>
        <dc:type
           rdf:resource="http://purl.org/dc/dcmitype/StillImage" />
        <dc:title></dc:title>
      </cc:Work>
    </rdf:RDF>
  </metadata>
  <g
     inkscape:label="Layer 1"
     inkscape:groupmode="layer"
     id="layer1"
     transform="translate(0,-164.70834)">
    <g
       id="g819"
       transform="matrix(2.4332992,0,0,2.4332992,27.213046,191.79972)"
       style="fill:#afafaf;fill-opacity:1">
      <path
         id="path815"
         d="m 16,15.7 c 3.6,0 6.4,-3.5 6.4,-7.8 C 22.4,3.6 21.5,0 16,0 10.5,0 9.6,3.5 9.6,7.8 c 0,4.4 2.8,7.9 6.4,7.9 z"
         inkscape:connector-curvature="0"
         style="fill:#afafaf;fill-opacity:1" />
      <path
         id="path817"
         d="m 28.2,27.3 c -0.1,-7.5 -1.1,-9.7 -8.6,-11 -0.9,0.9 -2.2,1.4 -3.5,1.3 -1.3,0.1 -2.6,-0.4 -3.5,-1.3 C 5,17.6 4,19.7 3.8,27 c 0,0.2 0,0.4 0,0.6 v 0.8 c 0,0 1.8,3.7 12.2,3.7 10.4,0 12.2,-3.6 12.2,-3.6 v -0.6 c 0,-0.3 -0.1,-0.4 0,-0.6 z"
         inkscape:connector-curvature="0"
         style="fill:#afafaf;fill-opacity:1" />
    </g>
  </g>
</svg>
