<svg width="281" height="260" viewBox="0 0 281 260" fill="none" xmlns="http://www.w3.org/2000/svg">
<path d="M32.0101 90.9543H248.37C251.537 90.9543 254.104 93.5215 254.104 96.6883V244.4H26.3137V96.6883C26.3137 93.5362 28.858 90.975 32.0101 90.9543Z" fill="#F3F8FE" stroke="#061884" stroke-width="1.88"/>
<path d="M36.71 244.306C36.1909 244.306 35.77 243.885 35.77 243.366V99.64C35.77 98.6017 36.6117 97.76 37.65 97.76H245.099C246.656 97.76 247.919 99.0226 247.919 100.58V243.366C247.919 243.885 247.498 244.306 246.979 244.306H36.71Z" fill="white"/>
<path d="M37.6501 96.8199H245.099C247.175 96.8199 248.859 98.5034 248.859 100.58V243.366C248.859 244.404 248.017 245.246 246.979 245.246H36.7101C35.6718 245.246 34.8301 244.404 34.8301 243.366V99.6399C34.8301 98.0825 36.0926 96.8199 37.6501 96.8199ZM246.979 100.58C246.979 99.5417 246.137 98.6999 245.099 98.6999H37.6501C37.1309 98.6999 36.7101 99.1208 36.7101 99.6399V243.366H246.979V100.58Z" fill="#061884"/>
<path d="M37.65 98.7H245.099C246.137 98.7 246.979 99.5417 246.979 100.58V243.366H36.71V99.64C36.71 99.1208 37.1308 98.7 37.65 98.7ZM245.099 241.486V100.58H38.59V241.486H245.099Z" fill="#F3F8FE"/>
<path d="M0.98999 258.885H279.427H0.98999Z" fill="white"/>
<path d="M0.98999 258.885H279.427" stroke="#061884" stroke-width="1.88" stroke-linecap="round" stroke-linejoin="round"/>
<path d="M20.4479 258.885C12.4122 258.875 5.90191 252.361 5.89673 244.325C5.89673 243.806 6.31758 243.385 6.83673 243.385H273.59C274.109 243.385 274.53 243.806 274.53 244.325C274.52 252.362 268.007 258.875 259.969 258.885H20.4479Z" fill="#F3F8FE"/>
<path d="M6.83679 242.445H273.59C274.628 242.445 275.47 243.287 275.47 244.325C275.46 252.885 268.52 259.82 259.96 259.825H20.448C11.8931 259.815 4.96197 252.88 4.95679 244.325C4.95679 243.287 5.79849 242.445 6.83679 242.445ZM259.969 257.945C267.492 257.945 273.59 251.847 273.59 244.325H6.83679C6.83429 247.936 8.26722 251.401 10.8201 253.955C13.373 256.51 16.8364 257.945 20.448 257.945H259.969Z" fill="#061884"/>
<path d="M161.354 244.325H119.054V244.898C119.059 247.179 120.909 249.025 123.19 249.025H157.227C159.506 249.025 161.354 247.177 161.354 244.898V244.325Z" fill="#061884"/>
<path d="M156.052 218.071H100.122V162.141L124.092 138.171H180.022V194.101L156.052 218.071Z" fill="#F3F8FE" stroke="#061884" stroke-width="1.88"/>
<path d="M152.057 158.146H140.11C129.078 158.146 120.135 167.089 120.135 178.121C120.135 189.153 129.078 198.096 140.11 198.096H152.095" stroke="#061884" stroke-width="1.88" stroke-linecap="round" stroke-linejoin="round"/>
<circle cx="182.372" cy="140.051" r="23.5" fill="white"/>
<path fill-rule="evenodd" clip-rule="evenodd" d="M163.61 140.06C163.61 129.677 172.027 121.26 182.41 121.26C187.396 121.26 192.178 123.241 195.704 126.766C199.229 130.292 201.21 135.074 201.21 140.06C201.21 150.443 192.793 158.86 182.41 158.86C172.027 158.86 163.61 150.443 163.61 140.06ZM189.178 133.48H197.958C195.613 127.938 190.502 124.059 184.535 123.29C186.758 126.336 188.338 129.803 189.178 133.48ZM188.05 140.06C188.048 141.636 187.91 143.208 187.637 144.76H177.146C176.595 141.651 176.595 138.469 177.146 135.36H187.599C187.885 136.911 188.036 138.483 188.05 140.06ZM182.41 156.482C184.696 153.579 186.339 150.225 187.232 146.64H177.588H177.55C178.455 150.228 180.111 153.583 182.41 156.482ZM177.588 133.48C178.476 129.888 180.12 126.526 182.41 123.619C184.687 126.53 186.318 129.891 187.195 133.48H177.588ZM175.605 133.48C176.456 129.8 178.049 126.333 180.286 123.29L180.248 123.281C174.264 124.038 169.136 127.924 166.787 133.48H175.605ZM166.186 135.36H175.294C174.78 138.472 174.78 141.648 175.294 144.76H166.186C165.283 141.692 165.283 138.428 166.186 135.36ZM175.661 146.64H166.844H166.787C169.148 152.208 174.301 156.093 180.305 156.83C178.081 153.784 176.501 150.317 175.661 146.64ZM184.553 156.83L184.567 156.811C190.517 156.036 195.613 152.167 197.958 146.64H189.141C188.319 150.305 186.763 153.765 184.567 156.811L184.497 156.82L184.553 156.83ZM189.545 144.76H198.653C199.556 141.692 199.556 138.428 198.653 135.36H189.545C190.059 138.472 190.059 141.648 189.545 144.76Z" fill="#061884"/>
</svg>
