<svg id="Laag_1" data-name="Laag 1" xmlns="http://www.w3.org/2000/svg" xmlns:xlink="http://www.w3.org/1999/xlink" viewBox="0 0 300 300"><defs><style>.cls-1,.cls-4{fill:#f3f8fe;}.cls-1,.cls-6,.cls-7{stroke:#061884;}.cls-1,.cls-10,.cls-5{stroke-miterlimit:10;}.cls-1,.cls-10,.cls-5,.cls-6,.cls-7{stroke-width:2px;}.cls-2,.cls-6{fill:#fff;}.cls-3{fill:#061884;}.cls-10,.cls-5,.cls-7{fill:none;}.cls-5{stroke:#c5dbfb;}.cls-10,.cls-5,.cls-6,.cls-7{stroke-linecap:round;}.cls-10,.cls-5{stroke-dasharray:4 6;}.cls-6,.cls-7{stroke-linejoin:round;}.cls-8{fill:#c5dbfb;}.cls-9{fill:#061784;}.cls-10{stroke:#061784;}</style></defs><path class="cls-1" d="M34,95.76H264.17a6.1,6.1,0,0,1,6.1,6.1V259a0,0,0,0,1,0,0H27.94a0,0,0,0,1,0,0V101.86A6.1,6.1,0,0,1,34,95.76Z"/><path class="cls-2" d="M39,258.9a1,1,0,0,1-1-1V105a2,2,0,0,1,2-2H260.69a3,3,0,0,1,3,3V257.9a1,1,0,0,1-1,1Z"/><path class="cls-3" d="M260.69,104a2,2,0,0,1,2,2V257.9H39V105a1,1,0,0,1,1-1H260.69m0-2H40a3,3,0,0,0-3,3V257.9a2,2,0,0,0,2,2H262.69a2,2,0,0,0,2-2V106a4,4,0,0,0-4-4Z"/><path class="cls-4" d="M260.69,106V255.9H41V106H260.69m0-2H40a1,1,0,0,0-1,1V257.9H262.69V106a2,2,0,0,0-2-2Z"/><path class="cls-5" d="M181.94,105.9"/><line class="cls-6" x1="1" y1="274.41" x2="297.21" y2="274.41"/><path class="cls-4" d="M21.7,274.41A15.5,15.5,0,0,1,6.22,258.92a1,1,0,0,1,1-1H291a1,1,0,0,1,1,1,15.51,15.51,0,0,1-15.49,15.49Z"/><path class="cls-3" d="M291,258.92a14.49,14.49,0,0,1-14.49,14.49H21.7A14.48,14.48,0,0,1,7.22,258.92H291m0-2H7.22a2,2,0,0,0-2,2A16.5,16.5,0,0,0,21.7,275.41H276.5A16.51,16.51,0,0,0,293,258.92a2,2,0,0,0-2-2Zm0,4Z"/><path class="cls-3" d="M171.6,258.92h-45v.61a4.4,4.4,0,0,0,4.4,4.39h36.21a4.39,4.39,0,0,0,4.39-4.39Z"/><polygon class="cls-1" points="165.96 230.99 106.46 230.99 106.46 171.49 131.96 145.99 191.46 145.99 191.46 205.49 165.96 230.99"/><path class="cls-7" d="M161.71,167.24H149a21.25,21.25,0,0,0,0,42.5h12.75"/><circle class="cls-2" cx="193.96" cy="147.99" r="25"/><path class="cls-3" d="M194,128a20,20,0,1,0,20,20A20,20,0,0,0,194,128Zm16.58,13h-9.38a29.54,29.54,0,0,0-4.94-10.84A18,18,0,0,1,210.54,141ZM200,148a29.07,29.07,0,0,1-.44,5H188.4a28.63,28.63,0,0,1,0-10h11.12A29.07,29.07,0,0,1,200,148Zm-11.13,7h10.26A27.78,27.78,0,0,1,194,165.47,27.78,27.78,0,0,1,188.83,155Zm0-14A27.7,27.7,0,0,1,194,130.51,27.7,27.7,0,0,1,199.09,141Zm2.87-10.84A29.54,29.54,0,0,0,186.76,141h-9.38A18,18,0,0,1,191.7,130.15Zm-15,12.84h9.69a30.69,30.69,0,0,0,0,10h-9.69a17.72,17.72,0,0,1,0-10Zm.7,12h9.38a29.54,29.54,0,0,0,4.94,10.84A18,18,0,0,1,177.38,155Zm18.84,10.84A29.54,29.54,0,0,0,201.16,155h9.38A18,18,0,0,1,196.22,165.83Zm15-12.84h-9.69a30.69,30.69,0,0,0,0-10h9.69a17.72,17.72,0,0,1,0,10Z"/><path class="cls-8" d="M150.16,140a1,1,0,0,1-1-1v-4a1,1,0,0,1,2,0v4A1,1,0,0,1,150.16,140Zm0-10a1,1,0,0,1-1-1v-4a1,1,0,1,1,2,0v4A1,1,0,0,1,150.16,130Zm0-10a1,1,0,0,1-1-1v-4a1,1,0,1,1,2,0v4A1,1,0,0,1,150.16,120Z"/><path class="cls-9" d="M150.16,90a1,1,0,0,1-1-1V85a1,1,0,1,1,2,0v4A1,1,0,0,1,150.16,90Zm0-10a1,1,0,0,1-1-1V75a1,1,0,1,1,2,0v4A1,1,0,0,1,150.16,80Zm0-10a1,1,0,0,1-1-1V65a1,1,0,0,1,2,0v4A1,1,0,0,1,150.16,70Zm0-10a1,1,0,0,1-1-1V55a1,1,0,0,1,2,0v4A1,1,0,0,1,150.16,60Zm0-10a1,1,0,0,1-1-1V45a1,1,0,0,1,2,0v4A1,1,0,0,1,150.16,50Zm0-10a1,1,0,0,1-1-1,1,1,0,0,1,1-1h0a1,1,0,0,1,0,2Z"/><path class="cls-9" d="M215.16,60a1,1,0,0,1-1-1V55a1,1,0,1,1,2,0v4A1,1,0,0,1,215.16,60Zm-6,0h-4a1,1,0,1,1,0-2h4a1,1,0,0,1,0,2Zm-10,0h-4a1,1,0,0,1,0-2h4a1,1,0,0,1,0,2Zm-10,0h-4a1,1,0,0,1,0-2h4a1,1,0,0,1,0,2Zm-10,0h-4a1,1,0,0,1,0-2h4a1,1,0,0,1,0,2Zm-10,0h-4a1,1,0,0,1,0-2h4a1,1,0,0,1,0,2Zm-10,0h-4a1,1,0,0,1,0-2h4a1,1,0,0,1,0,2Zm56-10a1,1,0,0,1-1-1V45a1,1,0,1,1,2,0v4A1,1,0,0,1,215.16,50Z"/><polyline class="cls-10" points="145.16 58.99 85.16 58.99 85.16 38.99"/><path class="cls-3" d="M67.89,0V36h6.34l4-3H93.56l4,3h6.33V0Zm34,34H98.23l-4-3H77.56l-4,3H69.89V2h32Z"/><path class="cls-3" d="M97.89,5h-24V25a3,3,0,0,0,3,3h18a3,3,0,0,0,3-3Zm-9,2v3h-6V7Zm7,19h-20V7h5v5h10V7h5Z"/><path class="cls-3" d="M132.82,0V36h6.34l4-3h15.33l4,3h6.33V0Zm34,34h-3.66l-4-3H142.49l-4,3h-3.67V2h32Z"/><path class="cls-3" d="M162.82,5h-24V25a3,3,0,0,0,3,3h18a3,3,0,0,0,3-3Zm-9,2v3h-6V7Zm7,19h-20V7h5v5h10V7h5Z"/><path class="cls-3" d="M197.75,0V36h6.34l4-3h15.33l4,3h6.33V0Zm34,34h-3.66l-4-3H207.42l-4,3h-3.67V2h32Z"/><path class="cls-3" d="M227.75,5h-24V25a3,3,0,0,0,3,3h18a3,3,0,0,0,3-3Zm-9,2v3h-6V7Zm7,19h-20V7h5v5h10V7h5Z"/></svg>