<?xml version="1.0" encoding="UTF-8" standalone="no"?>
<svg
   xmlns:dc="http://purl.org/dc/elements/1.1/"
   xmlns:cc="http://creativecommons.org/ns#"
   xmlns:rdf="http://www.w3.org/1999/02/22-rdf-syntax-ns#"
   xmlns:svg="http://www.w3.org/2000/svg"
   xmlns="http://www.w3.org/2000/svg"
   xmlns:sodipodi="http://sodipodi.sourceforge.net/DTD/sodipodi-0.dtd"
   xmlns:inkscape="http://www.inkscape.org/namespaces/inkscape"
   width="108px"
   height="81px"
   viewBox="0 0 108 81"
   version="1.1"
   id="svg32"
   sodipodi:docname="first_run_number_slices.svg"
   inkscape:version="1.0.2-2 (e86c870879, 2021-01-15)">
  <metadata
     id="metadata38">
    <rdf:RDF>
      <cc:Work
         rdf:about="">
        <dc:format>image/svg+xml</dc:format>
        <dc:type
           rdf:resource="http://purl.org/dc/dcmitype/StillImage" />
      </cc:Work>
    </rdf:RDF>
  </metadata>
  <defs
     id="defs36" />
  <sodipodi:namedview
     pagecolor="#ffffff"
     bordercolor="#666666"
     borderopacity="1"
     objecttolerance="10"
     gridtolerance="10"
     guidetolerance="10"
     inkscape:pageopacity="0"
     inkscape:pageshadow="2"
     inkscape:window-width="1920"
     inkscape:window-height="1001"
     id="namedview34"
     showgrid="false"
     inkscape:zoom="10.246914"
     inkscape:cx="54"
     inkscape:cy="40.304819"
     inkscape:window-x="-9"
     inkscape:window-y="-9"
     inkscape:window-maximized="1"
     inkscape:current-layer="svg32" />
  <!-- Generator: Sketch 53.2 (72643) - https://sketchapp.com -->
  <title
     id="title2">number of slices</title>
  <desc
     id="desc4">Created with Sketch.</desc>
  <g
     id="0419-data-collection-update"
     stroke="none"
     stroke-width="1"
     fill="none"
     fill-rule="evenodd">
    <g
       id="4.-collect-data-updated"
       transform="translate(-762.000000, -330.000000)">
      <g
         id="number-of-slices"
         transform="translate(762.000000, 330.000000)">
        <rect
           id="Rectangle"
           fill="#CCCCCC"
           x="8"
           y="3"
           width="100"
           height="78" />
        <rect
           id="rect7"
           fill="#E5E5E5"
           x="0"
           y="0"
           width="103"
           height="78" />
        <rect
           id="rect9"
           fill="#104CAA"
           x="13"
           y="49"
           width="3"
           height="16" />
        <rect
           id="Rectangle-Copy-9"
           fill="#104CAA"
           x="26"
           y="39"
           width="3"
           height="26" />
        <rect
           id="Rectangle-Copy-10"
           fill="#104CAA"
           x="39"
           y="59"
           width="3"
           height="6" />
        <rect
           id="Rectangle-Copy-11"
           fill="#104CAA"
           x="52"
           y="56"
           width="3"
           height="9" />
        <rect
           id="Rectangle-Copy-12"
           fill="#104CAA"
           x="65"
           y="49"
           width="3"
           height="16" />
        <rect
           id="Rectangle-Copy-13"
           fill="#104CAA"
           x="78"
           y="51"
           width="3"
           height="14" />
        <rect
           id="Rectangle-Copy-15"
           fill="#104CAA"
           x="91"
           y="30"
           width="3"
           height="35" />
        <polyline
           id="Path-2"
           stroke="#0063FF"
           points="14 44.1328507 27.5 30.5 40.5 42.5 53.5 48.5 66.5 35.5 79.4294479 32.5 92.5 20.5" />
        <circle
           id="Oval"
           stroke="#0063FF"
           fill="#FFFFFF"
           cx="14.5"
           cy="43.5"
           r="2" />
        <circle
           id="Oval-Copy-8"
           stroke="#0063FF"
           fill="#FFFFFF"
           cx="27.5"
           cy="30.5"
           r="2" />
        <circle
           id="Oval-Copy-9"
           stroke="#0063FF"
           fill="#FFFFFF"
           cx="40.5"
           cy="42.5"
           r="2" />
        <circle
           id="Oval-Copy-10"
           stroke="#0063FF"
           fill="#FFFFFF"
           cx="53.5"
           cy="48.5"
           r="2" />
        <circle
           id="Oval-Copy-11"
           stroke="#0063FF"
           fill="#FFFFFF"
           cx="66.5"
           cy="35.5"
           r="2" />
        <circle
           id="Oval-Copy-12"
           stroke="#0063FF"
           fill="#FFFFFF"
           cx="79.5"
           cy="32.5"
           r="2" />
        <circle
           id="Oval-Copy-13"
           stroke="#0063FF"
           fill="#FFFFFF"
           cx="92.5"
           cy="20.5"
           r="2" />
        <rect
           id="rect25"
           fill="#CCCCCC"
           x="7"
           y="10"
           width="1"
           height="56" />
        <rect
           id="rect27"
           fill="#CCCCCC"
           x="7"
           y="65"
           width="92"
           height="1" />
      </g>
    </g>
  </g>
  <path
     style="fill:#008000;stroke-width:0.0975904"
     d="m 13.012048,57.041566 v -7.953614 h 1.463856 1.463855 v 7.953614 7.953615 h -1.463855 -1.463856 z"
     id="path863" />
  <path
     style="fill:#008000;stroke-width:0.0975904"
     d="M 26.089157,52.015663 V 39.036145 h 1.41506 1.41506 v 12.979518 12.979518 h -1.41506 -1.41506 z"
     id="path865" />
  <path
     style="fill:#008000;stroke-width:0.0975904"
     d="m 39.068675,62.018675 v -2.976506 h 1.463855 1.463856 v 2.976506 2.976506 H 40.53253 39.068675 Z"
     id="path867" />
  <path
     style="fill:#008000;stroke-width:0.0975904"
     d="m 52.048193,60.506024 v -4.489157 h 1.463855 1.463856 v 4.489157 4.489157 h -1.463856 -1.463855 z"
     id="path869" />
  <path
     style="fill:#008000;stroke-width:0.0975904"
     d="m 65.027711,57.041566 v -7.953614 h 1.463855 1.463856 v 7.953614 7.953615 h -1.463856 -1.463855 z"
     id="path871" />
  <path
     style="fill:#008000;stroke-width:0.0975904"
     d="m 78.007229,58.01747 v -6.977711 h 1.463855 1.463856 v 6.977711 6.977711 h -1.463856 -1.463855 z"
     id="path873" />
  <path
     style="fill:#008000;stroke-width:0.0975904"
     d="M 91.084337,47.526506 V 30.057831 h 1.415061 1.41506 v 17.468675 17.468675 h -1.41506 -1.415061 z"
     id="path875" />
  <path
     style="fill:#008000;stroke-width:0.0975904"
     d="M 52.694973,50.798889 C 51.7389,50.45809 51.072418,49.500369 51.072112,48.466868 l -1.96e-4,-0.598796 -4.267696,-1.967058 -4.267696,-1.967058 -0.378446,0.341902 c -0.515361,0.465599 -0.979845,0.645476 -1.676328,0.64918 -0.985928,0.0052 -1.844897,-0.57921 -2.239591,-1.523843 -0.195482,-0.467856 -0.190358,-1.331036 0.01089,-1.834 0.157533,-0.393715 0.156274,-0.404416 -0.07319,-0.621843 C 38.051442,40.823672 35.9329,38.86767 33.471988,36.598681 L 28.9976,32.473245 28.543674,32.678144 c -0.797732,0.36009 -1.105096,0.356016 -2.309614,-0.03062 -0.1627,-0.05222 -1.011091,0.763644 -4.913959,4.725577 l -4.717306,4.788698 0.156428,0.390953 c 0.08605,0.215023 0.156445,0.644934 0.156445,0.955358 0,2.189407 -2.664163,3.25248 -4.161063,1.660377 -0.865926,-0.921 -0.923112,-2.270897 -0.136419,-3.220229 0.674448,-0.813882 1.980558,-1.104125 2.920661,-0.649028 l 0.44143,0.213692 4.749193,-4.800913 4.749193,-4.800914 -0.201,-0.406258 c -0.245245,-0.495682 -0.261475,-1.427772 -0.03391,-1.947579 0.578149,-1.320636 2.135671,-1.876596 3.372068,-1.203664 1.128881,0.614414 1.628712,1.971167 1.131989,3.072702 -0.154047,0.341615 -0.159604,0.414162 -0.04012,0.523663 0.07629,0.06991 2.137531,1.967374 4.580543,4.216585 2.443012,2.249212 4.514681,4.146969 4.603708,4.21724 0.136228,0.107528 0.228742,0.09331 0.584063,-0.08978 0.58194,-0.299857 1.440419,-0.299402 2.061156,0.0011 0.88679,0.429288 1.538311,1.569898 1.397986,2.447439 l -0.05816,0.363696 4.290253,1.979847 4.290253,1.979847 0.377954,-0.341458 c 0.74633,-0.674264 1.911178,-0.851668 2.748624,-0.418608 l 0.322944,0.167001 4.782932,-4.782933 4.782933,-4.782933 -0.178177,-0.374885 c -0.911508,-1.917824 0.931357,-3.952926 3.014391,-3.328835 0.36871,0.110468 1.12247,0.745214 1.37826,1.160639 0.08747,0.142053 0.502561,0.06398 4.001205,-0.752574 2.146988,-0.501088 3.996717,-0.934119 4.110508,-0.962291 0.153641,-0.03804 0.223385,-0.154346 0.270959,-0.451864 0.255191,-1.595872 1.920105,-2.561596 3.35329,-1.945057 0.429555,0.18479 0.525941,0.196595 0.682802,0.08362 0.100454,-0.07235 2.234479,-2.017179 4.742277,-4.321851 3.380975,-3.107124 4.542591,-4.229724 4.493708,-4.342772 -0.482225,-1.115195 -0.315332,-2.156214 0.465539,-2.903864 0.721793,-0.691085 1.768014,-0.894909 2.618869,-0.510206 1.179701,0.533386 1.755114,1.710595 1.414252,2.893349 -0.21093,0.731905 -0.945811,1.486269 -1.636185,1.679562 -0.57845,0.161956 -1.302433,0.09607 -1.801231,-0.163916 l -0.385166,-0.200759 -4.626859,4.243254 c -2.544773,2.333791 -4.665107,4.280175 -4.711855,4.325299 -0.048,0.04633 -0.01614,0.284124 0.07319,0.5463 0.444212,1.30369 -0.06572,2.573371 -1.256161,3.127733 -1.080092,0.502974 -2.507378,0.08289 -3.032711,-0.892589 -0.101239,-0.187991 -0.207022,-0.340385 -0.235071,-0.338656 -0.02805,0.0017 -1.892312,0.431528 -4.142801,0.955106 l -4.091801,0.951961 -0.106703,0.534374 c -0.137243,0.687317 -0.454873,1.194785 -0.969408,1.548794 -0.770826,0.530342 -1.648865,0.614722 -2.445188,0.234981 l -0.355905,-0.169718 -4.77762,4.777619 -4.777619,4.77762 0.19507,0.513383 c 0.366777,0.965278 0.17482,1.882395 -0.544562,2.601777 -0.67741,0.677411 -1.646033,0.906888 -2.517203,0.596353 z m 1.473794,-0.926683 c 0.729024,-0.330939 1.053734,-1.146651 0.76128,-1.912432 -0.200436,-0.524832 -0.644802,-0.888906 -1.19168,-0.976355 -1.394042,-0.222916 -2.330608,1.426036 -1.422756,2.504957 0.485111,0.576522 1.133043,0.710722 1.853156,0.38383 z M 15.295221,44.811001 c 0.430417,-0.248911 0.666876,-0.634453 0.718475,-1.171461 0.112585,-1.17169 -1.052508,-2.003396 -2.158879,-1.541125 -0.649502,0.271379 -1.035757,1.100546 -0.844149,1.812122 0.264563,0.982513 1.381442,1.422734 2.284553,0.900464 z m 26.022721,-1.017658 c 0.932025,-0.628091 0.932025,-1.95739 0,-2.585481 -0.450712,-0.303735 -1.217719,-0.302996 -1.673691,0.0016 -0.889963,0.594534 -0.889963,1.987721 0,2.582255 0.455972,0.304609 1.222979,0.305348 1.673691,0.0016 z m 25.967679,-6.959875 c 0.467251,-0.241625 0.718596,-0.70606 0.718596,-1.327818 0,-0.621481 -0.181749,-0.950853 -0.730935,-1.324626 -0.849693,-0.578296 -2.138753,0.02617 -2.296301,1.076775 -0.193367,1.289468 1.123738,2.188405 2.30864,1.575669 z M 80.336149,33.79242 c 0.449313,-0.332738 0.696381,-0.792128 0.696381,-1.29483 0,-1.163414 -1.201917,-1.886046 -2.242345,-1.348169 -0.548662,0.283646 -0.805477,0.71349 -0.805477,1.348169 0,0.634679 0.256815,1.064524 0.805477,1.348169 0.517399,0.267484 1.141833,0.24594 1.545964,-0.05334 z m -52.02592,-1.977435 c 0.68586,-0.418174 0.931279,-1.436313 0.511985,-2.12401 -0.581199,-0.953242 -2.054796,-0.953242 -2.635994,0 -0.419294,0.687697 -0.173875,1.705836 0.511984,2.12401 0.425477,0.259416 1.186549,0.259416 1.612025,0 z m 64.919865,-9.981574 c 0.583316,-0.308465 0.804362,-0.739621 0.75629,-1.475162 -0.03436,-0.525681 -0.07154,-0.606568 -0.434446,-0.945083 -0.682022,-0.636183 -1.523539,-0.61585 -2.171294,0.05246 -0.285211,0.294263 -0.337703,0.422991 -0.369148,0.905273 -0.02754,0.422447 0.0098,0.646547 0.15036,0.901364 0.217445,0.394313 0.881545,0.783156 1.337542,0.783156 0.170977,0 0.49979,-0.0999 0.730696,-0.222011 z"
     id="path877" />
</svg>
