<svg id="Layer_1" data-name="Layer 1" xmlns="http://www.w3.org/2000/svg" viewBox="0 0 325.48 197.18">
    <defs>
        <style type="text/css">.cls-1,.cls-4{fill:#f3f8fe;}.cls-1,.cls-5{stroke:#061884;}.cls-1,.cls-6{stroke-miterlimit:10;}.cls-1,.cls-5,.cls-6,.cls-7{stroke-width:2px;}.cls-2,.cls-5{fill:#fff;}.cls-3{fill:#061884;}.cls-5,.cls-7{stroke-linecap:round;stroke-linejoin:round;}.cls-6,.cls-7{fill:none;stroke:#2c3278;}.cls-8{fill:#292f79;fill-rule:evenodd;}</style>
    </defs>
    <path class="cls-1" d="M47.68,9.26H277.81a6.1,6.1,0,0,1,6.1,6.1V172.48a0,0,0,0,1,0,0H41.57a0,0,0,0,1,0,0V15.36A6.1,6.1,0,0,1,47.68,9.26Z"/>
    <path class="cls-2" d="M50.88,173.48a1,1,0,0,1-1-1V19.57a2,2,0,0,1,2-2H272.61a3,3,0,0,1,3,3V172.48a1,1,0,0,1-1,1Z"/>
    <path class="cls-3" d="M272.61,18.57a2,2,0,0,1,2,2V172.48H50.88V19.57a1,1,0,0,1,1-1H272.61m0-2H51.88a3,3,0,0,0-3,3V172.48a2,2,0,0,0,2,2H274.61a2,2,0,0,0,2-2V20.57a4,4,0,0,0-4-4Z"/>
    <path class="cls-4" d="M272.61,20.57V170.48H52.88V20.57H272.61m0-2H51.88a1,1,0,0,0-1,1V172.48H274.61V20.57a2,2,0,0,0-2-2Z"/>
    <line class="cls-5" x1="14.64" y1="187.91" x2="310.85" y2="187.91"/>
    <path class="cls-4" d="M35.34,187.91a15.49,15.49,0,0,1-15.48-15.48,1,1,0,0,1,1-1H304.63a1,1,0,0,1,1,1,15.5,15.5,0,0,1-15.49,15.48Z"/>
    <path class="cls-3" d="M304.63,172.43h0a14.48,14.48,0,0,1-14.49,14.48H35.34a14.48,14.48,0,0,1-14.48-14.48H304.63m0-2H20.86a2,2,0,0,0-2,2,16.49,16.49,0,0,0,16.48,16.48h254.8a16.5,16.5,0,0,0,16.49-16.48,2,2,0,0,0-2-2Z"/>
    <path class="cls-3" d="M185.24,172.43h-45v.6a4.4,4.4,0,0,0,4.4,4.4h36.21a4.4,4.4,0,0,0,4.39-4.4Z"/>
    <polygon class="cls-6" points="180.22 140.51 117.36 140.51 117.36 77.7 144.3 50.78 207.16 50.78 207.16 113.59 180.22 140.51"/>
    <path class="cls-7" d="M175.73,73.21H162.26a22.44,22.44,0,1,0,0,44.87h13.47"/>
    <circle class="cls-2" cx="207.16" cy="50.75" r="31"/>
    <path class="cls-8" d="M206.73,28.14a22.39,22.39,0,1,0,22.43,22.39A22.4,22.4,0,0,0,206.73,28.14Zm-14,36.94a17.94,17.94,0,0,1,27.91,0A20.12,20.12,0,0,1,192.77,65.08Zm4.43-18.47a9.53,9.53,0,1,1,9.53,9.51A9.53,9.53,0,0,1,197.2,46.61Zm25,16.8a20.18,20.18,0,0,0-9.87-6.48,11.79,11.79,0,1,0-11.21,0,20.13,20.13,0,0,0-9.87,6.48,20.14,20.14,0,1,1,30.95,0Z"/>
</svg>
