<?xml version="1.0" encoding="UTF-8" standalone="no"?>
<svg
   xmlns:dc="http://purl.org/dc/elements/1.1/"
   xmlns:cc="http://creativecommons.org/ns#"
   xmlns:rdf="http://www.w3.org/1999/02/22-rdf-syntax-ns#"
   xmlns:svg="http://www.w3.org/2000/svg"
   xmlns="http://www.w3.org/2000/svg"
   xmlns:sodipodi="http://sodipodi.sourceforge.net/DTD/sodipodi-0.dtd"
   xmlns:inkscape="http://www.inkscape.org/namespaces/inkscape"
   width="108px"
   height="81px"
   viewBox="0 0 108 81"
   version="1.1"
   id="svg31"
   sodipodi:docname="first_run_print_settings.svg"
   inkscape:version="1.0.2-2 (e86c870879, 2021-01-15)">
  <metadata
     id="metadata37">
    <rdf:RDF>
      <cc:Work
         rdf:about="">
        <dc:format>image/svg+xml</dc:format>
        <dc:type
           rdf:resource="http://purl.org/dc/dcmitype/StillImage" />
      </cc:Work>
    </rdf:RDF>
  </metadata>
  <defs
     id="defs35" />
  <sodipodi:namedview
     pagecolor="#ffffff"
     bordercolor="#666666"
     borderopacity="1"
     objecttolerance="10"
     gridtolerance="10"
     guidetolerance="10"
     inkscape:pageopacity="0"
     inkscape:pageshadow="2"
     inkscape:window-width="1920"
     inkscape:window-height="1001"
     id="namedview33"
     showgrid="false"
     inkscape:zoom="10.246914"
     inkscape:cx="35.213855"
     inkscape:cy="40.304819"
     inkscape:window-x="-9"
     inkscape:window-y="-9"
     inkscape:window-maximized="1"
     inkscape:current-layer="0419-data-collection-update" />
  <!-- Generator: Sketch 53.2 (72643) - https://sketchapp.com -->
  <title
     id="title2">Print settings</title>
  <desc
     id="desc4">Created with Sketch.</desc>
  <g
     id="0419-data-collection-update"
     stroke="none"
     stroke-width="1"
     fill="none"
     fill-rule="evenodd">
    <g
       id="4.-collect-data-updated"
       transform="translate(-672.000000, -447.000000)">
      <g
         id="Print-settings"
         transform="translate(672.000000, 447.000000)">
        <rect
           id="Rectangle"
           fill="#CCCCCC"
           x="8"
           y="3"
           width="100"
           height="78" />
        <rect
           id="rect7"
           fill="#E5E5E5"
           x="0"
           y="0"
           width="103"
           height="78" />
        <rect
           id="rect9"
           fill="#2671E7"
           x="29"
           y="40"
           width="1"
           height="13" />
        <rect
           id="rect11"
           fill="#2671E7"
           x="18"
           y="53"
           width="12"
           height="1" />
        <rect
           id="Rectangle-Copy-5"
           fill="#999999"
           x="18"
           y="55"
           width="29"
           height="1" />
        <rect
           id="Rectangle-Copy-27"
           fill="#999999"
           x="18"
           y="57"
           width="29"
           height="1" />
        <rect
           id="Rectangle-Copy-28"
           fill="#999999"
           x="64"
           y="23"
           width="2"
           height="32"
           rx="1" />
        <rect
           id="Rectangle-Copy-29"
           fill="#999999"
           x="74"
           y="23"
           width="2"
           height="32"
           rx="1" />
        <rect
           id="Rectangle-Copy-30"
           fill="#999999"
           x="84"
           y="23"
           width="2"
           height="32"
           rx="1" />
        <rect
           id="rect18"
           fill="#999999"
           x="25"
           y="25"
           width="14"
           height="12" />
        <path
           d="M19.618034,25 L24,25 L24,37 L18.7236068,26.4472136 C18.4766175,25.9532351 18.6768419,25.3525621 19.1708204,25.1055728 C19.3096758,25.0361451 19.4627889,25 19.618034,25 Z"
           id="Path-4"
           fill="#999999" />
        <path
           d="M41.618034,25 L46,25 L46,37 L40.7236068,26.4472136 C40.4766175,25.9532351 40.6768419,25.3525621 41.1708204,25.1055728 C41.3096758,25.0361451 41.4627889,25 41.618034,25 Z"
           id="path21"
           fill="#999999"
           transform="translate(43.000000, 31.000000) scale(-1, 1) translate(-43.000000, -31.000000) " />
        <path
           d="M28,37 L28.7,37.9333333 C29.0313708,38.3751611 29.6581722,38.4647042 30.1,38.1333333 C30.1758057,38.0764791 30.2431458,38.009139 30.3,37.9333333 L31,37 L28,37 Z"
           id="Path-5"
           fill="#999999" />
        <polygon
           id="Path-6"
           fill="#999999"
           points="25 24 39 24 37 20 27 20" />
        <circle
           id="Oval-Copy"
           fill="#104CAA"
           cx="65"
           cy="27"
           r="3" />
        <circle
           id="Oval-Copy-2"
           fill="#4E93FF"
           cx="75"
           cy="43"
           r="3" />
        <circle
           id="Oval-Copy-16"
           fill="#2671E7"
           cx="85"
           cy="50"
           r="3" />
      </g>
    </g>
    <path
       style="fill:#3da100;fill-opacity:1;stroke-width:0.0975904"
       d="m 74.087264,45.790611 c -1.270499,-0.454665 -1.996772,-1.481942 -2.004922,-2.835858 -0.0073,-1.211398 0.897732,-2.425184 2.060425,-2.76337 1.412744,-0.410917 2.94447,0.284423 3.533208,1.603929 0.334454,0.749594 0.32223,1.796805 -0.02874,2.461917 -0.710734,1.3469 -2.240196,2.005683 -3.559974,1.533382 z"
       id="path868" />
    <path
       style="fill:#037611;fill-opacity:1;stroke-width:0.0975904"
       d="m 84.41372,52.887696 c -0.960707,-0.19125 -1.908739,-1.049794 -2.207278,-1.998927 -0.441491,-1.403616 0.216124,-2.900528 1.566141,-3.564967 0.378908,-0.186487 0.635095,-0.236453 1.212357,-0.236453 1.255248,0 2.167438,0.601468 2.710199,1.787013 0.208424,0.455258 0.235296,0.629082 0.196819,1.273128 -0.03007,0.503354 -0.113499,0.879903 -0.256572,1.158051 -0.593184,1.153207 -1.97285,1.830759 -3.221666,1.582155 z"
       id="path870" />
  </g>
  <path
     style="fill:#008000;stroke-width:0.0975904"
     d="m 29.016867,46.501807 v -6.489759 h 0.487952 0.487952 v 6.489759 6.489759 h -0.487952 -0.487952 z"
     id="path39" />
  <path
     style="fill:#008000;stroke-width:0.0975904"
     d="m 18.086747,53.528313 v -0.439156 h 5.953012 5.953012 v 0.439156 0.439157 h -5.953012 -5.953012 z"
     id="path41" />
  <path
     style="fill:#008000;stroke-width:0.0975904"
     d="m 64.084252,29.785792 c -1.276292,-0.456739 -1.993724,-1.478201 -1.995594,-2.841278 -6.89e-4,-0.502322 0.05833,-0.744995 0.301163,-1.238252 1.104569,-2.243699 4.25211,-2.158733 5.306204,0.143238 0.312622,0.682716 0.289482,1.756154 -0.0518,2.40291 -0.710734,1.3469 -2.240196,2.005683 -3.559973,1.533382 z"
     id="path43" />
</svg>
