<?xml version="1.0" encoding="UTF-8"?>
<svg width="120px" height="72px" viewBox="0 0 120 72" version="1.1" xmlns="http://www.w3.org/2000/svg" xmlns:xlink="http://www.w3.org/1999/xlink">
    <!-- Generator: Sketch 52.6 (67491) - http://www.bohemiancoding.com/sketch -->
    <title>cura</title>
    <desc>Created with Sketch.</desc>
    <g id="Iteration-4" stroke="none" stroke-width="1" fill="#000000" fill-rule="nonzero">
        <path d="M114.3,63.1 C112.104248,65.5577268 108.994324,67.0042033 105.7,67.1 L14.3,67.1 C11.0056762,67.0042033 7.89575168,65.5577268 5.7,63.1 L114.3,63.1 Z M120,59.1 L0,59.1 L0,59.9 C0,64.5 6.3,71.1 14.3,71.1 L105.7,71.1 C113.7,71.1 120,64.4 120,59.9 L120,59.1 Z" />
        <path d="M106,4.9 L106,59.1 L14,59.1 L14,4.9 L106,4.9 Z M110,0.9 L10,0.9 L10,63.1 L110,63.1 L110,0.9 Z" />
        <path d="M60.5,36.5 L72.3,36.5 L72.3,43.1 L60.5,43.1 C52.8,43.1 48,37.8 48,30.3 C48,22.8 52.7,17.6 60.5,17.6 L72.3,17.6 L72.3,24.2 L60.5,24.2 C56.6,24.2 54.6,27 54.6,30.3 C54.6,33.7 56.6,36.5 60.5,36.5 Z M52.3,8.9 L36.9,24.5 L36.9,55.1 L67.6,55.1 L83.2,39.5 L83.2,8.9 L52.3,8.9 Z" />
    </g>
</svg>