<?xml version="1.0" encoding="UTF-8" standalone="no"?>
<svg
   xmlns:dc="http://purl.org/dc/elements/1.1/"
   xmlns:cc="http://creativecommons.org/ns#"
   xmlns:rdf="http://www.w3.org/1999/02/22-rdf-syntax-ns#"
   xmlns:svg="http://www.w3.org/2000/svg"
   xmlns="http://www.w3.org/2000/svg"
   xmlns:sodipodi="http://sodipodi.sourceforge.net/DTD/sodipodi-0.dtd"
   xmlns:inkscape="http://www.inkscape.org/namespaces/inkscape"
   width="200px"
   height="135px"
   viewBox="0 0 200 135"
   version="1.1"
   id="svg14"
   sodipodi:docname="first_run_ultimaker_cloud.svg"
   inkscape:version="1.0.2-2 (e86c870879, 2021-01-15)">
  <metadata
     id="metadata20">
    <rdf:RDF>
      <cc:Work
         rdf:about="">
        <dc:format>image/svg+xml</dc:format>
        <dc:type
           rdf:resource="http://purl.org/dc/dcmitype/StillImage" />
      </cc:Work>
    </rdf:RDF>
  </metadata>
  <defs
     id="defs18" />
  <sodipodi:namedview
     pagecolor="#ffffff"
     bordercolor="#666666"
     borderopacity="1"
     objecttolerance="10"
     gridtolerance="10"
     guidetolerance="10"
     inkscape:pageopacity="0"
     inkscape:pageshadow="2"
     inkscape:window-width="1920"
     inkscape:window-height="1001"
     id="namedview16"
     showgrid="false"
     inkscape:zoom="4.2956737"
     inkscape:cx="100.80656"
     inkscape:cy="56.860208"
     inkscape:window-x="-9"
     inkscape:window-y="-9"
     inkscape:window-maximized="1"
     inkscape:current-layer="g12" />
  <!-- Generator: Sketch 52.6 (67491) - http://www.bohemiancoding.com/sketch -->
  <title
     id="title2">Group-cloud</title>
  <desc
     id="desc4">Created with Sketch.</desc>
  <g
     stroke="none"
     stroke-width="1"
     fill="none"
     fill-rule="evenodd"
     id="g12">
    <g
       transform="matrix(2.0673162,0,0,2.0673162,32.202199,1.7521457)"
       fill="#3282FF"
       id="g10">
      <path
         d="M 32.308057,64.124345 C 14.46481,64.124345 0,49.769622 0,32.062173 0,14.354724 14.46481,0 32.308057,0 c 17.843248,0 32.308058,14.354724 32.308058,32.062173 0,17.707449 -14.46481,32.062172 -32.308058,32.062172 z M 46.28529,26.972026 c -0.397637,-3.493955 -3.37992,-6.165803 -6.958658,-6.165803 -0.994094,0 -1.78937,0.205527 -2.584645,0.61658 -1.789369,-2.877374 -4.97047,-4.727115 -8.35039,-4.727115 -5.566927,0 -9.940941,4.521589 -9.940941,10.276338 0,0 0,0 0,0.205526 -3.37992,0.411054 -5.964564,3.493955 -5.964564,6.98791 0,3.905008 3.181101,7.193436 6.958658,7.193436 2.982282,0 22.267707,0 25.846446,0 3.777557,0 6.958659,-3.288428 6.958659,-7.193436 0,-3.699482 -2.584645,-6.576856 -5.964565,-7.193436 z"
         id="path8" />
    </g>
  </g>
</svg>
