<?xml version="1.0" encoding="UTF-8" standalone="no"?>
<!-- Created with Inkscape (http://www.inkscape.org/) -->

<svg
   xmlns:dc="http://purl.org/dc/elements/1.1/"
   xmlns:cc="http://creativecommons.org/ns#"
   xmlns:rdf="http://www.w3.org/1999/02/22-rdf-syntax-ns#"
   xmlns:svg="http://www.w3.org/2000/svg"
   xmlns="http://www.w3.org/2000/svg"
   xmlns:sodipodi="http://sodipodi.sourceforge.net/DTD/sodipodi-0.dtd"
   xmlns:inkscape="http://www.inkscape.org/namespaces/inkscape"
   width="110mm"
   height="33mm"
   viewBox="0 0 110 33"
   version="1.1"
   id="svg8"
   inkscape:version="0.92.2 (5c3e80d, 2017-08-06)"
   sodipodi:docname="logo.svg">
  <defs
     id="defs2" />
  <sodipodi:namedview
     id="base"
     pagecolor="#000000"
     bordercolor="#666666"
     borderopacity="1.0"
     inkscape:pageopacity="0.0"
     inkscape:pageshadow="2"
     inkscape:zoom="1.979899"
     inkscape:cx="97.165681"
     inkscape:cy="69.313647"
     inkscape:document-units="mm"
     inkscape:current-layer="g4570"
     showgrid="false"
     inkscape:window-width="1920"
     inkscape:window-height="1137"
     inkscape:window-x="2872"
     inkscape:window-y="-8"
     inkscape:window-maximized="1"
     inkscape:pagecheckerboard="true" />
  <metadata
     id="metadata5">
    <rdf:RDF>
      <cc:Work
         rdf:about="">
        <dc:format>image/svg+xml</dc:format>
        <dc:type
           rdf:resource="http://purl.org/dc/dcmitype/StillImage" />
        <dc:title />
      </cc:Work>
    </rdf:RDF>
  </metadata>
  <g
     inkscape:label="Layer 1"
     inkscape:groupmode="layer"
     id="layer1"
     transform="translate(0,-264)">
    <g
       id="g4570"
       transform="matrix(0.1443759,0,0,0.14575971,-5.7750359,237.12191)">
      <polygon
         id="polygon4506"
         points="741.8,410.8 781.7,410.8 801.9,390.6 801.9,350.7 762,350.7 741.8,370.9 "
         class="st0"
         style="fill:#3282ff;fill-opacity:1" />
      <path
         id="path4508"
         d="m 40,334.7 c 0,44.3 28.1,76.1 74.4,76.1 h 70.3 V 371 H 114.4 C 91,370.9 79.5,354.4 79.5,334.7 79.5,315 91,298.8 114.4,298.6 h 70.3 V 258.9 H 114.4 C 68.1,258.9 40,290.4 40,334.7 Z"
         class="st1"
         inkscape:connector-curvature="0"
         style="fill:#000000" />
      <path
         id="path4510"
         d="m 336.7,338.8 c 0,22.6 -16.5,34.7 -36.2,34.7 -19.7,0 -35.9,-12.1 -35.9,-34.7 v -79.9 h -39.9 v 79.9 c 0,44.7 31.5,71.9 75.8,71.9 44.3,0 76.1,-27.1 76.1,-71.9 v -79.9 h -39.9 z"
         class="st1"
         inkscape:connector-curvature="0"
         style="fill:#000000" />
      <path
         id="path4512"
         d="m 624.1,258.9 c -46.3,0 -74.4,31.5 -74.4,75.8 0,44.3 28.1,76.1 74.4,76.1 h 16.4 V 371 h -16.4 c -23.4,-0.1 -34.9,-16.6 -34.9,-36.3 0,-19.7 11.5,-35.9 34.9,-36.1 h 37.3 v 52 20.4 39.8 h 39.9 v -2.3 -37.5 -72.4 -32.8 -7 h -77.2 z"
         class="st1"
         inkscape:connector-curvature="0"
         style="fill:#000000" />
      <path
         id="path4514"
         d="m 416.6,333 v 77.8 H 456 V 333 c 0,-19.3 11.5,-35.1 34.9,-35.3 h 28.8 V 258.8 H 491 c -46.3,0.1 -74.4,30.9 -74.4,74.2 z"
         class="st1"
         inkscape:connector-curvature="0"
         style="fill:#000000" />
      <g
         id="g4542">
        <path
           id="path4518"
           d="m 456.3,198.8 c -3.1,0 -5.3,1.8 -5.3,5.3 v 29.4 c 0,3.5 2.1,5.3 5.3,5.3 3.2,0 5.3,-1.8 5.3,-5.3 v -29.4 c -0.1,-3.5 -2.2,-5.3 -5.3,-5.3 z"
           class="st1"
           inkscape:connector-curvature="0"
           style="fill:#000000" />
        <path
           id="path4520"
           d="m 456.3,184.4 c -2.9,0 -5.3,2.4 -5.3,5.4 0,0 0,0.1 0,0.1 0,3 2.5,5.3 5.5,5.3 3,0 5.3,-2.5 5.3,-5.5 -0.1,-3 -2.6,-5.3 -5.5,-5.3 z"
           class="st1"
           inkscape:connector-curvature="0"
           style="fill:#000000" />
        <path
           id="path4522"
           d="m 408.8,184.6 v 0 l -9.4,-0.1 c -1.6,0 -3,1.3 -3,3 0,1.6 1.3,3 3,3 h 3.6 v 43 c 0,3.5 2.1,5.3 5.3,5.3 3.1,0 5.3,-1.8 5.3,-5.3 v -43.6 c -0.2,-3.4 -2,-5.1 -4.8,-5.3 z"
           class="st1"
           inkscape:connector-curvature="0"
           style="fill:#000000" />
        <path
           id="path4524"
           d="m 521.3,204.9 c -1.1,-2.9 -3.8,-4.8 -6.8,-4.7 -0.4,0 -0.7,0.1 -1.1,0.1 -2.6,0.3 -4.8,2 -5.7,4.5 l -6.4,15.2 -6.4,-15.3 c -1.1,-2.8 -3.8,-4.6 -6.8,-4.6 -0.2,0 -0.3,0 -0.5,0 h -8.9 c -1.6,0 -3,1.3 -3,3 0,1.6 1.3,3 3,3 h 2.2 l -9.2,25.8 c -1,2.7 0.4,5.7 3.1,6.7 0.6,0.2 1.1,0.3 1.7,0.3 2.2,0 4.1,-1.4 4.9,-3.5 l 6.9,-19.2 7.9,18.8 c 0.5,1.7 1.8,3 3.5,3.5 0,0 0.1,0 0.1,0 0.2,0.1 0.4,0.1 0.6,0.1 0.3,0 0.5,0.1 0.8,0.1 0,0 0,0 0.1,0 0,0 0,0 0,0 v 0 0.1 c 2.1,0 4,-1.3 4.8,-3.2 l 8.1,-19.5 6.9,19.3 c 0.7,2.1 2.7,3.4 4.9,3.5 h 0.1 c 0.6,0 1.2,-0.1 1.7,-0.3 0,0 0,0 0,0 2.7,-1 4.1,-3.9 3.1,-6.6 z"
           class="st1"
           inkscape:connector-curvature="0"
           style="fill:#000000" />
        <path
           id="path4526"
           d="m 476.5,238.8 c 0,0 0,0 0,0 0,0 0,0 0,0 z"
           class="st1"
           inkscape:connector-curvature="0"
           style="fill:#000000" />
        <path
           id="path4528"
           d="m 608.9,215.4 7.8,-8.1 c 1.1,-0.8 1.6,-2.1 1.6,-3.5 -0.2,-2.6 -2.3,-4.7 -5,-4.8 -1.6,0.1 -3,0.8 -4,2 l -9.1,10.2 c -1.1,1.3 -1.7,2.9 -1.7,4.6 v 0 c 0,3.2 2.8,6.3 2.8,6.3 l 10,14.1 c 1,1.6 2.8,2.5 4.7,2.5 2.8,-0.1 5,-2.3 5,-5.1 0,-1.2 -0.4,-2.4 -1.1,-3.4 z"
           class="st1"
           inkscape:connector-curvature="0"
           style="fill:#000000" />
        <path
           id="path4530"
           d="m 590.9,184.6 v 0 l -9.4,-0.1 c -1.6,0 -3,1.3 -3,3 0,1.7 1.3,3 3,3 h 3.6 v 42.9 c 0,3.5 2.1,5.3 5.3,5.3 3.2,0 5.3,-1.8 5.3,-5.3 v -8 -35.5 c -0.1,-3.4 -1.9,-5.1 -4.8,-5.3 z"
           class="st1"
           inkscape:connector-curvature="0"
           style="fill:#000000" />
        <path
           id="path4532"
           d="m 440.7,200.2 h -3.3 v -6.7 c 0,-3.5 -2.1,-5.3 -5.3,-5.3 -3.1,0 -5.3,1.8 -5.3,5.3 v 6.7 c -1.6,0 -3,1.3 -3,3 0,1.6 1.3,3 3,3 v 27.4 c 0,3.5 2.2,5.3 5.3,5.3 3.1,0 5.3,-1.8 5.3,-5.3 V 228 206.2 h 3.3 c 1.6,0 3,-1.3 3,-3 0,-1.7 -1.3,-3 -3,-3 z"
           class="st1"
           inkscape:connector-curvature="0"
           style="fill:#000000" />
        <path
           id="path4534"
           d="m 573.4,227.7 v -18.6 c 0,-7.6 -7.7,-11.2 -21.5,-10.1 -2.3,0.2 -9.2,1.5 -9.2,1.5 -2.1,0.5 -4.2,1.6 -4.2,4.2 -0.1,2 1.4,3.7 3.4,3.8 0,0 0,0 0,0 0.3,0 0.6,0 0.8,0 0,0 7.4,-1.4 10,-1.6 1.3,-0.1 2.7,-0.1 4,-0.1 3.5,0.1 6.2,0.5 6.2,3.6 v 13.8 c 0,3.9 -3.5,7.6 -9.3,7.6 -3.6,0 -5.8,-1.9 -5.8,-4.3 0,-3.2 2.4,-4.5 6.8,-5.2 1.6,-0.3 2.6,-1.8 2.3,-3.4 0,0 0,0 0,0 0,-0.1 -0.1,-0.3 -0.1,-0.4 -0.8,-3.1 -4.7,-2.7 -4.7,-2.7 -8.1,0.9 -14.7,3.4 -14.7,12.1 0,6.6 5.9,10.7 11.9,10.7 5.5,0 10.3,-1.6 14.4,-6.1 0.2,3.2 1.7,6.1 6.2,6.1 2.5,0 4.8,-1.7 4.8,-4 -0.2,-1.4 -1.3,-2.5 -1.3,-6.9 z"
           class="st1"
           inkscape:connector-curvature="0"
           style="fill:#000000" />
        <path
           id="path4536"
           d="m 387.8,213 -0.1,0.1 v -22.7 c -0.2,-3 -2.6,-5.4 -5.5,-5.5 -3.3,-0.2 -6.1,2.3 -6.3,5.5 v 28.5 c 0,7 -4,10.2 -10.7,10.2 -6.8,0 -10.7,-3.2 -10.7,-10.2 v -28.5 c 0,-0.2 0,-0.5 0,-0.7 0,0 0,0 0,0 -0.2,-3.1 -2.8,-5.4 -5.9,-5.2 v 0 0 h -0.7 -8.7 c -1.6,0 -3,1.3 -3,3 0,1.7 1.3,3 3,3 h 3.5 c 0,0 0,0 0,0 l 0.1,27.5 c 0,14.3 8.8,20.7 22.5,20.7 5.3,0 9.9,-1 13.5,-3 0.9,1.7 2.5,2.9 5.4,2.9 2.5,0 4.8,-1.7 4.8,-4 0,-1.7 -1.1,-2.7 -1.1,-7.1 V 213 Z"
           class="st1"
           inkscape:connector-curvature="0"
           style="fill:#000000" />
        <path
           id="path4538"
           d="m 645.5,199 c -12.5,0 -19.9,8.2 -19.9,20.5 0,9.2 5.4,19.1 20.3,19.1 2.9,0 12.5,-2.2 12.5,-2.2 2.5,-0.5 4.3,-1.7 3.7,-5 -0.5,-2.3 -2.3,-3.3 -5,-2.9 0,0 -8.3,1.6 -11.2,1.8 -6.1,0.5 -9.7,-4 -9.7,-9.6 0,0 -1.7,-14.4 9.6,-14.4 4.6,0 8.2,3.7 8.9,8.4 h -11.1 c -1.6,0 -3,1.3 -3,3 0,1.7 1.3,3 3,3 v 0 0 H 660 c 3.5,0 4.6,-0.9 4.6,-4.5 -0.1,-8.6 -7,-17.2 -19.1,-17.2 z"
           class="st1"
           inkscape:connector-curvature="0"
           style="fill:#000000" />
        <path
           id="path4540"
           d="m 696.9,198.9 c -0.3,0 -0.6,0 -0.9,0 h -5.5 c -2.9,0 -4.9,1.5 -5.2,4.4 -0.3,-2.9 -2.3,-4.3 -5.2,-4.3 h -9.4 c -1.6,0 -3,1.3 -3,3 0,1.6 1.3,3 3,3 h 4.2 v 28.6 c 0,3.5 2.1,5.3 5.3,5.3 3.1,0 5.3,-1.8 5.3,-5.3 v -21.1 c 0,-1.6 1.3,-3 3,-3 h 7.7 c 3.5,0 5.3,-2.1 5.3,-5.3 0,-2.8 -1.9,-5.1 -4.6,-5.3 z"
           class="st1"
           inkscape:connector-curvature="0"
           style="fill:#000000" />
      </g>
    </g>
  </g>
  <style
     id="style4504"
     type="text/css">
	.st0{fill:#333333;}
	.st1{fill:#000000;}
</style>
</svg>
