<?xml version="1.0" encoding="UTF-8"?>
<svg width="82px" height="18px" viewBox="0 0 82 18" version="1.1" xmlns="http://www.w3.org/2000/svg">
    <polygon fill="#20A6DB" points="82 10.3797468 77.8757345 10.3797468 75.7721519 12.4764557 75.7721519 16.6075949 79.9067798 16.6075949 82 14.5108861" />
    <path fill="black" d="M0,9.32538529 C0,14.168804 3.22511,17.6455696 8.53908129,17.6455696 L16.6075949,17.6455696 L16.6075949,13.294146 L8.53908129,13.294146 C5.8534025,13.2832128 4.53351762,11.4792306 4.53351762,9.32538529 C4.53351762,7.17153994 5.8534025,5.40035747 8.53908129,5.37849102 L16.6075949,5.37849102 L16.6075949,1.03800064 L8.53908129,1.03800064 C3.21363275,1.02706742 0,4.47103333 0,9.32538529 Z" />
    <path fill="black" d="M33.004725,9.78605176 C33.004725,12.2613239 31.20074,13.5835846 29.0468913,13.5835846 C26.8930426,13.5835846 25.1218573,12.2613239 25.1218573,9.78605176 L25.1218573,1.03797468 L20.7594937,1.03797468 L20.7594937,9.78605176 C20.7594937,14.6837056 24.203465,17.6455696 29.0468913,17.6455696 C33.8903176,17.6455696 37.3670886,14.6731275 37.3670886,9.78605176 L37.3670886,1.03797468 L33.004725,1.03797468 L33.004725,9.78605176 L33.004725,9.78605176 Z" />
    <path fill="black" d="M62.1251127,1.03797468 C57.0530042,1.03797468 53.9746835,4.47968021 53.9746835,9.31992005 C53.9746835,14.1601599 57.0530042,17.6346436 62.1251127,17.6346436 L63.9217127,17.6346436 L63.9217127,13.297002 L62.1251127,13.297002 C59.5616713,13.2860759 58.3018603,11.4832778 58.3018603,9.3308461 C58.3018603,7.17841439 59.5616713,5.4083944 62.1251127,5.38654231 L66.2112822,5.38654231 L66.2112822,11.0680879 L66.2112822,13.297002 L66.2112822,17.6455696 L70.5822785,17.6455696 L70.5822785,17.3942705 L70.5822785,13.297002 L70.5822785,5.38654231 L70.5822785,1.80279813 L70.5822785,1.03797468 L62.1251127,1.03797468 Z" />
    <path fill="black" d="M41.5189873,8.10074451 L41.5189873,16.6075949 L45.8823067,16.6075949 L45.8823067,8.10074451 C45.8823067,5.99540589 47.1558644,4.26411221 49.7472774,4.24273822 L52.9367089,4.24273822 L52.9367089,0 L49.7472774,0 C44.6198234,0 41.5189873,3.36640438 41.5189873,8.10074451 Z" />
</svg>