<?xml version="1.0" encoding="utf-8"?>
<svg version="1.1" xmlns="http://www.w3.org/2000/svg" width="170.6px" height="23.7px" viewBox="0 0 170.6 23.7">
<g fill="white">
  <path class="cls-1" d="M128.2,4.1c-1.4,0-2.6,.3-3.6,.9s-1.8,1.5-2.3,2.6-.8,2.4-.8,3.9,.2,2.9,.7,4,1.2,2,2.2,2.6,2.2,.9,3.6,.9c.8,0,1.6-.1,2.3-.2s1.4-.3,2-.5v1.2c-.6,.2-1.2,.4-2,.5s-1.5,.2-2.5,.2c-1.7,0-3.2-.4-4.3-1.1-1.2-.7-2-1.8-2.6-3.1s-.9-2.9-.9-4.7c0-1.7,.3-3.2,1-4.5,.6-1.3,1.6-2.4,2.8-3.1s2.7-1.1,4.4-1.1,3.2,.3,4.5,1l-.5,1.4c-1.3-.6-2.6-.9-4-.9Z"/>
  <path class="cls-1" d="M145.6,7.5v12.8h-1.1l-.2-2.2h-.1c-.4,.7-.9,1.3-1.6,1.7s-1.6,.7-2.7,.7c-3,0-4.5-1.6-4.5-4.7V7.5h1.4V15.8c0,1.2,.3,2.1,.8,2.7s1.4,.9,2.4,.9c2.8,0,4.2-1.64,4.2-4.9V7.5h1.4Z"/>
  <path class="cls-1" d="M155.1,7.3c.7,0,1.2,.1,1.7,.2l-.2,1.2c-.3-.1-.5-.1-.8-.1h-.8c-1.2,0-2.1,.4-2.8,1.3-.7,.9-1,2-1,3.4v7h-1.4V7.5h1.2l.1,2.4h.1c.3-.7,.8-1.3,1.5-1.8s1.4-.8,2.4-.8Z"/>
  <path class="cls-1" d="M163.4,7.3c1.4,0,2.5,.4,3.2,1.1,.7,.7,1.1,1.8,1.1,3.3v8.6h-1l-.3-2.2h0c-.4,.7-1,1.3-1.7,1.7-.7,.4-1.6,.7-2.8,.7s-2.2-.3-2.9-.9-1.1-1.5-1.1-2.7c0-1.3,.5-2.2,1.5-2.9s2.5-1,4.5-1.1l2.3-.1v-.9c0-1.3-.3-2.2-.8-2.7s-1.2-.8-2.2-.8c-.7,0-1.3,.1-1.9,.3-.6,.2-1.2,.4-1.8,.7l-.4-1.1c.6-.3,1.2-.6,2-.7,.7-.2,1.5-.3,2.3-.3Zm2.9,6.5l-2.2,.1c-1.6,.1-2.8,.3-3.6,.8s-1.2,1.2-1.2,2.2c0,.8,.2,1.4,.7,1.8s1.2,.6,2,.6c1.3,0,2.4-.4,3.1-1.1,.7-.8,1.1-1.8,1.1-3.2v-1.2h.1Z"/>
  
  <path class="cls-1" d="M102.39,16.94c-.22-.29-.43-.33-.74-.13-.85,.53-1.89,.88-3.55,.88-1.86,0-2.69-.61-3.03-1.68-.12-.36,.15-.74,.53-.74h6.43c.7,0,1.45-.81,1.45-1.51v-2.65c0-.8-.47-1.58-.98-2.19-.83-1-2.19-1.6-4.43-1.6-5.4,0-6.56,3.06-6.56,6.6s1.12,6.6,6.58,6.6c2.5,0,4.1-.49,5.73-1.72-.48-.62-.96-1.24-1.44-1.86h0Zm-7.49-4.74v-.54c0-.78,.63-1.41,1.4-1.41h2.79c.78,0,1.4,.63,1.4,1.41v1.1h-5.04c-.4,0-.56-.16-.56-.56h0Z"/>
  <path class="cls-1" d="M27.32,7.06v9.29c0,2.82,.98,3.98,4.39,3.98,.62,0,1.56,0,2.07-.05v-2.36c0-.4-.16-.56-.56-.56-.27,0-.53,0-.8,0-1.5,0-1.63-.54-1.63-1.52v-4.65c0-.4,.16-.56,.56-.56h1.87c.4,0,.56-.16,.56-.56v-1.87c0-.4-.16-.56-.56-.56h-1.87c-.4,0-.56-.16-.56-.56v-2.79c0-.4-.16-.56-.56-.56h-2.36c-.4,0-.56,.16-.56,.56v2.79Z"/>
  <path class="cls-1" d="M17.63,13.95V4.27c0-.4-.16-.56-.56-.56h-2.42c-.4,0-.56,.16-.56,.56V13.48c0,2.55-.65,3.87-3.97,3.87s-3.95-1.41-3.95-3.87V4.27c0-.4-.16-.56-.56-.56H3.06c-.4,0-.56,.16-.56,.56V13.95c0,3.18,.58,6.64,7.56,6.64s7.56-3.47,7.56-6.64h0Z"/>
  <path class="cls-1" d="M112.54,10.84c.4,0,.56-.16,.56-.56v-2.13c0-.39-.16-.56-.56-.56-.55,0-1.11,.07-1.63,.25-.69,.24-1.33,.66-1.85,1.17-.08-.32-.17-.64-.25-.96-.08-.31-.23-.42-.54-.42h-1.73c-.4,0-.56,.16-.56,.56v11.53c0,.4,.16,.56,.56,.56h2.94v-6.63c0-1.55,1.26-2.81,2.81-2.81h.24Z"/>
  <path class="cls-1" d="M39.85,20.28V8.19c0-.4-.16-.56-.56-.56h-2.36c-.4,0-.56,.16-.56,.56v11.53c0,.4,.16,.56,.56,.56h2.92Z"/>
  <path class="cls-1" d="M24.2,20.33V4.27c0-.4-.16-.56-.56-.56h-2.34c-.4,0-.56,.16-.56,.56v15.5c0,.4,.16,.56,.56,.56h2.9Z"/>
  <path class="cls-1" d="M38.11,6.45c.97,0,1.76-.79,1.76-1.77s-.79-1.77-1.76-1.77-1.76,.79-1.76,1.77,.79,1.77,1.76,1.77Z"/>
  <path class="cls-1" d="M70.35,7.33c-1.55,0-2.96,.32-4.04,.71-.46,.17-.87,.35-1.2,.52-.3,.16-.4,.54-.21,.82,.37,.55,.74,1.1,1.12,1.65,.2,.29,.4,.35,.72,.19,.79-.4,1.95-.79,3.23-.79,1.98,0,2.41,.48,2.48,1.42,.02,.21-.07,.3-.28,.3h-4.11c-2.33,0-4.21,1.89-4.21,4.22v.21c0,2.21,.85,3.91,4.75,3.91h7.23V12.36c0-3.58-.94-5.03-5.49-5.03h0Zm2.12,10.33c-1.29,0-2.59,0-3.88-.01-.78,0-1.4-.63-1.4-1.41v-.28c0-.78,.63-1.41,1.4-1.41h3.32c.4,0,.56,.16,.56,.56v2.55Z"/>
  <path class="cls-1" d="M82.64,17.14l1.21-1.44c.16-.19,.32-.18,.45,.03,.91,1.43,1.82,2.86,2.73,4.29,.12,.19,.25,.26,.47,.26h3.57c-1.47-2.38-2.94-4.77-4.41-7.15-.15-.25-.14-.43,.04-.65,1.08-1.31,2.15-2.62,3.23-3.94,.3-.37,.04-.92-.43-.92h-2.36c-.19,0-.31,.06-.43,.2-1.21,1.48-2.43,2.95-3.64,4.43-.21,.26-.5,.15-.5-.18V4.27c0-.4-.16-.56-.56-.56h-2.34c-.4,0-.56,.16-.56,.56v15.45c0,.39,.16,.55,.55,.56h2.91v-2.96c0-.07,.02-.13,.07-.18h0Z"/>
  <path class="cls-1" d="M46.93,10.63c1.24,3.1,2.49,6.2,3.73,9.31,.1,.26,.25,.35,.52,.35h2.01c.28,0,.42-.1,.52-.35,1.24-3.1,2.49-6.21,3.73-9.32,.13-.34,.55-.25,.54,.11,0,3,.01,6,.02,8.99,0,.4,.16,.56,.56,.56h3.01V5.11c0-.78-.63-1.41-1.4-1.41h-2.4c-.7,0-1.06,.25-1.31,.9-1.29,3.26-2.58,6.52-3.87,9.78-.12,.3-.38,.3-.51,.01-1.29-3.27-2.58-6.54-3.87-9.81-.25-.64-.61-.89-1.3-.89h-2.42c-.78,0-1.4,.63-1.4,1.41v14.61c0,.4,.16,.56,.56,.56h2.74V10.73c0-.36,.41-.44,.54-.11h0Z"/>
  </g>
</svg>
