<?xml version="1.0" encoding="utf-8"?>
<svg version="1.1" xmlns="http://www.w3.org/2000/svg" width="170.6px" height="23.7px" viewBox="0 0 170.6 23.7">
<g fill="white">
	<!-- U --> <path d="M16.3,3.1v11.1c0,1.2-0.3,2.3-0.8,3.2s-1.3,1.7-2.3,2.3c-1,0.6-2.3,0.8-3.9,0.8c-2.2,0-3.9-0.6-5.1-1.7s-1.7-2.7-1.7-4.6v-11h3.1v10.7c0,1.4,0.3,2.4,0.9,3.1c0.6,0.6,1.6,1,2.9,1c1.3,0,2.3-0.3,2.9-1c0.6-0.7,0.9-1.7,0.9-3V3.1H16.3z" />
	<!-- l --> <path d="M22.6,20.3h-3V2h3V20.3z" />
	<!-- t --> <path d="M30.8,18.1c0.4,0,0.7,0,1.1-0.1c0.4-0.1,0.7-0.2,1-0.3V20c-0.3,0.2-0.7,0.3-1.2,0.4c-0.5,0.1-1,0.1-1.6,0.1c-0.8,0-1.4-0.1-2-0.4s-1.1-0.7-1.4-1.3c-0.4-0.6-0.5-1.5-0.5-2.6V9.5h-1.8V8.2l1.9-1.1l1-2.8h1.9v2.9h3.7v2.3h-3.7v6.7c0,0.6,0.2,1.1,0.5,1.4C29.9,17.9,30.3,18.1,30.8,18.1z" />
	<!-- i --> <path d="M36.3,2.2c0.4,0,0.8,0.1,1.2,0.3C37.8,2.8,38,3.2,38,3.8c0,0.6-0.2,1-0.5,1.2c-0.3,0.2-0.7,0.4-1.2,0.4c-0.5,0-0.9-0.1-1.2-0.4c-0.3-0.2-0.5-0.7-0.5-1.2c0-0.6,0.2-1,0.5-1.2C35.5,2.3,35.8,2.2,36.3,2.2z M37.8,7.2v13h-3v-13H37.8z" />
	<!-- m --> <path d="M55.9,7c1.5,0,2.6,0.4,3.3,1.1c0.7,0.8,1.1,2,1.1,3.6v8.5h-3v-7.9c0-1.9-0.7-2.9-2.2-2.9c-1.1,0-1.8,0.3-2.3,1c-0.4,0.7-0.7,1.7-0.7,3v6.8h-3v-7.9c0-1.9-0.7-2.9-2.2-2.9c-1.1,0-1.9,0.4-2.3,1.2c-0.4,0.8-0.6,1.9-0.6,3.3v6.4h-3v-13h2.3L43.7,9h0.2c0.4-0.7,0.9-1.2,1.6-1.5C46.2,7.2,46.9,7,47.7,7c1,0,1.8,0.2,2.5,0.5c0.7,0.3,1.2,0.8,1.5,1.5h0.2c0.4-0.7,1-1.2,1.7-1.5C54.3,7.2,55.1,7,55.9,7z" />
	<!-- a --> <path d="M68.6,7c1.7,0,3,0.4,3.8,1.1c0.9,0.7,1.3,1.9,1.3,3.4v8.7h-2.1L71,18.5h-0.1c-0.6,0.7-1.2,1.2-1.8,1.5c-0.6,0.3-1.5,0.5-2.5,0.5c-1.2,0-2.1-0.3-2.9-1c-0.8-0.7-1.2-1.7-1.2-3c0-1.3,0.5-2.4,1.5-3c1-0.7,2.5-1,4.5-1.1l2.3-0.1v-0.6c0-0.8-0.2-1.4-0.6-1.8c-0.4-0.4-1-0.5-1.7-0.5c-0.7,0-1.3,0.1-1.9,0.3c-0.6,0.2-1.2,0.4-1.8,0.7l-1-2.1c0.6-0.3,1.4-0.6,2.2-0.8S67.7,7,68.6,7z M70.7,14.1l-1.6,0c-1.3,0-2.2,0.3-2.8,0.7c-0.5,0.4-0.8,1-0.8,1.6c0,0.6,0.2,1.1,0.5,1.3c0.4,0.3,0.8,0.4,1.4,0.4c0.9,0,1.6-0.3,2.2-0.8c0.6-0.5,0.9-1.3,0.9-2.2V14.1z" />
	<!-- k --> <path d="M79.8,2v8.7c0,0.4,0,0.8,0,1.3c0,0.5-0.1,0.9-0.1,1.3h0.1c0.2-0.3,0.4-0.6,0.7-1s0.5-0.7,0.8-1l3.8-4.1h3.4l-5.2,5.6l5.5,7.4h-3.5l-4-5.6l-1.5,1.2v4.3h-3V2H79.8z" />
	<!-- e --> <path d="M95.4,7c1.7,0,3.1,0.5,4.1,1.6c1,1,1.5,2.5,1.5,4.3v1.5h-8.6c0,1.2,0.4,2.1,1,2.7c0.6,0.6,1.5,1,2.6,1c0.8,0,1.6-0.1,2.3-0.3s1.4-0.4,2.1-0.7v2.4c-0.6,0.3-1.3,0.5-2,0.7c-0.7,0.1-1.5,0.2-2.5,0.2c-1.3,0-2.4-0.2-3.4-0.7c-1-0.5-1.7-1.2-2.3-2.2c-0.6-1-0.8-2.2-0.8-3.7c0-2.2,0.5-3.9,1.6-5.1C92.1,7.6,93.6,7,95.4,7z M95.4,9.2c-0.8,0-1.5,0.3-2,0.8c-0.5,0.5-0.8,1.3-0.9,2.3h5.6c0-0.9-0.2-1.6-0.7-2.2C97,9.5,96.3,9.2,95.4,9.2z" />
	<!-- r --> <path d="M110.2,7c0.2,0,0.4,0,0.7,0c0.3,0,0.5,0.1,0.6,0.1l-0.3,2.8c-0.2,0-0.4-0.1-0.6-0.1c-0.2,0-0.4,0-0.6,0c-0.6,0-1.2,0.1-1.8,0.4s-1,0.7-1.4,1.2c-0.3,0.5-0.5,1.2-0.5,2.1v6.7h-3v-13h2.3l0.4,2.3h0.1c0.4-0.7,0.9-1.3,1.6-1.8C108.6,7.3,109.3,7,110.2,7z" />
	<!-- C --> <path d="M127.2,4.1c-1.4,0-2.6,0.3-3.6,0.9c-1,0.6-1.8,1.5-2.3,2.6s-0.8,2.4-0.8,3.9c0,1.5,0.2,2.9,0.7,4c0.5,1.1,1.2,2,2.2,2.6s2.2,0.9,3.6,0.9c0.8,0,1.6-0.1,2.3-0.2c0.7-0.1,1.4-0.3,2-0.5v1.2c-0.6,0.2-1.2,0.4-2,0.5s-1.5,0.2-2.5,0.2c-1.7,0-3.2-0.4-4.3-1.1c-1.2-0.7-2-1.8-2.6-3.1s-0.9-2.9-0.9-4.7c0-1.7,0.3-3.2,1-4.5c0.6-1.3,1.6-2.4,2.8-3.1s2.7-1.1,4.4-1.1c1.7,0,3.2,0.3,4.5,1L131.2,5C129.9,4.4,128.6,4.1,127.2,4.1z" />
	<!-- u --> <path d="M144.6,7.5v12.8h-1.1l-0.2-2.2h-0.1c-0.4,0.7-0.9,1.3-1.6,1.7s-1.6,0.7-2.7,0.7c-3,0-4.5-1.6-4.5-4.7V7.5h1.4v8.3c0,1.2,0.3,2.1,0.8,2.7s1.4,0.9,2.4,0.9c2.8,0,4.2-1.6,4.2-4.9v-7H144.6z" />
	<!-- r --> <path d="M154.1,7.3c0.7,0,1.2,0.1,1.7,0.2l-0.2,1.2c-0.3-0.1-0.5-0.1-0.8-0.1s-0.5,0-0.8,0c-1.2,0-2.1,0.4-2.8,1.zc-0.7,0.9-1,2-1,3.4v7h-1.4V7.5h1.2l0.1,2.4h0.1c0.3-0.7,0.8-1.3,1.5-1.8S153.1,7.3,154.1,7.3z" />
	<!-- a --> <path d="M162.4,7.3c1.4,0,2.5,0.4,3.2,1.1s1.1,1.8,1.1,3.3v8.6h-1l-0.3-2.2h0c-0.4,0.7-1,1.3-1.7,1.7c-0.7,0.4-1.6,0.7-2.8,0.7c-1.2,0-2.2-0.3-2.9-0.9s-1.1-1.5-1.1-2.7c0-1.3,0.5-2.2,1.5-2.9c1-0.7,2.5-1,4.5-1.1l2.3-0.1v-0.9c0-1.3-0.3-2.2-0.8-2.7s-1.2-0.8-2.2-0.8c-0.7,0-1.3,0.1-1.9,0.3c-0.6,0.2-1.2,0.4-1.8,0.7l-0.4-1.1c0.6-0.3,1.2-0.6,2-0.7C160.8,7.4,161.6,7.3,162.4,7.3z M165.3,13.8l-2.2,0.1c-1.6,0.1-2.8,0.3-3.6,0.8c-0.8,0.5-1.2,1.2-1.2,2.2c0,0.8,0.2,1.4,0.7,1.8c0.5,0.4,1.2,0.6,2,0.6c1.3,0,2.4-0.4,3.1-1.1c0.7-0.8,1.1-1.8,1.1-3.2V13.8z" />
</g>
</svg>
