<?xml version="1.0" encoding="UTF-8" standalone="no"?>
<svg
   width="577"
   height="113"
   viewBox="0 0 577 113"
   fill="none"
   version="1.1"
   id="svg71"
   sodipodi:docname="logo.svg"
   inkscape:version="1.1.2 (b8e25be833, 2022-02-05)"
   xmlns:inkscape="http://www.inkscape.org/namespaces/inkscape"
   xmlns:sodipodi="http://sodipodi.sourceforge.net/DTD/sodipodi-0.dtd"
   xmlns="http://www.w3.org/2000/svg"
   xmlns:svg="http://www.w3.org/2000/svg">
  <sodipodi:namedview
     id="namedview73"
     pagecolor="#ffffff"
     bordercolor="#000000"
     borderopacity="0.25"
     inkscape:pageshadow="2"
     inkscape:pageopacity="0.0"
     inkscape:pagecheckerboard="0"
     showgrid="false"
     inkscape:zoom="1.9930676"
     inkscape:cx="288.24913"
     inkscape:cy="16.557391"
     inkscape:window-width="1920"
     inkscape:window-height="1137"
     inkscape:window-x="-1928"
     inkscape:window-y="-6"
     inkscape:window-maximized="1"
     inkscape:current-layer="svg71" />
  <g
     clip-path="url(#clip0_2550_8824)"
     id="g50"
     style="fill:#ffffff">
    <path
       d="M141.128 58.8095L142.628 55.8628C145.213 58.3945 149.82 60.2621 154.581 60.2621C161.358 60.2621 164.305 57.4162 164.305 53.8469C164.305 43.91 142.006 50.0109 142.006 36.6114C142.006 31.2872 146.144 26.6804 155.358 26.6804C159.443 26.6804 163.688 27.8721 166.581 29.888L165.289 32.9414C162.182 30.9255 158.565 29.9413 155.358 29.9413C148.735 29.9413 145.788 32.888 145.788 36.5106C145.788 46.4417 168.087 40.4415 168.087 53.6335C168.087 58.9636 163.842 63.5171 154.587 63.5171C149.156 63.5171 143.826 61.602 141.134 58.8095H141.128Z"
       fill="#0D1424"
       id="path2"
       style="fill:#ffffff" />
    <path
       d="M184.742 45.0958C184.742 34.5422 192.811 26.6804 203.78 26.6804C214.748 26.6804 222.764 34.4948 222.764 45.0958C222.764 55.6968 214.642 63.5112 203.78 63.5112C192.918 63.5112 184.742 55.6494 184.742 45.0958ZM218.934 45.0958C218.934 36.4573 212.466 30.0955 203.774 30.0955C195.082 30.0955 188.513 36.4573 188.513 45.0958C188.513 53.7343 195.029 60.0961 203.774 60.0961C212.519 60.0961 218.934 53.7343 218.934 45.0958Z"
       fill="#0D1424"
       id="path4"
       style="fill:#ffffff" />
    <path
       d="M242.887 26.9887H246.717V59.8886H266.994V63.1969H242.887V26.9887Z"
       fill="#0D1424"
       id="path6"
       style="fill:#ffffff" />
    <path
       d="M360.637 26.9887L344.599 63.2029H340.822L324.784 26.9887H328.923L342.785 58.4419L356.753 26.9887H360.631H360.637Z"
       fill="#0D1424"
       id="path8"
       style="fill:#ffffff" />
    <path
       d="M388.936 30.973L397.628 50.4259L397.598 50.3548L403.367 63.2029H407.404L390.851 26.9887H387.074L370.52 63.2029H374.505L388.936 30.973Z"
       fill="#0D1424"
       id="path10"
       style="fill:#ffffff" />
    <path
       d="M430.166 30.303H417.442V26.9887H446.719V30.2971H433.996V63.1969H430.166V30.303Z"
       fill="#0D1424"
       id="path12"
       style="fill:#ffffff" />
    <path
       d="M464.364 26.9887H468.194V63.2029H464.364V26.9887Z"
       fill="#0D1424"
       id="path14"
       style="fill:#ffffff" />
    <path
       d="M488.317 45.0958C488.317 34.5422 496.386 26.6804 507.355 26.6804C518.324 26.6804 526.34 34.4948 526.34 45.0958C526.34 55.6968 518.217 63.5112 507.355 63.5112C496.493 63.5112 488.317 55.6494 488.317 45.0958ZM522.515 45.0958C522.515 36.4573 516.047 30.0955 507.355 30.0955C498.663 30.0955 492.094 36.4573 492.094 45.0958C492.094 53.7343 498.61 60.0961 507.355 60.0961C516.1 60.0961 522.515 53.7343 522.515 45.0958Z"
       fill="#0D1424"
       id="path16"
       style="fill:#ffffff" />
    <path
       d="M576.73 26.9887V63.2029H573.576L550.299 33.8189V63.2029H546.469V26.9887H549.623L572.953 56.3727V26.9887H576.73Z"
       fill="#0D1424"
       id="path18"
       style="fill:#ffffff" />
    <path
       d="M311.159 59.8886H286.181V63.2088H311.159V59.8886Z"
       fill="#0D1424"
       id="path20"
       style="fill:#ffffff" />
    <path
       d="M311.159 26.9887H286.181V30.3089H311.159V26.9887Z"
       fill="#0D1424"
       id="path22"
       style="fill:#ffffff" />
    <path
       d="M308.047 43.4357H286.181V46.7559H308.047V43.4357Z"
       fill="#0D1424"
       id="path24"
       style="fill:#ffffff" />
    <path
       d="M235.66 90.1382H236.638V99.3756H235.66V90.1382Z"
       fill="#0D1424"
       id="path26"
       style="fill:#ffffff" />
    <path
       d="M257.544 90.1382V99.3756H256.737L250.797 91.8813V99.3756H249.818V90.1382H250.625L256.577 97.6324V90.1382H257.538H257.544Z"
       fill="#0D1424"
       id="path28"
       style="fill:#ffffff" />
    <path
       d="M269.852 98.255L270.238 97.502C270.896 98.1482 272.07 98.6226 273.285 98.6226C275.016 98.6226 275.763 97.8992 275.763 96.9862C275.763 94.4545 270.078 96.0079 270.078 92.5928C270.078 91.2351 271.133 90.0611 273.481 90.0611C274.524 90.0611 275.603 90.3635 276.344 90.8793L276.012 91.656C275.218 91.1402 274.299 90.8912 273.481 90.8912C271.791 90.8912 271.038 91.6442 271.038 92.5691C271.038 95.1008 276.724 93.5711 276.724 96.9387C276.724 98.2965 275.645 99.4585 273.279 99.4585C271.892 99.4585 270.534 98.9724 269.846 98.255H269.852Z"
       fill="#0D1424"
       id="path30"
       style="fill:#ffffff" />
    <path
       d="M288.214 94.7569C288.214 92.0651 290.272 90.0611 293.07 90.0611C295.869 90.0611 297.914 92.0533 297.914 94.7569C297.914 97.4605 295.845 99.4526 293.07 99.4526C290.295 99.4526 288.214 97.4486 288.214 94.7569ZM296.942 94.7569C296.942 92.5513 295.293 90.9327 293.076 90.9327C290.859 90.9327 289.181 92.5572 289.181 94.7569C289.181 96.9565 290.841 98.5811 293.076 98.5811C295.311 98.5811 296.942 96.9565 296.942 94.7569Z"
       fill="#0D1424"
       id="path32"
       style="fill:#ffffff" />
    <path
       d="M310.288 90.1382H311.266V98.5336H316.436V99.3756H310.288V90.1382Z"
       fill="#0D1424"
       id="path34"
       style="fill:#ffffff" />
    <path
       d="M334.775 98.5336V99.3756H328.241V90.1382H334.573V90.9801H329.213V94.2648H333.992V95.0948H329.213V98.5277H334.769L334.775 98.5336Z"
       fill="#0D1424"
       id="path36"
       style="fill:#ffffff" />
    <path
       d="M366.18 96.7253C366.18 98.2668 365.06 99.4586 362.83 99.4586C361.496 99.4586 360.216 98.9961 359.504 98.2728L359.967 97.5198C360.56 98.1423 361.627 98.587 362.83 98.587C364.36 98.587 365.208 97.8755 365.208 96.7253C365.208 95.5751 364.431 94.8932 362.712 94.8932H362.054V94.1936L364.615 90.986H359.89V90.1441H365.83V90.8141L363.216 94.0988C365.196 94.2055 366.186 95.249 366.186 96.7253H366.18Z"
       fill="#0D1424"
       id="path38"
       style="fill:#ffffff" />
    <path
       d="M378.513 90.1382H382.272C385.23 90.1382 387.222 92.0355 387.222 94.7569C387.222 97.4783 385.23 99.3756 382.272 99.3756H378.513V90.1382ZM382.218 98.5336C384.673 98.5336 386.256 96.9743 386.256 94.7569C386.256 92.5394 384.673 90.9801 382.218 90.9801H379.485V98.5277H382.218V98.5336Z"
       fill="#0D1424"
       id="path40"
       style="fill:#ffffff" />
    <path
       d="M415.023 90.986H411.78V90.1441H419.251V90.986H416.007V99.3815H415.029V90.986H415.023Z"
       fill="#0D1424"
       id="path42"
       style="fill:#ffffff" />
    <path
       d="M437.518 98.5336V99.3756H430.984V90.1382H437.316V90.9801H431.956V94.2648H436.735V95.0948H431.956V98.5277H437.512L437.518 98.5336Z"
       fill="#0D1424"
       id="path44"
       style="fill:#ffffff" />
    <path
       d="M449.127 94.7569C449.127 92.0533 451.184 90.0611 453.971 90.0611C455.316 90.0611 456.532 90.5117 457.35 91.407L456.728 92.0295C455.975 91.2647 455.05 90.9327 453.994 90.9327C451.765 90.9327 450.087 92.5691 450.087 94.7569C450.087 96.9447 451.765 98.5811 453.994 98.5811C455.05 98.5811 455.975 98.249 456.728 97.4723L457.35 98.0949C456.532 98.9902 455.316 99.4526 453.959 99.4526C451.19 99.4526 449.127 97.4605 449.127 94.7569Z"
       fill="#0D1424"
       id="path46"
       style="fill:#ffffff" />
    <path
       d="M477.331 90.1382V99.3756H476.37V95.1126H470.589V99.3756H469.611V90.1382H470.589V94.2529H476.37V90.1382H477.331Z"
       fill="#0D1424"
       id="path48"
       style="fill:#ffffff" />
  </g>
  <path
     d="M73.5374 4.47143L33.315 36.6151L35.5574 39.4211L75.7798 7.2775L73.5374 4.47143Z"
     fill="#058FD0"
     id="path52"
     style="fill:#000000" />
  <path
     d="M90.6518 4.32066L31.5654 51.2192L33.7985 54.0327L92.8849 7.13415L90.6518 4.32066Z"
     fill="#058FD0"
     id="path54"
     style="fill:#000000" />
  <path
     d="M113.477 5.45861e-05L22.7552 72.5263L24.9981 75.332L115.72 2.80574L113.477 5.45861e-05Z"
     fill="#058FD0"
     id="path56"
     style="fill:#000000" />
  <path
     d="M80.1639 73.5684L39.9414 105.712L42.1839 108.518L82.4063 76.3745L80.1639 73.5684Z"
     fill="#058FD0"
     id="path58"
     style="fill:#000000" />
  <path
     d="M81.9188 58.9697L22.8324 105.868L25.0656 108.682L84.152 61.7832L81.9188 58.9697Z"
     fill="#058FD0"
     id="path60"
     style="fill:#000000" />
  <path
     d="M90.7221 37.668L-3.8147e-06 110.194L2.24295 113L92.965 40.4737L90.7221 37.668Z"
     fill="#058FD0"
     id="path62"
     style="fill:#000000" />
  <path
     d="M119.12 23.2538C119.12 25.7848 117.148 27.7718 114.613 27.7718C112.078 27.7718 110.134 25.7848 110.134 23.2769C110.134 20.769 112.082 18.782 114.64 18.782C117.198 18.782 119.12 20.715 119.12 23.2499V23.2538ZM118.255 23.2538C118.255 21.178 116.739 19.6116 114.64 19.6116C112.541 19.6116 111.013 21.2166 111.013 23.2769C111.013 25.3372 112.541 26.9422 114.617 26.9422C116.693 26.9422 118.259 25.3256 118.259 23.2499L118.255 23.2538ZM116.052 24.0949L117.133 25.75H115.809L114.879 24.3264H114V25.75H112.676V20.8115H114.829C116.18 20.8115 116.982 21.4983 116.982 22.567C116.982 23.2923 116.65 23.8132 116.052 24.0949ZM114.741 23.3309C115.339 23.3309 115.682 23.0493 115.682 22.567C115.682 22.0847 115.339 21.7915 114.741 21.7915H113.988V23.3309H114.741Z"
     fill="#058FD0"
     id="path64"
     style="fill:#000000" />
  <defs
     id="defs69">
    <clipPath
       id="clip0_2550_8824">
      <rect
         width="435.602"
         height="72.7782"
         fill="white"
         transform="translate(141.128 26.6804)"
         id="rect66" />
    </clipPath>
  </defs>
</svg>
