<?xml version="1.0" encoding="UTF-8"?>
<svg
   width="134"
   height="22"
   viewBox="0 0 134 22"
   fill="none"
   version="1.1"
   xmlns="http://www.w3.org/2000/svg"
   xmlns:svg="http://www.w3.org/2000/svg">
  <path
     d="M 27.770098,12.241082 V 5.35494 h 1.692208 v 6.827487 c 0,1.645283 1.14378,2.651224 2.498719,2.651224 1.35494,0 2.49872,-1.005941 2.49872,-2.651224 V 5.35494 h 1.677544 v 6.886142 c 0,1.539704 -0.976612,4.082416 -4.176264,4.082416 -3.199651,0 -4.190927,-2.545645 -4.190927,-4.082416 z m 10.056467,3.929912 V 5.352006 h 1.645283 v 10.818988 z m 7.29673,-6.657388 h -1.783124 v 5.27312 h 1.783124 v 1.3872 h -2.407804 c -0.595352,0 -1.020603,-0.425252 -1.020603,-1.020604 V 9.51654 H 40.492452 V 8.100012 h 1.202436 V 6.04414 h 1.645283 v 2.055872 h 1.783124 V 9.51654 Z m 1.173108,-4.1616 h 1.645283 v 1.677545 h -1.645283 z m 0,2.74214 h 1.645283 v 8.076848 h -1.645283 z m 3.369752,8.076848 V 6.372611 c 0,-0.595353 0.425251,-1.020605 1.020603,-1.020605 h 2.041208 l 1.97962,7.070908 0.577755,2.193711 h 0.349 l 0.577756,-2.193711 1.979619,-7.070908 h 3.061811 V 16.170994 H 59.669831 V 6.921039 H 59.3179 l -0.62468,2.378475 -1.97962,6.87148 H 54.200217 L 52.203001,9.299514 51.592984,6.921039 h -0.366596 v 9.249955 h -1.569032 z m 12.980438,-2.331553 c 0,-1.736199 1.035267,-2.193711 3.047147,-2.393139 l 2.269964,-0.228756 v -0.548428 c 0,-1.035268 -0.639344,-1.431192 -1.659948,-1.431192 -1.020604,0 -1.539703,0.410588 -1.659947,1.325612 h -1.659948 c 0,-1.677544 1.463452,-2.621896 3.381483,-2.621896 1.918032,0 3.199652,0.853436 3.199652,2.7744 v 4.038424 h 1.00594 v 1.416528 h -1.539704 c -0.533764,0 -0.915025,-0.381261 -0.915025,-0.915025 v -0.305007 h -0.04693 c -0.62468,1.020603 -1.677543,1.372536 -2.665887,1.372536 -1.601292,0 -2.756803,-0.8681 -2.756802,-2.484057 z m 3.138063,1.205369 c 1.187772,0 2.179048,-0.671604 2.179048,-1.76846 v -0.838773 l -1.964956,0.228757 c -1.264023,0.13784 -1.692208,0.410587 -1.692208,1.126183 0,0.838772 0.457513,1.24936 1.478116,1.24936 z m 12.860194,1.020603 v 0.105581 h -1.827115 l -2.055871,-3.671829 h -1.49278 v 3.671829 H 71.6238 V 5.352006 h 1.645284 v 5.730633 h 1.49278 l 2.055871,-2.985561 h 1.827115 v 0.105581 l -2.49872,3.489995 v 0.181832 z m 0.24342,-3.932843 c 0,-2.451795 1.645283,-4.190928 3.976836,-4.190928 2.331552,0 4.158666,1.768461 3.976835,4.663104 h -6.308388 c 0.167169,1.387199 1.049933,2.407804 2.331553,2.407804 0.959015,0 1.677544,-0.548429 1.997216,-1.35494 h 1.750863 c -0.472176,1.630619 -1.903368,2.665888 -3.748079,2.665888 -2.36088,0 -3.976836,-1.721537 -3.976836,-4.190928 z m 6.293724,-0.791848 c -0.228756,-1.24936 -1.111521,-2.102796 -2.316888,-2.102796 -1.205368,0 -2.041208,0.882764 -2.284627,2.102796 z m 3.871255,-3.246576 h 2.894639 v 1.416528 h -2.26996 V 16.16806 H 88.032646 V 9.111817 c 0,-0.610015 0.425251,-1.020604 1.020603,-1.020604 z M 96.3969,10.74537 c 0,-3.551584 2.51338,-5.545868 5.39337,-5.545868 2.87997,0 4.64844,1.659949 5.05903,3.718752 h -1.81245 c -0.27568,-1.096855 -1.26403,-2.2553 -3.24658,-2.2553 -1.98255,0 -3.67183,1.340276 -3.67183,4.082416 0,2.74214 1.72154,4.114676 3.67183,4.114676 1.95029,0 2.9709,-1.158445 3.24658,-2.2553 h 1.81245 c -0.41059,2.055871 -2.22597,3.718752 -5.05903,3.718752 -2.83306,0 -5.39337,-1.97962 -5.39337,-5.578128 z m 11.6871,2.393139 V 8.094146 h 1.64527 v 4.935851 c 0,1.340276 0.68627,1.950292 1.82713,1.950292 1.14084,0 1.81244,-0.610016 1.81244,-1.950292 V 8.094146 h 1.64529 v 8.076848 h -1.61595 v -0.976613 h -0.0616 c -0.54843,0.76252 -1.24936,1.126184 -2.3169,1.126184 -1.63061,0 -2.94156,-1.082192 -2.94156,-3.184988 z m 9.5227,-5.044363 h 2.89463 v 1.416528 h -2.26995 v 6.657386 h -1.64529 V 9.111817 c 0,-0.610015 0.42525,-1.020604 1.02061,-1.020604 z m 3.52811,5.745295 c 0,-1.736199 1.03528,-2.193711 3.04715,-2.393139 l 2.26997,-0.228756 v -0.548428 c 0,-1.035268 -0.63934,-1.431192 -1.65995,-1.431192 -1.02061,0 -1.5397,0.410588 -1.65995,1.325612 h -1.65994 c 0,-1.677544 1.46345,-2.621896 3.38148,-2.621896 1.91803,0 3.19965,0.853436 3.19965,2.7744 v 4.038424 h 1.00595 v 1.416528 h -1.53972 c -0.53375,0 -0.91502,-0.381261 -0.91502,-0.915025 v -0.305007 h -0.0469 c -0.62468,1.020603 -1.67754,1.372536 -2.66589,1.372536 -1.6013,0 -2.75681,-0.8681 -2.75681,-2.484057 z m 3.13807,1.205369 c 1.18777,0 2.17905,-0.671604 2.17905,-1.76846 v -0.838773 l -1.96495,0.228757 c -1.26403,0.13784 -1.69221,0.410587 -1.69221,1.126183 0,0.838772 0.45751,1.24936 1.47811,1.24936 z M 7.9592397,14.47292 v 1.812451 c 0,0.683336 -0.554295,1.237629 -1.237629,1.237629 H 5.2376287 C 4.5542927,17.523 4,16.968707 4,16.285371 V 14.47292 c 0,-0.683335 0.5542927,-1.237629 1.2376287,-1.237629 h 1.483982 c 0.683334,0 1.237629,0.554294 1.237629,1.237629 z M 22.558566,13.235291 h -1.483981 c -0.683336,0 -1.237629,-0.554293 -1.237629,-1.237628 V 5.237629 C 19.836956,4.554293 19.282663,4 18.599327,4 h -1.483981 c -0.683335,0 -1.237628,0.554293 -1.237628,1.237629 v 6.760034 c 0,0.683335 -0.554294,1.237628 -1.237629,1.237628 h -1.483982 c -0.683336,0 -1.237629,-0.554293 -1.237629,-1.237628 V 5.237629 C 11.918478,4.554293 11.364185,4 10.680849,4 H 9.1968677 c -0.683335,0 -1.237628,0.554293 -1.237628,1.237629 v 6.760034 c 0,0.683335 0.554293,1.237628 1.237628,1.237628 h 1.4839813 c 0.683336,0 1.237629,0.554294 1.237629,1.237629 v 1.812451 c 0,0.683336 0.554293,1.237629 1.237629,1.237629 h 1.483982 c 0.683335,0 1.237629,-0.554293 1.237629,-1.237629 V 14.47292 c 0,-0.683335 0.554293,-1.237629 1.237628,-1.237629 h 1.483981 c 0.683336,0 1.237629,0.554294 1.237629,1.237629 v 1.812451 c 0,0.683336 0.554293,1.237629 1.237629,1.237629 h 1.483981 c 0.683335,0 1.237629,-0.554293 1.237629,-1.237629 V 14.47292 c 0,-0.683335 -0.554294,-1.237629 -1.237629,-1.237629 z"
     fill="white" />
</svg>
