<?xml version="1.0" encoding="utf-8"?>
<!-- <svg version="1.1" xmlns="http://www.w3.org/2000/svg" width="170.6px" height="23.7px" viewBox="0 0 170.6 23.7">
<g fill="white">
	<path d="M16.3,3.1v11.1c0,1.2-0.3,2.3-0.8,3.2s-1.3,1.7-2.3,2.3c-1,0.6-2.3,0.8-3.9,0.8c-2.2,0-3.9-0.6-5.1-1.7s-1.7-2.7-1.7-4.6v-11h3.1v10.7c0,1.4,0.3,2.4,0.9,3.1c0.6,0.6,1.6,1,2.9,1c1.3,0,2.3-0.3,2.9-1c0.6-0.7,0.9-1.7,0.9-3V3.1H16.3z" />
	<path d="M22.6,20.3h-3V2h3V20.3z" />
	<path d="M30.8,18.1c0.4,0,0.7,0,1.1-0.1c0.4-0.1,0.7-0.2,1-0.3V20c-0.3,0.2-0.7,0.3-1.2,0.4c-0.5,0.1-1,0.1-1.6,0.1c-0.8,0-1.4-0.1-2-0.4s-1.1-0.7-1.4-1.3c-0.4-0.6-0.5-1.5-0.5-2.6V9.5h-1.8V8.2l1.9-1.1l1-2.8h1.9v2.9h3.7v2.3h-3.7v6.7c0,0.6,0.2,1.1,0.5,1.4C29.9,17.9,30.3,18.1,30.8,18.1z" />
	<path d="M36.3,2.2c0.4,0,0.8,0.1,1.2,0.3C37.8,2.8,38,3.2,38,3.8c0,0.6-0.2,1-0.5,1.2c-0.3,0.2-0.7,0.4-1.2,0.4c-0.5,0-0.9-0.1-1.2-0.4c-0.3-0.2-0.5-0.7-0.5-1.2c0-0.6,0.2-1,0.5-1.2C35.5,2.3,35.8,2.2,36.3,2.2z M37.8,7.2v13h-3v-13H37.8z" />
	<path d="M55.9,7c1.5,0,2.6,0.4,3.3,1.1c0.7,0.8,1.1,2,1.1,3.6v8.5h-3v-7.9c0-1.9-0.7-2.9-2.2-2.9c-1.1,0-1.8,0.3-2.3,1c-0.4,0.7-0.7,1.7-0.7,3v6.8h-3v-7.9c0-1.9-0.7-2.9-2.2-2.9c-1.1,0-1.9,0.4-2.3,1.2c-0.4,0.8-0.6,1.9-0.6,3.3v6.4h-3v-13h2.3L43.7,9h0.2c0.4-0.7,0.9-1.2,1.6-1.5C46.2,7.2,46.9,7,47.7,7c1,0,1.8,0.2,2.5,0.5c0.7,0.3,1.2,0.8,1.5,1.5h0.2c0.4-0.7,1-1.2,1.7-1.5C54.3,7.2,55.1,7,55.9,7z" />
	<path d="M68.6,7c1.7,0,3,0.4,3.8,1.1c0.9,0.7,1.3,1.9,1.3,3.4v8.7h-2.1L71,18.5h-0.1c-0.6,0.7-1.2,1.2-1.8,1.5c-0.6,0.3-1.5,0.5-2.5,0.5c-1.2,0-2.1-0.3-2.9-1c-0.8-0.7-1.2-1.7-1.2-3c0-1.3,0.5-2.4,1.5-3c1-0.7,2.5-1,4.5-1.1l2.3-0.1v-0.6c0-0.8-0.2-1.4-0.6-1.8c-0.4-0.4-1-0.5-1.7-0.5c-0.7,0-1.3,0.1-1.9,0.3c-0.6,0.2-1.2,0.4-1.8,0.7l-1-2.1c0.6-0.3,1.4-0.6,2.2-0.8S67.7,7,68.6,7z M70.7,14.1l-1.6,0c-1.3,0-2.2,0.3-2.8,0.7c-0.5,0.4-0.8,1-0.8,1.6c0,0.6,0.2,1.1,0.5,1.3c0.4,0.3,0.8,0.4,1.4,0.4c0.9,0,1.6-0.3,2.2-0.8c0.6-0.5,0.9-1.3,0.9-2.2V14.1z" />
	<path d="M79.8,2v8.7c0,0.4,0,0.8,0,1.3c0,0.5-0.1,0.9-0.1,1.3h0.1c0.2-0.3,0.4-0.6,0.7-1s0.5-0.7,0.8-1l3.8-4.1h3.4l-5.2,5.6l5.5,7.4h-3.5l-4-5.6l-1.5,1.2v4.3h-3V2H79.8z" />
	<path d="M95.4,7c1.7,0,3.1,0.5,4.1,1.6c1,1,1.5,2.5,1.5,4.3v1.5h-8.6c0,1.2,0.4,2.1,1,2.7c0.6,0.6,1.5,1,2.6,1c0.8,0,1.6-0.1,2.3-0.3s1.4-0.4,2.1-0.7v2.4c-0.6,0.3-1.3,0.5-2,0.7c-0.7,0.1-1.5,0.2-2.5,0.2c-1.3,0-2.4-0.2-3.4-0.7c-1-0.5-1.7-1.2-2.3-2.2c-0.6-1-0.8-2.2-0.8-3.7c0-2.2,0.5-3.9,1.6-5.1C92.1,7.6,93.6,7,95.4,7z M95.4,9.2c-0.8,0-1.5,0.3-2,0.8c-0.5,0.5-0.8,1.3-0.9,2.3h5.6c0-0.9-0.2-1.6-0.7-2.2C97,9.5,96.3,9.2,95.4,9.2z" />
	<path d="M110.2,7c0.2,0,0.4,0,0.7,0c0.3,0,0.5,0.1,0.6,0.1l-0.3,2.8c-0.2,0-0.4-0.1-0.6-0.1c-0.2,0-0.4,0-0.6,0c-0.6,0-1.2,0.1-1.8,0.4s-1,0.7-1.4,1.2c-0.3,0.5-0.5,1.2-0.5,2.1v6.7h-3v-13h2.3l0.4,2.3h0.1c0.4-0.7,0.9-1.3,1.6-1.8C108.6,7.3,109.3,7,110.2,7z" />
	<path d="M127.2,4.1c-1.4,0-2.6,0.3-3.6,0.9c-1,0.6-1.8,1.5-2.3,2.6s-0.8,2.4-0.8,3.9c0,1.5,0.2,2.9,0.7,4c0.5,1.1,1.2,2,2.2,2.6s2.2,0.9,3.6,0.9c0.8,0,1.6-0.1,2.3-0.2c0.7-0.1,1.4-0.3,2-0.5v1.2c-0.6,0.2-1.2,0.4-2,0.5s-1.5,0.2-2.5,0.2c-1.7,0-3.2-0.4-4.3-1.1c-1.2-0.7-2-1.8-2.6-3.1s-0.9-2.9-0.9-4.7c0-1.7,0.3-3.2,1-4.5c0.6-1.3,1.6-2.4,2.8-3.1s2.7-1.1,4.4-1.1c1.7,0,3.2,0.3,4.5,1L131.2,5C129.9,4.4,128.6,4.1,127.2,4.1z" />
	<path d="M144.6,7.5v12.8h-1.1l-0.2-2.2h-0.1c-0.4,0.7-0.9,1.3-1.6,1.7s-1.6,0.7-2.7,0.7c-3,0-4.5-1.6-4.5-4.7V7.5h1.4v8.3c0,1.2,0.3,2.1,0.8,2.7s1.4,0.9,2.4,0.9c2.8,0,4.2-1.6,4.2-4.9v-7H144.6z" />
	<path d="M154.1,7.3c0.7,0,1.2,0.1,1.7,0.2l-0.2,1.2c-0.3-0.1-0.5-0.1-0.8-0.1s-0.5,0-0.8,0c-1.2,0-2.1,0.4-2.8,1.3c-0.7,0.9-1,2-1,3.4v7h-1.4V7.5h1.2l0.1,2.4h0.1c0.3-0.7,0.8-1.3,1.5-1.8S153.1,7.3,154.1,7.3z" />
	<path d="M162.4,7.3c1.4,0,2.5,0.4,3.2,1.1s1.1,1.8,1.1,3.3v8.6h-1l-0.3-2.2h0c-0.4,0.7-1,1.3-1.7,1.7c-0.7,0.4-1.6,0.7-2.8,0.7c-1.2,0-2.2-0.3-2.9-0.9s-1.1-1.5-1.1-2.7c0-1.3,0.5-2.2,1.5-2.9c1-0.7,2.5-1,4.5-1.1l2.3-0.1v-0.9c0-1.3-0.3-2.2-0.8-2.7s-1.2-0.8-2.2-0.8c-0.7,0-1.3,0.1-1.9,0.3c-0.6,0.2-1.2,0.4-1.8,0.7l-0.4-1.1c0.6-0.3,1.2-0.6,2-0.7C160.8,7.4,161.6,7.3,162.4,7.3z M165.3,13.8l-2.2,0.1c-1.6,0.1-2.8,0.3-3.6,0.8c-0.8,0.5-1.2,1.2-1.2,2.2c0,0.8,0.2,1.4,0.7,1.8c0.5,0.4,1.2,0.6,2,0.6c1.3,0,2.4-0.4,3.1-1.1c0.7-0.8,1.1-1.8,1.1-3.2V13.8z" />
</g>
</svg> -->
<svg width="178.656" height="23.664" viewBox="0 0 178.656 23.664" xmlns="http://www.w3.org/2000/svg"><g fill="white"><path d="M 0 18.192 L 0 17.328 L 9.264 3.744 L 0 3.744 L 0 1.824 L 12.48 1.824 L 12.48 2.64 L 3.144 16.272 L 12.264 16.272 L 12.264 18.192 L 0 18.192 Z" id="0" vector-effect="non-scaling-stroke"/><path d="M 14.784 18.192 L 14.784 8.304 A 11.563 11.563 0 0 0 14.764 7.645 Q 14.747 7.35 14.716 7.023 A 23.027 23.027 0 0 0 14.64 6.336 L 16.44 6.096 L 16.704 7.608 Q 17.352 7.128 17.976 6.768 A 8.56 8.56 0 0 1 19.208 6.186 A 9.465 9.465 0 0 1 19.32 6.144 Q 20.04 5.88 20.784 5.88 Q 21.984 5.88 22.68 6.3 Q 23.376 6.72 23.712 7.728 Q 24.696 7.032 25.764 6.456 A 4.665 4.665 0 0 1 27.626 5.894 A 4.542 4.542 0 0 1 27.984 5.88 Q 28.872 5.88 29.496 6.108 Q 30.12 6.336 30.504 6.864 A 2.719 2.719 0 0 1 30.808 7.411 Q 30.964 7.784 31.056 8.256 Q 31.181 8.901 31.213 9.786 A 17.563 17.563 0 0 1 31.224 10.416 L 31.224 18.192 L 29.304 18.192 L 29.304 10.632 Q 29.304 9.96 29.283 9.424 A 21.435 21.435 0 0 0 29.28 9.348 A 4.2 4.2 0 0 0 29.241 8.917 Q 29.21 8.706 29.157 8.525 A 2.239 2.239 0 0 0 29.112 8.388 A 1.296 1.296 0 0 0 28.901 8.009 A 1.156 1.156 0 0 0 28.644 7.776 A 1.12 1.12 0 0 0 28.342 7.638 Q 28.197 7.595 28.022 7.576 A 2.765 2.765 0 0 0 27.72 7.56 A 3.489 3.489 0 0 0 26.839 7.669 A 3.213 3.213 0 0 0 26.676 7.716 A 5.288 5.288 0 0 0 26.079 7.948 A 6.664 6.664 0 0 0 25.656 8.16 Q 25.132 8.446 24.042 9.322 A 37.332 37.332 0 0 0 24.024 9.336 L 24.024 18.192 L 22.104 18.192 L 22.104 10.632 Q 22.104 9.96 22.083 9.424 A 21.435 21.435 0 0 0 22.08 9.348 A 4.2 4.2 0 0 0 22.041 8.917 Q 22.01 8.706 21.957 8.525 A 2.239 2.239 0 0 0 21.912 8.388 A 1.296 1.296 0 0 0 21.701 8.009 A 1.156 1.156 0 0 0 21.444 7.776 A 1.12 1.12 0 0 0 21.142 7.638 Q 20.997 7.595 20.822 7.576 A 2.765 2.765 0 0 0 20.52 7.56 A 3.276 3.276 0 0 0 19.685 7.672 A 4.141 4.141 0 0 0 19.224 7.824 Q 18.552 8.088 17.952 8.448 A 14.3 14.3 0 0 0 17.203 8.931 A 17.681 17.681 0 0 0 16.704 9.288 L 16.704 18.192 L 14.784 18.192 Z" id="1" vector-effect="non-scaling-stroke"/><path d="M 34.512 9.156 A 4.958 4.958 0 0 0 34.3 9.679 Q 33.936 10.742 33.936 12.192 Q 33.936 13.247 34.115 14.096 A 5.607 5.607 0 0 0 34.5 15.288 Q 35.064 16.512 35.916 17.22 A 5.771 5.771 0 0 0 35.969 17.264 A 5.052 5.052 0 0 0 37.776 18.216 Q 38.784 18.504 39.696 18.504 Q 40.584 18.504 41.616 18.204 A 5.069 5.069 0 0 0 42.092 18.04 A 5.478 5.478 0 0 0 43.536 17.172 A 4.951 4.951 0 0 0 44.395 16.249 A 6.571 6.571 0 0 0 45.012 15.192 A 5.122 5.122 0 0 0 45.238 14.626 Q 45.427 14.057 45.517 13.379 A 10.083 10.083 0 0 0 45.6 12.048 A 10.529 10.529 0 0 0 45.582 11.423 Q 45.543 10.763 45.418 10.197 A 5.251 5.251 0 0 0 45.024 9.036 Q 44.448 7.848 43.584 7.14 A 5.725 5.725 0 0 0 43.53 7.096 A 5.002 5.002 0 0 0 41.7 6.156 A 8.537 8.537 0 0 0 40.778 5.958 A 6.292 6.292 0 0 0 39.816 5.88 A 6.047 6.047 0 0 0 38.982 5.939 A 7.616 7.616 0 0 0 37.884 6.18 Q 36.864 6.48 35.976 7.212 Q 35.088 7.944 34.512 9.156 Z M 35.976 12.216 A 8.261 8.261 0 0 0 36.068 13.494 Q 36.286 14.882 37.02 15.684 A 3.45 3.45 0 0 0 39.149 16.777 A 4.906 4.906 0 0 0 39.84 16.824 A 4.371 4.371 0 0 0 41 16.678 A 3.151 3.151 0 0 0 42.576 15.696 A 3.548 3.548 0 0 0 43.248 14.496 Q 43.428 13.968 43.504 13.321 A 8.647 8.647 0 0 0 43.56 12.312 A 8.777 8.777 0 0 0 43.468 10.995 Q 43.366 10.324 43.15 9.785 A 3.553 3.553 0 0 0 42.516 8.736 A 3.435 3.435 0 0 0 40.333 7.603 A 4.907 4.907 0 0 0 39.672 7.56 A 4.434 4.434 0 0 0 38.547 7.694 A 3.023 3.023 0 0 0 36.924 8.724 A 3.675 3.675 0 0 0 36.31 9.862 Q 36.127 10.393 36.045 11.048 A 9.325 9.325 0 0 0 35.976 12.216 Z" id="2" vector-effect="non-scaling-stroke"/><path d="M 48.408 18.192 L 48.408 8.064 Q 48.408 7.512 48.288 6.336 L 50.064 6.096 L 50.256 7.848 L 50.28 7.848 Q 50.712 7.296 51.12 6.888 A 5.917 5.917 0 0 1 51.807 6.296 A 5.326 5.326 0 0 1 51.972 6.18 A 2.06 2.06 0 0 1 52.293 6 Q 52.489 5.914 52.678 5.89 A 1.144 1.144 0 0 1 52.824 5.88 A 3.693 3.693 0 0 1 52.947 5.877 Q 53.458 5.872 54.284 5.989 A 18.537 18.537 0 0 1 54.36 6 L 53.928 7.848 Q 53.178 7.712 52.859 7.726 A 1.078 1.078 0 0 0 52.824 7.728 A 1.008 1.008 0 0 0 52.444 7.807 Q 52.301 7.865 52.153 7.965 A 2.321 2.321 0 0 0 51.96 8.112 Q 51.504 8.496 51.168 8.928 A 9.67 9.67 0 0 0 50.644 9.635 A 11.967 11.967 0 0 0 50.328 10.128 L 50.328 18.192 L 48.408 18.192 Z" id="3" vector-effect="non-scaling-stroke"/><path d="M 56.496 23.664 L 56.496 8.904 Q 56.496 8.04 56.376 6.336 L 58.152 6.096 L 58.368 7.392 Q 58.848 6.984 59.364 6.66 Q 59.88 6.336 60.492 6.108 A 3.689 3.689 0 0 1 61.708 5.881 A 4.2 4.2 0 0 1 61.8 5.88 Q 62.784 5.88 63.66 6.216 A 3.89 3.89 0 0 1 65.149 7.244 A 4.535 4.535 0 0 1 65.196 7.296 A 4.557 4.557 0 0 1 65.815 8.204 Q 66.042 8.636 66.216 9.154 A 7.716 7.716 0 0 1 66.24 9.228 Q 66.554 10.2 66.611 11.534 A 14.272 14.272 0 0 1 66.624 12.144 A 9.897 9.897 0 0 1 66.542 13.454 Q 66.451 14.133 66.26 14.707 A 5.348 5.348 0 0 1 66.108 15.108 Q 65.592 16.32 64.764 17.076 Q 63.936 17.832 62.892 18.168 Q 61.848 18.504 60.768 18.504 A 11.994 11.994 0 0 1 58.641 18.263 A 13.326 13.326 0 0 1 58.416 18.216 L 58.416 23.424 L 56.496 23.664 Z M 58.416 9.072 L 58.416 16.44 Q 58.68 16.536 59.004 16.62 Q 59.252 16.684 59.57 16.735 A 9.186 9.186 0 0 0 59.772 16.764 Q 60.216 16.824 60.768 16.824 A 4.734 4.734 0 0 0 61.567 16.76 Q 62.032 16.68 62.417 16.502 A 2.904 2.904 0 0 0 62.496 16.464 Q 63.216 16.104 63.684 15.468 A 4.168 4.168 0 0 0 64.294 14.258 A 4.85 4.85 0 0 0 64.368 14.004 Q 64.584 13.176 64.584 12.24 Q 64.584 11.4 64.428 10.56 A 5.743 5.743 0 0 0 64.183 9.649 A 4.691 4.691 0 0 0 63.924 9.06 Q 63.576 8.4 63 7.98 A 2.157 2.157 0 0 0 62.083 7.601 A 2.922 2.922 0 0 0 61.584 7.56 Q 60.96 7.56 60.408 7.788 Q 59.856 8.016 59.364 8.34 Q 58.872 8.664 58.416 9.072 Z" id="4" vector-effect="non-scaling-stroke"/><path d="M 69.432 18.192 L 69.432 0.216 L 71.352 0 L 71.352 7.632 A 14.565 14.565 0 0 1 72.425 6.979 A 12.818 12.818 0 0 1 72.78 6.792 Q 73.488 6.432 74.232 6.156 A 4.524 4.524 0 0 1 75.054 5.933 A 3.718 3.718 0 0 1 75.672 5.88 A 7.035 7.035 0 0 1 76.364 5.912 Q 76.904 5.966 77.316 6.108 Q 77.976 6.336 78.384 6.864 A 2.704 2.704 0 0 1 78.716 7.433 Q 78.836 7.706 78.92 8.032 A 5.01 5.01 0 0 1 78.972 8.256 A 7.489 7.489 0 0 1 79.082 8.965 Q 79.123 9.345 79.14 9.786 A 16.394 16.394 0 0 1 79.152 10.416 L 79.152 18.192 L 77.232 18.192 L 77.232 10.632 Q 77.232 9.96 77.211 9.424 A 21.435 21.435 0 0 0 77.208 9.348 A 3.288 3.288 0 0 0 77.163 8.917 Q 77.111 8.623 77.004 8.388 Q 76.824 7.992 76.452 7.776 A 1.369 1.369 0 0 0 76.131 7.644 Q 75.828 7.56 75.408 7.56 A 3.25 3.25 0 0 0 74.718 7.638 Q 74.406 7.706 74.075 7.832 A 5.32 5.32 0 0 0 74.064 7.836 Q 73.344 8.112 72.696 8.472 A 15.273 15.273 0 0 0 71.867 8.969 A 18.594 18.594 0 0 0 71.352 9.312 L 71.352 18.192 L 69.432 18.192 Z" id="5" vector-effect="non-scaling-stroke"/><path d="M 92.184 18.192 L 86.736 1.824 L 88.776 1.824 L 93.48 16.272 L 93.504 16.272 L 98.136 1.824 L 100.176 1.824 L 94.728 18.192 L 92.184 18.192 Z" id="7" vector-effect="non-scaling-stroke"/><path d="M 101.4 9.156 A 4.958 4.958 0 0 0 101.188 9.679 Q 100.824 10.742 100.824 12.192 Q 100.824 13.247 101.003 14.096 A 5.607 5.607 0 0 0 101.388 15.288 Q 101.952 16.512 102.804 17.22 A 5.771 5.771 0 0 0 102.857 17.264 A 5.052 5.052 0 0 0 104.664 18.216 Q 105.672 18.504 106.584 18.504 Q 107.472 18.504 108.504 18.204 A 5.069 5.069 0 0 0 108.98 18.04 A 5.478 5.478 0 0 0 110.424 17.172 A 4.951 4.951 0 0 0 111.283 16.249 A 6.571 6.571 0 0 0 111.9 15.192 A 5.122 5.122 0 0 0 112.126 14.626 Q 112.315 14.057 112.405 13.379 A 10.083 10.083 0 0 0 112.488 12.048 A 10.529 10.529 0 0 0 112.47 11.423 Q 112.431 10.763 112.306 10.197 A 5.251 5.251 0 0 0 111.912 9.036 Q 111.336 7.848 110.472 7.14 A 5.725 5.725 0 0 0 110.418 7.096 A 5.002 5.002 0 0 0 108.588 6.156 A 8.537 8.537 0 0 0 107.666 5.958 A 6.292 6.292 0 0 0 106.704 5.88 A 6.047 6.047 0 0 0 105.87 5.939 A 7.616 7.616 0 0 0 104.772 6.18 Q 103.752 6.48 102.864 7.212 Q 101.976 7.944 101.4 9.156 Z M 102.864 12.216 A 8.261 8.261 0 0 0 102.956 13.494 Q 103.174 14.882 103.908 15.684 A 3.45 3.45 0 0 0 106.037 16.777 A 4.906 4.906 0 0 0 106.728 16.824 A 4.371 4.371 0 0 0 107.888 16.678 A 3.151 3.151 0 0 0 109.464 15.696 A 3.548 3.548 0 0 0 110.136 14.496 Q 110.316 13.968 110.392 13.321 A 8.647 8.647 0 0 0 110.448 12.312 A 8.777 8.777 0 0 0 110.356 10.995 Q 110.254 10.324 110.038 9.785 A 3.553 3.553 0 0 0 109.404 8.736 A 3.435 3.435 0 0 0 107.221 7.603 A 4.907 4.907 0 0 0 106.56 7.56 A 4.434 4.434 0 0 0 105.435 7.694 A 3.023 3.023 0 0 0 103.812 8.724 A 3.675 3.675 0 0 0 103.198 9.862 Q 103.015 10.393 102.933 11.048 A 9.325 9.325 0 0 0 102.864 12.216 Z" id="8" vector-effect="non-scaling-stroke"/><path d="M 113.4 18.192 L 117.984 11.856 L 113.52 6.12 L 115.776 6.12 L 119.304 10.584 L 122.64 6.12 L 124.8 6.12 L 120.6 11.784 L 125.208 18.192 L 122.952 18.192 L 119.28 13.08 L 115.56 18.192 L 113.4 18.192 Z" id="9" vector-effect="non-scaling-stroke"/><path d="M 135.312 16.296 L 135.672 17.904 Q 135.12 18.072 134.532 18.192 Q 133.944 18.312 133.236 18.408 Q 132.528 18.504 131.76 18.504 A 7.563 7.563 0 0 1 130.257 18.359 A 6.549 6.549 0 0 1 129.528 18.168 Q 128.496 17.832 127.728 17.088 Q 126.96 16.344 126.516 15.156 A 6.44 6.44 0 0 1 126.212 14.013 Q 126.072 13.212 126.072 12.24 A 9.56 9.56 0 0 1 126.166 10.865 A 6.926 6.926 0 0 1 126.504 9.492 Q 126.936 8.304 127.692 7.5 Q 128.448 6.696 129.468 6.288 A 5.768 5.768 0 0 1 131.244 5.894 A 6.777 6.777 0 0 1 131.688 5.88 A 5.111 5.111 0 0 1 132.69 5.974 A 3.81 3.81 0 0 1 133.728 6.336 Q 134.592 6.792 135.156 7.572 A 5.197 5.197 0 0 1 135.818 8.83 A 6.298 6.298 0 0 1 135.996 9.396 Q 136.272 10.44 136.272 11.592 L 135.912 12.648 L 128.16 12.648 Q 128.16 13.392 128.352 14.136 Q 128.544 14.88 129.012 15.48 A 3.336 3.336 0 0 0 129.919 16.278 A 4.036 4.036 0 0 0 130.236 16.452 A 3.37 3.37 0 0 0 131.026 16.719 Q 131.521 16.824 132.12 16.824 Q 132.84 16.824 133.44 16.74 Q 133.923 16.672 134.305 16.589 A 7.609 7.609 0 0 0 134.484 16.548 A 7.592 7.592 0 0 0 135.066 16.382 A 6.456 6.456 0 0 0 135.312 16.296 Z M 128.232 11.112 L 134.28 11.112 Q 134.28 10.981 134.236 10.602 A 25.261 25.261 0 0 0 134.208 10.368 A 4.137 4.137 0 0 0 134.049 9.648 A 5.248 5.248 0 0 0 133.872 9.168 A 3.045 3.045 0 0 0 133.223 8.211 A 3.623 3.623 0 0 0 133.056 8.052 A 1.884 1.884 0 0 0 132.201 7.624 A 2.761 2.761 0 0 0 131.592 7.56 A 3.975 3.975 0 0 0 130.887 7.619 Q 130.482 7.692 130.154 7.856 A 2.238 2.238 0 0 0 129.936 7.98 A 3.775 3.775 0 0 0 129.26 8.534 A 3.221 3.221 0 0 0 128.904 8.976 A 3.925 3.925 0 0 0 128.525 9.687 A 3.318 3.318 0 0 0 128.376 10.152 A 7.344 7.344 0 0 0 128.3 10.504 Q 128.239 10.826 128.233 11.059 A 1.934 1.934 0 0 0 128.232 11.112 Z" id="10" vector-effect="non-scaling-stroke"/><path d="M 138.888 18.192 L 138.888 0.216 L 140.808 0 L 140.808 18.192 L 138.888 18.192 Z" id="11" vector-effect="non-scaling-stroke"/><path d="M 144.264 18.192 L 144.264 6.096 L 146.184 5.88 L 146.184 18.192 L 144.264 18.192 Z M 144.044 2.161 A 1.347 1.347 0 0 0 143.952 2.664 A 1.626 1.626 0 0 0 143.952 2.681 A 1.251 1.251 0 0 0 144.324 3.588 A 1.242 1.242 0 0 0 144.745 3.868 A 1.347 1.347 0 0 0 145.248 3.96 Q 145.819 3.96 146.214 3.594 A 1.48 1.48 0 0 0 146.22 3.588 Q 146.616 3.216 146.616 2.664 A 1.51 1.51 0 0 0 146.615 2.621 A 1.211 1.211 0 0 0 146.22 1.74 Q 145.824 1.368 145.248 1.368 A 1.626 1.626 0 0 0 145.231 1.368 A 1.251 1.251 0 0 0 144.324 1.74 A 1.242 1.242 0 0 0 144.044 2.161 Z" id="12" vector-effect="non-scaling-stroke"/><path d="M 148.488 18.192 L 148.488 17.448 L 155.376 7.608 A 90.442 90.442 0 0 1 154.909 7.64 Q 154.263 7.683 153.948 7.692 A 28.029 28.029 0 0 1 153.516 7.701 Q 153.287 7.704 153.034 7.704 A 46.236 46.236 0 0 1 153 7.704 L 149.088 7.704 L 149.088 6.12 L 158.088 6.12 L 158.088 6.96 L 151.32 16.68 Q 152.026 16.641 152.347 16.626 A 22.812 22.812 0 0 1 152.472 16.62 A 13.723 13.723 0 0 1 152.89 16.609 A 12.014 12.014 0 0 1 153.024 16.608 L 158.064 16.608 L 158.064 18.192 L 148.488 18.192 Z" id="13" vector-effect="non-scaling-stroke"/><path d="M 169.104 16.296 L 169.464 17.904 Q 168.912 18.072 168.324 18.192 Q 167.736 18.312 167.028 18.408 Q 166.32 18.504 165.552 18.504 A 7.563 7.563 0 0 1 164.049 18.359 A 6.549 6.549 0 0 1 163.32 18.168 Q 162.288 17.832 161.52 17.088 Q 160.752 16.344 160.308 15.156 A 6.44 6.44 0 0 1 160.004 14.013 Q 159.864 13.212 159.864 12.24 A 9.56 9.56 0 0 1 159.958 10.865 A 6.926 6.926 0 0 1 160.296 9.492 Q 160.728 8.304 161.484 7.5 Q 162.24 6.696 163.26 6.288 A 5.768 5.768 0 0 1 165.036 5.894 A 6.777 6.777 0 0 1 165.48 5.88 A 5.111 5.111 0 0 1 166.482 5.974 A 3.81 3.81 0 0 1 167.52 6.336 Q 168.384 6.792 168.948 7.572 A 5.197 5.197 0 0 1 169.61 8.83 A 6.298 6.298 0 0 1 169.788 9.396 Q 170.064 10.44 170.064 11.592 L 169.704 12.648 L 161.952 12.648 Q 161.952 13.392 162.144 14.136 Q 162.336 14.88 162.804 15.48 A 3.336 3.336 0 0 0 163.711 16.278 A 4.036 4.036 0 0 0 164.028 16.452 A 3.37 3.37 0 0 0 164.818 16.719 Q 165.313 16.824 165.912 16.824 Q 166.632 16.824 167.232 16.74 Q 167.715 16.672 168.097 16.589 A 7.609 7.609 0 0 0 168.276 16.548 A 7.592 7.592 0 0 0 168.858 16.382 A 6.456 6.456 0 0 0 169.104 16.296 Z M 162.024 11.112 L 168.072 11.112 Q 168.072 10.981 168.028 10.602 A 25.261 25.261 0 0 0 168 10.368 A 4.137 4.137 0 0 0 167.841 9.648 A 5.248 5.248 0 0 0 167.664 9.168 A 3.045 3.045 0 0 0 167.015 8.211 A 3.623 3.623 0 0 0 166.848 8.052 A 1.884 1.884 0 0 0 165.993 7.624 A 2.761 2.761 0 0 0 165.384 7.56 A 3.975 3.975 0 0 0 164.679 7.619 Q 164.274 7.692 163.946 7.856 A 2.238 2.238 0 0 0 163.728 7.98 A 3.775 3.775 0 0 0 163.052 8.534 A 3.221 3.221 0 0 0 162.696 8.976 A 3.925 3.925 0 0 0 162.317 9.687 A 3.318 3.318 0 0 0 162.168 10.152 A 7.344 7.344 0 0 0 162.092 10.504 Q 162.031 10.826 162.025 11.059 A 1.934 1.934 0 0 0 162.024 11.112 Z" id="14" vector-effect="non-scaling-stroke"/><path d="M 172.704 18.192 L 172.704 8.064 Q 172.704 7.512 172.584 6.336 L 174.36 6.096 L 174.552 7.848 L 174.576 7.848 Q 175.008 7.296 175.416 6.888 A 5.917 5.917 0 0 1 176.103 6.296 A 5.326 5.326 0 0 1 176.268 6.18 A 2.06 2.06 0 0 1 176.589 6 Q 176.785 5.914 176.974 5.89 A 1.144 1.144 0 0 1 177.12 5.88 A 3.693 3.693 0 0 1 177.243 5.877 Q 177.754 5.872 178.58 5.989 A 18.537 18.537 0 0 1 178.656 6 L 178.224 7.848 Q 177.474 7.712 177.155 7.726 A 1.078 1.078 0 0 0 177.12 7.728 A 1.008 1.008 0 0 0 176.74 7.807 Q 176.597 7.865 176.449 7.965 A 2.321 2.321 0 0 0 176.256 8.112 Q 175.8 8.496 175.464 8.928 A 9.67 9.67 0 0 0 174.94 9.635 A 11.967 11.967 0 0 0 174.624 10.128 L 174.624 18.192 L 172.704 18.192 Z" id="15" vector-effect="non-scaling-stroke"/></g></svg>

