<svg width="227" height="192" viewBox="0 0 227 192" fill="none" xmlns="http://www.w3.org/2000/svg">
<circle cx="131.06" cy="95.94" r="94.88" fill="#F3F8FE"/>
<path d="M42.4683 59.2568C57.3096 23.4239 92.2752 0.0599976 131.06 0.0599976C183.99 0.120605 226.884 43.0104 226.95 95.94C226.954 134.725 203.594 169.693 167.762 184.538C131.931 199.383 90.6855 191.182 63.2591 163.758C35.8327 136.334 27.6269 95.0897 42.4683 59.2568ZM217.825 60.0014C203.284 24.9168 169.039 2.04786 131.06 2.06C79.2216 2.07656 37.2056 44.1016 37.2 95.94C37.196 133.919 60.0722 168.159 95.1599 182.693C130.248 197.227 170.635 189.191 197.487 162.333C224.339 135.475 232.367 95.0859 217.825 60.0014Z" fill="#061884"/>
<circle cx="131.06" cy="95.94" r="82.75" fill="white"/>
<circle cx="131.06" cy="95.94" r="35.62" fill="#DDE9FD"/>
<path d="M94.4399 95.94C94.4399 75.7153 110.835 59.32 131.06 59.32C151.285 59.32 167.68 75.7153 167.68 95.94C167.68 116.165 151.285 132.56 131.06 132.56C110.835 132.56 94.4399 116.165 94.4399 95.94ZM163.052 82.6846C157.69 69.7483 145.063 61.316 131.06 61.32C111.953 61.3476 96.472 76.8329 96.4499 95.94C96.4499 109.943 104.886 122.568 117.824 127.926C130.762 133.284 145.653 130.32 155.554 120.417C165.454 110.513 168.413 95.6209 163.052 82.6846Z" fill="#061884"/>
<path d="M183.97 54.28C181.332 54.2401 179.197 52.123 179.136 49.4856C179.074 46.8483 181.107 44.6335 183.74 44.47H183.98C186.692 44.4037 188.944 46.5483 189.01 49.26C189.076 51.9717 186.932 54.2237 184.22 54.29L183.97 54.28Z" fill="white"/>
<path d="M183.69 43.47H183.98C187.167 43.5016 189.754 46.0539 189.83 49.2396C189.905 52.4254 187.441 55.0974 184.26 55.28H183.97C180.784 55.2484 178.196 52.6961 178.12 49.5104C178.045 46.3246 180.509 43.6526 183.69 43.47ZM187.985 49.275C187.933 47.1156 186.139 45.4075 183.98 45.46V45.47H183.79C181.704 45.6122 180.099 47.3706 180.147 49.461C180.195 51.5515 181.88 53.234 183.97 53.28H184.17C186.329 53.2275 188.038 51.4344 187.985 49.275Z" fill="#061884"/>
<path d="M193.34 67.44C190.702 67.4001 188.567 65.283 188.506 62.6457C188.444 60.0083 190.477 57.7935 193.11 57.63H193.35C195.989 57.6656 198.128 59.781 198.192 62.4195C198.257 65.0579 196.224 67.2754 193.59 67.44H193.34Z" fill="white"/>
<path d="M193.06 56.63H193.35C196.536 56.6616 199.124 59.2139 199.2 62.3996C199.275 65.5854 196.811 68.2574 193.63 68.44H193.34C190.153 68.4084 187.566 65.8561 187.49 62.6704C187.415 59.4846 189.878 56.8126 193.06 56.63ZM197.355 62.435C197.302 60.2756 195.509 58.5675 193.35 58.62V58.63H193.16C191.074 58.7722 189.469 60.5306 189.517 62.621C189.565 64.7115 191.249 66.394 193.34 66.44H193.54C195.699 66.3875 197.407 64.5944 197.355 62.435Z" fill="#061884"/>
<path d="M72.05 138.37C69.423 138.374 67.2583 136.309 67.1378 133.685C67.0173 131.061 68.9837 128.807 71.6 128.57H72.06C74.689 128.561 76.859 130.624 76.9822 133.25C77.1055 135.876 75.1383 138.133 72.52 138.37H72.05Z" fill="white"/>
<path d="M71.5 127.55H72.06C75.2019 127.568 77.7805 130.041 77.9296 133.179C78.0787 136.318 75.7461 139.024 72.62 139.34C72.4302 139.35 72.2399 139.35 72.05 139.34C68.9099 139.317 66.336 136.842 66.1896 133.706C66.0433 130.569 68.3757 127.865 71.5 127.55ZM75.9414 133.275C75.843 131.199 74.138 129.563 72.06 129.55H71.69C69.6242 129.759 68.082 131.546 68.1777 133.62C68.2735 135.695 69.9737 137.332 72.05 137.35H72.43C74.4975 137.14 76.0399 135.35 75.9414 133.275Z" fill="#061884"/>
<path d="M82.0201 151.06C79.4278 151.02 77.3137 148.971 77.192 146.381C77.0703 143.791 78.983 141.553 81.5601 141.27C81.7166 141.26 81.8736 141.26 82.0301 141.27C84.6591 141.261 86.829 143.324 86.9523 145.95C87.0756 148.576 85.1084 150.833 82.4901 151.07L82.0201 151.06Z" fill="white"/>
<path d="M81.47 140.26C81.6565 140.25 81.8435 140.25 82.03 140.26V140.27C84.3198 140.271 86.4032 141.594 87.3772 143.666C88.3513 145.738 88.0407 148.187 86.58 149.95C85.582 151.159 84.1416 151.919 82.58 152.06H82.02C78.8364 152.097 76.1955 149.606 76.0473 146.426C75.8991 143.245 78.2968 140.519 81.47 140.26ZM85.9023 145.99C85.8066 143.915 84.1063 142.278 82.03 142.26H81.65C79.5826 142.47 78.0402 144.26 78.1386 146.335C78.2371 148.411 79.942 150.047 82.02 150.06C82.1431 150.07 82.2669 150.07 82.39 150.06C84.4558 149.851 85.998 148.064 85.9023 145.99Z" fill="#061884"/>
<path d="M83.4399 143.06C76.7681 157.92 63.8778 169.078 48.2147 173.551C32.5517 178.024 15.713 175.356 2.19995 166.26" stroke="#061884" stroke-width="4" stroke-linecap="round"/>
<path d="M131.18 59.32V132.37" stroke="#061884" stroke-width="2"/>
<path d="M117.2 62.1L145.15 129.59" stroke="#061884" stroke-width="2"/>
<path d="M105.35 70.02L157 121.68" stroke="#061884" stroke-width="2"/>
<path d="M97.4299 81.87L164.92 109.83" stroke="#061884" stroke-width="2"/>
<path d="M94.6499 95.85H167.7" stroke="#061884" stroke-width="2"/>
<path d="M109.44 104.85L164.92 81.87" stroke="#061884" stroke-width="2"/>
<path d="M105.35 121.68L157 70.02" stroke="#061884" stroke-width="2"/>
<path d="M117.2 129.59L145.15 62.1" stroke="#061884" stroke-width="2"/>
<path d="M96.04 106.59L104.49 102.98C106.423 102.153 108.661 103.048 109.49 104.98V104.98C109.89 105.908 109.904 106.957 109.529 107.895C109.153 108.834 108.42 109.584 107.49 109.98L99.03 113.6" stroke="#061884" stroke-width="2"/>
<circle cx="131.06" cy="95.94" r="16.95" fill="white"/>
<path d="M114.476 89.0708C117.255 82.3634 123.8 77.99 131.06 77.99C140.962 78.0175 148.982 86.0379 149.01 95.94C149.01 103.2 144.637 109.745 137.929 112.524C131.222 115.302 123.501 113.766 118.367 108.633C113.234 103.499 111.698 95.7783 114.476 89.0708ZM145.889 89.837C143.397 83.854 137.541 79.9657 131.06 79.99C122.255 79.9955 115.12 87.135 115.12 95.94C115.1 102.421 118.992 108.275 124.976 110.763C130.961 113.252 137.855 111.885 142.437 107.3C147.019 102.716 148.382 95.8199 145.889 89.837Z" fill="#061884"/>
<path d="M52.52 190.83H209.18" stroke="#061884" stroke-width="2" stroke-linecap="round"/>
</svg>
