<svg id="Layer_1" data-name="Layer 1" xmlns="http://www.w3.org/2000/svg" xmlns:xlink="http://www.w3.org/1999/xlink" viewBox="0 0 248 216"><style>.cls-1,.cls-2,.cls-5{fill:none;}.cls-1,.cls-2,.cls-5,.cls-7{stroke:#061884;stroke-miterlimit:10;}.cls-1,.cls-2{stroke-linecap:round;}.cls-1,.cls-5,.cls-7{stroke-width:2px;}.cls-2{stroke-width:4px;}.cls-3,.cls-6,.cls-7{fill:#f3f8fe;}.cls-4{fill:#dde9fd;}.cls-6{fill-rule:evenodd;}.cls-8{fill:#061884;}.cls-9{fill:#c5dbfb;}</style>
<g id="Third-party-printer"><g id="Third-party-printer-2" data-name="Third-party-printer"><line id="Footing" class="cls-1" x1="1" y1="215" x2="247" y2="215"/><path class="cls-2" d="M42,202c-3.68-5.09-18.7-61.92-9-108.42,1.5-7.23,6-36.3,35.85-43.6C116.31,38.35,124.28,80.11,126,82.92"/><rect class="cls-3" x="42.5" y="18.5" width="19" height="171"/><path class="cls-4" d="M60,20V188H44V20H60m3-3H41V191H63V17Z"/><rect class="cls-5" x="41" y="17" width="22" height="174"/><rect class="cls-3" x="186.5" y="18.5" width="19" height="173"/><path class="cls-4" d="M204,20V190H188V20h16m3-3H185V193h22V17Z"/><rect class="cls-5" x="185" y="17" width="22" height="176"/><rect class="cls-3" x="39.5" y="2.5" width="169" height="13"/><path class="cls-4" d="M207,4V14H41V4H207m3-3H38V17H210V1Z"/><rect class="cls-5" x="38" y="1" width="172" height="16"/><rect class="cls-3" x="29.5" y="86.5" width="189" height="7"/><path class="cls-4" d="M217,88v4H31V88H217m3-3H28V95H220V85Z"/><rect class="cls-5" x="28" y="85" width="192" height="10"/><path class="cls-6" d="M102.5,97.5V80a1.5,1.5,0,0,1,1.5-1.5h27.5v19Z"/><path class="cls-4" d="M130,80V96H104V80h26m3-3H104a3,3,0,0,0-3,3V99h32V77Z"/><path class="cls-5" d="M133,99H101V80a3,3,0,0,1,3-3h29Z"/><rect class="cls-3" x="115.5" y="84.5" width="19" height="19"/><path class="cls-4" d="M133,86v16H117V86h16m3-3H114v22h22V83Z"/><rect class="cls-5" x="114" y="83" width="22" height="22"/><path class="cls-7" d="M44,90v16a5,5,0,0,1-8.54,3.54L22.88,97A3,3,0,0,1,22,94.83V85.17a3,3,0,0,1,.88-2.12L35.46,70.46A5,5,0,0,1,44,74Z"/><circle class="cls-8" cx="38.5" cy="74.5" r="2.5"/><circle class="cls-8" cx="38.5" cy="105.5" r="2.5"/><path class="cls-7" d="M220,72a4.93,4.93,0,0,0-.38-1.91,5,5,0,0,0-6.53-2.71L170.56,85H220Z"/><circle class="cls-8" cx="214.67" cy="72.5" r="2.5"/><path class="cls-7" d="M220,108a4.93,4.93,0,0,1-.38,1.91,5,5,0,0,1-6.53,2.71L170.56,95H220Z"/><circle class="cls-8" cx="214.67" cy="107.5" r="2.5"/><rect class="cls-3" x="122.5" y="196.5" width="63" height="17"/><path class="cls-4" d="M184,198v14H124V198h60m3-3H121v20h66V195Z"/><rect class="cls-5" x="121" y="195" width="66" height="20"/><rect class="cls-3" x="124.5" y="184.5" width="19" height="19"/><path class="cls-4" d="M142,186v16H126V186h16m3-3H123v22h22V183Z"/><rect class="cls-5" x="123" y="183" width="22" height="22"/><line class="cls-5" x1="72" y1="183" x2="176" y2="183"/><line class="cls-5" x1="68" y1="176" x2="180" y2="176"/><line class="cls-5" x1="77" y1="183" x2="77" y2="177"/><line class="cls-5" x1="171" y1="183" x2="171" y2="177"/><rect class="cls-3" x="42.5" y="192.5" width="79" height="21"/><path class="cls-4" d="M120,194v18H44V194h76m3-3H41v24h82V191Z"/><rect class="cls-5" x="41" y="191" width="82" height="24"/><circle class="cls-8" cx="48.5" cy="198.5" r="2.5"/><circle class="cls-8" cx="57.5" cy="207.5" r="2.5"/><rect class="cls-3" x="186.5" y="175.5" width="43" height="14"/><path class="cls-4" d="M228,177v11H188V177h40m3-3H185v17h46V174Z"/><rect class="cls-5" x="185" y="174" width="46" height="17"/><rect class="cls-3" x="186.5" y="192.5" width="43" height="21"/><path class="cls-4" d="M228,194v18H188V194h40m3-3H185v24h46V191Z"/><rect class="cls-5" x="185" y="191" width="46" height="24"/><circle class="cls-8" cx="201.5" cy="198.5" r="2.5"/><circle class="cls-8" cx="192.5" cy="207.5" r="2.5"/><rect class="cls-9" x="107" y="143" width="32" height="32"/></g></g></svg>
