<svg xmlns="http://www.w3.org/2000/svg" xmlns:xlink="http://www.w3.org/1999/xlink" viewBox="0 0 192.011 237.663"><path d="M42.5252,63.8942S69.7257-1.0843,85.7117,2.1143s8.5818,60.7484,8.5818,60.7484" style="fill:none;stroke:#061884;stroke-linecap:round;stroke-miterlimit:10;stroke-width:4px"/><path d="M149.4861,72.8942s-27.2-64.9785-43.1865-61.78-8.5818,60.7484-8.5818,60.7484" style="fill:none;stroke:#061884;stroke-linecap:round;stroke-miterlimit:10;stroke-width:4px"/><path d="M166.3128,236.663l-.2925-.2885a20.3672,20.3672,0,0,0-13.5054-4.7115H38.2024a17.0846,17.0846,0,0,0-11.7915,4.6778l-.2969.32-7.2827.0019a3.83,3.83,0,0,1-3.8257-3.8256V66.4887a3.83,3.83,0,0,1,3.8257-3.8257H172.18a3.83,3.83,0,0,1,3.8256,3.8257V232.8374a3.83,3.83,0,0,1-3.8256,3.8256Z" style="fill:#f3f8fe"/><path d="M172.18,63.663a2.8256,2.8256,0,0,1,2.8256,2.8257V232.8373a2.8256,2.8256,0,0,1-2.8256,2.8257h-5.4565s-5.0589-5-14.2086-5H38.2024a17.9109,17.9109,0,0,0-12.5267,5H18.8313a2.8258,2.8258,0,0,1-2.8257-2.8257V66.4887a2.8258,2.8258,0,0,1,2.8257-2.8257H172.18m0-2H18.8313a4.8312,4.8312,0,0,0-4.8257,4.8257V232.8373a4.8312,4.8312,0,0,0,4.8257,4.8257h7.7235l.5944-.6476a15.8068,15.8068,0,0,1,11.0532-4.3524H152.5149c8.1436,0,12.6231,4.2485,12.81,4.4294l.5817.5634.8171.0072H172.18a4.8311,4.8311,0,0,0,4.8256-4.8257V66.4887A4.8311,4.8311,0,0,0,172.18,61.663Z" style="fill:#061884"/><path d="M41.6858,207.6655a11.6957,11.6957,0,0,1-11.6826-11.6826V82.65a1.992,1.992,0,0,1,1.99-1.99H159.0183a1.992,1.992,0,0,1,1.99,1.99V195.9829a11.6957,11.6957,0,0,1-11.6826,11.6826Z" style="fill:#fff"/><path d="M159.0185,81.6583a.9929.9929,0,0,1,.9919.9919V195.983a10.6968,10.6968,0,0,1-10.6847,10.6848H41.6856A10.6968,10.6968,0,0,1,31.0009,195.983V82.65a.9929.9929,0,0,1,.9919-.9919H159.0185m0-1.9953H31.9928A2.9872,2.9872,0,0,0,29.0056,82.65V195.983a12.68,12.68,0,0,0,12.68,12.68h107.64a12.68,12.68,0,0,0,12.68-12.68V82.65a2.9872,2.9872,0,0,0-2.9871-2.9872Z" style="fill:#f3f8fe"/><path d="M159.0185,79.663a2.9872,2.9872,0,0,1,2.9871,2.9872V195.983a12.68,12.68,0,0,1-12.68,12.68H41.6856a12.68,12.68,0,0,1-12.68-12.68V82.65a2.9872,2.9872,0,0,1,2.9872-2.9872H159.0185m0-1.9952H31.9928A4.988,4.988,0,0,0,27.01,82.65V195.983a14.6919,14.6919,0,0,0,14.6752,14.6753h107.64a14.6919,14.6919,0,0,0,14.6752-14.6753V82.65a4.988,4.988,0,0,0-4.9824-4.9824Z" style="fill:#061884"/><circle cx="162.5056" cy="215.163" r="1.5" style="fill:#061884"/><circle cx="29.5056" cy="215.163" r="1.5" style="fill:#061884"/><circle cx="162.5056" cy="68.163" r="1.5" style="fill:#061884"/><circle cx="119.5056" cy="68.163" r="1.5" style="fill:#061884"/><circle cx="73.5056" cy="68.163" r="1.5" style="fill:#061884"/><circle cx="29.5056" cy="68.163" r="1.5" style="fill:#061884"/><rect x="48.0056" y="218.663" width="6" height="2" style="fill:#061884"/><polygon points="95.498 147.993 74.733 155.551 63.684 174.689 67.521 196.451 84.449 210.656 106.548 210.656 123.476 196.451 127.313 174.689 116.264 155.551 95.498 147.993" style="fill:#dde9fd"/><rect x="73.0008" y="202.6582" width="46.0098" height="24.0098" rx="2.3398" style="fill:#fff"/><path d="M116.6706,203.663a1.3351,1.3351,0,0,1,1.335,1.3351v19.33a1.335,1.335,0,0,1-1.335,1.335h-41.33a1.3351,1.3351,0,0,1-1.3351-1.335v-19.33a1.3352,1.3352,0,0,1,1.3351-1.3351h41.33m0-2.01h-41.33a3.349,3.349,0,0,0-3.3452,3.3453v19.33a3.3489,3.3489,0,0,0,3.3452,3.3452h41.33a3.3489,3.3489,0,0,0,3.3452-3.3452v-19.33a3.349,3.349,0,0,0-3.3452-3.3453Z" style="fill:#061884"/><path d="M115.9955,205.6732v17.98h-39.98v-17.98h39.98m.6751-2.01h-41.33a1.3352,1.3352,0,0,0-1.3351,1.3351v19.33a1.3351,1.3351,0,0,0,1.3351,1.335h41.33a1.335,1.335,0,0,0,1.335-1.335v-19.33a1.3351,1.3351,0,0,0-1.335-1.3351Z" style="fill:#dde9fd"/><line x1="1" y1="236.563" x2="191.0113" y2="236.563" style="fill:none;stroke:#061884;stroke-linecap:round;stroke-miterlimit:10;stroke-width:2px"/><path d="M163.3035,163.3266a4.67,4.67,0,0,1-4.2979-4.7241v-34.96a4.5054,4.5054,0,0,1,4.5005-4.5l.2017.0044a4.67,4.67,0,0,1,4.2978,4.7242v34.96a4.4994,4.4994,0,0,1-4.4995,4.5Z" style="fill:#fff"/><path d="M163.5056,120.1422q.0788,0,.1583.0035a3.6533,3.6533,0,0,1,3.3417,3.7249v34.96a3.5,3.5,0,0,1-3.5,3.5c-.0524,0-.1054-.0012-.1584-.0035a3.6534,3.6534,0,0,1-3.3416-3.7249v-34.96a3.5,3.5,0,0,1,3.5-3.5m0-2a5.5063,5.5063,0,0,0-5.5,5.5v34.96a5.6791,5.6791,0,0,0,5.2535,5.7229c.0824.0037.1649.0055.2465.0055a5.5062,5.5062,0,0,0,5.5-5.5v-34.96a5.6792,5.6792,0,0,0-5.2536-5.723q-.1241-.0054-.2464-.0054Z" style="fill:#061884"/><path d="M86.3118,100.663A3.3825,3.3825,0,0,1,83.1175,98.43L79.2229,87.9965a3.4382,3.4382,0,0,1-.2173-1.2041V84.665a2.0041,2.0041,0,0,1,2.002-2.002h29.9966a2.0021,2.0021,0,0,1,2.0014,2.0108l-.0107,2.2422a3.44,3.44,0,0,1-.2226,1.2021l-3.9234,10.356a3.3887,3.3887,0,0,1-3.1792,2.1889Z" style="fill:#fff"/><path d="M111.0041,83.663a1.0015,1.0015,0,0,1,1.0014,1.0062l-.01,2.2417a2.4453,2.4453,0,0,1-.1585.8543l-3.9229,10.3542A2.3818,2.3818,0,0,1,105.67,99.663H86.312A2.3812,2.3812,0,0,1,84.06,98.0956l-3.9-10.4487a2.4447,2.4447,0,0,1-.1543-.8545V84.6652a1.0022,1.0022,0,0,1,1.0022-1.0022h29.9963m0-2H81.0078a3.0056,3.0056,0,0,0-3.0022,3.0022v2.1272a4.4275,4.4275,0,0,0,.2806,1.5538l3.9,10.4487a4.3757,4.3757,0,0,0,4.1261,2.8681H105.67a4.3947,4.3947,0,0,0,4.1212-2.8541l3.9158-10.3351a4.43,4.43,0,0,0,.2881-1.5535l.0106-2.2417a3.0016,3.0016,0,0,0-3.0014-3.0156Z" style="fill:#061884"/><path d="M89.76,102.663a2.0276,2.0276,0,0,1-2.0239-2.1469l.7183-12.106a1.859,1.859,0,0,1,1.8535-1.7471h11.4a1.859,1.859,0,0,1,1.8535,1.7471l.7178,12.1055a2.027,2.027,0,0,1-2.024,2.1474Z" style="fill:#fff"/><path d="M101.7082,87.663a.8568.8568,0,0,1,.8553.8062l.7181,12.1053a1.0277,1.0277,0,0,1-1.026,1.0885H89.76a1.0277,1.0277,0,0,1-1.026-1.0885l.7181-12.1053a.8568.8568,0,0,1,.8553-.8062h11.4005m0-2H90.3077a2.86,2.86,0,0,0-2.8518,2.6878l-.718,12.1053A3.0276,3.0276,0,0,0,89.76,103.663h12.4953a3.0276,3.0276,0,0,0,3.0224-3.2069l-.718-12.1053a2.86,2.86,0,0,0-2.8518-2.6878Z" style="fill:#061884"/><path d="M89.6624,79.4624a4.4187,4.4187,0,0,1-2.4555,2.6439.2946.2946,0,0,0,.1371.5567h17.8772A.2981.2981,0,0,0,105.36,82.1a4.41,4.41,0,0,1-2.4424-2.6358,1.0233,1.0233,0,0,0-.976-.8009l-11.3053,0A1.0209,1.0209,0,0,0,89.6624,79.4624Z" style="fill:#fff;stroke:#061884;stroke-miterlimit:10;stroke-width:2px"/></svg>
