<svg width="300" height="300" viewBox="0 0 300 300" fill="none" xmlns="http://www.w3.org/2000/svg">
<g clip-path="url(#clip0_551_27331)">
<path d="M96.5195 109.231C96.5195 109.231 123.72 44.2526 139.706 47.4512C155.692 50.6498 148.288 108.2 148.288 108.2" stroke="#061884" stroke-width="4" stroke-miterlimit="10" stroke-linecap="round"/>
<path d="M203.48 118.231C203.48 118.231 176.28 53.2525 160.294 56.451C144.307 59.6495 151.712 117.199 151.712 117.199" stroke="#061884" stroke-width="4" stroke-miterlimit="10" stroke-linecap="round"/>
<path d="M220.307 282L220.015 281.712C216.231 278.56 211.433 276.886 206.509 277H92.1968C87.8116 276.988 83.5898 278.663 80.4053 281.678L80.1084 281.998L72.8257 282C71.8114 281.999 70.839 281.595 70.1218 280.878C69.4046 280.161 69.0012 279.188 69 278.174V111.826C69.0011 110.811 69.4046 109.839 70.1218 109.122C70.839 108.405 71.8114 108.001 72.8257 108H226.174C227.189 108.001 228.161 108.405 228.878 109.122C229.595 109.839 229.999 110.811 230 111.826V278.174C229.999 279.189 229.595 280.161 228.878 280.878C228.161 281.595 227.189 281.999 226.174 282H220.307Z" fill="#F3F8FE"/>
<path d="M226.174 109C226.545 109 226.913 109.073 227.256 109.215C227.599 109.357 227.91 109.565 228.172 109.828C228.435 110.09 228.643 110.402 228.785 110.744C228.927 111.087 229 111.455 229 111.826V278.174C229 278.545 228.927 278.913 228.785 279.256C228.643 279.598 228.435 279.91 228.172 280.172C227.91 280.435 227.599 280.643 227.256 280.785C226.913 280.927 226.545 281 226.174 281H220.718C220.718 281 215.659 276 206.509 276H92.1968C87.5292 275.971 83.0346 277.765 79.6701 281H72.8257C72.0763 281 71.3576 280.702 70.8277 280.172C70.2977 279.642 70 278.924 70 278.174V111.826C70 111.076 70.2977 110.358 70.8277 109.828C71.3576 109.298 72.0763 109 72.8257 109H226.174ZM226.174 107H72.8257C71.5463 107.001 70.3197 107.51 69.415 108.415C68.5103 109.32 68.0015 110.546 68 111.826V278.174C68.0015 279.454 68.5103 280.68 69.415 281.585C70.3197 282.49 71.5463 282.999 72.8257 283H80.5492L81.1436 282.352C84.122 279.52 88.0866 277.958 92.1968 278H206.509C214.653 278 219.132 282.249 219.319 282.429L219.901 282.993L220.718 283H226.174C227.454 282.999 228.68 282.49 229.585 281.585C230.49 280.68 230.999 279.454 231 278.174V111.826C230.999 110.546 230.49 109.32 229.585 108.415C228.68 107.51 227.454 107.001 226.174 107V107Z" fill="#061884"/>
<path d="M95.6802 253.002C92.5828 252.999 89.6133 251.767 87.4231 249.577C85.233 247.387 84.001 244.417 83.9976 241.32V127.987C83.9981 127.459 84.2079 126.953 84.581 126.58C84.9541 126.207 85.4599 125.997 85.9876 125.997H213.013C213.54 125.997 214.046 126.207 214.419 126.58C214.792 126.953 215.002 127.459 215.003 127.987V241.32C214.999 244.417 213.767 247.387 211.577 249.577C209.387 251.767 206.417 252.999 203.32 253.002H95.6802Z" fill="white"/>
<path d="M213.013 126.995C213.276 126.996 213.528 127.1 213.714 127.286C213.9 127.472 214.005 127.724 214.005 127.987V241.32C214.002 244.153 212.875 246.869 210.872 248.872C208.869 250.875 206.153 252.002 203.32 252.005H95.68C92.8472 252.002 90.1314 250.875 88.1283 248.872C86.1252 246.869 84.9985 244.153 84.9953 241.32V127.987C84.9956 127.724 85.1002 127.472 85.2861 127.286C85.4721 127.1 85.7242 126.995 85.9872 126.995H213.013M213.013 125H85.9872C85.1949 125 84.4351 125.314 83.8749 125.875C83.3147 126.435 83 127.195 83 127.987V241.32C83 244.683 84.3359 247.908 86.7139 250.286C89.0918 252.664 92.3171 254 95.68 254H203.32C206.683 254 209.908 252.664 212.286 250.286C214.664 247.908 216 244.683 216 241.32V127.987C216 127.195 215.685 126.435 215.125 125.875C214.565 125.315 213.805 125 213.013 125V125Z" fill="#F3F8FE"/>
<path d="M213.013 125C213.805 125 214.565 125.315 215.125 125.875C215.685 126.435 216 127.195 216 127.987V241.32C216 244.683 214.664 247.908 212.286 250.286C209.908 252.664 206.683 254 203.32 254H95.68C92.317 254 89.0918 252.664 86.7139 250.286C84.3359 247.908 83 244.683 83 241.32V127.987C83 127.195 83.3147 126.435 83.8749 125.875C84.4351 125.314 85.1949 125 85.9872 125H213.013M213.013 123.004H85.9872C84.6662 123.006 83.3996 123.531 82.4655 124.465C81.5313 125.399 81.0059 126.666 81.0044 127.987V241.32C81.0088 245.211 82.5563 248.941 85.3075 251.692C88.0587 254.443 91.7888 255.991 95.6796 255.995H203.32C207.21 255.991 210.941 254.443 213.692 251.692C216.443 248.941 217.99 245.211 217.995 241.32V127.987C217.993 126.666 217.468 125.399 216.534 124.465C215.6 123.531 214.333 123.006 213.012 123.004H213.013Z" fill="#061884"/>
<path d="M216.5 262C217.328 262 218 261.328 218 260.5C218 259.672 217.328 259 216.5 259C215.672 259 215 259.672 215 260.5C215 261.328 215.672 262 216.5 262Z" fill="#061884"/>
<path d="M83.5 262C84.3284 262 85 261.328 85 260.5C85 259.672 84.3284 259 83.5 259C82.6716 259 82 259.672 82 260.5C82 261.328 82.6716 262 83.5 262Z" fill="#061884"/>
<path d="M216.5 115C217.328 115 218 114.328 218 113.5C218 112.672 217.328 112 216.5 112C215.672 112 215 112.672 215 113.5C215 114.328 215.672 115 216.5 115Z" fill="#061884"/>
<path d="M173.5 115C174.328 115 175 114.328 175 113.5C175 112.672 174.328 112 173.5 112C172.672 112 172 112.672 172 113.5C172 114.328 172.672 115 173.5 115Z" fill="#061884"/>
<path d="M127.5 115C128.328 115 129 114.328 129 113.5C129 112.672 128.328 112 127.5 112C126.672 112 126 112.672 126 113.5C126 114.328 126.672 115 127.5 115Z" fill="#061884"/>
<path d="M83.5 115C84.3284 115 85 114.328 85 113.5C85 112.672 84.3284 112 83.5 112C82.6716 112 82 112.672 82 113.5C82 114.328 82.6716 115 83.5 115Z" fill="#061884"/>
<path d="M108 264H102V266H108V264Z" fill="#061884"/>
<path d="M149.492 193.33L128.727 200.888L117.678 220.026L121.515 241.788L138.443 255.993H160.542L177.47 241.788L181.307 220.026L170.258 200.888L149.492 193.33Z" fill="#DDE9FD"/>
<path d="M170.665 247.995H129.335C128.043 247.995 126.995 249.043 126.995 250.335V269.665C126.995 270.957 128.043 272.005 129.335 272.005H170.665C171.957 272.005 173.005 270.957 173.005 269.665V250.335C173.005 249.043 171.957 247.995 170.665 247.995Z" fill="white"/>
<path d="M170.665 249C171.019 249 171.359 249.141 171.609 249.391C171.859 249.641 172 249.981 172 250.335V269.665C172 270.019 171.859 270.359 171.609 270.609C171.359 270.859 171.019 271 170.665 271H129.335C128.981 271 128.641 270.859 128.391 270.609C128.141 270.359 128 270.019 128 269.665V250.335C128 249.981 128.141 249.641 128.391 249.391C128.641 249.141 128.981 249 129.335 249H170.665ZM170.665 246.99H129.335C128.448 246.991 127.598 247.344 126.971 247.971C126.343 248.598 125.991 249.448 125.99 250.335V269.665C125.991 270.552 126.343 271.402 126.971 272.03C127.598 272.657 128.448 273.01 129.335 273.01H170.665C171.552 273.01 172.402 272.657 173.029 272.03C173.656 271.402 174.009 270.552 174.01 269.665V250.335C174.009 249.448 173.656 248.598 173.029 247.971C172.402 247.344 171.552 246.991 170.665 246.99V246.99Z" fill="#061884"/>
<path d="M169.99 251.01V268.99H130.01V251.01H169.99M170.665 249H129.335C128.981 249 128.641 249.141 128.391 249.391C128.141 249.641 128 249.981 128 250.335V269.665C128 270.019 128.141 270.359 128.391 270.609C128.641 270.859 128.981 271 129.335 271H170.665C171.019 271 171.359 270.859 171.609 270.609C171.859 270.359 172 270.019 172 269.665V250.335C172 249.981 171.859 249.641 171.609 249.391C171.359 249.141 171.019 249 170.665 249V249Z" fill="#DDE9FD"/>
<path d="M54.9944 281.9H245.006" stroke="#061884" stroke-width="2" stroke-miterlimit="10" stroke-linecap="round"/>
<path d="M217.298 208.664C216.116 208.569 215.013 208.028 214.215 207.151C213.417 206.274 212.983 205.125 213 203.939V168.979C213.001 167.786 213.476 166.643 214.32 165.799C215.164 164.955 216.307 164.481 217.501 164.479L217.702 164.484C218.885 164.578 219.987 165.119 220.785 165.996C221.583 166.874 222.018 168.022 222 169.208V204.168C222 204.759 221.884 205.344 221.658 205.89C221.432 206.436 221.1 206.932 220.682 207.35C220.265 207.768 219.768 208.099 219.223 208.326C218.677 208.552 218.091 208.668 217.501 208.668L217.298 208.664Z" fill="white"/>
<path d="M217.5 165.479C217.553 165.479 217.605 165.48 217.658 165.483C218.585 165.562 219.446 165.991 220.067 166.683C220.688 167.375 221.022 168.278 221 169.207V204.167C221 205.096 220.631 205.986 219.975 206.642C219.319 207.299 218.428 207.667 217.5 207.667C217.448 207.667 217.395 207.666 217.342 207.664C216.415 207.585 215.554 207.155 214.933 206.463C214.312 205.771 213.979 204.869 214 203.939V168.979C214 168.051 214.369 167.161 215.025 166.504C215.682 165.848 216.572 165.479 217.5 165.479ZM217.5 163.479C216.042 163.481 214.644 164.061 213.613 165.092C212.582 166.123 212.002 167.521 212 168.979V203.939C211.985 205.382 212.519 206.776 213.495 207.839C214.471 208.902 215.815 209.554 217.254 209.662C217.336 209.666 217.418 209.667 217.5 209.667C218.958 209.666 220.356 209.086 221.387 208.055C222.418 207.024 222.998 205.626 223 204.167V169.207C223.015 167.765 222.481 166.37 221.505 165.307C220.529 164.244 219.185 163.592 217.746 163.484C217.664 163.481 217.582 163.479 217.5 163.479V163.479Z" fill="#061884"/>
<path d="M140.306 146C139.608 146.003 138.927 145.79 138.355 145.39C137.783 144.99 137.349 144.423 137.112 143.767L133.217 133.333C133.073 132.948 133 132.541 133 132.129V130.002C133.001 129.471 133.212 128.962 133.587 128.587C133.962 128.212 134.471 128.001 135.002 128H164.999C165.262 128 165.523 128.052 165.767 128.153C166.01 128.255 166.231 128.403 166.417 128.59C166.603 128.777 166.75 128.998 166.85 129.242C166.95 129.486 167.001 129.747 167 130.011L166.989 132.253C166.987 132.664 166.912 133.071 166.767 133.455L162.843 143.811C162.599 144.456 162.164 145.011 161.596 145.402C161.028 145.794 160.354 146.002 159.664 146H140.306Z" fill="white"/>
<path d="M164.998 129C165.13 129 165.261 129.026 165.383 129.077C165.505 129.127 165.615 129.202 165.708 129.295C165.801 129.389 165.875 129.499 165.925 129.622C165.975 129.744 166.001 129.874 166 130.006L165.99 132.248C165.988 132.54 165.935 132.829 165.831 133.102L161.909 143.456C161.737 143.912 161.43 144.305 161.029 144.581C160.628 144.857 160.151 145.003 159.664 145H140.306C139.815 145.003 139.335 144.854 138.932 144.573C138.529 144.293 138.222 143.894 138.054 143.433L134.154 132.984C134.052 132.711 134 132.421 134 132.129V130.002C134 129.871 134.026 129.74 134.076 129.619C134.127 129.497 134.201 129.387 134.294 129.294C134.387 129.2 134.497 129.127 134.619 129.076C134.74 129.026 134.871 129 135.002 129H164.999M164.999 127H135.002C134.206 127.001 133.443 127.317 132.88 127.88C132.317 128.443 132.001 129.206 132 130.002V132.129C132 132.66 132.095 133.186 132.281 133.683L136.181 144.132C136.49 144.976 137.053 145.704 137.791 146.217C138.529 146.73 139.408 147.004 140.307 147H159.664C160.56 147.001 161.435 146.728 162.172 146.218C162.908 145.708 163.472 144.985 163.786 144.146L167.701 133.811C167.89 133.314 167.987 132.788 167.99 132.257L168 130.016C168.002 129.62 167.926 129.228 167.776 128.863C167.626 128.497 167.405 128.164 167.126 127.884C166.847 127.604 166.516 127.382 166.151 127.23C165.785 127.078 165.394 127 164.999 127H164.999Z" fill="#061884"/>
<path d="M143.754 148C143.478 148 143.205 147.943 142.951 147.834C142.697 147.724 142.469 147.564 142.279 147.363C142.09 147.162 141.943 146.925 141.849 146.665C141.755 146.405 141.714 146.129 141.731 145.853L142.449 133.747C142.477 133.275 142.685 132.831 143.029 132.506C143.374 132.182 143.829 132.001 144.302 132H155.702C156.176 132.001 156.631 132.182 156.975 132.506C157.32 132.831 157.527 133.275 157.556 133.747L158.274 145.853C158.29 146.128 158.25 146.405 158.156 146.665C158.061 146.924 157.915 147.162 157.725 147.363C157.536 147.564 157.307 147.725 157.053 147.834C156.8 147.944 156.526 148 156.25 148H143.754Z" fill="white"/>
<path d="M155.703 133C155.921 133 156.131 133.083 156.29 133.233C156.449 133.383 156.545 133.588 156.558 133.806L157.276 145.911C157.284 146.051 157.264 146.191 157.216 146.323C157.168 146.455 157.094 146.575 156.998 146.677C156.902 146.779 156.786 146.86 156.657 146.916C156.529 146.971 156.39 147 156.25 147H143.754C143.614 147 143.476 146.971 143.347 146.916C143.219 146.86 143.103 146.779 143.007 146.677C142.91 146.575 142.836 146.455 142.788 146.323C142.741 146.191 142.72 146.051 142.728 145.911L143.447 133.806C143.459 133.588 143.555 133.383 143.714 133.233C143.873 133.083 144.083 133 144.302 133H155.702M155.702 131H144.302C143.574 131.001 142.873 131.279 142.344 131.779C141.814 132.278 141.494 132.961 141.45 133.688L140.732 145.793C140.708 146.205 140.768 146.618 140.909 147.006C141.05 147.393 141.268 147.748 141.551 148.049C141.834 148.349 142.176 148.588 142.555 148.752C142.933 148.916 143.342 149 143.754 149H156.25C156.662 149 157.071 148.916 157.45 148.752C157.829 148.589 158.17 148.349 158.453 148.049C158.736 147.749 158.955 147.394 159.096 147.006C159.237 146.618 159.297 146.205 159.272 145.793L158.554 133.688C158.51 132.961 158.191 132.278 157.661 131.779C157.131 131.279 156.431 131.001 155.702 131V131Z" fill="#061884"/>
<path d="M143.657 124.799C143.457 125.388 143.134 125.928 142.711 126.383C142.288 126.839 141.774 127.2 141.201 127.443C141.142 127.474 141.095 127.523 141.068 127.583C141.04 127.644 141.034 127.711 141.05 127.776C141.066 127.84 141.103 127.897 141.155 127.938C141.208 127.979 141.272 128.001 141.338 128H159.216C159.283 128 159.348 127.978 159.401 127.937C159.454 127.896 159.491 127.838 159.507 127.773C159.523 127.708 159.517 127.64 159.489 127.579C159.461 127.518 159.414 127.468 159.354 127.437C158.785 127.194 158.273 126.833 157.853 126.379C157.432 125.925 157.111 125.387 156.912 124.801C156.862 124.578 156.739 124.377 156.562 124.232C156.385 124.087 156.165 124.005 155.936 124H144.631C144.402 124.005 144.182 124.087 144.006 124.232C143.829 124.377 143.706 124.576 143.657 124.799V124.799Z" fill="white" stroke="#061884" stroke-width="2" stroke-miterlimit="10"/>
</g>
<defs>
<clipPath id="clip0_551_27331">
<rect width="192.011" height="237.663" fill="white" transform="translate(53.9944 45.3369)"/>
</clipPath>
</defs>
</svg>
