<svg xmlns="http://www.w3.org/2000/svg" viewBox="0 0 325.48 197.18">
    <g fill="none" stroke="#061884" stroke-width="2" stroke-linecap="round" stroke-linejoin="round">
        <rect fill="#F3F8FE" x="41.57" y="9.26" width="242.34" height="169.32" rx="6.1" /> <!-- Border of screen. -->
        <rect fill="white" stroke="none" x="52.88" y="20.57" width="219.73" height="155.91" /> <!-- Screen background colour. -->
        <rect x="49.88" y="17.57" width="225.73" height="155.91" rx="2" /> <!-- Screen inner bezel. -->
        <line x1="14.64" y1="187.91" x2="310.85" y2="187.91" /> <!-- Table. -->
        <path fill="#F3F8FE" d="M305.63,172.43 a15.48,15.48, 0,0,1, -15.48,15.48 H35.34 a15.48,15.48, 0,0,1, -15.48,-15.48 a1,1, 0,0,1, 1,-1 H304.63 a1,1, 0,0,1, 1,1 Z" /> <!-- Body. -->
    </g>
    <path fill="#061884" d="M185.24,172.43 h-45 v0.6 a4.4,4.4, 0,0,0, 4.4,4.4 h36.21 a4.4,4.4, 0,0,0, 4.4-4.4 Z" /> <!-- Touchpad. -->
    <g fill="none" stroke="#2C3278" stroke-width="2" stroke-linecap="round">
        <polygon points="180.22,140.51 117.36,140.51 117.36,77.7 144.3,50.78 207.16,50.78 207.16,113.59 180.22,140.51" /> <!-- Cura logo border. -->
        <path class="cls-7" d="M175.73,73.21 H162.26 a22.44,22.44, 0,1,0, 0,44.87 H175.73" /> <!-- Letter C. -->
    </g>
</svg>
