<?xml version="1.0" encoding="UTF-8" ?>
<svg xmlns="http://www.w3.org/2000/svg" viewBox="0 0 378.13 348.13" version="1.1">
  <defs
     id="defs7">
    <style
       id="style2">
         .cls-2,.cls-6{fill:#c5dbfb;}
         .cls-6,.cls-7{stroke-width:2px;}
         .cls-7{fill:#f3f8fe;}
         .cls-6,.cls-7{stroke:#061884;}
      </style>
  </defs>
  <path class="cls-2" d="M43,17V3H83a2,2,0,0,1,2,2V17Z" />
  <path fill="white" d="M 3 1 C 1.8954305 1 1 1.8954305 1 3 L 1 67 C 1 68.104569 1.8954305 69 3 69 L 72.152344 69 A 100 100 0 0 1 89 49.873047 L 89 19 C 89 17.895431 88.104569 17 87 17 L 56 17 L 40 1 L 3 1 z " />
  <path fill="#c5dbfb" d="M 3 0 C 1.3549904 0 0 1.3549904 0 3 L 0 67 C 0 68.64501 1.3549904 70 3 70 L 71.484375 70 A 100 100 0 0 1 72.835938 68 L 3 68 C 2.4358706 68 2 67.564129 2 67 L 2 3 C 2 2.4358706 2.4358706 2 3 2 L 39.585938 2 L 55.585938 18 L 87 18 C 87.564129 18 88 18.435871 88 19 L 88 50.765625 A 100 100 0 0 1 90 49.007812 L 90 19 C 90 17.35499 88.64501 16 87 16 L 56.414062 16 L 40.414062 0 L 3 0 z " />
  <path class="cls-2" d="M153,17V3h40a2,2,0,0,1,2,2V17Z" />
  <path fill="white" d="M 113 1 C 111.89543 1 111 1.8954305 111 3 L 111 35.201172 A 100 100 0 0 1 155 25 A 100 100 0 0 1 199 35.201172 L 199 19 C 199 17.895431 198.10457 17 197 17 L 166 17 L 150 1 L 113 1 z " />
  <path fill="#c5dbfb" d="M 113 0 C 111.35499 0 110 1.3549904 110 3 L 110 35.699219 A 100 100 0 0 1 112 34.716797 L 112 3 C 112 2.4358706 112.43587 2 113 2 L 149.58594 2 L 165.58594 18 L 197 18 C 197.56413 18 198 18.435871 198 19 L 198 34.716797 A 100 100 0 0 1 200 35.699219 L 200 19 C 200 17.35499 198.64501 16 197 16 L 166.41406 16 L 150.41406 0 L 113 0 z " />
  <path class="cls-2" d="M263,17V3h40a2,2,0,0,1,2,2V17Z" />
  <path fill="white" d="M 223 1 C 221.89543 1 221 1.8954305 221 3 L 221 49.875 A 100 100 0 0 1 237.84961 69 L 307 69 C 308.10457 69 309 68.104569 309 67 L 309 19 C 309 17.895431 308.10457 17 307 17 L 276 17 L 260 1 L 223 1 z " />
  <path fill="#c5dbfb" d="M 223 0 C 221.35499 0 220 1.3549904 220 3 L 220 49.005859 A 100 100 0 0 1 222 50.765625 L 222 3 C 222 2.4358706 222.43587 2 223 2 L 259.58594 2 L 275.58594 18 L 307 18 C 307.56413 18 308 18.435871 308 19 L 308 67 C 308 67.564129 307.56413 68 307 68 L 237.16406 68 A 100 100 0 0 1 238.51562 70 L 307 70 C 308.64501 70 310 68.64501 310 67 L 310 19 C 310 17.35499 308.64501 16 307 16 L 276.41406 16 L 260.41406 0 L 223 0 z " />
  <path fill="#c5dbfb" d="M 43 93 L 43 107 L 56.634766 107 A 100 100 0 0 1 60.259766 93 L 43 93 z " />
  <path fill="white" d="M 3 91 C 1.8954305 91 1 91.895431 1 93 L 1 157 C 1 158.10457 1.8954305 159 3 159 L 60.958984 159 A 100 100 0 0 1 55 125 A 100 100 0 0 1 56.634766 107 L 56 107 L 40 91 L 3 91 z " />
  <path fill="#c5dbfb" d="M 3 90 C 1.3549904 90 0 91.35499 0 93 L 0 157 C 0 158.64501 1.3549904 160 3 160 L 61.324219 160 A 100 100 0 0 1 60.603516 158 L 3 158 C 2.4358706 158 2 157.56413 2 157 L 2 93 C 2 92.435871 2.4358706 92 3 92 L 39.585938 92 L 55.585938 108 L 56.455078 108 A 100 100 0 0 1 56.822266 106 L 56.414062 106 L 40.414062 90 L 3 90 z " />
  <path class="cls-2" d="M263,107V93h40a2,2,0,0,1,2,2v12Z" />
  <path fill="white" d="M 249.04102 91 A 100 100 0 0 1 255 125 A 100 100 0 0 1 249.04102 159 L 307 159 C 308.10457 159 309 158.10457 309 157 L 309 109 C 309 107.89543 308.10457 107 307 107 L 276 107 L 260 91 L 249.04102 91 z " />
  <path fill="#c5dbfb" d="M 248.67578 90 A 100 100 0 0 1 249.39648 92 L 259.58594 92 L 275.58594 108 L 307 108 C 307.56413 108 308 108.43587 308 109 L 308 157 C 308 157.56413 307.56413 158 307 158 L 249.39844 158 A 100 100 0 0 1 248.67383 160 L 307 160 C 308.64501 160 310 158.64501 310 157 L 310 109 C 310 107.35499 308.64501 106 307 106 L 276.41406 106 L 260.41406 90 L 248.67578 90 z " />
  <path fill="#c5dbfb" d="M 43 183 L 43 197 L 85 197 L 85 196.41406 A 100 100 0 0 1 73.539062 183 L 43 183 z " />
  <path fill="white" d="M 3 181 C 1.8954305 181 1 181.89543 1 183 L 1 247 C 1 248.10457 1.8954305 249 3 249 L 87 249 C 88.104569 249 89 248.10457 89 247 L 89 200.125 A 100 100 0 0 1 85.603516 197 L 56 197 L 40 181 L 3 181 z " />
  <path fill="#c5dbfb" d="M 3 180 C 1.3549904 180 0 181.35499 0 183 L 0 247 C 0 248.64501 1.3549904 250 3 250 L 87 250 C 88.64501 250 90 248.64501 90 247 L 90 200.99414 A 100 100 0 0 1 88 199.23438 L 88 247 C 88 247.56413 87.564129 248 87 248 L 3 248 C 2.4358706 248 2 247.56413 2 247 L 2 183 C 2 182.43587 2.4358706 182 3 182 L 39.585938 182 L 55.585938 198 L 86.65625 198 A 100 100 0 0 1 84.580078 196 L 56.414062 196 L 40.414062 180 L 3 180 z " />
  <path fill="white" d="M 111 214.79883 L 111 247 C 111 248.10457 111.89543 249 113 249 L 197 249 C 198.10457 249 199 248.10457 199 247 L 199 214.79883 A 100 100 0 0 1 155 225 A 100 100 0 0 1 111 214.79883 z " />
  <path fill="#c5dbfb" d="M 110 214.30078 L 110 247 C 110 248.64501 111.35499 250 113 250 L 197 250 C 198.64501 250 200 248.64501 200 247 L 200 214.30078 A 100 100 0 0 1 198 215.2832 L 198 247 C 198 247.56413 197.56413 248 197 248 L 113 248 C 112.43587 248 112 247.56413 112 247 L 112 215.2832 A 100 100 0 0 1 110 214.30078 z " />
  <path class="cls-2" d="M263,197V183h40a2,2,0,0,1,2,2v12Z" />
  <path fill="white" d="M 237.84766 181 A 100 100 0 0 1 221 200.12695 L 221 247 C 221 248.10457 221.89543 249 223 249 L 307 249 C 308.10457 249 309 248.10457 309 247 L 309 199 C 309 197.89543 308.10457 197 307 197 L 276 197 L 260 181 L 237.84766 181 z " />
  <path fill="#c5dbfb" d="M 238.51562 180 A 100 100 0 0 1 237.16406 182 L 259.58594 182 L 275.58594 198 L 307 198 C 307.56413 198 308 198.43587 308 199 L 308 247 C 308 247.56413 307.56413 248 307 248 L 223 248 C 222.43587 248 222 247.56413 222 247 L 222 199.23438 A 100 100 0 0 1 220 200.99219 L 220 247 C 220 248.64501 221.35499 250 223 250 L 307 250 C 308.64501 250 310 248.64501 310 247 L 310 199 C 310 197.35499 308.64501 196 307 196 L 276.41406 196 L 260.41406 180 L 238.51562 180 z " />
  <path class="cls-6" d="M351.12,322.62h20a10,10,0,0,1,10,10v7a0,0,0,0,1,0,0h-40a0,0,0,0,1,0,0v-7A10,10,0,0,1,351.12,322.62Z" transform="translate(850.61 309.91) rotate(135)" />
  <rect class="cls-7" x="293.75" y="225.25" width="40" height="117" transform="translate(-108.74 304.96) rotate(-45)" />
  <polyline class="cls-7" points="213.69 199.25 252.58 238.14 267.43 223.29 228.54 184.4" />
  <path fill="white" stroke="#061884" stroke-width="2px" d="M 154.94141 30 A 95 95 0 0 0 60 125 A 95 95 0 0 0 155 220 A 95 95 0 0 0 250 125 A 95 95 0 0 0 155 30 A 95 95 0 0 0 154.94141 30 z M 154.82812 40 A 85 85 0 0 1 155 40 A 85 85 0 0 1 240 125 A 85 85 0 0 1 155 210 A 85 85 0 0 1 70 125 A 85 85 0 0 1 154.82812 40 z " />
  <path class="cls-6" d="M256.37,227.87h20a10,10,0,0,1,10,10v7a0,0,0,0,1,0,0h-40a0,0,0,0,1,0,0v-7a10,10,0,0,1,10-10Z" transform="translate(-89.12 257.58) rotate(-45)" />
  <path fill="white" d="M 154.94141 45 A 80 80 0 0 0 111 58.185547 L 111 67 C 111 68.104569 111.89543 69 113 69 L 197 69 C 198.10457 69 199 68.104569 199 67 L 199 58.1875 A 80 80 0 0 0 155 45 A 80 80 0 0 0 154.94141 45 z " />
  <path fill="#061884" d="M 112 57.539062 A 80 80 0 0 0 110 58.857422 L 110 67 C 110 68.64501 111.35499 70 113 70 L 197 70 C 198.64501 70 200 68.64501 200 67 L 200 58.857422 A 80 80 0 0 0 198 57.541016 L 198 67 C 198 67.564129 197.56413 68 197 68 L 113 68 C 112.43587 68 112 67.564129 112 67 L 112 57.539062 z " />
  <path fill="#196ef0" d="M 81.679688 93 A 80 80 0 0 0 77.050781 107 L 85 107 L 85 95 A 2 2 0 0 0 83 93 L 81.679688 93 z " />
  <path fill="white" d="M 77.050781 107 A 80 80 0 0 0 75 125 A 80 80 0 0 0 82.585938 159 L 87 159 C 88.104569 159 89 158.10457 89 157 L 89 109 C 89 107.89543 88.104569 107 87 107 L 77.050781 107 z " />
  <path fill="#061884" d="M 77.289062 106 A 80 80 0 0 0 76.828125 108 L 87 108 C 87.564129 108 88 108.43587 88 109 L 88 157 C 88 157.56413 87.564129 158 87 158 L 82.125 158 A 80 80 0 0 0 83.0625 160 L 87 160 C 88.64501 160 90 158.64501 90 157 L 90 109 C 90 107.35499 88.64501 106 87 106 L 77.289062 106 z " />
  <path fill="white" d="M 223 91 C 221.89543 91 221 91.895431 221 93 L 221 157 C 221 158.10457 221.89543 159 223 159 L 227.41406 159 A 80 80 0 0 0 235 125 A 80 80 0 0 0 227.41406 91 L 223 91 z " />
  <path fill="#061884" d="M 223 90 C 221.35499 90 220 91.35499 220 93 L 220 157 C 220 158.64501 221.35499 160 223 160 L 226.9375 160 A 80 80 0 0 0 227.87695 158 L 223 158 C 222.43587 158 222 157.56413 222 157 L 222 93 C 222 92.435871 222.43587 92 223 92 L 227.875 92 A 80 80 0 0 0 226.9375 90 L 223 90 z " />
  <path fill="#196ef0" d="M 153 183 L 153 197 L 189.86914 197 A 80 80 0 0 0 195 194.28125 L 195 185 A 2 2 0 0 0 193 183 L 153 183 z "/>
  <path fill="white" d="M 113 181 C 111.89543 181 111 181.89543 111 183 L 111 191.8125 A 80 80 0 0 0 155 205 A 80 80 0 0 0 189.86914 197 L 166 197 L 150 181 L 113 181 z " />
  <path fill="#061884" d="M 113 180 C 111.35499 180 110 181.35499 110 183 L 110 191.14258 A 80 80 0 0 0 112 192.45898 L 112 183 C 112 182.43587 112.43587 182 113 182 L 149.58594 182 L 165.58594 198 L 187.72461 198 A 80 80 0 0 0 191.86328 196 L 166.41406 196 L 150.41406 180 L 113 180 z " />
  <path fill="#061884" d="m 149.18,133.69 v -3.48 a 14.36,14.36 0 0 1 1.74,-7.25 20.17,20.17 0 0 1 6.4,-6.17 25.87,25.87 0 0 0 5.68,-4.79 7,7 0 0 0 1.48,-4.34 4.13,4.13 0 0 0 -1.93,-3.62 9,9 0 0 0 -5.14,-1.3 24.94,24.94 0 0 0 -7.34,1.16 45.2,45.2 0 0 0 -7.78,3.31 l -5.37,-10.64 a 48.41,48.41 0 0 1 9.89,-4.21 40.25,40.25 0 0 1 11.67,-1.61 q 9.57,0 14.9,4.43 a 14.16,14.16 0 0 1 5.32,11.41 15.41,15.41 0 0 1 -2.55,9 30.38,30.38 0 0 1 -7.92,7.34 32.11,32.11 0 0 0 -5.23,4.37 5.91,5.91 0 0 0 -1.34,4 v 2.41 z m -1.61,15.12 q 0,-4.38 2.46,-6.12 a 10,10 0 0 1 5.95,-1.75 9.69,9.69 0 0 1 5.77,1.75 q 2.46,1.74 2.46,6.12 0,4.22 -2.46,6 a 9.42,9.42 0 0 1 -5.77,1.84 9.69,9.69 0 0 1 -5.95,-1.84 q -2.46,-1.81 -2.46,-6 z" />
</svg>
