<?xml version="1.0" encoding="iso-8859-1"?>
<!-- Generator: Adobe Illustrator 25.2.0, SVG Export Plug-In . SVG Version: 6.00 Build 0)  -->
<svg version="1.1" id="Artwork" xmlns="http://www.w3.org/2000/svg" xmlns:xlink="http://www.w3.org/1999/xlink" x="0px" y="0px"
	 viewBox="0 0 24 24" style="enable-background:new 0 0 24 24;" xml:space="preserve">
<path d="M12,19.6L4.4,12L7,9.4V12h2V6H3v2h2.6L3.7,9.9c-1.2,1.2-1.2,3.1,0,4.2l6.2,6.2c1.2,1.2,3.1,1.2,4.2,0l0.6-0.6l-1.4-1.4
	L12,19.6z"/>
<path d="M20.3,9.9l-6.2-6.2c-1.2-1.2-3.1-1.2-4.2,0L9.3,4.3l1.4,1.4L12,4.4l7.6,7.6L17,14.6V12h-2v6h6v-2h-2.6l1.9-1.9
	C21.5,12.9,21.5,11.1,20.3,9.9z"/>
</svg>
