<svg width="48" height="48" viewBox="0 0 48 48" fill="none" xmlns="http://www.w3.org/2000/svg">
<path d="M36 22C36 22.3956 35.8827 22.7822 35.6629 23.1111C35.4432 23.44 35.1308 23.6964 34.7654 23.8478C34.3999 23.9991 33.9978 24.0387 33.6098 23.9616C33.2219 23.8844 32.8655 23.6939 32.5858 23.4142C32.3061 23.1345 32.1156 22.7781 32.0384 22.3902C31.9613 22.0022 32.0009 21.6001 32.1522 21.2346C32.3036 20.8692 32.56 20.5568 32.8889 20.3371C33.2178 20.1173 33.6044 20 34 20C34.5304 20 35.0391 20.2107 35.4142 20.5858C35.7893 20.9609 36 21.4696 36 22ZM42 16V40H6V16H14.58L21.56 9.02C21.5192 8.84971 21.499 8.67511 21.5 8.5C21.5 7.83696 21.7634 7.20107 22.2322 6.73223C22.7011 6.26339 23.337 6 24 6C24.663 6 25.2989 6.26339 25.7678 6.73223C26.2366 7.20107 26.5 7.83696 26.5 8.5C26.501 8.67511 26.4808 8.84971 26.44 9.02L33.42 16H42ZM17.42 16H30.58L25.25 10.67C24.8689 10.8863 24.4382 11 24 11C23.5618 11 23.1311 10.8863 22.75 10.67L17.42 16ZM25.38 38L17.15 27.61L8.92 38H25.38ZM35.85 38L29.47 29.94L25.5 34.95L27.92 38H35.85ZM40 18H8V35.94L17.15 24.39L24.23 33.34L29.47 26.72L38.39 38H40V18Z" fill="#000E1A"/>
</svg>
