<svg viewBox="0 0 48 48" xmlns="http://www.w3.org/2000/svg">
<path d="M42 12C42 15.5 39.4 18.4 36 18.9V24H42V26H36V31V31.1C39.4 31.6 42 34.5 42 38H40C40 35.5 38.2 33.5 35.8 33.1C34.8 38.7 29.9 43 24 43C18.1 43 13.2 38.7 12.2 33.1C9.8 33.5 8 35.5 8 38H6C6 34.5 8.6 31.6 12 31.1V31V26H6V24H12V18.9C8.6 18.4 6 15.5 6 12H8C8 14.4 9.7 16.4 12 16.9C12.1 10.3 17.4 5 24 5C30.6 5 35.9 10.3 36 16.9C38.3 16.4 40 14.4 40 12H42ZM34 17C34 11.5 29.5 7 24 7C18.5 7 14 11.5 14 17H34ZM14 19V31C14 36.2 18 40.4 23 40.9V19H14ZM25 19V40.9C30 40.4 34 36.2 34 31V19H25ZM24 11.9L27.6 10.1L28.4 11.9L26.2 13L28.4 14.1L27.6 15.9L24 14.1L20.4 15.9L19.6 14.1L21.8 13L19.6 11.9L20.4 10.1L24 11.9Z" />
</svg>
