<svg width="48" height="48" viewBox="0 0 48 48" xmlns="http://www.w3.org/2000/svg">
<path d="M39.0176 13.0001H9.01764V11.0001H39.0176V13.0001ZM24.0176 16.0001H9.01764V18.0001H24.0176V16.0001ZM20.0176 21.0001H9.01764V23.0001H20.0176V21.0001ZM12.0176 26.0001H9.01764V28.0001H12.0176V26.0001ZM43.9576 5.06006V36.9401H35.6976V43.3901L31.6976 42.0501L27.6976 43.3901V36.9401H4.07764V5.06006H43.9576ZM33.6976 33.1401L31.7276 33.6801L29.6976 33.1501V40.6101L31.6976 39.9501L33.6976 40.6101V33.1401ZM36.2876 28.9501L36.9776 26.3001L36.2576 23.6601L34.3176 21.7301L31.6676 21.0401L29.0276 21.7601L27.0976 23.7001L26.4076 26.3501L27.1276 28.9901L29.0676 30.9201L31.7176 31.6101L34.3576 30.8901L36.2876 28.9501ZM42.0776 6.94006H5.95764V35.0601H27.6976V32.3701L25.3376 30.0301L24.3376 26.3601L25.3076 22.6701L27.9876 19.9701L31.6576 18.9601L35.3476 19.9301L38.0476 22.6201L39.0576 26.2901L38.0876 29.9801L35.6976 32.3801V35.0601H42.0776V6.94006Z" />
</svg>
