<svg width="48" height="48" viewBox="0 0 48 48" fill="none" xmlns="http://www.w3.org/2000/svg">
<path d="M36.415 12.9991L38.707 10.707L37.293 9.293L34.8867 11.6993C32.0327 9.51722 28.5873 8.24575 25 8.0507V6H27V4H21V6H23V8.0507C19.4127 8.24575 15.9673 9.51717 13.1132 11.6992L10.707 9.293L9.29301 10.707L11.585 12.999C8.98029 15.4801 7.17874 18.6848 6.41278 22.1997C5.64682 25.7145 5.95157 29.3782 7.28774 32.7181C8.6239 36.0581 10.9302 38.9211 13.909 40.9378C16.8879 42.9545 20.4027 44.0323 24 44.0323C27.5973 44.0323 31.1121 42.9545 34.091 40.9378C37.0698 38.9211 39.3761 36.0581 40.7123 32.7181C42.0484 29.3782 42.3532 25.7145 41.5872 22.1997C40.8213 18.6848 39.0197 15.4801 36.415 12.999V12.9991ZM24 42C20.8355 42 17.7421 41.0616 15.1109 39.3035C12.4797 37.5454 10.4289 35.0466 9.21793 32.1229C8.00693 29.1993 7.69008 25.9823 8.30744 22.8786C8.92481 19.7749 10.4487 16.9239 12.6863 14.6863C14.9239 12.4487 17.7749 10.9248 20.8786 10.3074C23.9823 9.69007 27.1993 10.0069 30.1229 11.2179C33.0466 12.4289 35.5454 14.4797 37.3035 17.1109C39.0616 19.7421 40 22.8355 40 26C39.9952 30.242 38.3079 34.3088 35.3084 37.3084C32.3088 40.3079 28.242 41.9952 24 42ZM25 25H31V27H23V14H25V25Z" fill="#000E1A"/>
</svg>
