<svg width="48" height="48" viewBox="0 0 48 48" xmlns="http://www.w3.org/2000/svg">
<path d="M37.35 23.74C38.4535 22.9288 39.2725 21.7898 39.6903 20.4855C40.108 19.1812 40.1031 17.7783 39.6762 16.477C39.2494 15.1756 38.4224 14.0424 37.3132 13.2389C36.2041 12.4355 34.8696 12.0029 33.5 12.0029C32.1304 12.0029 30.7959 12.4355 29.6868 13.2389C28.5776 14.0424 27.7506 15.1756 27.3238 16.477C26.8969 17.7783 26.892 19.1812 27.3098 20.4855C27.7275 21.7898 28.5465 22.9288 29.65 23.74C27.6874 24.5098 26.0036 25.8554 24.82 27.6C24.5 25.8474 23.7377 24.2055 22.6055 22.83C21.4732 21.4545 20.0084 20.3909 18.35 19.74C19.4535 18.9288 20.2725 17.7898 20.6903 16.4855C21.108 15.1812 21.1031 13.7783 20.6762 12.477C20.2494 11.1756 19.4224 10.0424 18.3132 9.23891C17.2041 8.43546 15.8696 8.00287 14.5 8.00287C13.1304 8.00287 11.7959 8.43546 10.6868 9.23891C9.57765 10.0424 8.75065 11.1756 8.32379 12.477C7.89692 13.7783 7.89201 15.1812 8.30975 16.4855C8.72749 17.7898 9.54654 18.9288 10.65 19.74C8.68848 20.5092 7.00454 21.8521 5.81817 23.5933C4.6318 25.3345 3.99815 27.393 4 29.5V40H6V29.5C6 27.2457 6.89554 25.0836 8.4896 23.4896C10.0837 21.8955 12.2457 21 14.5 21C16.7543 21 18.9164 21.8955 20.5104 23.4896C22.1045 25.0836 23 27.2457 23 29.5V40H25V33.5C25 31.2457 25.8955 29.0836 27.4896 27.4896C29.0837 25.8955 31.2457 25 33.5 25C35.7543 25 37.9164 25.8955 39.5104 27.4896C41.1045 29.0836 42 31.2457 42 33.5V40H44V33.5C44.0019 31.393 43.3682 29.3345 42.1818 27.5933C40.9955 25.8521 39.3115 24.5092 37.35 23.74ZM14.5 19C13.61 19 12.74 18.7361 11.9999 18.2416C11.2599 17.7471 10.6831 17.0443 10.3425 16.2221C10.002 15.3998 9.91284 14.495 10.0865 13.6221C10.2601 12.7492 10.6887 11.9474 11.318 11.318C11.9474 10.6887 12.7492 10.2601 13.6221 10.0865C14.495 9.91283 15.3998 10.0019 16.2221 10.3425C17.0443 10.6831 17.7472 11.2599 18.2416 11.9999C18.7361 12.74 19 13.61 19 14.5C18.9982 15.6929 18.5235 16.8365 17.68 17.68C16.8365 18.5235 15.6929 18.9982 14.5 19ZM33.5 23C32.61 23 31.74 22.7361 30.9999 22.2416C30.2599 21.7471 29.6831 21.0443 29.3425 20.2221C29.002 19.3998 28.9128 18.495 29.0865 17.6221C29.2601 16.7492 29.6887 15.9474 30.318 15.318C30.9474 14.6887 31.7492 14.2601 32.6221 14.0865C33.495 13.9128 34.3998 14.0019 35.2221 14.3425C36.0443 14.6831 36.7472 15.2599 37.2416 15.9999C37.7361 16.74 38 17.61 38 18.5C37.9982 19.6929 37.5235 20.8365 36.68 21.68C35.8365 22.5235 34.6929 22.9982 33.5 23Z" />
</svg>
