<svg width="48" height="48" viewBox="0 0 48 48" fill="none" xmlns="http://www.w3.org/2000/svg">
<path d="M37 24C36.9128 23.9963 36.8256 24.003 36.74 24.02L34.51 19.11C34.9643 18.7451 35.3333 18.2852 35.5911 17.7626C35.8489 17.24 35.9893 16.6673 36.0023 16.0847C36.0154 15.5021 35.9009 14.9237 35.6668 14.3901C35.4327 13.8565 35.0847 13.3805 34.6472 12.9955C34.2097 12.6106 33.6933 12.326 33.1342 12.1618C32.5751 11.9975 31.9869 11.9576 31.4107 12.0447C30.8345 12.1318 30.2844 12.3439 29.7988 12.6661C29.3133 12.9884 28.9041 13.4129 28.6 13.91L16 10.05V9.99999C15.9998 9.2217 15.7725 8.46039 15.346 7.80935C14.9195 7.15832 14.3123 6.64584 13.5989 6.33473C12.8855 6.02362 12.0969 5.92739 11.3296 6.05783C10.5623 6.18828 9.84976 6.53972 9.27924 7.06911C8.70873 7.59849 8.30504 8.28281 8.11766 9.03821C7.93028 9.7936 7.96734 10.5873 8.2243 11.3219C8.48126 12.0565 8.94696 12.7003 9.56433 13.1742C10.1817 13.6481 10.9239 13.9316 11.7 13.99L14.28 28.4C13.5384 28.7548 12.9237 29.329 12.5192 30.0447C12.1146 30.7605 11.9398 31.5833 12.0184 32.4017C12.097 33.2201 12.4251 33.9945 12.9584 34.6203C13.4917 35.246 14.2044 35.6927 15 35.9V38H11C10.6059 37.9995 10.2155 38.0767 9.85133 38.2273C9.48711 38.3779 9.15618 38.5988 8.8775 38.8775C8.59882 39.1562 8.37787 39.4871 8.22729 39.8513C8.07671 40.2155 7.99947 40.6059 8 41V44H24V40.99C23.9995 40.1971 23.6844 39.4369 23.1238 38.8762C22.5631 38.3156 21.8029 38.0004 21.01 38H17V35.9C17.924 35.6587 18.7318 35.0959 19.2781 34.3127C19.8245 33.5294 20.0736 32.577 19.9809 31.6265C19.8881 30.676 19.4595 29.7898 18.772 29.1269C18.0845 28.464 17.1832 28.068 16.23 28.01L13.66 13.63C14.4262 13.2906 15.0614 12.7116 15.47 11.98L28.01 15.82C28.0017 15.8796 27.9983 15.9398 28 16C27.9978 16.7057 28.1838 17.3993 28.5389 18.0092C28.894 18.6192 29.4052 19.1234 30.02 19.47L28.78 24.01C28.0308 24.064 27.3293 24.3975 26.8144 24.9444C26.2995 25.4913 26.0088 26.2117 26 26.9628C25.9912 27.7139 26.2649 28.4409 26.7668 28.9997C27.2687 29.5585 27.9623 29.9084 28.71 29.98L30.03 35.24L31.97 34.76L30.65 29.51C31.0599 29.2391 31.3972 28.872 31.6325 28.4407C31.8678 28.0095 31.9939 27.5271 31.9998 27.0359C32.0057 26.5446 31.8913 26.0594 31.6664 25.6226C31.4416 25.1858 31.1132 24.8106 30.71 24.53L31.94 20H32C32.2313 20.0007 32.4623 19.9807 32.69 19.94L34.92 24.84C34.5738 25.1725 34.3127 25.5834 34.1586 26.0379C34.0044 26.4925 33.9618 26.9775 34.0344 27.452C34.1069 27.9264 34.2925 28.3765 34.5754 28.7643C34.8583 29.152 35.2303 29.4661 35.66 29.68L35.01 34.88L36.99 35.12L37.64 29.93C38.3628 29.7722 39.0018 29.3529 39.4342 28.7525C39.8666 28.1522 40.0619 27.4132 39.9825 26.6776C39.9031 25.9421 39.5547 25.2618 39.0042 24.7675C38.4536 24.2733 37.7398 23.9999 37 24ZM22 40V42H10V40H22ZM16 30C16.3985 29.997 16.789 30.1123 17.122 30.3312C17.4551 30.5502 17.7157 30.863 17.871 31.23C18.0262 31.5971 18.0691 32.002 17.9943 32.3934C17.9195 32.7849 17.7302 33.1454 17.4505 33.4293C17.1708 33.7132 16.8132 33.9078 16.4229 33.9884C16.0326 34.0691 15.6271 34.0322 15.2578 33.8824C14.8884 33.7326 14.5718 33.4767 14.3479 33.147C14.124 32.8172 14.003 32.4285 14 32.03C13.997 31.4959 14.2058 30.9823 14.5807 30.6019C14.9555 30.2214 15.4659 30.005 16 30ZM12 12C11.6044 12 11.2178 11.8827 10.8889 11.6629C10.56 11.4432 10.3036 11.1308 10.1522 10.7654C10.0009 10.3999 9.96126 9.99777 10.0384 9.60981C10.1156 9.22184 10.3061 8.86548 10.5858 8.58577C10.8655 8.30607 11.2219 8.11559 11.6098 8.03842C11.9978 7.96125 12.3999 8.00085 12.7654 8.15223C13.1308 8.3036 13.4432 8.55995 13.6629 8.88885C13.8827 9.21775 14 9.60442 14 9.99999C13.9984 10.5299 13.7872 11.0377 13.4125 11.4125C13.0378 11.7872 12.53 11.9984 12 12ZM29 28C28.8022 28 28.6089 27.9413 28.4444 27.8315C28.28 27.7216 28.1518 27.5654 28.0761 27.3827C28.0004 27.1999 27.9806 26.9989 28.0192 26.8049C28.0578 26.6109 28.153 26.4327 28.2929 26.2929C28.4327 26.153 28.6109 26.0578 28.8049 26.0192C28.9989 25.9806 29.2 26.0004 29.3827 26.0761C29.5654 26.1518 29.7216 26.28 29.8315 26.4444C29.9414 26.6089 30 26.8022 30 27C29.9992 27.265 29.8936 27.5189 29.7063 27.7062C29.5189 27.8936 29.265 27.9992 29 28ZM32 18C31.6044 18 31.2178 17.8827 30.8889 17.6629C30.56 17.4432 30.3036 17.1308 30.1522 16.7654C30.0009 16.3999 29.9613 15.9978 30.0384 15.6098C30.1156 15.2218 30.3061 14.8655 30.5858 14.5858C30.8655 14.3061 31.2219 14.1156 31.6098 14.0384C31.9978 13.9612 32.3999 14.0009 32.7654 14.1522C33.1308 14.3036 33.4432 14.5599 33.6629 14.8888C33.8827 15.2177 34 15.6044 34 16C33.9984 16.5299 33.7872 17.0377 33.4125 17.4125C33.0378 17.7872 32.53 17.9984 32 18ZM37 28C36.8022 28 36.6089 27.9413 36.4444 27.8315C36.28 27.7216 36.1518 27.5654 36.0761 27.3827C36.0004 27.1999 35.9806 26.9989 36.0192 26.8049C36.0578 26.6109 36.153 26.4327 36.2929 26.2929C36.4327 26.153 36.6109 26.0578 36.8049 26.0192C36.9989 25.9806 37.2 26.0004 37.3827 26.0761C37.5654 26.1518 37.7216 26.28 37.8315 26.4444C37.9414 26.6089 38 26.8022 38 27C37.9992 27.265 37.8936 27.5189 37.7063 27.7062C37.5189 27.8936 37.265 27.9992 37 28Z" fill="#000E1A"/>
</svg>
