<svg width="48" height="48" viewBox="0 0 48 48" fill="none" xmlns="http://www.w3.org/2000/svg">
<rect x="6" y="39" width="36" height="2" rx="1" fill="black"/>
<rect x="6" y="35" width="36" height="2" rx="1" fill="black"/>
<rect x="6" y="27" width="11" height="2" rx="1" fill="black"/>
<rect x="31" y="27" width="11" height="2" rx="1" fill="black"/>
<rect x="6" y="23" width="10" height="2" rx="1" fill="black"/>
<rect x="32" y="23" width="10" height="2" rx="1" fill="black"/>
<rect x="6" y="19" width="11" height="2" rx="1" fill="black"/>
<rect x="31" y="19" width="11" height="2" rx="1" fill="black"/>
<rect x="6" y="15" width="24" height="2" rx="1" fill="black"/>
<rect x="6" y="31" width="24" height="2" rx="1" fill="black"/>
<rect x="27" y="15" width="15" height="2" rx="1" fill="black"/>
<rect x="27" y="31" width="15" height="2" rx="1" fill="black"/>
<rect x="6" y="11" width="36" height="2" rx="1" fill="black"/>
<rect x="6" y="7" width="36" height="2" rx="1" fill="black"/>
</svg>
