<svg width="48" height="48" viewBox="0 0 48 48" fill="none" xmlns="http://www.w3.org/2000/svg">
<rect x="6" y="37" width="36" height="2" rx="1" fill="black"/>
<rect x="6" y="40" width="36" height="2" rx="1" fill="black"/>
<rect x="6" y="34" width="36" height="2" rx="1" fill="black"/>
<rect x="6" y="28" width="11" height="2" rx="1" fill="black"/>
<rect x="31" y="28" width="11" height="2" rx="1" fill="black"/>
<rect x="6" y="22" width="10" height="2" rx="1" fill="black"/>
<rect x="6" y="25" width="10" height="2" rx="1" fill="black"/>
<rect x="32" y="22" width="10" height="2" rx="1" fill="black"/>
<rect x="32" y="25" width="10" height="2" rx="1" fill="black"/>
<rect x="6" y="19" width="11" height="2" rx="1" fill="black"/>
<rect x="6" y="16" width="14" height="2" rx="1" fill="black"/>
<rect x="31" y="19" width="11" height="2" rx="1" fill="black"/>
<rect x="28" y="16" width="14" height="2" rx="1" fill="black"/>
<rect x="6" y="13" width="36" height="2" rx="1" fill="black"/>
<rect x="6" y="31" width="15" height="2" rx="1" fill="black"/>
<rect x="27" y="31" width="15" height="2" rx="1" fill="black"/>
<rect x="6" y="10" width="36" height="2" rx="1" fill="black"/>
<rect x="6" y="7" width="36" height="2" rx="1" fill="black"/>
</svg>
