<svg width="48" height="48" viewBox="0 0 48 48" xmlns="http://www.w3.org/2000/svg">
<path d="M31.6058 21.5314C31.4745 21.131 31.3116 20.7417 31.1185 20.3671C30.3501 18.8691 29.131 17.6501 27.6331 16.8816C26.5097 16.3023 25.2641 16.0001 24.0001 16.0001C22.7361 16.0001 21.4905 16.3023 20.3671 16.8816C18.8691 17.6501 17.65 18.8692 16.8815 20.3672C16.3021 21.4906 15.9998 22.7362 15.9998 24.0002C15.9998 25.2642 16.3021 26.5098 16.8815 27.6332C17.65 29.1311 18.869 30.3502 20.367 31.1186C21.4904 31.698 22.736 32.0003 24 32.0003C25.264 32.0003 26.5096 31.698 27.633 31.1186C29.1309 30.3502 30.3499 29.1312 31.1183 27.6333C31.5999 26.6993 31.8911 25.6789 31.9747 24.6314C32.0584 23.5839 31.933 22.5302 31.6057 21.5316L31.6058 21.5314ZM28.3781 28.09C28.2852 28.1894 28.189 28.2855 28.0897 28.3784C27.0333 29.3689 25.6529 29.9417 24.2056 29.99C24.1367 29.9923 24.0694 30 24 30C23.9306 30 23.8633 29.9919 23.7944 29.99C22.3469 29.9416 20.9664 29.3688 19.91 28.3781C19.8106 28.2852 19.7145 28.189 19.6216 28.0897C18.6312 27.0335 18.0585 25.6533 18.01 24.2062C18.0081 24.1371 18 24.07 18 24C18 23.93 18.0081 23.8629 18.01 23.7938C18.0585 22.3466 18.6314 20.9663 19.6219 19.91C19.7148 19.8106 19.811 19.7145 19.9103 19.6216C20.9665 18.6312 22.3467 18.0585 23.7938 18.01C23.8629 18.0077 23.9304 18 24 18C24.0696 18 24.1371 18.0081 24.2062 18.01C25.6534 18.0585 27.0337 18.6314 28.09 19.6219C28.1894 19.7148 28.2855 19.811 28.3784 19.9103C29.3689 20.9667 29.9417 22.3471 29.99 23.7944C29.9923 23.8633 30 23.9306 30 24C30 24.0694 29.9919 24.1367 29.99 24.2056C29.9416 25.6531 29.3688 27.0336 28.3781 28.09ZM42 27.8467V20.1528L37.193 19.3516C37.0257 18.8773 36.8327 18.4124 36.6149 17.9591L39.4482 13.9927L34.0082 8.5518L30.0413 11.3851C29.5879 11.1673 29.1229 10.9742 28.6485 10.8069L27.8467 6H20.1528L19.3516 10.807C18.8774 10.9743 18.4126 11.1673 17.9593 11.385L13.9927 8.5518L8.5518 13.9927L11.385 17.9593C11.1673 18.4126 10.9743 18.8774 10.807 19.3516L6 20.1528V27.8467L10.8069 28.6481C10.9742 29.1225 11.1673 29.5875 11.3851 30.0409L8.5518 34.0078L13.9927 39.4478L17.9591 36.6145C18.4124 36.8323 18.8773 37.0253 19.3516 37.1926L20.1528 42H27.8467L28.6481 37.1931C29.1226 37.0257 29.5876 36.8327 30.0411 36.6149L34.0078 39.4482L39.4478 34.0082L36.6145 30.0415C36.8323 29.588 37.0253 29.123 37.1927 28.6485L42 27.8467ZM35.6375 26.88C35.5326 27.305 35.4043 27.7238 35.2532 28.1346C35.1409 28.4401 35.0184 28.7399 34.8824 29.0331C34.6981 29.4301 34.4921 29.8166 34.2654 30.191L35.52 31.947L36.8372 33.791L33.791 36.8369L31.947 35.52L30.1912 34.2657C29.8168 34.4924 29.4303 34.6984 29.0333 34.8827C28.74 35.0186 28.4403 35.1412 28.1348 35.2535C27.724 35.4046 27.3052 35.5329 26.8802 35.6378L26.5264 37.7609L26.1533 40H21.8472L21.474 37.7607L21.12 35.6376C20.695 35.5326 20.2761 35.4043 19.8652 35.2532C19.5594 35.1408 19.2597 35.0182 18.9662 34.8823C18.5692 34.6978 18.1825 34.4917 17.808 34.265L16.052 35.5191L14.2083 36.8359L11.1641 33.791L12.4808 31.9476L13.735 30.1918C13.5081 29.8173 13.302 29.4305 13.1176 29.0333C12.9816 28.7399 12.8591 28.4402 12.7467 28.1345C12.5956 27.7238 12.4674 27.3051 12.3625 26.8802L10.2394 26.5264L8 26.1533V21.8472L10.2393 21.474L12.3624 21.1202C12.4673 20.6953 12.5956 20.2764 12.7466 19.8656C12.8591 19.5598 12.9817 19.2599 13.1177 18.9664C13.3021 18.5693 13.5082 18.1825 13.735 17.808L12.481 16.0522L11.1641 14.2085L14.2085 11.1641L16.0522 12.481L17.808 13.735C18.1825 13.5082 18.5693 13.3021 18.9664 13.1177C19.2599 12.9817 19.5598 12.8591 19.8656 12.7466C20.2764 12.5956 20.6953 12.4673 21.1202 12.3624L21.474 10.2393L21.8472 8H26.1533L26.5264 10.2394L26.8802 12.3625C27.3051 12.4673 27.7238 12.5955 28.1345 12.7466C28.4401 12.859 28.7399 12.9816 29.0333 13.1176C29.4305 13.302 29.8173 13.5081 30.1918 13.735L31.9476 12.4808L33.791 11.1641L36.8359 14.2085L35.5191 16.0522L34.265 17.8082C34.4918 18.1827 34.6979 18.5693 34.8823 18.9664C35.0183 19.2599 35.1409 19.5597 35.2533 19.8654C35.4044 20.2763 35.5327 20.6952 35.6376 21.1202L37.7607 21.474L40 21.8472V26.1533L37.7606 26.5264L35.6375 26.88Z"/>
</svg>
