<svg width="48" height="48" viewBox="0 0 48 48" xmlns="http://www.w3.org/2000/svg">
<path d="M8 6C7.20435 6 6.44129 6.31607 5.87868 6.87868C5.31607 7.44129 5 8.20435 5 9V18C5.00075 19.1271 5.27394 20.2374 5.79629 21.2362C6.31864 22.235 7.07468 23.0928 8 23.7364V42H40V23.7362C40.9253 23.0926 41.6813 22.2349 42.2037 21.2361C42.726 20.2373 42.9992 19.1271 43 18V9C43 8.20435 42.6839 7.44129 42.1213 6.87868C41.5587 6.31607 40.7957 6 40 6H8ZM19 8H29V18C29 19.3261 28.4732 20.5979 27.5355 21.5355C26.5979 22.4732 25.3261 23 24 23C22.6739 23 21.4021 22.4732 20.4645 21.5355C19.5268 20.5979 19 19.3261 19 18V8ZM7 18V8H17V18C17 19.3261 16.4732 20.5979 15.5355 21.5355C14.5979 22.4732 13.3261 23 12 23C10.6739 23 9.40215 22.4732 8.46447 21.5355C7.52678 20.5979 7 19.3261 7 18ZM19 40V30H23V40H19ZM25 30H29V40H25V30ZM38 40H31V28H17V40H10V24.7052C11.4902 25.153 13.0874 25.0893 14.5372 24.5242C15.9869 23.9591 17.2059 22.9252 18 21.587C18.6184 22.6273 19.4966 23.4889 20.5485 24.0874C21.6004 24.6858 22.7898 25.0004 24 25.0004C25.2102 25.0004 26.3996 24.6858 27.4515 24.0874C28.5034 23.4889 29.3816 22.6273 30 21.587C30.7941 22.9252 32.013 23.9592 33.4628 24.5243C34.9126 25.0894 36.5098 25.1531 38 24.7053V40ZM41 18C41 19.3261 40.4732 20.5979 39.5355 21.5355C38.5979 22.4732 37.3261 23 36 23C34.6739 23 33.4021 22.4732 32.4645 21.5355C31.5268 20.5979 31 19.3261 31 18V8H41V18Z" />
</svg>
