<?xml version="1.0" encoding="iso-8859-1"?>
<svg version="1.1" id="Artwork" xmlns="http://www.w3.org/2000/svg" xmlns:xlink="http://www.w3.org/1999/xlink" x="0px" y="0px"
	 viewBox="0 0 24 24" style="enable-background:new 0 0 24 24;" xml:space="preserve">
<g>
	<path d="M12,9.5V5H4v4.5l4,2.7L12,9.5z M6,7h4v1.5L8,9.8L6,8.5V7z"/>
	<path d="M14,5v4.5l4,2.7l4-2.7V5H14z M20,8.5l-2,1.3l-2-1.3V7h4V8.5z"/>
	<path d="M7,16c0,0.8-0.5,1-1,1H3v2h3c1.2,0,3-0.8,3-3v-2H7V16z"/>
	<path d="M17,16c0,0.8-0.5,1-1,1h-5v2h5c1.2,0,3-0.8,3-3v-2h-2V16z"/>
</g>
</svg>
