<?xml version="1.0" encoding="iso-8859-1"?>
<!-- Generator: Adobe Illustrator 24.3.0, SVG Export Plug-In . SVG Version: 6.00 Build 0)  -->
<svg version="1.1" xmlns="http://www.w3.org/2000/svg" xmlns:xlink="http://www.w3.org/1999/xlink" x="0px" y="0px"
	 viewBox="0 0 24 24" style="enable-background:new 0 0 24 24;" xml:space="preserve">
<g id="Layer_1">
	<g>
		<path d="M12,2C6.477,2,2,6.477,2,12v9h2v-3.018C5.824,20.417,8.723,22,12,22c5.523,0,10-4.477,10-10C22,6.477,17.523,2,12,2z
			 M12,20c-4.418,0-8-3.582-8-8s3.582-8,8-8s8,3.582,8,8S16.418,20,12,20z"/>
		<g>
			<defs>
				<path id="SVGID_1_" d="M13.49,16h-1.9c0,0,0-5.67,0-5.84c-0.078,0.092-0.161,0.179-0.25,0.26l-0.28,0.26l-0.9,0.73l-0.94-1.16
					l2.66-2.1h1.62L13.49,16z"/>
			</defs>
			<use xlink:href="#SVGID_1_"  style="overflow:visible;"/>
			<clipPath id="SVGID_2_">
				<use xlink:href="#SVGID_1_"  style="overflow:visible;"/>
			</clipPath>
		</g>
	</g>
</g>
<g id="Comments">
</g>
</svg>
