<?xml version="1.0" encoding="iso-8859-1"?>
<svg version="1.1" id="Artwork" xmlns="http://www.w3.org/2000/svg" xmlns:xlink="http://www.w3.org/1999/xlink" x="0px" y="0px"
	 viewBox="0 0 24 24" style="enable-background:new 0 0 24 24;" xml:space="preserve">
<g>
	<path style="fill:#000E1A;" d="M18,3H6C4.3,3,3,4.3,3,6v12c0,1.7,1.3,3,3,3h12c1.7,0,3-1.3,3-3V6C21,4.3,19.7,3,18,3z M19,19H5V5
		h14V19z"/>
	<circle style="fill:#000E1A;" cx="8" cy="8" r="1"/>
	<circle style="fill:#000E1A;" cx="12" cy="8" r="1"/>
	<circle style="fill:#000E1A;" cx="16" cy="8" r="1"/>
	<circle style="fill:#000E1A;" cx="16" cy="12" r="1"/>
	<circle style="fill:#000E1A;" cx="16" cy="16" r="1"/>
	<circle style="fill:#000E1A;" cx="12" cy="16" r="1"/>
	<circle style="fill:#000E1A;" cx="8" cy="16" r="1"/>
	<circle style="fill:#000E1A;" cx="8" cy="12" r="1"/>
</g>
</svg>
