<svg xmlns="http://www.w3.org/2000/svg" viewBox="0 0 895.1194 1107.2273">
<g transform="scale(4.2)">
	<path d="M47.1391,70.7713S77.3619-1.4269,95.1241,2.127,104.66,69.6252,104.66,69.6252" style="fill:none;stroke:#b4b4b4;stroke-linecap:round;stroke-miterlimit:10;stroke-width:4px"/>
	<path d="M165.9845,80.7713S135.7618,8.5731,118,12.127s-9.5354,67.4982-9.5354,67.4982" style="fill:none;stroke:#b4b4b4;stroke-linecap:round;stroke-miterlimit:10;stroke-width:4px"/>
	<path d="M185.3682,262.6255l-.2889-.2722c-.0522-.0487-5.4914-5.0249-15.1015-5.0249H42.9639a19.5359,19.5359,0,0,0-13.2,4.9922l-.2946.3034-8.0293.0015a4.1443,4.1443,0,0,1-4.14-4.14V73.911a4.1443,4.1443,0,0,1,4.14-4.14H191.6833a4.1443,4.1443,0,0,1,4.14,4.14V258.4859a4.1443,4.1443,0,0,1-4.14,4.14Z" style="fill:#f3f8fe"/>
	<path d="M191.6834,70.7714a3.14,3.14,0,0,1,3.14,3.14V258.4857a3.14,3.14,0,0,1-3.14,3.14H185.765s-5.6206-5.2969-15.7872-5.2969H42.9637a20.3309,20.3309,0,0,0-13.9185,5.2969H21.44a3.14,3.14,0,0,1-3.14-3.14V73.911a3.14,3.14,0,0,1,3.14-3.14H191.6834m0-2H21.44a5.1455,5.1455,0,0,0-5.14,5.14V258.4857a5.1456,5.1456,0,0,0,5.14,5.14h8.4555l.59-.6128a18.5748,18.5748,0,0,1,12.4776-4.6841H169.9778c9.1729,0,14.3707,4.711,14.4219,4.7588l.5752.5317.79.0064h5.9184a5.1456,5.1456,0,0,0,5.14-5.14V73.911a5.1455,5.1455,0,0,0-5.14-5.14Z" style="fill:#b4b4b4"/>
	<path d="M41.31,230.6177a11.6933,11.6933,0,0,1-11.68-11.68V91.084a1.99,1.99,0,0,1,1.9872-1.9872h149.89a1.9894,1.9894,0,0,1,1.9871,1.9872V218.9377a11.6932,11.6932,0,0,1-11.68,11.68Z" style="fill:#fff"/>
	<path d="M181.5067,90.0971a.9882.9882,0,0,1,.9873.9868v127.854a10.6921,10.6921,0,0,1-10.68,10.68H41.31a10.692,10.692,0,0,1-10.68-10.68V91.0839a.9882.9882,0,0,1,.9873-.9868h149.89m0-2H31.617A2.9868,2.9868,0,0,0,28.63,91.0839v127.854a12.68,12.68,0,0,0,12.68,12.68H171.8138a12.68,12.68,0,0,0,12.68-12.68V91.0839a2.9868,2.9868,0,0,0-2.9873-2.9868Z" style="fill:#fbfbfb"/>
	<path d="M181.5067,88.0971a2.9868,2.9868,0,0,1,2.9873,2.9868v127.854a12.68,12.68,0,0,1-12.68,12.68H41.31a12.68,12.68,0,0,1-12.68-12.68V91.0839a2.9868,2.9868,0,0,1,2.9873-2.9868h149.89m0-2H31.617A4.9929,4.9929,0,0,0,26.63,91.0839v127.854a14.6967,14.6967,0,0,0,14.68,14.68H171.8138a14.6967,14.6967,0,0,0,14.68-14.68V91.0839a4.9929,4.9929,0,0,0-4.9873-4.9868Z" style="fill:#b4b4b4"/>
	<circle cx="180.2767" cy="238.787" r="1.6497" style="fill:#b4b4b4"/>
	<circle cx="32.4163" cy="238.787" r="1.6497" style="fill:#b4b4b4"/>
	<circle cx="180.3485" cy="74.2255" r="1.6497" style="fill:#b4b4b4"/>
	<circle cx="132.403" cy="74.2255" r="1.6497" style="fill:#b4b4b4"/>
	<circle cx="81.7859" cy="74.2255" r="1.6497" style="fill:#b4b4b4"/>
	<circle cx="32.4881" cy="74.2255" r="1.6497" style="fill:#b4b4b4"/>
	<rect x="53.3813" y="242.7051" width="7.0114" height="2.4746" style="fill:#b4b4b4"/>
	<polygon points="106.562 146.818 77.797 157.287 62.492 183.796 67.808 213.942 91.257 233.618 121.867 233.618 145.316 213.942 150.631 183.796 135.326 157.287 106.562 146.818" style="fill:#e5e5e5"/>
	<rect x="81.3571" y="225.2077" width="50.4095" height="26.4368" rx="2.3351" style="fill:#fff"/>
	<path d="M129.4315,226.2079a1.3349,1.3349,0,0,1,1.3349,1.335V249.31a1.3348,1.3348,0,0,1-1.3349,1.3349H83.6922a1.3349,1.3349,0,0,1-1.335-1.3349V227.5429a1.335,1.335,0,0,1,1.335-1.335h45.7393m0-2H83.6922a3.3388,3.3388,0,0,0-3.335,3.335V249.31a3.3388,3.3388,0,0,0,3.335,3.3349h45.7393a3.3388,3.3388,0,0,0,3.3349-3.3349V227.5429a3.3388,3.3388,0,0,0-3.3349-3.335Z" style="fill:#b4b4b4"/>
	<path d="M128.7664,228.2079v20.4365H84.3572V228.2079h44.4092m.6651-2H83.6922a1.335,1.335,0,0,0-1.335,1.335V249.31a1.3349,1.3349,0,0,0,1.335,1.3349h45.7393a1.3348,1.3348,0,0,0,1.3349-1.3349V227.5429a1.3349,1.3349,0,0,0-1.3349-1.335Z" style="fill:#ececec"/>
	<line x1="1" y1="262.6255" x2="212.1237" y2="262.6255" style="fill:none;stroke:#b4b4b4;stroke-linecap:round;stroke-miterlimit:10;stroke-width:2px"/>
	<path d="M95.6985,110.2825a3.674,3.674,0,0,1-3.4684-2.4677l-4.372-11.9761a3.7037,3.7037,0,0,1-.2253-1.274v-4.61h37.8627l-.0219,4.75a3.7031,3.7031,0,0,1-.2314,1.2739l-4.4035,11.8829a3.6769,3.6769,0,0,1-3.4517,2.4207Z" style="fill:#fff"/>
	<path d="M124.491,90.955l-.0175,3.7456a2.7135,2.7135,0,0,1-.169.9306l-4.4033,11.8833a2.6721,2.6721,0,0,1-2.5142,1.7681H95.6986a2.6709,2.6709,0,0,1-2.5235-1.7954L88.7977,95.496a2.7054,2.7054,0,0,1-.1651-.9312v-3.61H124.491m2.0093-2H86.6326v5.61a4.6967,4.6967,0,0,0,.2871,1.62l4.3765,11.9887a4.6634,4.6634,0,0,0,4.4024,3.1094H117.387a4.6825,4.6825,0,0,0,4.396-3.0913l4.397-11.8652a4.6957,4.6957,0,0,0,.2935-1.6162l.0175-3.7456L126.5,88.955Z" style="fill:#b4b4b4"/>
	<path d="M99.383,112.1642a2.1419,2.1419,0,0,1-2.1381-2.2687L98.07,95.9931a1.9542,1.9542,0,0,1,1.9486-1.8365h13.0875a1.9543,1.9543,0,0,1,1.9486,1.8365l.8246,13.9024a2.1419,2.1419,0,0,1-2.1381,2.2687Z" style="fill:#fff"/>
	<path d="M113.1058,95.1566a.9518.9518,0,0,1,.95.8955l.8247,13.9024a1.1422,1.1422,0,0,1-1.14,1.21H99.3831a1.1422,1.1422,0,0,1-1.14-1.21l.8247-13.9024a.9518.9518,0,0,1,.95-.8955h13.0879m0-2H100.0179a2.9552,2.9552,0,0,0-2.9468,2.7774l-.8247,13.9018a3.1421,3.1421,0,0,0,3.1367,3.3282h14.3574a3.142,3.142,0,0,0,3.1368-3.3267l-.8247-13.9038a2.9552,2.9552,0,0,0-2.9468-2.7769Z" style="fill:#b4b4b4"/>
	<path d="M85.9586,94.6615a5.0986,5.0986,0,1,1,0-10.1972h41.2066a5.0986,5.0986,0,0,1,0,10.1972Z" style="fill:#fff"/>
	<path d="M127.1653,85.4643a4.0986,4.0986,0,1,1,0,8.1972H85.9588a4.0986,4.0986,0,1,1,0-8.1972h41.2065m0-2H85.9588a6.0986,6.0986,0,1,0,0,12.1972h41.2065a6.0986,6.0986,0,1,0,0-12.1972Z" style="fill:#b4b4b4"/>
</g>
</svg>