<?xml version="1.0" encoding="utf-8"?>
<!-- Generator: Adobe Illustrator 25.2.3, SVG Export Plug-In . SVG Version: 6.00 Build 0)  -->
<svg version="1.1" id="Capa_1" xmlns="http://www.w3.org/2000/svg" xmlns:xlink="http://www.w3.org/1999/xlink" x="0px" y="0px"
	 viewBox="0 0 107 81" style="enable-background:new 0 0 107 81;" xml:space="preserve">
<style type="text/css">
	.st0{fill:#4F4F4F;}
	.st1{fill:none;stroke:#FFFFFF;stroke-width:2;stroke-miterlimit:10;}
	.st2{fill:none;stroke:#FFFFFF;stroke-width:2.1366;stroke-miterlimit:10;}
	.st3{fill:#FFFFFF;}
	.st4{fill:#A6A6A6;}
	.st5{fill:#0097D9;}
	.st6{fill:#B3B3B3;}
	.st7{fill:none;stroke:#0097D9;stroke-width:1.5;stroke-miterlimit:10;}
</style>
<g>
	<desc>Created with Sketch.</desc>
	<polygon class="st0" points="0,81 0.2,0 107,0 107,81 	"/>
	<path class="st1" d="M104.4,11.9"/>
	<path class="st2" d="M104.4,12.6"/>
	<path class="st3" d="M0.2,0L0,81h107V0H0.2z M2.1,78.9L2.3,7.1h102.5v71.8H2.1z"/>
	<g>
		<path class="st3" d="M71.8,69.3L71.6,66V55.2h-3.3v-1.5c0-0.8-0.6-1.4-1.4-1.4s-1.4,0.6-1.4,1.4v1.5h-2.9v-1.5
			c0-0.8-0.6-1.4-1.4-1.4c-0.8,0-1.4,0.6-1.4,1.4v1.5h-3.3l0,10.8l-0.2,3.3H71.8z M66.6,64.2v-0.8h0.7v-0.8h-0.7v-0.8h-0.8v0.8h-3.5
			v-0.8h-0.8v0.8h-0.7v0.8h0.7v0.8h-0.4V65h0.4v0.7c-0.3-0.1-0.5-0.1-0.7-0.2c-1-2.1-1.4-5-1.6-7h1.6v0.6l0.6,0.6h1.5l0.6-0.6v-0.6
			h1.2v0.6l0.6,0.6h1.5l0.6-0.6v-0.6H69c-0.2,2-0.6,4.9-1.6,7c-0.1,0-0.4,0.1-0.6,0.2V65h0.4v-0.8H66.6z M62.3,64.2v-0.8h3.5v0.8
			H62.3z M65.8,65.1v0.8C65.2,66,64.7,66,64.1,66s-1.2,0-1.7-0.1v-0.8H65.8z M62.6,57.9v1L62.5,59h-0.8l-0.1-0.1v-1H62.6z
			 M66.4,57.8v1l-0.1,0.1h-0.8l-0.1-0.1v-1H66.4z M66.3,53.8c0-0.3,0.3-0.6,0.6-0.6c0.3,0,0.6,0.3,0.6,0.6v1.5h-1.2V53.8z M69,56.1
			c0,0.4,0,1-0.1,1.7l0,0h-1.7V57h-0.9v-0.9H69z M65.5,56.1V57h-0.9v0.8h-1.2V57h-0.9v-0.9H65.5z M60.5,53.8c0-0.3,0.3-0.6,0.6-0.6
			s0.6,0.3,0.6,0.6v1.5h-1.2L60.5,53.8z M61.7,56.1V57h-0.9v0.8h-1.6l0,0c0-0.7-0.1-1.3-0.1-1.7H61.7z M57.3,56.1h1
			c0,1.6,0.2,6.7,1.9,10.1l0.1,0.2l0.2,0.1c0.1,0,1.4,0.5,3.7,0.5c2.2,0,3.6-0.5,3.7-0.5l0.2-0.1l0.1-0.2c1.6-3.4,1.8-8.5,1.9-10.1
			h1v10l0.2,2.4H57.6l0.2-2.5L57.3,56.1z"/>
		<path class="st3" d="M52.1,69.3L51.9,66L52,55.2h-3.3v-1.5c0-0.8-0.6-1.4-1.4-1.4c-0.8,0-1.4,0.6-1.4,1.4v1.5h-9.1v-1.5
			c0-0.8-0.6-1.4-1.4-1.4c-0.8,0-1.4,0.6-1.4,1.4v1.5h-3.3L30.6,66l-0.2,3.3H52.1z M46.1,64.2h-9.6v-0.8h9.6V64.2z M46.1,65.1v0.7
			c-4.4,0.5-7.8,0.3-9.6,0v-0.7H46.1z M47,64.2v-0.8h0.7v-0.8H47v-0.8h-0.8v0.8h-9.6v-0.8h-0.8v0.8h-0.7v0.8h0.7v0.8h-0.4V65h0.4
			v0.6c-0.3,0-0.5-0.1-0.6-0.1c-1-2.5-1.5-5.1-1.7-7h1.6v0.6l0.6,0.6H37l0.6-0.6v-0.6h7.3v0.6l0.6,0.6H47l0.6-0.6v-0.6h1.6
			c-0.3,3.8-1.3,6.3-1.6,7c-0.2,0-0.4,0.1-0.6,0.1V65h0.4v-0.8H47z M46.7,57v-0.9h2.6c0,0.4,0,1-0.1,1.7l0,0h-1.7V57H46.7z
			 M46.7,57.9v1L46.6,59h-0.8l-0.1-0.1v-1H46.7z M45.8,57h-0.9v0.8h-7.3V57h-0.9v-0.9h9.1C45.8,56.1,45.8,57,45.8,57z M33.3,57.7
			c0-0.7-0.1-1.3-0.1-1.7h2.6v1h-0.9v0.8L33.3,57.7L33.3,57.7z M35.8,57.9h1v1L36.7,59h-0.8l-0.1-0.1C35.8,58.9,35.8,57.9,35.8,57.9
			z M46.7,53.8c0-0.3,0.3-0.6,0.6-0.6s0.6,0.3,0.6,0.6v1.5h-1.2C46.7,55.3,46.7,53.8,46.7,53.8z M34.7,53.8c0-0.3,0.3-0.6,0.6-0.6
			s0.6,0.3,0.6,0.6v1.5h-1.2C34.7,55.3,34.7,53.8,34.7,53.8z M31.4,56.1h1c0,0.8,0,5.7,2,10.1l0.1,0.2h0.2c0.1,0,2.4,0.6,6.3,0.6
			c2,0,4.4-0.1,7.1-0.6h0.2l0.1-0.2c0.1-0.2,1.9-3.8,1.9-10.1l0,0h1l-0.1,10l0.2,2.4H31.3l0.2-2.5L31.4,56.1z"/>
	</g>
	<path class="st3" d="M42.9,23v21.2h22.2V23H42.9z M61.8,37.2v1.3l-1.5,2.4h-1v-1h0.8v-0.8h-0.8v-0.8h0.8v-0.8h-0.8v-1.3h-0.8v1.3
		h-9v-1.3h-0.8v1.3h-0.8v0.8h0.8v0.8h-0.8v0.8h0.8v1h-1l-1.5-3.8V32H48v0.5l0.6,1.1h1.8l0.6-1.1V32h6.1v0.5l0.6,1.1h1.8l0.6-1.1V32
		h1.8v1.9h-0.4v3.3H61.8z M58.5,39.9v1h-9v-1H58.5z M49.5,39.1v-0.8h9v0.8H49.5z M61.8,31.2H60v-0.8h-1.1v-1.8l0,0c0-1.1-0.9-2-2-2
		s-2,0.9-2,2v2.6h-1.7v-2.6l0,0c0-1.1-1-1.9-2.1-1.9s-2,0.9-2.1,1.9l0,0v1.7h-1v0.8h-1.8v-4.9h15.6C61.8,26.2,61.8,31.2,61.8,31.2z
		 M57.1,30.4v0.8h-1.4v-2.6c0-0.7,0.5-1.2,1.2-1.2s1.2,0.5,1.2,1.2v1.7h-1V30.4z M57.9,31.2h1.3v1.1l-0.3,0.5h-0.8l-0.3-0.5
		L57.9,31.2L57.9,31.2z M49.9,30.4v-1.6c0-0.7,0.6-1.2,1.2-1.2c0.7,0,1.2,0.5,1.2,1.2v2.5H51v-0.8h-1.1V30.4z M50.1,31.2v1.1
		l-0.3,0.5H49l-0.3-0.5v-1.1C48.7,31.2,50.1,31.2,50.1,31.2z M61.8,25.5H46.2v-1.7h15.6C61.8,23.8,61.8,25.5,61.8,25.5z M64.3,43.4
		H43.7V23.8h1.6v13.5l1.8,4.4h13.7l1.8-3v-1.5H63v-3.3h-0.4v-10h1.6v19.5H64.3z"/>
	<path class="st3" d="M17.3,17.4V44h22.2V17.4H17.3z M36.2,32.8V37l-1.5,3.8h-1v-1.7h0.8v-0.8h-0.8v-0.8h0.8v-0.8h-0.8v-2.1h-0.8
		v2.1h-9v-2.1H23v2.1h-0.8v0.8H23v0.8h-0.8v0.8H23v1.7h-1L20.6,37V26.4h1.8v0.5L23,28h1.8l0.6-1.1v-0.5h6.1v0.5l0.6,1.1h1.8l0.6-1.1
		v-0.5h1.8v3.1h-0.4v3.3H36.2z M32.9,39.1v1.7h-9v-1.7H32.9z M23.9,38.2v-0.8h9v0.8H23.9z M36.2,25.6h-1.8v-0.8h-1.1V23l0,0
		c0-1.1-0.9-2-2-2c-1.1,0-2,0.9-2,2v2.6h-1.7V23l0,0c0-1.1-1-1.9-2.1-1.9s-2,0.9-2.1,1.9l0,0v1.7h-1v0.8h-1.8v-4.9h15.6
		C36.2,20.6,36.2,25.6,36.2,25.6z M31.4,24.8v0.8H30V23c0-0.7,0.5-1.2,1.2-1.2s1.2,0.5,1.2,1.2v1.7h-1V24.8z M32.3,25.6h1.3v1.1
		l-0.3,0.5h-0.8l-0.3-0.5L32.3,25.6L32.3,25.6z M24.2,24.8v-1.6c0-0.7,0.6-1.2,1.2-1.2c0.7,0,1.2,0.5,1.2,1.2v2.5h-1.4v-0.8h-1V24.8
		z M24.5,25.6v1.1l-0.3,0.5h-0.8l-0.3-0.5v-1.1H24.5z M36.2,19.9H20.6v-1.7h15.6V19.9z M38.7,43.2H18.1v-25h1.6v18.9l1.8,4.4h13.7
		l1.8-4.4v-4.3h0.4v-3.3H37V18.3h1.6v24.9H38.7z"/>
	<g>
		<g>
			<path class="st4" d="M38.7,43.2H18.1v-25h1.6v18.9l1.8,4.4h13.7l1.8-4.4v-4.3h0.4v-3.3H37V18.3h1.6v24.9H38.7z"/>
		</g>
	</g>
	<path class="st3" d="M84.6,28.4v-1.5c0-1.1-0.9-2-2-2s-2,0.9-2,2l0,0v1.6H79v-1.6l0,0c0-1.1-0.9-2-2-2s-2,0.9-2,2v1.6h-6.1v15.7h22
		V28.4H84.6z M84.2,39.6v1.2h-8.9v-1.2H84.2z M75.3,38.8V38h8.9v0.8H75.3z M85,39.6h0.8v-0.8H85V38h0.8v-0.8H85v-1h-0.8v1h-8.9v-1
		h-0.8v1h-0.8V38h0.8v0.8h-0.8v0.8h0.8v1.2h-1l-0.6-1.1l-0.7-7.5h1.7v0.4l0.6,1.2h1.8l0.5-1v-0.6h6.1v0.4l0.6,1.2h1.8l0.5-1v-0.6
		h1.7l-0.7,7.5l-0.6,1.1H85V39.6z M84.9,31.5v1.1l-0.3,0.5h-0.8l-0.3-0.5v-1.1C83.5,31.5,84.9,31.5,84.9,31.5z M82.8,30.6v0.8h-6.1
		v-0.8h-1.1v-1.5h8.1v1.5H82.8z M75.9,31.5v1.1l-0.3,0.5h-0.8l-0.3-0.5v-1.1C74.5,31.5,75.9,31.5,75.9,31.5z M87.7,29.2l-0.2,2.3
		h-1.8v-0.8h-1.1v-1.5H87.7z M81.4,26.9c0-0.7,0.5-1.2,1.2-1.2s1.2,0.5,1.2,1.2v1.5h-2.4C81.4,28.4,81.4,26.9,81.4,26.9z M75.7,26.8
		c0-0.7,0.5-1.2,1.2-1.2s1.2,0.5,1.2,1.2l0,0v1.6h-2.4C75.7,28.4,75.7,26.8,75.7,26.8z M74.9,30.6h-1v0.8h-1.8l-0.2-2.3h3V30.6z
		 M90,43.3H69.6V29.2h1.5L72,40l0.9,1.7h13.6l0.9-1.6l1-10.9h1.5L90,43.3L90,43.3z"/>
	<circle class="st5" cx="102.9" cy="3.6" r="1.5"/>
	<circle class="st5" cx="98.4" cy="3.6" r="1.5"/>
	<circle class="st5" cx="94" cy="3.6" r="1.5"/>
	<g>
		<g>
			<path class="st4" d="M64.3,43.4H43.7V23.8h1.6v13.5l1.8,4.4h13.7l1.8-3v-1.5H63v-3.3h-0.4v-10h1.6v19.5H64.3z"/>
		</g>
	</g>
	<path class="st6" d="M89.9,43.3H69.5V29.2H71L72,40l0.9,1.7h13.6l0.9-1.6l1-10.9h1.5V43.3z"/>
	<g>
		<g>
			<path class="st4" d="M57.3,56.1h1c0,1.6,0.2,6.7,1.9,10.1l0.1,0.2l0.2,0.1c0.1,0,1.4,0.5,3.7,0.5c2.2,0,3.6-0.5,3.7-0.5l0.2-0.1
				l0.1-0.2c1.6-3.4,1.8-8.5,1.9-10.1h1v10l0.2,2.4H57.6l0.2-2.5L57.3,56.1z"/>
			<path class="st4" d="M31.4,56.1h1c0,0.8,0,5.7,2,10.1l0.1,0.2h0.2c0.1,0,2.4,0.6,6.3,0.6c2,0,4.4-0.1,7.1-0.6h0.2l0.1-0.2
				c0.1-0.2,1.9-3.8,1.9-10.1l0,0h1l-0.1,10l0.2,2.4H31.3l0.2-2.5L31.4,56.1z"/>
		</g>
	</g>
	<line class="st7" x1="17.3" y1="46.9" x2="39.5" y2="46.9"/>
</g>
</svg>
