<?xml version="1.0" encoding="utf-8"?>
<!-- Generator: Adobe Illustrator 25.2.3, SVG Export Plug-In . SVG Version: 6.00 Build 0)  -->
<svg version="1.1" id="Capa_1" xmlns="http://www.w3.org/2000/svg" xmlns:xlink="http://www.w3.org/1999/xlink" x="0px" y="0px"
	 viewBox="0 0 120 72" style="enable-background:new 0 0 120 72;" xml:space="preserve">
<style type="text/css">
	.st0{fill:#FFFFFF;}
</style>
<desc>Created with Sketch.</desc>
<g>
	<path class="st0" d="M85.6,48.9l-0.5,0.3l-9.2-5.3c-0.1,0.2-0.1,0.3-0.2,0.5c0.5,1.2,0.8,2.4,0.8,3.6c0,0.3,0,0.7-0.1,1l8.7,5
		c3.5-2.3,5.4-5.1,5.4-8.1c0-0.4,0-0.8-0.1-1.2C89.2,46.3,87.6,47.7,85.6,48.9z"/>
	<path class="st0" d="M74.2,32.2c-0.2,0.2-0.4,0.5-0.6,0.7c-0.3,0.3-0.5,0.6-0.8,0.8c-0.4,0.4-0.8,0.7-1.2,1
		c-0.8,0.6-1.6,1.2-2.5,1.7c-4.7,2.7-10.8,4-17,4c-0.1,0-0.3,0-0.4,0c-1,0-2-0.1-3-0.1c-0.2,0-0.5,0-0.7-0.1
		c-0.7-0.1-1.4-0.2-2.1-0.3c-0.1,0-0.2,0-0.3,0c-0.6-0.1-1.3-0.2-1.9-0.4c-3.2-0.5-6.2-1.5-8.7-3c-1-0.6-1.9-1.2-2.7-1.8
		c-0.6-0.4-1.1-0.9-1.5-1.4c-0.4-0.4-0.8-0.8-1.1-1.3c-0.1,0.4-0.1,0.9-0.1,1.3c0,0.4,0,0.8,0.1,1.2c0.1,0.8,0.4,1.6,0.9,2.4
		c0.4,0.8,1,1.5,1.7,2.3c0.5,0.5,1,0.9,1.6,1.4s1.3,1,2.1,1.4c2.3,1.3,4.9,2.3,7.7,2.9c0.1,0,0.2,0,0.3,0.1c0.6,0.1,1.2,0.2,1.8,0.3
		c1.4,0.2,2.7,0.4,4.1,0.5c6.5,0.4,13.2-0.9,18.2-3.7c0.7-0.4,1.4-0.9,2-1.3c0.7-0.5,1.2-1,1.7-1.6c0.6-0.7,1.1-1.4,1.5-2.1
		c0.6-1,0.9-2,1-3.1c0-0.2,0-0.4,0-0.5v-0.1C74.3,32.9,74.3,32.6,74.2,32.2z"/>
	<path class="st0" d="M74.2,46.8c-0.2,0.2-0.4,0.5-0.6,0.7c-0.6,0.7-1.2,1.3-2,1.9c-0.8,0.6-1.6,1.2-2.5,1.7c-4.7,2.7-10.8,4-17,4
		c-0.1,0-0.3,0-0.4,0c-1,0-2-0.1-3-0.1c-5-0.4-9.9-1.7-13.8-4c-1-0.6-1.9-1.2-2.7-1.8c-0.6-0.4-1.1-0.9-1.5-1.4
		c-0.4-0.4-0.8-0.8-1.1-1.3c-0.1,0.4-0.1,0.9-0.1,1.3c0,0.4,0,0.8,0.1,1.2c0.1,0.8,0.4,1.6,0.9,2.4c1,1.9,2.9,3.6,5.4,5.1
		c8.9,5.1,23.2,5.1,32.1,0.1c2.5-1.4,4.3-3.1,5.3-5c0.7-1.2,1-2.4,1-3.6v-0.1C74.3,47.5,74.3,47.1,74.2,46.8z"/>
	<path class="st0" d="M74.2,39.5c-0.2,0.2-0.4,0.5-0.6,0.7c-0.6,0.7-1.2,1.3-2,1.9c-0.8,0.6-1.6,1.2-2.5,1.7c-4.7,2.7-10.8,4-17,4
		c-0.1,0-0.3,0-0.4,0c-1,0-2-0.1-3-0.1c-1-0.1-1.9-0.2-2.9-0.3c-0.7-0.1-1.5-0.2-2.2-0.4c-3.2-0.7-6.2-1.8-8.7-3.2
		c-1-0.6-1.9-1.2-2.7-1.8c-0.6-0.4-1.1-0.9-1.5-1.4c-0.4-0.4-0.8-0.8-1.1-1.3c-0.1,0.4-0.1,0.9-0.1,1.3c0,0.4,0,0.8,0.1,1.2
		c0.1,0.8,0.4,1.6,0.9,2.4c0.4,0.8,1,1.5,1.7,2.3c0.5,0.5,1,0.9,1.6,1.4s1.3,1,2.1,1.4c2.3,1.3,5.1,2.3,8,3c1.9,0.4,3.9,0.7,5.9,0.8
		c6.5,0.4,13.2-0.9,18.2-3.7c0.7-0.4,1.4-0.9,2-1.3c0.7-0.5,1.2-1,1.7-1.6c0.6-0.7,1.1-1.4,1.5-2.1c0.7-1.2,1-2.4,1-3.6v-0.1
		C74.3,40.2,74.3,39.9,74.2,39.5z"/>
	<path class="st0" d="M69.1,58.4c-4.7,2.7-10.8,4-17,4S39.7,61,34.9,58.3c-2.2-1.3-4-2.8-5.3-4.5c-0.1,0.4-0.1,0.9-0.1,1.3
		c0,3.2,2.3,6.3,6.4,8.7c8.9,5.1,23.2,5.1,32.1,0.1c4.1-2.3,6.3-5.4,6.3-8.6c0-0.4,0-0.8-0.1-1.2C73,55.7,71.3,57.1,69.1,58.4z"/>
	<path class="st0" d="M89.2,38.7c-0.5,0.5-1,0.9-1.5,1.4c-0.6,0.5-1.4,1-2.1,1.5l-0.5,0.3l-9.2-5.3c-0.1,0.2-0.1,0.3-0.2,0.5
		c0.5,1.2,0.8,2.4,0.8,3.6c0,0.3,0,0.7-0.1,1l8.7,5c2-1.3,3.5-2.8,4.4-4.4c0.4-0.8,0.7-1.6,0.9-2.4c0.1-0.4,0.1-0.9,0.1-1.3
		c0-0.4,0-0.8-0.1-1.2C90,37.9,89.6,38.3,89.2,38.7z"/>
	<path class="st0" d="M84,8.2C75.2,3,60.8,3,52,8.1c-4.1,2.3-6.3,5.4-6.3,8.6c0,0.4,0,0.8,0.1,1.2c0.1,0.8,0.4,1.6,0.9,2.4
		c0.4,0.8,1,1.5,1.7,2.3c0.5,0.5,1,0.9,1.6,1.4s1.3,1,2.1,1.4l0,0l-1,1.8l-2.8-1.6l-1.8-1.1l-0.7-0.4l-2-1.2l-8.7-5
		c-3.5,2.3-5.4,5.1-5.4,8.1c0,0.4,0,0.8,0.1,1.2c0.1,0.8,0.4,1.6,0.9,2.4c0.4,0.8,1,1.5,1.7,2.3c0.5,0.5,1,0.9,1.6,1.4
		s1.3,1,2.1,1.4c2.3,1.3,4.9,2.3,7.7,2.9c0.1,0,0.2,0,0.3,0.1c0.6,0.1,1.2,0.2,1.8,0.3c0.5,0.1,1,0.2,1.5,0.2
		c0.9,0.1,1.8,0.2,2.6,0.2c0.1,0,0.2,0,0.2,0c6.4,0.3,13.1-0.9,18-3.7c0.7-0.4,1.3-0.8,1.9-1.2l0.1-0.1c0.7-0.5,1.2-1,1.7-1.6
		c0.1-0.1,0.1-0.2,0.2-0.2c0.5-0.6,1-1.2,1.3-1.8c0.6-1,0.9-2,1-3.1c0-0.2,0-0.4,0-0.5v-0.1c0-0.5-0.1-1-0.2-1.4c-0.5-2-1.8-4-4-5.7
		c-0.7-0.5-1.4-1-2.2-1.5l0.3-0.6l0.7-1.2l2.3,1.3l4.8,2.8l9,5.2c0.4-0.3,0.8-0.5,1.1-0.8c0.6-0.4,1.1-0.9,1.6-1.4
		c0.7-0.7,1.3-1.5,1.7-2.3c0.4-0.8,0.7-1.6,0.9-2.4c0.1-0.4,0.1-0.9,0.1-1.3C90.4,13.6,88.1,10.5,84,8.2z"/>
	<path class="st0" d="M89.2,31.4c-0.5,0.5-1,0.9-1.5,1.4c-0.6,0.5-1.4,1-2.1,1.5l-0.5,0.3l-9.2-5.3c-0.1,0.2-0.1,0.3-0.2,0.5
		c0.3,0.8,0.6,1.6,0.7,2.5c0,0.4,0.1,0.8,0.1,1.1s0,0.6-0.1,0.9v0.1l8.7,5c0.4-0.3,0.8-0.5,1.1-0.8c0.6-0.4,1.1-0.9,1.6-1.4
		c0.7-0.7,1.3-1.5,1.7-2.3c0.4-0.8,0.7-1.6,0.9-2.4c0.1-0.4,0.1-0.9,0.1-1.3s0-0.8-0.1-1.2C90,30.6,89.6,31,89.2,31.4z"/>
	<path class="st0" d="M89.2,24.1c-0.5,0.5-1,0.9-1.5,1.4c-0.6,0.5-1.4,1-2.1,1.5l-0.5,0.3l-9.8-5.7c0.6,1.1,0.9,2.2,1.1,3.4
		c0,0.4,0.1,0.8,0.1,1.1c0,0.3,0,0.6-0.1,0.9v0.1l8.7,5c0.4-0.3,0.8-0.5,1.1-0.8c0.6-0.4,1.1-0.9,1.6-1.4c0.7-0.7,1.3-1.5,1.7-2.3
		c0.4-0.8,0.7-1.6,0.9-2.4c0.1-0.4,0.1-0.9,0.1-1.3s0-0.8-0.1-1.2C90,23.3,89.6,23.7,89.2,24.1z"/>
</g>
</svg>
