<?xml version="1.0" encoding="utf-8"?>
<!-- Generator: Adobe Illustrator 25.2.3, SVG Export Plug-In . SVG Version: 6.00 Build 0)  -->
<svg version="1.1" id="Capa_1" xmlns="http://www.w3.org/2000/svg" xmlns:xlink="http://www.w3.org/1999/xlink" x="0px" y="0px"
	 viewBox="0 0 108 81" style="enable-background:new 0 0 108 81;" xml:space="preserve">
<style type="text/css">
	.st0{fill:#4F4F4F;}
	.st1{fill:none;stroke:#FFFFFF;stroke-width:2;stroke-miterlimit:10;}
	.st2{fill:none;stroke:#FFFFFF;stroke-width:2.1366;stroke-miterlimit:10;}
	.st3{fill:#FFFFFF;}
	.st4{fill:#0097D9;}
	.st5{fill:none;stroke:#FFFFFF;stroke-width:1.5;stroke-miterlimit:10;}
	.st6{fill:none;stroke:#FFFFFF;stroke-miterlimit:10;}
</style>
<desc>Created with Sketch.</desc>
<polygon class="st0" points="0,81 0.3,0 107.9,0 107.9,81 "/>
<path class="st1" d="M105.4,11.9"/>
<path class="st2" d="M105.4,12.6"/>
<path class="st3" d="M0.3,0L0,81h107.9V0H0.3z M2.2,78.8L2.4,7.1h103.4v71.8H2.2z"/>
<circle class="st4" cx="103.9" cy="3.6" r="1.5"/>
<circle class="st4" cx="99.4" cy="3.6" r="1.5"/>
<circle class="st4" cx="94.9" cy="3.6" r="1.5"/>
<g>
	<polygon class="st5" points="51.9,37.8 49.8,42.6 41.5,42.6 33.2,42.6 31.1,37.8 31.1,16 51.9,16 	"/>
	<line class="st5" x1="31.1" y1="37.8" x2="51.9" y2="37.8"/>
	<polygon class="st5" points="42.4,42.6 41.5,44.2 40.6,42.6 	"/>
	<circle class="st5" cx="41.5" cy="27.4" r="5.2"/>
	<polygon class="st5" points="76.9,37.8 74.8,42.6 66.5,42.6 58.2,42.6 56.1,37.8 56.1,16 76.9,16 	"/>
	<line class="st5" x1="56.1" y1="37.8" x2="76.9" y2="37.8"/>
	<polygon class="st5" points="67.4,42.6 66.5,44.2 65.6,42.6 	"/>
	<circle class="st5" cx="66.5" cy="27.4" r="5.2"/>
</g>
<g>
	<line class="st6" x1="36.7" y1="55.5" x2="71.3" y2="55.5"/>
	<line class="st6" x1="36.7" y1="62" x2="71.3" y2="62"/>
	<line class="st6" x1="36.7" y1="68.5" x2="71.3" y2="68.5"/>
	<rect x="44.2" y="53" class="st4" width="5" height="5"/>
	<rect x="55" y="59.5" class="st4" width="5" height="5"/>
	<rect x="46.4" y="66" class="st4" width="5" height="5"/>
</g>
</svg>
