<svg width="143" height="22" viewBox="0 0 143 22" fill="none" xmlns="http://www.w3.org/2000/svg">
<path d="M33.472 17.16C30.096 17.16 29.072 14.488 29.072 12.872V5.64H30.848V12.808C30.848 14.536 32.048 15.592 33.472 15.592C34.88 15.592 36.096 14.536 36.096 12.808V5.64H37.856V12.872C37.856 14.488 36.832 17.16 33.472 17.16ZM41.6709 17H39.9429V5.64H41.6709V17ZM47.9786 8.52V10.008H46.1066V15.544H47.9786V17H45.4506C44.8266 17 44.3786 16.552 44.3786 15.928V10.008H43.1146V8.52H44.3786V6.36H46.1066V8.52H47.9786ZM49.5448 17V8.52H51.2728V17H49.5448ZM49.5448 7.4V5.64H51.2728V7.4H49.5448ZM54.9085 17H53.2605V5.64H56.4765L58.5405 13.064L59.1645 15.368H59.5325L60.1405 13.064L62.2205 5.64H65.4365V17H63.7725V7.288H63.4045L62.7485 9.784L60.6685 17H58.0285L55.9485 9.784L55.2925 7.288H54.9085V17ZM69.9079 17.16C68.2279 17.16 67.0119 16.248 67.0119 14.552C67.0119 12.728 68.0999 12.248 70.2119 12.04L72.5959 11.8V11.224C72.5959 10.136 71.9239 9.72 70.8519 9.72C69.7639 9.72 69.2359 10.152 69.1079 11.112H67.3639C67.3639 9.352 68.8999 8.36 70.9159 8.36C72.8359 8.36 74.2759 9.256 74.2759 11.272V15.512H75.3319V17H73.7159C73.1559 17 72.7559 16.6 72.7559 16.04V15.72H72.7079C72.0519 16.792 70.9479 17.16 69.9079 17.16ZM68.7559 14.504C68.7559 15.384 69.2359 15.816 70.3079 15.816C71.5559 15.816 72.5959 15.112 72.5959 13.96V13.08L70.5319 13.32C69.2039 13.464 68.7559 13.752 68.7559 14.504ZM81.5199 12.488L84.1439 16.888V17H82.2239L80.0639 13.144H78.4959V17H76.7679V5.64H78.4959V11.656H80.0639L82.2239 8.52H84.1439V8.632L81.5199 12.296V12.488ZM88.7909 17.16C86.3109 17.16 84.6149 15.352 84.6149 12.76C84.6149 10.184 86.3429 8.36 88.7909 8.36C91.3029 8.36 93.1589 10.216 92.9669 13.256H86.3429C86.5189 14.712 87.4469 15.784 88.7909 15.784C89.7989 15.784 90.5509 15.208 90.8869 14.36H92.7269C92.2309 16.072 90.7269 17.16 88.7909 17.16ZM86.3909 11.928H91.2229C90.9829 10.616 90.0549 9.72 88.7909 9.72C87.5109 9.72 86.6469 10.648 86.3909 11.928ZM94.526 17V8.52H96.222V9.544H96.286C96.75 8.744 97.182 8.52 98.19 8.52H98.702V10.088H98.046C96.846 10.088 96.254 10.472 96.254 11.88V17H94.526ZM108.72 17.16C105.696 17.16 103.056 15.08 103.056 11.304C103.056 7.576 105.696 5.48 108.72 5.48C111.696 5.48 113.6 7.224 114.032 9.384H112.128C111.84 8.232 110.8 7.016 108.72 7.016C106.672 7.016 104.864 8.424 104.864 11.304C104.864 14.216 106.672 15.624 108.72 15.624C110.8 15.624 111.84 14.408 112.128 13.256H114.032C113.6 15.416 111.696 17.16 108.72 17.16ZM118.428 17.16C116.716 17.16 115.34 16.024 115.34 13.816V8.52H117.068V13.704C117.068 15.112 117.788 15.752 118.988 15.752C120.188 15.752 120.892 15.112 120.892 13.704V8.52H122.62V17H120.924V15.976H120.86C120.284 16.776 119.548 17.16 118.428 17.16ZM124.574 17V8.52H126.27V9.544H126.334C126.798 8.744 127.23 8.52 128.238 8.52H128.75V10.088H128.094C126.894 10.088 126.302 10.472 126.302 11.88V17H124.574ZM132.362 17.16C130.682 17.16 129.466 16.248 129.466 14.552C129.466 12.728 130.554 12.248 132.666 12.04L135.05 11.8V11.224C135.05 10.136 134.378 9.72 133.306 9.72C132.218 9.72 131.69 10.152 131.562 11.112H129.818C129.818 9.352 131.354 8.36 133.37 8.36C135.29 8.36 136.73 9.256 136.73 11.272V15.512H137.786V17H136.17C135.61 17 135.21 16.6 135.21 16.04V15.72H135.162C134.506 16.792 133.402 17.16 132.362 17.16ZM131.21 14.504C131.21 15.384 131.69 15.816 132.762 15.816C134.01 15.816 135.05 15.112 135.05 13.96V13.08L132.986 13.32C131.658 13.464 131.21 13.752 131.21 14.504Z" fill="white"/>
<path d="M6.75184 13.2402H5.24942C4.55938 13.2402 4 13.794 4 14.4771V16.2924C4 16.9756 4.55938 17.5294 5.24942 17.5294H6.75184C7.44187 17.5294 8.00125 16.9756 8.00125 16.2924V14.4771C8.00125 13.794 7.44187 13.2402 6.75184 13.2402Z" fill="white"/>
<path d="M22.7506 13.2402H21.2513C20.561 13.2402 20.0019 12.6867 20.0019 12.0032V5.24007C20.0019 4.55664 19.4428 4.00309 18.7525 4.00309H17.2532C16.5629 4.00309 16.0038 4.55664 16.0038 5.24007V12.0063C16.0038 12.6867 15.4446 13.2402 14.7543 13.2402H13.255C12.5647 13.2402 12.0056 12.6867 12.0056 12.0032V5.23698C12.0056 4.55355 11.4465 4 10.7562 4H9.25691C8.56661 4 8.0075 4.55355 8.0075 5.23698V12.0002C8.0075 12.6836 8.56661 13.2371 9.25691 13.2371H10.7562C11.4465 13.2371 12.0056 13.7907 12.0056 14.4741V16.2863C12.0056 16.9697 12.5647 17.5233 13.255 17.5233H14.7543C15.4446 17.5233 16.0038 16.9697 16.0038 16.2863V14.471C16.0038 13.7907 16.5629 13.2371 17.2532 13.2371H18.7525C19.4428 13.2371 20.0019 13.7907 20.0019 14.4741V16.2863C20.0019 16.9697 20.561 17.5233 21.2513 17.5233H22.7506C23.4409 17.5233 24 16.9697 24 16.2863V14.4741C24 13.7907 23.4409 13.2371 22.7506 13.2371V13.2402Z" fill="white"/>
</svg>
