<svg width="186" height="24" viewBox="0 0 186 24" fill="none" xmlns="http://www.w3.org/2000/svg">
<path d="M17.4647 12.264C18.3927 12.568 19.1287 13.08 19.6727 13.8C20.2167 14.504 20.4887 15.384 20.4887 16.44C20.4887 17.896 19.9287 19.024 18.8087 19.824C17.6887 20.608 16.0567 21 13.9127 21H5.56069V4.2H13.4327C15.4167 4.2 16.9447 4.592 18.0167 5.376C19.0887 6.144 19.6247 7.208 19.6247 8.568C19.6247 9.4 19.4327 10.136 19.0487 10.776C18.6647 11.416 18.1367 11.912 17.4647 12.264ZM8.68069 6.648V11.28H13.0967C14.1847 11.28 15.0167 11.088 15.5927 10.704C16.1847 10.304 16.4807 9.728 16.4807 8.976C16.4807 8.208 16.1847 7.632 15.5927 7.248C15.0167 6.848 14.1847 6.648 13.0967 6.648H8.68069ZM13.7207 18.552C16.1367 18.552 17.3447 17.744 17.3447 16.128C17.3447 14.512 16.1367 13.704 13.7207 13.704H8.68069V18.552H13.7207ZM31.5945 21.24C29.8985 21.24 28.3625 20.872 26.9865 20.136C25.6265 19.384 24.5545 18.352 23.7705 17.04C23.0025 15.728 22.6185 14.248 22.6185 12.6C22.6185 10.952 23.0105 9.472 23.7945 8.16C24.5785 6.848 25.6505 5.824 27.0105 5.088C28.3865 4.336 29.9225 3.96 31.6185 3.96C32.9945 3.96 34.2505 4.2 35.3865 4.68C36.5225 5.16 37.4825 5.856 38.2665 6.768L36.2505 8.664C35.0345 7.352 33.5385 6.696 31.7625 6.696C30.6105 6.696 29.5785 6.952 28.6665 7.464C27.7545 7.96 27.0425 8.656 26.5305 9.552C26.0185 10.448 25.7625 11.464 25.7625 12.6C25.7625 13.736 26.0185 14.752 26.5305 15.648C27.0425 16.544 27.7545 17.248 28.6665 17.76C29.5785 18.256 30.6105 18.504 31.7625 18.504C33.5385 18.504 35.0345 17.84 36.2505 16.512L38.2665 18.432C37.4825 19.344 36.5145 20.04 35.3625 20.52C34.2265 21 32.9705 21.24 31.5945 21.24ZM56.184 4.2V21H53.616L44.352 9.624V21H41.256V4.2H43.824L53.088 15.576V4.2H56.184ZM66.6377 11.136C68.1897 11.328 69.3737 11.856 70.1897 12.72C71.0057 13.584 71.4137 14.664 71.4137 15.96C71.4137 16.936 71.1657 17.824 70.6697 18.624C70.1737 19.424 69.4217 20.064 68.4137 20.544C67.4217 21.008 66.2057 21.24 64.7657 21.24C63.5657 21.24 62.4057 21.072 61.2857 20.736C60.1817 20.384 59.2377 19.904 58.4537 19.296L59.7977 16.872C60.4057 17.384 61.1417 17.792 62.0057 18.096C62.8857 18.384 63.7897 18.528 64.7177 18.528C65.8217 18.528 66.6857 18.304 67.3097 17.856C67.9497 17.392 68.2697 16.768 68.2697 15.984C68.2697 15.2 67.9657 14.592 67.3577 14.16C66.7657 13.712 65.8537 13.488 64.6217 13.488H63.0857V11.352L66.9017 6.816H59.2697V4.2H70.7177V6.288L66.6377 11.136ZM74.6544 4.2H81.9984C83.7904 4.2 85.3824 4.552 86.7744 5.256C88.1664 5.944 89.2464 6.928 90.0144 8.208C90.7824 9.472 91.1664 10.936 91.1664 12.6C91.1664 14.264 90.7824 15.736 90.0144 17.016C89.2464 18.28 88.1664 19.264 86.7744 19.968C85.3824 20.656 83.7904 21 81.9984 21H74.6544V4.2ZM81.8544 18.36C83.0864 18.36 84.1664 18.128 85.0944 17.664C86.0384 17.184 86.7584 16.512 87.2544 15.648C87.7664 14.768 88.0224 13.752 88.0224 12.6C88.0224 11.448 87.7664 10.44 87.2544 9.576C86.7584 8.696 86.0384 8.024 85.0944 7.56C84.1664 7.08 83.0864 6.84 81.8544 6.84H77.7744V18.36H81.8544ZM105.876 21.144C104.628 21.144 103.428 20.944 102.276 20.544C101.14 20.144 100.26 19.616 99.6358 18.96L100.332 17.592C100.94 18.2 101.748 18.696 102.756 19.08C103.764 19.448 104.804 19.632 105.876 19.632C107.38 19.632 108.508 19.36 109.26 18.816C110.012 18.256 110.388 17.536 110.388 16.656C110.388 15.984 110.18 15.448 109.764 15.048C109.364 14.648 108.868 14.344 108.276 14.136C107.684 13.912 106.86 13.672 105.804 13.416C104.54 13.096 103.532 12.792 102.78 12.504C102.028 12.2 101.38 11.744 100.836 11.136C100.308 10.528 100.044 9.704 100.044 8.664C100.044 7.816 100.268 7.048 100.716 6.36C101.164 5.656 101.852 5.096 102.78 4.68C103.708 4.264 104.86 4.056 106.236 4.056C107.196 4.056 108.132 4.192 109.044 4.464C109.972 4.72 110.772 5.08 111.444 5.544L110.844 6.96C110.14 6.496 109.388 6.152 108.588 5.928C107.788 5.688 107.004 5.568 106.236 5.568C104.764 5.568 103.652 5.856 102.9 6.432C102.164 6.992 101.796 7.72 101.796 8.616C101.796 9.288 101.996 9.832 102.396 10.248C102.812 10.648 103.324 10.96 103.932 11.184C104.556 11.392 105.388 11.624 106.428 11.88C107.66 12.184 108.652 12.488 109.404 12.792C110.172 13.08 110.82 13.528 111.348 14.136C111.876 14.728 112.14 15.536 112.14 16.56C112.14 17.408 111.908 18.184 111.444 18.888C110.996 19.576 110.3 20.128 109.356 20.544C108.412 20.944 107.252 21.144 105.876 21.144ZM122.297 20.232C121.977 20.52 121.577 20.744 121.097 20.904C120.633 21.048 120.145 21.12 119.633 21.12C118.449 21.12 117.537 20.8 116.897 20.16C116.257 19.52 115.937 18.616 115.937 17.448V9.816H113.681V8.376H115.937V5.616H117.641V8.376H121.481V9.816H117.641V17.352C117.641 18.104 117.825 18.68 118.193 19.08C118.577 19.464 119.121 19.656 119.825 19.656C120.177 19.656 120.513 19.6 120.833 19.488C121.169 19.376 121.457 19.216 121.697 19.008L122.297 20.232ZM127.031 10.848C127.431 10 128.023 9.36 128.807 8.928C129.607 8.496 130.591 8.28 131.759 8.28V9.936L131.351 9.912C130.023 9.912 128.983 10.32 128.231 11.136C127.479 11.952 127.103 13.096 127.103 14.568V21H125.399V8.376H127.031V10.848ZM139.237 8.28C140.885 8.28 142.149 8.696 143.029 9.528C143.909 10.344 144.349 11.56 144.349 13.176V21H142.717V19.032C142.333 19.688 141.765 20.2 141.013 20.568C140.277 20.936 139.397 21.12 138.373 21.12C136.965 21.12 135.845 20.784 135.013 20.112C134.181 19.44 133.765 18.552 133.765 17.448C133.765 16.376 134.149 15.512 134.917 14.856C135.701 14.2 136.941 13.872 138.637 13.872H142.645V13.104C142.645 12.016 142.341 11.192 141.733 10.632C141.125 10.056 140.237 9.768 139.069 9.768C138.269 9.768 137.501 9.904 136.765 10.176C136.029 10.432 135.397 10.792 134.869 11.256L134.101 9.984C134.741 9.44 135.509 9.024 136.405 8.736C137.301 8.432 138.245 8.28 139.237 8.28ZM138.637 19.776C139.597 19.776 140.421 19.56 141.109 19.128C141.797 18.68 142.309 18.04 142.645 17.208V15.144H138.685C136.525 15.144 135.445 15.896 135.445 17.4C135.445 18.136 135.725 18.72 136.285 19.152C136.845 19.568 137.629 19.776 138.637 19.776ZM155.626 20.232C155.306 20.52 154.906 20.744 154.426 20.904C153.962 21.048 153.474 21.12 152.962 21.12C151.778 21.12 150.866 20.8 150.226 20.16C149.586 19.52 149.266 18.616 149.266 17.448V9.816H147.01V8.376H149.266V5.616H150.97V8.376H154.81V9.816H150.97V17.352C150.97 18.104 151.154 18.68 151.522 19.08C151.906 19.464 152.45 19.656 153.154 19.656C153.506 19.656 153.842 19.6 154.162 19.488C154.498 19.376 154.786 19.216 155.026 19.008L155.626 20.232ZM163.442 21.12C162.226 21.12 161.13 20.848 160.154 20.304C159.178 19.744 158.41 18.976 157.85 18C157.29 17.024 157.01 15.92 157.01 14.688C157.01 13.456 157.29 12.352 157.85 11.376C158.41 10.4 159.178 9.64 160.154 9.096C161.13 8.552 162.226 8.28 163.442 8.28C164.658 8.28 165.754 8.552 166.73 9.096C167.706 9.64 168.466 10.4 169.01 11.376C169.57 12.352 169.85 13.456 169.85 14.688C169.85 15.92 169.57 17.024 169.01 18C168.466 18.976 167.706 19.744 166.73 20.304C165.754 20.848 164.658 21.12 163.442 21.12ZM163.442 19.608C164.338 19.608 165.138 19.408 165.842 19.008C166.562 18.592 167.122 18.008 167.522 17.256C167.922 16.504 168.122 15.648 168.122 14.688C168.122 13.728 167.922 12.872 167.522 12.12C167.122 11.368 166.562 10.792 165.842 10.392C165.138 9.976 164.338 9.768 163.442 9.768C162.546 9.768 161.738 9.976 161.018 10.392C160.314 10.792 159.754 11.368 159.338 12.12C158.938 12.872 158.738 13.728 158.738 14.688C158.738 15.648 158.938 16.504 159.338 17.256C159.754 18.008 160.314 18.592 161.018 19.008C161.738 19.408 162.546 19.608 163.442 19.608ZM176.713 21.12C175.689 21.12 174.705 20.976 173.761 20.688C172.833 20.384 172.105 20.008 171.577 19.56L172.345 18.216C172.873 18.632 173.537 18.976 174.337 19.248C175.137 19.504 175.969 19.632 176.833 19.632C177.985 19.632 178.833 19.456 179.377 19.104C179.937 18.736 180.217 18.224 180.217 17.568C180.217 17.104 180.065 16.744 179.761 16.488C179.457 16.216 179.073 16.016 178.609 15.888C178.145 15.744 177.529 15.608 176.761 15.48C175.737 15.288 174.913 15.096 174.289 14.904C173.665 14.696 173.129 14.352 172.681 13.872C172.249 13.392 172.033 12.728 172.033 11.88C172.033 10.824 172.473 9.96 173.353 9.288C174.233 8.616 175.457 8.28 177.025 8.28C177.841 8.28 178.657 8.392 179.473 8.616C180.289 8.824 180.961 9.104 181.489 9.456L180.745 10.824C179.705 10.104 178.465 9.744 177.025 9.744C175.937 9.744 175.113 9.936 174.553 10.32C174.009 10.704 173.737 11.208 173.737 11.832C173.737 12.312 173.889 12.696 174.193 12.984C174.513 13.272 174.905 13.488 175.369 13.632C175.833 13.76 176.473 13.896 177.289 14.04C178.297 14.232 179.105 14.424 179.713 14.616C180.321 14.808 180.841 15.136 181.273 15.6C181.705 16.064 181.921 16.704 181.921 17.52C181.921 18.624 181.457 19.504 180.529 20.16C179.617 20.8 178.345 21.12 176.713 21.12Z" fill="white"/>
</svg>
