<svg xmlns="http://www.w3.org/2000/svg" viewBox="0 0 335.22 139.01">
<defs>
    <style>
        .cls-1,.cls-6{fill:#f3f8fe;}
        .cls-2{fill:#061884;}
        .cls-14,.cls-15,.cls-16,.cls-3{fill:none;}
        .cls-14,.cls-15,.cls-16,.cls-3,.cls-5,.cls-6,.cls-9{stroke:#061884;}
        .cls-11,.cls-13,.cls-14,.cls-15,.cls-3,.cls-4,.cls-5,.cls-6,.cls-9{stroke-miterlimit:10;}
        .cls-11,.cls-13,.cls-4,.cls-5,.cls-7,.cls-9{fill:#fff;}
        .cls-4{stroke:#f3f8fe;stroke-width:3px;}
        .cls-14,.cls-15,.cls-16,.cls-5{stroke-linecap:round;}
        .cls-8{fill:#c5dbfb;}
        .cls-10{fill:#dde9fd;}
        .cls-11{stroke:#e8f1fe;}
        .cls-12{fill:#e8f0fd;}
        .cls-13{stroke:#d1e2fc;}
        .cls-15{stroke-dasharray:4.9 4.9;}
        .cls-16{stroke-linejoin:round;}
    </style>
</defs>
<path class="cls-1" d="M194.33,117.61H98.66V118h0a4.37,4.37,0,0,0,4.37,4.37H190a4.37,4.37,0,0,0,4.37-4.37v-.35"/>
<path class="cls-2" d="M138.41,116.94a2.69,2.69,0,0,0,2.69,2.69h10.78a2.69,2.69,0,0,0,2.7-2.69H138.41Z"/>
<path class="cls-1" d="M186.58,117.28V63.72a2.36,2.36,0,0,0-2.36-2.35H108.77a2.36,2.36,0,0,0-2.36,2.35v53.56Z"/>
<path class="cls-3" d="M186.58,117.28V63.72a2.36,2.36,0,0,0-2.36-2.35H108.77a2.36,2.36,0,0,0-2.36,2.35v53.56"/>
<path class="cls-4" d="M109.49,117.32V66A1.52,1.52,0,0,1,111,64.51h71.16A1.52,1.52,0,0,1,183.68,66v51.29"/>
<path class="cls-3" d="M109.49,117.32V66A1.52,1.52,0,0,1,111,64.51h71.16A1.52,1.52,0,0,1,183.68,66v51.29"/>
<path class="cls-3" d="M190,122.67a4.71,4.71,0,0,0,4.7-4.71v-.35a.33.33,0,0,0-.33-.33H98.66a.33.33,0,0,0-.33.33V118a4.71,4.71,0,0,0,4.7,4.71Z"/>
<line class="cls-5" x1="217.22" y1="123.01" x2="323.22" y2="123.01"/>
<path class="cls-2" d="M266.49,9c-3.56,0-8,5.29-13.58,16.11-4.26,8.27-7.6,16.87-7.64,17a.79.79,0,1,0,1.48.58c5-13,14.95-33.13,20.15-32s4.92,19.66,3.56,31.08a.79.79,0,0,0,1.57.19c.38-3.17,3.46-31-4.8-32.82A3.65,3.65,0,0,0,266.49,9Z"/>
<path class="cls-2" d="M277.67,13.75a3.64,3.64,0,0,0-.74.07c-8.26,1.79-5.18,29.65-4.8,32.82a.79.79,0,1,0,1.57-.18c-1.36-11.43-1.6-30,3.57-31.09s15.11,19,20.14,32a.79.79,0,0,0,1.48-.57c0-.09-3.38-8.68-7.64-17C285.68,19,281.23,13.75,277.67,13.75Z"/>
<path class="cls-6" d="M309.23,122.69a2.07,2.07,0,0,0,2.06-2.06V43.25a2.11,2.11,0,0,0-2.06-2.11H232.6a2.12,2.12,0,0,0-2.06,2.11v77.38a2.08,2.08,0,0,0,2.06,2.06h5.57l.63-.36c3.28-1.83,3.63-2,8-2h47.5c4.35,0,4.69.19,8,2l.63.36Z"/>
<rect class="cls-2" x="248.25" y="114.3" width="3.17" height="0.79"/>
<circle class="cls-2" cx="239.54" cy="43.85" r="0.79"/>
<circle class="cls-2" cx="260.13" cy="43.85" r="0.79"/>
<circle class="cls-2" cx="280.71" cy="43.85" r="0.79"/>
<circle class="cls-2" cx="301.29" cy="43.85" r="0.79"/>
<circle class="cls-2" cx="239.54" cy="114.3" r="0.79"/>
<circle class="cls-2" cx="301.29" cy="114.3" r="0.79"/>
<path class="cls-7" d="M300.36,110a6.08,6.08,0,0,0,6.08-6.08V53.41a2.85,2.85,0,0,0-2.84-2.84H238a2.85,2.85,0,0,0-2.84,2.84v50.46a6.08,6.08,0,0,0,6.07,6.08Z"/>
<path class="cls-1" d="M303.6,51H238a2.45,2.45,0,0,0-2.45,2.44v50.46a5.69,5.69,0,0,0,5.68,5.68h59.1a5.68,5.68,0,0,0,5.68-5.68V53.41A2.44,2.44,0,0,0,303.6,51m3.23,2.44v50.46h0a6.46,6.46,0,0,1-6.47,6.47h-59.1a6.47,6.47,0,0,1-6.47-6.47V53.41A3.24,3.24,0,0,1,238,50.18H303.6A3.23,3.23,0,0,1,306.83,53.41Z"/>
<path class="cls-2" d="M303.6,50.39h0a3,3,0,0,1,3,3v50.46a6.3,6.3,0,0,1-6.27,6.27h-59.1a6.28,6.28,0,0,1-6.26-6.27V53.41a3,3,0,0,1,3-3H303.6m0-1H238a4,4,0,0,0-4,4v50.46a7.27,7.27,0,0,0,7.26,7.27h59.1a7.29,7.29,0,0,0,7.27-7.27V53.41a4,4,0,0,0-4-4Z"/>
<path class="cls-8" d="M279.92,106.39h-19v9.5h19v-9.5m0-.8h0a.79.79,0,0,1,.77.78v9.54h0a.78.78,0,0,1-.77.77h-19a.77.77,0,0,1-.77-.77v-9.54a.77.77,0,0,1,.77-.78Z"/>
<path class="cls-9" d="M276,58.49a1.23,1.23,0,0,0,1.18-.9l1.51-5.7V49.78H262.1v2.11l1.51,5.71a1.22,1.22,0,0,0,1.18.89Z"/>
<path class="cls-9" d="M274.28,60.07h.14a1.24,1.24,0,0,0,1.08-1.36l-.77-6.55h-8.62l-.77,6.55a.66.66,0,0,0,0,.14,1.23,1.23,0,0,0,1.23,1.22Z"/>
<path class="cls-9" d="M280.53,52.16a2.39,2.39,0,0,0,0-4.75H260.31a2.39,2.39,0,0,0,0,4.75h20.22Z"/>
<polygon class="cls-10" points="279.02 80.01 261.43 80.01 252.63 95.25 261.43 110.48 279.02 110.48 287.82 95.25 279.02 80.01"/>
<path class="cls-11" d="M260.9,106a.38.38,0,0,0-.38.38v9.54h0a.38.38,0,0,0,.38.37h19a.37.37,0,0,0,.37-.37v-9.54h0a.37.37,0,0,0-.37-.38Z"/>
<path class="cls-2" d="M279.94,105.8a.57.57,0,0,1,.56.57v9.54a.56.56,0,0,1-.56.56h-19a.57.57,0,0,1-.57-.56v-9.54a.58.58,0,0,1,.57-.57h19m0-1h-19a1.57,1.57,0,0,0-1.57,1.57v9.54a1.56,1.56,0,0,0,1.57,1.56h19a1.56,1.56,0,0,0,1.56-1.56v-9.54a1.56,1.56,0,0,0-1.56-1.57Z"/>
<line class="cls-9" x1="270.54" y1="47.41" x2="270.54" y2="52.07"/>
<circle class="cls-7" cx="42.11" cy="99.88" r="21.04"/>
<path class="cls-1" d="M42.11,80.27a19.61,19.61,0,1,0,19.6,19.61,19.65,19.65,0,0,0-19.6-19.61M64.58,99.88A22.47,22.47,0,1,1,42.11,77.41,22.47,22.47,0,0,1,64.58,99.88Z"/>
<path class="cls-3" d="M65.05,99.88A22.95,22.95,0,1,1,42.11,76.93,22.94,22.94,0,0,1,65.05,99.88Z"/>
<path class="cls-12" d="M45.49,108.05a8.85,8.85,0,1,0-3.38.67A8.86,8.86,0,0,0,45.49,108.05ZM43.3,97A3.11,3.11,0,0,1,45,98.69a3.11,3.11,0,0,1-4.06,4.06,3.09,3.09,0,0,1-1.68-1.69,3.1,3.1,0,0,1,1.68-4,3,3,0,0,1,1.19-.24A3.08,3.08,0,0,1,43.3,97Z"/>
<path class="cls-2" d="M42.11,103.22a3.35,3.35,0,0,1-1.28-6.44,3.35,3.35,0,1,1,1.28,6.44m1.09-.69a2.87,2.87,0,0,0,1.56-3.75,2.83,2.83,0,0,0-1.56-1.55,2.78,2.78,0,0,0-2.19,0,2.87,2.87,0,0,0-1.55,1.55,2.82,2.82,0,0,0,0,2.19A2.86,2.86,0,0,0,41,102.53a2.76,2.76,0,0,0,1.1.21A2.71,2.71,0,0,0,43.2,102.53Z"/>
<path class="cls-2" d="M41.15,91.27v2.39a1,1,0,1,0,1.91,0V91.27"/>
<path class="cls-3" d="M45.49,108.05a8.85,8.85,0,1,0-3.38.67A8.86,8.86,0,0,0,45.49,108.05ZM43.3,97A3.11,3.11,0,0,1,45,98.69a3.11,3.11,0,0,1-4.06,4.06,3.09,3.09,0,0,1-1.68-1.69,3.1,3.1,0,0,1,1.68-4,3,3,0,0,1,1.19-.24A3.08,3.08,0,0,1,43.3,97Z"/>
<line class="cls-3" x1="38.81" y1="91.93" x2="40.83" y2="96.78"/>
<line class="cls-3" x1="36.02" y1="93.79" x2="39.74" y2="97.51"/>
<line class="cls-3" x1="34.16" y1="96.58" x2="39.02" y2="98.59"/>
<line class="cls-3" x1="33.5" y1="99.88" x2="38.76" y2="99.88"/>
<line class="cls-3" x1="34.16" y1="103.17" x2="39.02" y2="101.16"/>
<line class="cls-3" x1="36.02" y1="105.96" x2="39.74" y2="102.24"/>
<line class="cls-3" x1="38.81" y1="107.83" x2="40.83" y2="102.97"/>
<line class="cls-3" x1="42.11" y1="103.22" x2="42.11" y2="108.48"/>
<line class="cls-3" x1="43.39" y1="102.97" x2="45.4" y2="107.83"/>
<line class="cls-3" x1="44.47" y1="102.24" x2="48.19" y2="105.96"/>
<line class="cls-3" x1="45.2" y1="101.16" x2="50.06" y2="103.17"/>
<line class="cls-3" x1="45.45" y1="99.88" x2="50.71" y2="99.88"/>
<line class="cls-3" x1="45.2" y1="98.59" x2="50.06" y2="96.58"/>
<line class="cls-3" x1="44.47" y1="97.51" x2="48.19" y2="93.79"/>
<line class="cls-3" x1="43.39" y1="96.78" x2="45.4" y2="91.93"/>
<path class="cls-13" d="M27.21,108.28a1.21,1.21,0,0,0,.6-1,1.2,1.2,0,1,0-1.19,1.2A1.21,1.21,0,0,0,27.21,108.28Z"/>
<path class="cls-13" d="M30.47,112a1.21,1.21,0,0,0,.4-.89,1.2,1.2,0,1,0-1.2,1.2A1.18,1.18,0,0,0,30.47,112Z"/>
<path class="cls-13" d="M59.2,92.54a1.17,1.17,0,0,0,.59-1A1.2,1.2,0,1,0,58.6,92.7,1.17,1.17,0,0,0,59.2,92.54Z"/>
<path class="cls-13" d="M56.34,88.57a1.2,1.2,0,0,0-.8-2.09,1.2,1.2,0,0,0,0,2.39A1.22,1.22,0,0,0,56.34,88.57Z"/>
<path class="cls-14" d="M10.55,115.93a13.57,13.57,0,0,0,2,1.1,13.2,13.2,0,0,0,17.12-6"/>
<line class="cls-5" x1="19.22" y1="123.01" x2="65.22" y2="123.01"/>
<line class="cls-14" x1="70.72" y1="99.51" x2="73.22" y2="99.51"/>
<line class="cls-15" x1="78.12" y1="99.51" x2="95.27" y2="99.51"/>
<line class="cls-14" x1="97.72" y1="99.51" x2="100.22" y2="99.51"/>
<line class="cls-5" x1="93.22" y1="123.01" x2="199.22" y2="123.01"/>
<line class="cls-14" x1="192.72" y1="99.51" x2="195.22" y2="99.51"/>
<line class="cls-15" x1="200.12" y1="99.51" x2="217.27" y2="99.51"/>
<line class="cls-14" x1="219.72" y1="99.51" x2="222.22" y2="99.51"/>
<polygon class="cls-6" points="151.1 106.59 132.22 106.59 132.22 87.71 140.31 79.62 159.19 79.62 159.19 98.5 151.1 106.59"/>
<path class="cls-16" d="M149.75,86.36H145.7a6.75,6.75,0,0,0,0,13.49h4.05"/>
<circle class="cls-7" cx="159.98" cy="80.25" r="7.93"/>
<path class="cls-2" d="M160.06,73.81a6.35,6.35,0,1,0,6.35,6.34A6.35,6.35,0,0,0,160.06,73.81Zm5.27,4.12h-3a9.48,9.48,0,0,0-1.57-3.44A5.73,5.73,0,0,1,165.33,77.93ZM162,80.15a8.79,8.79,0,0,1-.14,1.59H158.3a9,9,0,0,1,0-3.17h3.53A8.76,8.76,0,0,1,162,80.15Zm-3.53,2.23h3.25a8.6,8.6,0,0,1-1.63,3.32A8.77,8.77,0,0,1,158.44,82.38Zm0-4.45a8.77,8.77,0,0,1,1.62-3.32,8.6,8.6,0,0,1,1.63,3.32Zm.91-3.44a9.32,9.32,0,0,0-1.57,3.44h-3A5.73,5.73,0,0,1,159.35,74.49Zm-4.77,4.08h3.08a9,9,0,0,0,0,3.17h-3.08a5.58,5.58,0,0,1,0-3.17Zm.22,3.81h3a9.32,9.32,0,0,0,1.57,3.44A5.75,5.75,0,0,1,154.8,82.38Zm6,3.44a9.48,9.48,0,0,0,1.57-3.44h3A5.75,5.75,0,0,1,160.78,85.82Zm4.77-4.08h-3.08a9.73,9.73,0,0,0,0-3.17h3.08a5.58,5.58,0,0,1,0,3.17Z"/>
</svg>