<svg xmlns="http://www.w3.org/2000/svg" viewBox="0 0 30 30">
	<switch>
		<g>
			<path d="M26.975,14.499c-0.075-1.82-0.548-3.536-1.346-5.06l0.014-0.008l-0.5-0.865l-0.019,0.011
				c-0.947-1.49-2.211-2.755-3.701-3.702l0.011-0.019l-0.867-0.5L20.559,4.37c-1.522-0.798-3.238-1.27-5.059-1.345V3h-1v0.025
				c-1.82,0.075-3.536,0.547-5.06,1.346L9.433,4.357l-0.865,0.5l0.01,0.018c-1.49,0.947-2.754,2.212-3.701,3.702L4.857,8.566
				l-0.5,0.865l0.014,0.008c-0.798,1.523-1.27,3.239-1.346,5.06H3v1h0.025c0.075,1.82,0.547,3.537,1.345,5.06l-0.013,0.008
				l0.5,0.865l0.017-0.01C7.003,24.771,10.737,27,15,27s7.996-2.229,10.125-5.577l0.018,0.01l0.5-0.867l-0.013-0.008
				c0.798-1.522,1.27-3.238,1.345-5.059H27v-1H26.975z M24.759,20.056l-0.503,0.865C22.298,23.971,18.885,26,15,26
				c-3.886,0-7.299-2.03-9.256-5.08l-0.503-0.863c-0.716-1.376-1.142-2.921-1.216-4.558h2.976v-1H4.025
				c0.074-1.637,0.501-3.182,1.217-4.557l2.58,1.489l0.5-0.865L5.745,9.078c0.858-1.337,1.996-2.476,3.334-3.334l1.488,2.577
				l0.865-0.5l-1.489-2.58c1.375-0.715,2.92-1.142,4.557-1.216V7h1V4.025c1.637,0.074,3.181,0.5,4.556,1.216L18.568,7.82l0.867,0.5
				l1.485-2.576c1.338,0.859,2.477,1.997,3.335,3.335l-2.575,1.488l0.5,0.865l2.577-1.49c0.716,1.376,1.143,2.92,1.217,4.557
				l-2.973,0.002v1l2.973-0.002C25.9,17.136,25.475,18.681,24.759,20.056z"/>
			<path d="M18.365,9.278l-4.186,4.606c-0.207,0.136-0.373,0.323-0.492,0.542l-0.001,0.001l0,0
				c-0.115,0.213-0.186,0.452-0.186,0.711c0,0.828,0.672,1.5,1.5,1.5c0.535,0,1.001-0.282,1.267-0.704h0.001l0.001-0.003
				c0.13-0.207,0.208-0.448,0.223-0.707L18.365,9.278z"/>
		</g>
	</switch>
</svg>
