<?xml version="1.0" encoding="UTF-8"?>
<svg width="30px" height="26px" viewBox="0 0 30 26" version="1.1" xmlns="http://www.w3.org/2000/svg" xmlns:xlink="http://www.w3.org/1999/xlink">
    <!-- Generator: Sketch 43.1 (39012) - http://www.bohemiancoding.com/sketch -->
    <title>Artboard 3</title>
    <desc>Created with Sketch.</desc>
    <defs></defs>
    <g id="Feature-apply-material-to-model" stroke="none" stroke-width="1" fill="none" fill-rule="evenodd">
        <g id="Artboard-3" fill="#FFFFFF">
            <g id="Group-19">
                <path d="M13,26 L14.0002268,26 C22.8445163,26 30,18.836556 30,10 L29,10 C29,18.2842712 22.2826941,25 14.0005091,25 L13,25 L13,26 Z" id="Combined-Shape-Copy-64"></path>
                <path d="M0,13 C0,5.82029825 5.81871963,0 13,0 C20.1797017,0 26,5.81871963 26,13 C26,20.1797017 20.1812804,26 13,26 C5.82029825,26 0,20.1812804 0,13 Z M1.23809524,13 C1.23809524,19.4973489 6.50407937,24.7619048 13,24.7619048 C19.4973489,24.7619048 24.7619048,19.4959206 24.7619048,13 C24.7619048,6.5026511 19.4959206,1.23809524 13,1.23809524 C6.5026511,1.23809524 1.23809524,6.50407937 1.23809524,13 Z M1.8,12.8666667 C1.8,12.3846828 2.18444155,12 2.65867424,12 L6.14132576,12 C6.60915484,12 7,12.3880199 7,12.8666667 C7,13.3486505 6.61555845,13.7333333 6.14132576,13.7333333 L2.65867424,13.7333333 C2.19084516,13.7333333 1.8,13.3453134 1.8,12.8666667 Z M18.8,12.8666667 C18.8,12.3846828 19.1844416,12 19.6586742,12 L23.1413258,12 C23.6091548,12 24,12.3880199 24,12.8666667 C24,13.3486505 23.6155584,13.7333333 23.1413258,13.7333333 L19.6586742,13.7333333 C19.1908452,13.7333333 18.8,13.3453134 18.8,12.8666667 Z M20.7436144,20.9307552 C20.40516,21.2692096 19.8544192,21.2672118 19.5236141,20.9364067 L17.0610076,18.4738002 C16.7256744,18.138467 16.7258451,17.594614 17.0666591,17.2537999 C17.4051135,16.9153455 17.9558542,16.9173433 18.2866594,17.2481484 L20.7492659,19.7107549 C21.084599,20.0460881 21.0844284,20.5899412 20.7436144,20.9307552 Z M7.5236141,8.93640669 L5.0610076,6.47380019 C4.72567445,6.13846704 4.72584507,5.59461396 5.0666591,5.25379993 C5.40511348,4.91534555 5.95585423,4.91734332 6.28665935,5.24814843 L8.74926586,7.71075494 C9.08459901,8.04608809 9.08442839,8.58994117 8.74361436,8.9307552 C8.40515997,9.26920958 7.85441922,9.26721181 7.5236141,8.93640669 Z M5.0666591,20.9307552 C4.72584507,20.5899412 4.72567445,20.0460881 5.0610076,19.7107549 L7.5236141,17.2481484 C7.85441922,16.9173433 8.40515997,16.9153455 8.74361436,17.2537999 C9.08442839,17.594614 9.08459901,18.138467 8.74926586,18.4738002 L6.28665935,20.9364067 C5.95585423,21.2672118 5.40511348,21.2692096 5.0666591,20.9307552 Z M17.0666591,8.9307552 C16.7258451,8.58994117 16.7256744,8.04608809 17.0610076,7.71075494 L19.5236141,5.24814843 C19.8544192,4.91734332 20.40516,4.91534555 20.7436144,5.25379993 C21.0844284,5.59461396 21.084599,6.13846704 20.7492659,6.47380019 L18.2866594,8.93640669 C17.9558542,9.26721181 17.4051135,9.26920958 17.0666591,8.9307552 Z M13.1333333,2 C13.6153172,2 14,2.38444155 14,2.85867424 L14,6.34132576 C14,6.80915484 13.6119801,7.2 13.1333333,7.2 C12.6513495,7.2 12.2666667,6.81555845 12.2666667,6.34132576 L12.2666667,2.85867424 C12.2666667,2.39084516 12.6546866,2 13.1333333,2 Z M13.1333333,19 C13.6153172,19 14,19.3844416 14,19.8586742 L14,23.3413258 C14,23.8091548 13.6119801,24.2 13.1333333,24.2 C12.6513495,24.2 12.2666667,23.8155584 12.2666667,23.3413258 L12.2666667,19.8586742 C12.2666667,19.3908452 12.6546866,19 13.1333333,19 Z M8.66666667,13 C8.66666667,10.6067661 10.6116358,8.66666667 13,8.66666667 C15.3932339,8.66666667 17.3333333,10.6116358 17.3333333,13 C17.3333333,15.3932339 15.3883642,17.3333333 13,17.3333333 C10.6067661,17.3333333 8.66666667,15.3883642 8.66666667,13 Z M9.9047619,13 C9.9047619,14.7059744 11.2905472,16.0952381 13,16.0952381 C14.7059744,16.0952381 16.0952381,14.7094528 16.0952381,13 C16.0952381,11.2940256 14.7094528,9.9047619 13,9.9047619 C11.2940256,9.9047619 9.9047619,11.2905472 9.9047619,13 Z" id="Combined-Shape-Copy-60"></path>
            </g>
        </g>
    </g>
</svg>