<?xml version="1.0" encoding="UTF-8"?>
<svg width="20px" height="17px" viewBox="0 0 20 17" version="1.1" xmlns="http://www.w3.org/2000/svg" xmlns:xlink="http://www.w3.org/1999/xlink">
    <!-- Generator: Sketch 46.2 (44496) - http://www.bohemiancoding.com/sketch -->
    <title>Shape</title>
    <desc>Created with Sketch.</desc>
    <defs></defs>
    <g id="Visual-design" stroke="none" stroke-width="1" fill="none" fill-rule="evenodd">
        <g id="02-Default-theme---Prepare---Custom-states" transform="translate(-1393.000000, -278.000000)" fill-rule="nonzero" fill="#F6AF3D">
            <path d="M1402.55239,278 C1401.94913,278 1401.40322,278.307677 1401.09691,278.829623 L1393.23004,292.256398 C1392.92367,292.779858 1392.92297,293.41454 1393.23004,293.937488 C1393.57345,294.522149 1394.14624,294.768625 1394.75102,294.767112 L1410.35376,294.767112 C1410.95872,294.76944 1411.53135,294.522079 1411.87473,293.937488 C1412.18192,293.414517 1412.18122,292.779882 1411.87473,292.256398 L1404.00787,278.829623 C1403.70156,278.307677 1403.15565,278 1402.55239,278 L1402.55239,278 Z M1402.55239,279.39726 C1402.63599,279.39726 1402.76212,279.471285 1402.79982,279.535531 L1410.66669,292.962317 C1410.70435,293.026638 1410.70446,293.159983 1410.66669,293.224303 C1410.66506,293.226865 1410.43708,293.370084 1410.35376,293.369851 L1394.75102,293.369851 C1394.66752,293.370061 1394.43963,293.226912 1394.43809,293.224303 C1394.40032,293.159983 1394.40043,293.026661 1394.43809,292.962317 L1402.30496,279.535531 C1402.34266,279.471285 1402.46878,279.39726 1402.55239,279.39726 Z M1402.55239,283.356164 C1401.90932,283.356164 1401.388,283.87748 1401.388,284.520548 L1401.62088,288.47944 C1401.62088,288.993888 1402.03793,289.410947 1402.55239,289.410947 C1403.06684,289.410947 1403.48389,288.993888 1403.48389,288.47944 L1403.71677,284.520548 C1403.71677,283.87748 1403.19546,283.356164 1402.55239,283.356164 Z M1402.55239,289.876701 C1401.7807,289.876701 1401.15513,290.502277 1401.15513,291.273961 C1401.15513,292.045621 1401.7807,292.671221 1402.55239,292.671221 C1403.32407,292.671221 1403.94965,292.045621 1403.94965,291.273961 C1403.94965,290.502277 1403.32407,289.876701 1402.55239,289.876701 Z" id="Shape"></path>
        </g>
    </g>
</svg>