<?xml version="1.0" encoding="UTF-8" standalone="no"?>
<svg
   xmlns:dc="http://purl.org/dc/elements/1.1/"
   xmlns:cc="http://creativecommons.org/ns#"
   xmlns:rdf="http://www.w3.org/1999/02/22-rdf-syntax-ns#"
   xmlns:svg="http://www.w3.org/2000/svg"
   xmlns="http://www.w3.org/2000/svg"
   xmlns:sodipodi="http://sodipodi.sourceforge.net/DTD/sodipodi-0.dtd"
   xmlns:inkscape="http://www.inkscape.org/namespaces/inkscape"
   width="30"
   height="30"
   viewBox="0 0 30 30"
   version="1.1"
   id="svg4668"
   sodipodi:docname="material_not_selected.svg"
   inkscape:version="0.92.1 r">
  <metadata
     id="metadata4672">
    <rdf:RDF>
      <cc:Work
         rdf:about="">
        <dc:format>image/svg+xml</dc:format>
        <dc:type
           rdf:resource="http://purl.org/dc/dcmitype/StillImage" />
        <dc:title>Artboard 3</dc:title>
      </cc:Work>
    </rdf:RDF>
  </metadata>
  <sodipodi:namedview
     pagecolor="#ffffff"
     bordercolor="#666666"
     borderopacity="1"
     objecttolerance="10"
     gridtolerance="10"
     guidetolerance="10"
     inkscape:pageopacity="0"
     inkscape:pageshadow="2"
     inkscape:window-width="1266"
     inkscape:window-height="1411"
     id="namedview4670"
     showgrid="false"
     inkscape:pagecheckerboard="true"
     inkscape:zoom="9.0769231"
     inkscape:cx="-5.7118644"
     inkscape:cy="13"
     inkscape:window-x="0"
     inkscape:window-y="0"
     inkscape:window-maximized="0"
     inkscape:current-layer="svg4668" />
  <!-- Generator: Sketch 43.1 (39012) - http://www.bohemiancoding.com/sketch -->
  <title
     id="title4657">Artboard 3</title>
  <desc
     id="desc4659">Created with Sketch.</desc>
  <defs
     id="defs4661" />
  <g
     id="Feature-apply-material-to-model"
     style="fill:none;fill-rule:evenodd;stroke:none;stroke-width:1"
     transform="translate(0,2)">
    <g
       id="Artboard-3"
       style="fill:#ffffff">
      <g
         id="Group-19">
        <path
           d="m 13,26 h 1.000227 C 22.844516,26 30,18.836556 30,10 h -1 c 0,8.284271 -6.717306,15 -14.999491,15 H 13 Z"
           id="Combined-Shape-Copy-64"
           inkscape:connector-curvature="0" />
        <path
           d="M 0,13 C 0,5.8202982 5.8187196,0 13,0 20.179702,0 26,5.8187196 26,13 26,20.179702 20.18128,26 13,26 5.8202982,26 0,20.18128 0,13 Z m 1.2380952,0 C 1.2380952,19.497349 6.5040794,24.761905 13,24.761905 19.497349,24.761905 24.761905,19.495921 24.761905,13 24.761905,6.5026511 19.495921,1.2380952 13,1.2380952 6.5026511,1.2380952 1.2380952,6.5040794 1.2380952,13 Z M 1.8,12.866667 C 1.8,12.384683 2.1844415,12 2.6586742,12 H 6.1413258 C 6.6091548,12 7,12.38802 7,12.866667 7,13.348651 6.6155584,13.733333 6.1413258,13.733333 H 2.6586742 C 2.1908452,13.733333 1.8,13.345313 1.8,12.866667 Z m 17,0 C 18.8,12.384683 19.184442,12 19.658674,12 h 3.482652 C 23.609155,12 24,12.38802 24,12.866667 c 0,0.481984 -0.384442,0.866666 -0.858674,0.866666 H 19.658674 C 19.190845,13.733333 18.8,13.345313 18.8,12.866667 Z m 1.943614,8.064088 c -0.338454,0.338455 -0.889195,0.336457 -1.22,0.0057 L 17.061008,18.4738 c -0.335334,-0.335333 -0.335163,-0.879186 0.0057,-1.22 0.338454,-0.338455 0.889195,-0.336457 1.22,-0.0057 l 2.462607,2.462607 c 0.335333,0.335333 0.335162,0.879186 -0.0057,1.22 z M 7.5236141,8.9364067 5.0610076,6.4738002 C 4.7256744,6.138467 4.7258451,5.594614 5.0666591,5.2537999 5.4051135,4.9153455 5.9558542,4.9173433 6.2866593,5.2481484 L 8.7492659,7.7107549 C 9.084599,8.0460881 9.0844284,8.5899412 8.7436144,8.9307552 8.40516,9.2692096 7.8544192,9.2672118 7.5236141,8.9364067 Z M 5.0666591,20.930755 c -0.340814,-0.340814 -0.3409847,-0.884667 -0.00565,-1.22 l 2.4626065,-2.462607 c 0.3308051,-0.330805 0.8815459,-0.332803 1.2200003,0.0057 0.340814,0.340814 0.3409846,0.884667 0.00565,1.22 L 6.2866593,20.936407 C 5.9558542,21.267212 5.4051135,21.26921 5.0666591,20.930755 Z M 17.066659,8.9307552 c -0.340814,-0.340814 -0.340985,-0.8846671 -0.0057,-1.2200003 l 2.462606,-2.4626065 c 0.330805,-0.3308051 0.881546,-0.3328029 1.22,0.00565 0.340814,0.3408141 0.340985,0.8846671 0.0057,1.2200003 l -2.462607,2.4626065 c -0.330805,0.3308051 -0.881546,0.3328029 -1.219999,-0.00565 z M 13.133333,2 C 13.615317,2 14,2.3844416 14,2.8586742 V 6.3413258 C 14,6.8091548 13.61198,7.2 13.133333,7.2 12.65135,7.2 12.266667,6.8155584 12.266667,6.3413258 V 2.8586742 C 12.266667,2.3908452 12.654687,2 13.133333,2 Z m 0,17 C 13.615317,19 14,19.384442 14,19.858674 v 3.482652 C 14,23.809155 13.61198,24.2 13.133333,24.2 12.65135,24.2 12.266667,23.815558 12.266667,23.341326 V 19.858674 C 12.266667,19.390845 12.654687,19 13.133333,19 Z M 8.6666667,13 c 0,-2.393234 1.9449693,-4.3333333 4.3333333,-4.3333333 2.393234,0 4.333333,1.9449693 4.333333,4.3333333 0,2.393234 -1.944969,4.333333 -4.333333,4.333333 -2.393234,0 -4.3333333,-1.944969 -4.3333333,-4.333333 z m 1.2380952,0 c 0,1.705974 1.3857851,3.095238 3.0952381,3.095238 1.705974,0 3.095238,-1.385785 3.095238,-3.095238 0,-1.705974 -1.385785,-3.0952381 -3.095238,-3.0952381 -1.705974,0 -3.0952381,1.3857851 -3.0952381,3.0952381 z"
           id="Combined-Shape-Copy-60"
           inkscape:connector-curvature="0" />
      </g>
    </g>
  </g>
</svg>
