<?xml version="1.0" standalone="no"?>
<!DOCTYPE svg PUBLIC "-//W3C//DTD SVG 20010904//EN"
 "http://www.w3.org/TR/2001/REC-SVG-20010904/DTD/svg10.dtd">
<svg version="1.0" xmlns="http://www.w3.org/2000/svg"
 width="200.000000pt" height="200.000000pt" viewBox="0 0 200.000000 200.000000"
 preserveAspectRatio="xMidYMid meet">
<metadata>
Created by potrace 1.10, written by Peter Selinger 2001-2011
</metadata>
<g transform="translate(0.000000,200.000000) scale(0.050000,-0.050000)"
fill="#000000" stroke="none">
<path d="M675 2116 l5 -1145 253 -44 c139 -24 269 -48 290 -54 40 -10 56 1053
18 1237 -14 66 -17 70 -19 24 -2 -47 -9 -55 -42 -44 -39 12 -40 4 -40 -479 0
-405 -5 -491 -28 -491 -15 0 -32 -18 -38 -40 -6 -24 -27 -40 -53 -40 -27 0
-38 8 -29 23 10 16 -7 19 -57 9 -154 -29 -160 0 -152 738 3 352 -1 764 -11
915 -15 242 -13 274 13 264 37 -14 358 -544 752 -1242 l183 -323 0 -318 0
-319 145 -22 c109 -17 180 -17 280 0 l135 23 0 314 0 313 94 168 c269 481 325
589 316 613 -6 17 -1 21 15 11 18 -10 17 -5 -1 18 -28 34 -93 26 -71 -9 6 -11
-8 -9 -32 4 -41 21 -43 20 -21 -20 13 -24 18 -49 12 -55 -7 -6 -12 -1 -12 12
0 53 -78 8 -89 -53 -5 -24 -36 -77 -68 -119 -33 -41 -75 -113 -94 -160 -18
-47 -42 -85 -52 -85 -11 0 -14 9 -7 20 7 11 0 20 -16 20 -15 0 -38 23 -51 51
-30 66 -29 69 12 69 30 1 31 3 5 20 -25 17 -26 23 -2 38 15 10 22 26 15 37 -7
11 6 44 29 73 22 28 35 52 28 52 -20 0 61 137 122 206 11 13 17 36 13 49 -5
15 9 25 35 25 25 0 37 9 29 21 -23 38 8 115 46 112 25 -2 33 9 29 42 -4 25 3
45 15 45 11 0 21 12 21 27 0 33 56 148 80 163 10 6 14 29 10 51 -4 22 -1 36 8
30 22 -14 85 58 78 88 -3 14 12 35 34 48 21 13 51 37 66 53 15 17 21 19 14 5
-7 -14 -4 -25 7 -25 11 0 23 8 26 18 4 9 72 24 152 32 177 17 177 16 55 -199
-49 -87 -90 -160 -90 -163 0 -3 -67 -122 -150 -264 l-150 -259 0 -680 c0 -654
2 -681 37 -672 21 6 152 30 291 54 l254 44 4 1144 4 1145 -293 0 -294 0 -57
-105 c-32 -58 -199 -358 -372 -668 l-315 -562 96 -168 c124 -217 188 -366 132
-310 -40 39 -70 -78 -70 -277 -1 -116 -7 -214 -15 -219 -46 -28 -76 61 -96
289 -19 218 -46 150 -46 -116 0 -285 -12 -311 -95 -215 -47 54 -78 530 -35
532 11 0 4 9 -15 21 -23 13 -32 37 -27 67 6 33 -1 45 -24 43 -18 -1 -33 12
-34 28 -2 55 -35 130 -73 163 -21 18 -32 46 -26 63 8 20 -3 35 -30 44 -23 7
-36 21 -30 31 6 11 2 19 -9 19 -12 0 -27 25 -35 55 -11 48 -41 93 -128 200
-12 14 -16 33 -10 43 6 10 -12 33 -40 51 -28 18 -44 43 -37 55 8 12 5 17 -5
10 -22 -13 -73 42 -83 87 -3 16 -19 39 -35 51 -17 13 -24 37 -17 55 7 18 3 33
-8 33 -21 0 -211 291 -217 330 -1 11 -3 32 -5 46 -1 15 -9 22 -17 17 -8 -5
-27 4 -41 19 -15 16 -17 28 -5 28 12 0 21 14 21 30 0 17 -11 30 -25 30 -17 1
-15 7 5 20 17 11 66 19 110 19 67 0 181 -37 120 -39 -11 0 9 -19 45 -42 36
-23 61 -49 55 -57 -5 -9 9 -32 31 -52 40 -36 40 -36 28 2 -10 31 -8 33 8 10
13 -19 14 -41 1 -65 -15 -28 -12 -36 12 -36 18 0 27 -9 20 -20 -7 -11 -1 -20
14 -20 19 -1 18 -6 -4 -20 -26 -17 -26 -19 3 -20 20 0 37 -23 44 -61 7 -34 21
-56 32 -50 10 7 29 -23 40 -65 11 -43 38 -93 59 -113 22 -19 36 -51 32 -71 -4
-20 11 -53 34 -73 22 -20 63 -76 91 -123 35 -61 60 -83 83 -75 26 9 26 6 -3
-16 -33 -25 -33 -30 -3 -55 18 -14 40 -48 50 -73 23 -62 152 -60 142 2 -4 20
-163 317 -354 660 l-348 623 -296 5 -296 6 5 -1145z m2455 504 c-6 -9 -1 -20
10 -23 21 -8 21 -1 14 -827 -6 -667 4 -633 -184 -657 -44 -5 -64 -6 -45 0 37
11 47 39 17 50 -9 4 -22 216 -29 473 -6 256 -17 474 -23 485 -7 10 -6 29 2 42
8 13 5 18 -6 11 -12 -8 -20 14 -21 52 0 35 4 52 9 38 6 -15 46 43 89 129 43
85 88 161 99 168 12 8 22 21 22 31 2 39 21 67 38 57 10 -7 14 -19 8 -29z
m-2355 -465 c-5 -47 -8 -8 -8 85 0 94 3 132 8 85 4 -47 4 -123 0 -170z"/>
</g>
</svg>
