<?xml version="1.0" encoding="utf-8"?>
<!-- Generator: Adobe Illustrator 16.2.0, SVG Export Plug-In . SVG Version: 6.00 Build 0)  -->
<!DOCTYPE svg PUBLIC "-//W3C//DTD SVG 1.1//EN" "http://www.w3.org/Graphics/SVG/1.1/DTD/svg11.dtd">
<svg version="1.1" id="Layer_1" xmlns="http://www.w3.org/2000/svg" xmlns:xlink="http://www.w3.org/1999/xlink" x="0px" y="0px"
	 width="512px" height="512px" viewBox="0 0 512 512" enable-background="new 0 0 512 512" xml:space="preserve">
<path d="M240.168,503.311c-60.098,21.117-109.643-3.1-99.704-60.816c9.942-57.73,66.971-181.316,75.107-204.688
	c8.129-23.371-7.46-29.777-24.172-20.267c-9.638,5.56-23.963,16.704-36.26,27.535c-3.41-6.866-8.206-14.712-11.807-22.226
	c20.067-20.109,53.61-47.07,93.318-56.841c47.445-11.711,126.759,7.031,92.673,97.695c-24.338,64.636-41.549,109.239-52.396,142.524
	c-10.84,33.233,2.13,40.266,21.092,27.25c14.825-10.123,30.618-23.892,42.195-34.568c5.357,8.733,7.03,11.505,12.356,21.516
	c-20.175,20.447-72.704,68.808-112.33,82.886H240.168z"/>
<path d="M364.689,103.474c-27.258,23.203-67.66,22.7-90.263-1.134c-22.598-23.819-18.828-61.943,8.426-85.149
	c27.254-23.2,67.665-22.697,90.328,1.065c22.531,23.805,18.745,61.939-8.524,85.218H364.689z"/>
</svg>
