<?xml version="1.0" encoding="utf-8"?>
<!-- Generator: Adobe Illustrator 16.2.0, SVG Export Plug-In . SVG Version: 6.00 Build 0)  -->
<!DOCTYPE svg PUBLIC "-//W3C//DTD SVG 1.1//EN" "http://www.w3.org/Graphics/SVG/1.1/DTD/svg11.dtd">
<svg version="1.1" id="Layer_1" xmlns="http://www.w3.org/2000/svg" xmlns:xlink="http://www.w3.org/1999/xlink"
	 viewBox="0 0 30 30" xml:space="preserve">
<path d="M13.628 29.557c-3.53 1.24-6.44-.182-5.857-3.572.584-3.39 3.934-10.65 4.412-12.023.477-1.373-.438-1.75-1.42-1.19-.566.326-1.408.98-2.13 1.617-.2-.404-.482-.865-.694-1.306 1.18-1.181 3.15-2.765 5.482-3.339 2.787-.688 7.446.413 5.444 5.739-1.43 3.797-2.441 6.417-3.078 8.372-.637 1.952.125 2.365 1.239 1.6.87-.594 1.798-1.403 2.478-2.03.315.513.413.676.726 1.264-1.185 1.2-4.27 4.042-6.598 4.868h-.004zM20.942 6.071c-1.601 1.363-3.974 1.333-5.302-.067-1.328-1.399-1.106-3.638.495-5.001 1.6-1.363 3.974-1.333 5.306.062 1.323 1.399 1.1 3.639-.501 5.006h.002z"/>
</svg>
