<?xml version="1.0" encoding="UTF-8"?>
<svg width="15px" height="15px" viewBox="0 0 15 15" version="1.1" xmlns="http://www.w3.org/2000/svg" xmlns:xlink="http://www.w3.org/1999/xlink">
    <!-- Generator: Sketch 46.2 (44496) - http://www.bohemiancoding.com/sketch -->
    <title>Shape Copy 3</title>
    <desc>Created with Sketch.</desc>
    <defs></defs>
    <g id="Visual-design" stroke="none" stroke-width="1" fill="none" fill-rule="evenodd">
        <g id="02-Default-theme---Prepare---Custom-states" transform="translate(-1373.000000, -586.000000)" fill-rule="nonzero" fill="#959799">
            <g id="Print-setup" transform="translate(1048.000000, 320.000000)">
                <g id="Custom" transform="translate(0.000000, 106.000000)">
                    <g transform="translate(23.000000, 20.000000)" id="Shape-Copy-3">
                        <path d="M309.500223,155 C313.641468,155 316.999777,151.642585 316.999777,147.499777 C316.999777,143.357639 313.641468,140 309.500223,140 C305.358086,140 302,143.357862 302,147.499777 C302,151.642585 305.358086,155 309.500223,155 Z M310.60022,152.368989 L308.472398,152.368989 L308.472398,144.569803 L310.60022,144.569803 L310.60022,152.368989 Z M309.541113,141.514032 C310.3131,141.514032 310.69697,141.861258 310.69697,142.553477 C310.69697,142.885062 310.60022,143.140678 310.408732,143.325016 C310.21635,143.508908 309.926101,143.600742 309.541113,143.600742 C308.767339,143.600742 308.381904,143.251504 308.381904,142.553477 C308.381904,141.861482 308.767339,141.514032 309.541113,141.514032 Z"></path>
                    </g>
                </g>
            </g>
        </g>
    </g>
</svg>