<?xml version="1.0" encoding="utf-8"?>
<!-- Generator: Adobe Illustrator 19.1.0, SVG Export Plug-In . SVG Version: 6.00 Build 0)  -->
<svg version="1.2" baseProfile="tiny" id="Layer_1" xmlns="http://www.w3.org/2000/svg" xmlns:xlink="http://www.w3.org/1999/xlink"
	 x="0px" y="0px" viewBox="0 0 30 30" xml:space="preserve">
<path d="M16.5,14V6h-3v9.4l-5.3,3.1L9.7,21l6.2-3.6c0.4-0.2,0.6-0.7,0.6-1.1v-0.3l6.4-6.2c-0.3-0.4-0.6-0.8-1-1.1L16.5,14z M15,26.4
	C8.7,26.4,3.6,21.3,3.6,15C3.6,8.7,8.7,3.6,15,3.6c6.3,0,11.4,5.1,11.4,11.4C26.4,21.3,21.3,26.4,15,26.4z M15,0.6
	C7,0.6,0.6,7,0.6,15C0.6,23,7,29.4,15,29.4c8,0,14.4-6.4,14.4-14.4C29.4,7,23,0.6,15,0.6z"/>
</svg>
