<?xml version="1.0" encoding="UTF-8"?>
<!-- Generator: Adobe Illustrator 19.1.0, SVG Export Plug-In . SVG Version: 6.00 Build 0)  -->
<svg version="1.2" baseProfile="tiny" id="Layer_1" xmlns="http://www.w3.org/2000/svg" xmlns:xlink="http://www.w3.org/1999/xlink" x="0px" y="0px" viewBox="-282 405.9 30 30" xml:space="preserve">
<g>
	<polygon fill="none" points="-253.2,421.1 -266.8,434.7 -266.4,434.7 -253.2,421.5  "/>
	<polygon fill="none" points="-253.2,418.9 -269,434.7 -268.6,434.7 -253.2,419.3  "/>
	<polygon fill="none" points="-253.2,423.3 -264.6,434.7 -264.2,434.7 -253.2,423.7  "/>
	<polygon fill="none" points="-253.2,425.5 -262.4,434.7 -262,434.7 -253.2,425.9  "/>
	<polygon fill="none" points="-253.2,434.7 -253.2,434.3 -253.6,434.7  "/>
	<polygon fill="none" points="-253.2,429.9 -258,434.7 -257.6,434.7 -253.2,430.3  "/>
	<polygon fill="none" points="-253.2,432.1 -255.8,434.7 -255.4,434.7 -253.2,432.5  "/>
	<polygon fill="none" points="-253.2,427.7 -260.2,434.7 -259.8,434.7 -253.2,428.1  "/>
	<polygon fill="none" points="-267.7,407.1 -280.8,420.2 -280.8,420.6 -267.3,407.1  "/>
	<polygon fill="none" points="-261.1,407.1 -280.8,426.8 -280.8,427.2 -260.7,407.1  "/>
	<polygon fill="none" points="-272,407.1 -280.8,415.8 -280.8,416.2 -271.7,407.1  "/>
	<polygon fill="none" points="-269.9,407.1 -280.8,418 -280.8,418.4 -269.5,407.1  "/>
	<polygon fill="none" points="-265.5,407.1 -280.8,422.4 -280.8,422.8 -265.1,407.1  "/>
	<polygon fill="none" points="-274.2,407.1 -280.8,413.7 -280.8,414 -273.8,407.1  "/>
	<polygon fill="none" points="-278.6,407.1 -280.8,409.3 -280.8,409.7 -278.2,407.1  "/>
	<polygon fill="none" points="-280.8,407.1 -280.8,407.5 -280.4,407.1  "/>
	<polygon fill="none" points="-276.4,407.1 -280.8,411.5 -280.8,411.9 -276,407.1  "/>
	<polygon fill="none" points="-253.2,408 -279.9,434.7 -279.5,434.7 -253.2,408.4  "/>
	<polygon fill="none" points="-253.2,412.3 -275.5,434.7 -275.2,434.7 -253.2,412.7  "/>
	<polygon fill="none" points="-253.2,414.5 -273.4,434.7 -273,434.7 -253.2,414.9  "/>
	<polygon fill="none" points="-253.2,410.2 -277.7,434.7 -277.3,434.7 -253.2,410.5  "/>
	<polygon fill="none" points="-258.9,407.1 -280.8,429 -280.8,429.4 -258.5,407.1  "/>
	<polygon fill="none" points="-253.2,416.7 -271.2,434.7 -270.8,434.7 -253.2,417.1  "/>
	<polygon fill="none" points="-254.5,407.1 -280.8,433.4 -280.8,433.8 -254.1,407.1  "/>
	<polygon fill="none" points="-256.7,407.1 -280.8,431.2 -280.8,431.6 -256.3,407.1  "/>
	<polygon fill="none" points="-263.3,407.1 -280.8,424.6 -280.8,425 -262.9,407.1  "/>
	<polygon points="-280.4,407.1 -280.8,407.5 -280.8,409.3 -278.6,407.1  "/>
	<polygon points="-278.2,407.1 -280.8,409.7 -280.8,411.5 -276.4,407.1  "/>
	<polygon points="-276,407.1 -280.8,411.9 -280.8,413.7 -274.2,407.1  "/>
	<polygon points="-273.8,407.1 -280.8,414 -280.8,415.8 -272,407.1  "/>
	<polygon points="-271.7,407.1 -280.8,416.2 -280.8,418 -269.9,407.1  "/>
	<polygon points="-269.5,407.1 -280.8,418.4 -280.8,420.2 -267.7,407.1  "/>
	<polygon points="-267.3,407.1 -280.8,420.6 -280.8,422.4 -265.5,407.1  "/>
	<polygon points="-265.1,407.1 -280.8,422.8 -280.8,424.6 -263.3,407.1  "/>
	<polygon points="-262.9,407.1 -280.8,425 -280.8,426.8 -261.1,407.1  "/>
	<polygon points="-260.7,407.1 -280.8,427.2 -280.8,429 -258.9,407.1  "/>
	<polygon points="-258.5,407.1 -280.8,429.4 -280.8,431.2 -256.7,407.1  "/>
	<polygon points="-256.3,407.1 -280.8,431.6 -280.8,433.4 -254.5,407.1  "/>
	<polygon points="-282,435 -282,435 -282,435  "/>
	<polygon points="-253.2,407.1 -254.1,407.1 -280.8,433.8 -280.8,434.7 -279.9,434.7 -253.2,408  "/>
	<polygon points="-253.2,408.4 -279.5,434.7 -277.7,434.7 -253.2,410.2  "/>
	<polygon points="-253.2,410.5 -277.3,434.7 -275.5,434.7 -253.2,412.3  "/>
	<polygon points="-253.2,412.7 -275.2,434.7 -273.4,434.7 -253.2,414.5  "/>
	<polygon points="-253.2,414.9 -273,434.7 -271.2,434.7 -253.2,416.7  "/>
	<polygon points="-253.2,417.1 -270.8,434.7 -269,434.7 -253.2,418.9  "/>
	<polygon points="-253.2,419.3 -268.6,434.7 -266.8,434.7 -253.2,421.1  "/>
	<polygon points="-253.2,421.5 -266.4,434.7 -264.6,434.7 -253.2,423.3  "/>
	<polygon points="-253.2,423.7 -264.2,434.7 -262.4,434.7 -253.2,425.5  "/>
	<polygon points="-253.2,425.9 -262,434.7 -260.2,434.7 -253.2,427.7  "/>
	<polygon points="-253.2,428.1 -259.8,434.7 -258,434.7 -253.2,429.9  "/>
	<polygon points="-253.2,430.3 -257.6,434.7 -255.8,434.7 -253.2,432.1  "/>
	<polygon points="-255.4,434.7 -253.6,434.7 -253.2,434.3 -253.2,432.5  "/>
	<polygon points="-280.8,407.1 -282,407.1 -282,408.7 -280.8,407.5  "/>
	<polygon points="-280.8,415.8 -282,417 -282,417.4 -280.8,416.2  "/>
	<polygon points="-280.8,422.4 -282,423.6 -282,424 -280.8,422.8  "/>
	<polygon points="-280.8,413.7 -282,414.9 -282,415.2 -280.8,414  "/>
	<polygon points="-280.8,418 -282,419.2 -282,419.6 -280.8,418.4  "/>
	<polygon points="-280.8,409.3 -282,410.5 -282,410.9 -280.8,409.7  "/>
	<polygon points="-280.8,411.5 -282,412.7 -282,413.1 -280.8,411.9  "/>
	<polygon points="-280.8,420.2 -282,421.4 -282,421.8 -280.8,420.6  "/>
	<polygon points="-280.8,433.8 -280.8,433.4 -282,434.6 -282,434.7 -281.7,434.7  "/>
	<polygon points="-280.8,429 -282,430.2 -282,430.6 -280.8,429.4  "/>
	<polygon points="-280.8,431.2 -282,432.4 -282,432.8 -280.8,431.6  "/>
	<polygon points="-280.8,424.6 -282,425.8 -282,426.2 -280.8,425  "/>
	<polygon points="-280.8,426.8 -282,428 -282,428.4 -280.8,427.2  "/>
	<polygon points="-280.8,407.5 -282,408.7 -282,410.5 -280.8,409.3  "/>
	<polygon points="-280.8,409.7 -282,410.9 -282,412.7 -280.8,411.5  "/>
	<polygon points="-280.8,411.9 -282,413.1 -282,414.9 -280.8,413.7  "/>
	<polygon points="-280.8,414 -282,415.2 -282,417 -280.8,415.8  "/>
	<polygon points="-280.8,416.2 -282,417.4 -282,419.2 -280.8,418  "/>
	<polygon points="-280.8,418.4 -282,419.6 -282,421.4 -280.8,420.2  "/>
	<polygon points="-280.8,420.6 -282,421.8 -282,423.6 -280.8,422.4  "/>
	<polygon points="-280.8,422.8 -282,424 -282,425.8 -280.8,424.6  "/>
	<polygon points="-280.8,425 -282,426.2 -282,428 -280.8,426.8  "/>
	<polygon points="-280.8,427.2 -282,428.4 -282,430.2 -280.8,429  "/>
	<polygon points="-280.8,429.4 -282,430.6 -282,432.4 -280.8,431.2  "/>
	<polygon points="-280.8,431.6 -282,432.8 -282,434.6 -280.8,433.4  "/>
	<polygon points="-281.7,434.7 -280.8,434.7 -280.8,433.8  "/>
	<polygon points="-253.2,414.9 -252,413.7 -252,413.3 -253.2,414.5  "/>
	<polygon points="-253.2,419.3 -252,418.1 -252,417.7 -253.2,418.9  "/>
	<polygon points="-253.2,408 -253.2,408.4 -252,407.2 -252,407.1 -252.3,407.1  "/>
	<polygon points="-253.2,423.7 -252,422.5 -252,422.1 -253.2,423.3  "/>
	<polygon points="-253.2,417.1 -252,415.9 -252,415.5 -253.2,416.7  "/>
	<polygon points="-253.2,410.5 -252,409.3 -252,409 -253.2,410.2  "/>
	<polygon points="-253.2,412.7 -252,411.5 -252,411.1 -253.2,412.3  "/>
	<polygon points="-253.2,421.5 -252,420.3 -252,419.9 -253.2,421.1  "/>
	<polygon points="-253.2,434.3 -253.2,434.7 -252,434.7 -252,433.1  "/>
	<polygon points="-253.2,425.9 -252,424.7 -252,424.3 -253.2,425.5  "/>
	<polygon points="-253.2,428.1 -252,426.9 -252,426.5 -253.2,427.7  "/>
	<polygon points="-253.2,432.5 -252,431.3 -252,430.9 -253.2,432.1  "/>
	<polygon points="-253.2,430.3 -252,429.1 -252,428.7 -253.2,429.9  "/>
	<polygon points="-252.3,407.1 -253.2,407.1 -253.2,408  "/>
	<polygon points="-253.2,410.2 -252,409 -252,407.2 -253.2,408.4  "/>
	<polygon points="-253.2,412.3 -252,411.1 -252,409.3 -253.2,410.5  "/>
	<polygon points="-253.2,414.5 -252,413.3 -252,411.5 -253.2,412.7  "/>
	<polygon points="-253.2,416.7 -252,415.5 -252,413.7 -253.2,414.9  "/>
	<polygon points="-253.2,418.9 -252,417.7 -252,415.9 -253.2,417.1  "/>
	<polygon points="-253.2,421.1 -252,419.9 -252,418.1 -253.2,419.3  "/>
	<polygon points="-253.2,423.3 -252,422.1 -252,420.3 -253.2,421.5  "/>
	<polygon points="-253.2,425.5 -252,424.3 -252,422.5 -253.2,423.7  "/>
	<polygon points="-253.2,427.7 -252,426.5 -252,424.7 -253.2,425.9  "/>
	<polygon points="-253.2,429.9 -252,428.7 -252,426.9 -253.2,428.1  "/>
	<polygon points="-253.2,432.1 -252,430.9 -252,429.1 -253.2,430.3  "/>
	<polygon points="-253.2,434.3 -252,433.1 -252,431.3 -253.2,432.5  "/>
	<polygon points="-263.3,407.1 -262.9,407.1 -261.7,405.9 -263.9,405.9 -263,406.8  "/>
	<polygon points="-265.5,407.1 -265.1,407.1 -263.9,405.9 -266.1,405.9 -265.2,406.8  "/>
	<polygon points="-269.9,407.1 -269.5,407.1 -268.3,405.9 -270.5,405.9 -269.6,406.8  "/>
	<polygon points="-256.7,407.1 -256.3,407.1 -255.1,405.9 -257.3,405.9 -256.4,406.8  "/>
	<polygon points="-254.5,407.1 -254.1,407.1 -253.2,406.2 -253.2,405.9 -255.1,405.9 -254.2,406.8  "/>
	<polygon points="-258.9,407.1 -258.5,407.1 -257.3,405.9 -259.5,405.9 -258.6,406.8  "/>
	<polygon points="-261.1,407.1 -260.7,407.1 -259.5,405.9 -261.7,405.9 -260.8,406.8  "/>
	<polygon points="-280.4,407.1 -279.2,405.9 -280.8,405.9 -280.8,407.1  "/>
	<polygon points="-276.4,407.1 -276,407.1 -274.8,405.9 -277,405.9 -276.1,406.8  "/>
	<polygon points="-278.6,407.1 -278.2,407.1 -277,405.9 -279.2,405.9 -278.3,406.8  "/>
	<polygon points="-274.2,407.1 -273.8,407.1 -272.6,405.9 -274.8,405.9 -273.9,406.8  "/>
	<polygon points="-272,407.1 -271.7,407.1 -270.5,405.9 -272.6,405.9 -271.7,406.8  "/>
	<polygon points="-267.7,407.1 -267.3,407.1 -266.1,405.9 -268.3,405.9 -267.4,406.8  "/>
	<polygon points="-278.6,407.1 -278.3,406.8 -279.2,405.9 -280.4,407.1  "/>
	<polygon points="-276.4,407.1 -276.1,406.8 -277,405.9 -278.2,407.1  "/>
	<polygon points="-274.2,407.1 -273.9,406.8 -274.8,405.9 -276,407.1  "/>
	<polygon points="-272,407.1 -271.7,406.8 -272.6,405.9 -273.8,407.1  "/>
	<polygon points="-269.9,407.1 -269.6,406.8 -270.5,405.9 -271.7,407.1  "/>
	<polygon points="-267.7,407.1 -267.4,406.8 -268.3,405.9 -269.5,407.1  "/>
	<polygon points="-265.5,407.1 -265.2,406.8 -266.1,405.9 -267.3,407.1  "/>
	<polygon points="-263.3,407.1 -263,406.8 -263.9,405.9 -265.1,407.1  "/>
	<polygon points="-261.1,407.1 -260.8,406.8 -261.7,405.9 -262.9,407.1  "/>
	<polygon points="-258.9,407.1 -258.6,406.8 -259.5,405.9 -260.7,407.1  "/>
	<polygon points="-256.7,407.1 -256.4,406.8 -257.3,405.9 -258.5,407.1  "/>
	<polygon points="-254.5,407.1 -254.2,406.8 -255.1,405.9 -256.3,407.1  "/>
	<polygon points="-253.2,406.2 -254.1,407.1 -253.2,407.1  "/>
	<rect x="-282" y="405.9" width="1.2" height="1.2"/>
	<polygon points="-252.3,407.1 -252,407.1 -252,405.9 -252.9,405.9 -252,406.8  "/>
	<polygon points="-252.9,405.9 -253.2,405.9 -253.2,406.2  "/>
	<polygon points="-253.2,407.1 -252.3,407.1 -252,406.8 -252.9,405.9 -253.2,406.2  "/>
	<polygon points="-266.4,434.7 -266.8,434.7 -268,435.9 -265.8,435.9 -266.7,435  "/>
	<polygon points="-264.2,434.7 -264.6,434.7 -265.8,435.9 -263.6,435.9 -264.5,435  "/>
	<polygon points="-270.8,434.7 -271.2,434.7 -272.4,435.9 -270.2,435.9 -271.1,435  "/>
	<polygon points="-268.6,434.7 -269,434.7 -270.2,435.9 -268,435.9 -268.9,435  "/>
	<polygon points="-253.6,434.7 -254.8,435.9 -253.2,435.9 -253.2,434.7  "/>
	<polygon points="-257.6,434.7 -258,434.7 -259.2,435.9 -257,435.9 -257.9,435  "/>
	<polygon points="-259.8,434.7 -260.2,434.7 -261.4,435.9 -259.2,435.9 -260.1,435  "/>
	<polygon points="-255.4,434.7 -255.8,434.7 -257,435.9 -254.8,435.9 -255.7,435  "/>
	<polygon points="-273,434.7 -273.4,434.7 -274.6,435.9 -272.4,435.9 -273.3,435  "/>
	<polygon points="-262,434.7 -262.4,434.7 -263.6,435.9 -261.4,435.9 -262.3,435  "/>
	<polygon points="-277.3,434.7 -277.7,434.7 -278.9,435.9 -276.7,435.9 -277.6,435  "/>
	<polygon points="-275.2,434.7 -275.5,434.7 -276.7,435.9 -274.6,435.9 -275.5,435  "/>
	<polygon points="-279.5,434.7 -279.9,434.7 -280.8,435.6 -280.8,435.9 -278.9,435.9 -279.8,435  "/>
	<polygon points="-280.8,435.6 -279.9,434.7 -280.8,434.7  "/>
	<polygon points="-279.5,434.7 -279.8,435 -278.9,435.9 -277.7,434.7  "/>
	<polygon points="-277.3,434.7 -277.6,435 -276.7,435.9 -275.5,434.7  "/>
	<polygon points="-275.2,434.7 -275.5,435 -274.6,435.9 -273.4,434.7  "/>
	<polygon points="-273,434.7 -273.3,435 -272.4,435.9 -271.2,434.7  "/>
	<polygon points="-270.8,434.7 -271.1,435 -270.2,435.9 -269,434.7  "/>
	<polygon points="-268.6,434.7 -268.9,435 -268,435.9 -266.8,434.7  "/>
	<polygon points="-266.4,434.7 -266.7,435 -265.8,435.9 -264.6,434.7  "/>
	<polygon points="-264.2,434.7 -264.5,435 -263.6,435.9 -262.4,434.7  "/>
	<polygon points="-262,434.7 -262.3,435 -261.4,435.9 -260.2,434.7  "/>
	<polygon points="-259.8,434.7 -260.1,435 -259.2,435.9 -258,434.7  "/>
	<polygon points="-257.6,434.7 -257.9,435 -257,435.9 -255.8,434.7  "/>
	<polygon points="-255.4,434.7 -255.7,435 -254.8,435.9 -253.6,434.7  "/>
	<polygon points="-282,435.9 -281.1,435.9 -282,435  "/>
	<polygon points="-282,434.7 -282,435 -281.7,434.7  "/>
	<polygon points="-281.1,435.9 -280.8,435.9 -280.8,435.6  "/>
	<polygon points="-280.8,434.7 -281.7,434.7 -282,435 -282,435 -281.1,435.9 -280.8,435.6  "/>
	<rect x="-253.2" y="434.7" width="1.2" height="1.2"/>
</g>
</svg>