<?xml version="1.0" encoding="UTF-8"?>
<svg width="26px" height="28px" viewBox="0 0 26 28" version="1.1" xmlns="http://www.w3.org/2000/svg">
    <g fill="#A8AAAC">
        <path d="M0,0 L0,28 L2.64086062,28 C2.67335978,28 2.70502317,27.98957 2.73011987,27.97067 C3.38991714,27.47325 4.06401787,27.28831 5.2172244,27.28831 L11.0399455,27.2882365 C10.522729,26.8243931 15.503457,26.273422 15.503457,25.542902 C15.503457,24.7341453 10.59587,23.9048809 11.2128286,23.4394043 L4.98531273,23.4395 C3.60184219,23.4395 2.47633515,22.3615933 2.47633515,21.03668 L2.47633515,3.0926 C2.47633515,2.72470333 2.78754857,2.42536 3.17011207,2.42536 L22.5594744,2.42536 C22.9421334,2.42536 23.2534423,2.72470333 23.2534423,3.0926 L23.2534423,21.03668 C23.2534423,22.3615933 22.1277443,23.4395 20.7440827,23.4395 L14.4892494,23.4399986 C15.106208,23.9054753 15.503457,24.62614 15.503457,25.4348967 C15.503457,26.1654167 15.179349,26.8261576 14.6621325,27.2900009 L20.5125053,27.28831 C21.6655447,27.28831 22.3395977,27.4732033 22.999586,27.97067 C23.0247066,27.9895233 23.0564893,28 23.0888452,28 L25.7297297,28 L25.7297297,0 L0,0 Z" />
        <polygon points="9.08108108 23.4399986 17.4054054 23.4399986 17.4054054 27.2900009 9.08108108 27.2900009" />
    </g>
</svg>