<?xml version="1.0" encoding="UTF-8" standalone="no"?>
<svg
   xmlns:sketch="http://www.bohemiancoding.com/sketch/ns"
   xmlns:dc="http://purl.org/dc/elements/1.1/"
   xmlns:cc="http://creativecommons.org/ns#"
   xmlns:rdf="http://www.w3.org/1999/02/22-rdf-syntax-ns#"
   xmlns:svg="http://www.w3.org/2000/svg"
   xmlns="http://www.w3.org/2000/svg"
   xmlns:sodipodi="http://sodipodi.sourceforge.net/DTD/sodipodi-0.dtd"
   xmlns:inkscape="http://www.inkscape.org/namespaces/inkscape"
   width="30"
   height="30"
   viewBox="0 0 30 30"
   version="1.1"
   id="svg2"
   inkscape:version="0.91 r13725"
   sodipodi:docname="tab_monitor_busy.svg">
  <metadata
     id="metadata15">
    <rdf:RDF>
      <cc:Work
         rdf:about="">
        <dc:format>image/svg+xml</dc:format>
        <dc:type
           rdf:resource="http://purl.org/dc/dcmitype/StillImage" />
        <dc:title>Fill 1 Copy 3</dc:title>
      </cc:Work>
    </rdf:RDF>
  </metadata>
  <sodipodi:namedview
     pagecolor="#000000"
     bordercolor="#666666"
     borderopacity="1"
     objecttolerance="10"
     gridtolerance="10"
     guidetolerance="10"
     inkscape:pageopacity="0"
     inkscape:pageshadow="2"
     inkscape:window-width="1280"
     inkscape:window-height="748"
     id="namedview13"
     showgrid="false"
     showborder="true"
     inkscape:zoom="18.366667"
     inkscape:cx="15.462795"
     inkscape:cy="15.381125"
     inkscape:window-x="-8"
     inkscape:window-y="-8"
     inkscape:window-maximized="1"
     inkscape:current-layer="svg2"
     inkscape:snap-global="true"
     inkscape:object-nodes="false"
     inkscape:snap-smooth-nodes="false"
     inkscape:snap-midpoints="false"
     inkscape:snap-intersection-paths="false"
     inkscape:snap-bbox="true"
     inkscape:snap-others="false"
     inkscape:snap-nodes="false" />
  <!-- Generator: Sketch 3.4.4 (17249) - http://www.bohemiancoding.com/sketch -->
  <title
     id="title4">Fill 1 Copy 3</title>
  <desc
     id="desc6">Created with Sketch.</desc>
  <defs
     id="defs8" />
  <g
     id="Page-1"
     sketch:type="MSPage"
     style="fill:none;fill-rule:evenodd;stroke:none;stroke-width:1"
     transform="matrix(1.3157895,0,0,1.3157895,2.5,2.4999995)">
    <g
       id="HIG"
       sketch:type="MSArtboardGroup"
       transform="translate(-718,-2432)"
       style="fill:#ffffff">
      <path
         d="m 718,2432 19,0 0,0.9048 -19,0 0,-0.9048 0,0 z m 0,18.0952 1.73776,0 1.7267,-0.9047 12.13477,0 1.69775,0.9047 1.70302,0 0,0.9048 -1.70166,0 -1.69911,-0.9048 -12.13593,0 -1.72554,0.8949 L 718,2451 l 0,-0.9048 0,0 z m 18.13636,-17.1904 0.86364,0 0,17.1904 -0.86364,0 0,-17.1904 0,0 z m -18.13636,0 0.86364,0 0,17.1904 -0.86364,0 0,-17.1904 0,0 z m 2.59091,1.8095 13.81818,0 0,12.6667 -13.81818,0 0,-12.6667 0,0 z m 0.86364,0.9047 12.0909,0 0,10.8572 -12.0909,0 0,-10.8572 0,0 z m 4.31818,0 3.45454,0 0,2.7143 -3.45454,0 0,-2.7143 0,0 z m -2.59091,9.9524 8.63636,0 0,0.9048 -8.63636,0 0,-0.9048 0,0 z m 3.45454,-7.2381 1.72728,0 0,0.9048 -1.72728,0 0,-0.9048 0,0 z"
         id="Fill-1-Copy-3"
         sketch:type="MSShapeGroup"
         inkscape:connector-curvature="0" />
    </g>
  </g>
  <circle
     style="fill:#0ca9e3;fill-opacity:1"
     id="path3337"
     cx="22.5"
     cy="7.5"
     r="7.5" />
  <circle
     style="opacity:1;fill:#ffffff;fill-opacity:1;stroke:none;stroke-opacity:1"
     id="path4759"
     cx="22.5"
     cy="7.5"
     r="1.5" />
  <circle
     r="1.5"
     cy="7.5"
     cx="18.5"
     id="circle4761"
     style="opacity:1;fill:#ffffff;fill-opacity:1;stroke:none;stroke-opacity:1" />
  <circle
     style="opacity:1;fill:#ffffff;fill-opacity:1;stroke:none;stroke-opacity:1"
     id="circle4763"
     cx="26.5"
     cy="7.5"
     r="1.5" />
</svg>
