<?xml version="1.0" encoding="UTF-8"?>
<svg width="35px" height="28px" viewBox="0 0 35 28" version="1.1" xmlns="http://www.w3.org/2000/svg">
    <path d="M26,0 L0,0 L0,28 L2.73151751,28 C3.13618677,27.6 3.74319066,27.3 4.45136187,27.3 L21.5486381,27.3 C22.2568093,27.3 22.8638132,27.6 23.2684825,28 L26,28 L26,0 Z M23.5719844,21 C23.5719844,22.3 22.459144,23.4 21.1439689,23.4 L4.95719844,23.4 C3.64202335,23.4 2.52918288,22.3 2.52918288,21 L2.52918288,3.1 C2.52918288,2.7 2.83268482,2.4 3.23735409,2.4 L22.8638132,2.4 C23.2684825,2.4 23.5719844,2.7 23.5719844,3.1 L23.5719844,21 Z" />
</svg>