<svg xmlns="http://www.w3.org/2000/svg" viewBox="0 0 30 30">
    <path d="M15.658 26.184h10.526V27.5H15.658v-1.316zm0-2.631h9.21v1.315h-9.21v-1.315zm0-2.632h7.895v1.316h-7.895V20.92zm0-2.632h6.58v1.316h-6.58V18.29zm0-2.631h5.263v1.316h-5.263v-1.316zm0-2.632h3.947v1.316h-3.947v-1.316zm0-2.631h2.632v1.316h-2.632v-1.316zm0-2.632h5.263V9.08h-5.263V7.763zm0-2.631h7.895v1.315h-7.895V5.132zm0-2.632h10.526v1.316H15.658V2.5zm-11.842 0l7.895 8.553L3.816 27.5h10.526v-25H3.816z" fill="#fff" fill-rule="evenodd"/>
</svg>
