<?xml version="1.0" encoding="UTF-8"?>
<svg width="18px" height="18px" viewBox="0 0 18 18" version="1.1" xmlns="http://www.w3.org/2000/svg" xmlns:xlink="http://www.w3.org/1999/xlink">
    <!-- Generator: Sketch 46.2 (44496) - http://www.bohemiancoding.com/sketch -->
    <title>unknown</title>
    <desc>Created with Sketch.</desc>
    <defs>
        <rect id="path-1" x="0" y="0" width="16" height="16" rx="8"></rect>
    </defs>
    <g id="Symbols" stroke="none" stroke-width="1" fill="none" fill-rule="evenodd">
        <g id="unknown">
            <g id="Group-3" transform="translate(1.000000, 1.000000)">
                <g id="Rectangle-45-Copy-158">
                    <use fill="#8B9595" fill-rule="evenodd" xlink:href="#path-1"></use>
                    <rect stroke="#272C30" stroke-width="1" x="-0.5" y="-0.5" width="17" height="17" rx="8.5"></rect>
                </g>
            </g>
            <g id="Group" transform="translate(6.000000, 3.500000)" fill="#FFFFFF">
                <path d="M3.01314973,0 C1.28951337,0 0.533377003,1.015 0.236104275,1.61977273 C-0.0111684519,2.1225 -0.00298663369,2.55659091 0.00133154813,2.63840909 L1.58996791,2.55795455 L1.590877,2.58181818 C1.590877,2.58068182 1.59383155,2.46363636 1.66383155,2.32136364 C1.90542246,1.82977273 2.34678609,1.59068182 3.01314973,1.59068182 C3.47019518,1.59068182 3.81746791,1.71659091 4.07496791,1.975 C4.47655882,2.37840909 4.555877,2.98522727 4.55519518,3.12568182 C4.55428609,3.31159091 4.48974064,4.27045455 3.30564973,4.88590909 C2.31792246,5.39909091 1.75155882,6.40568182 1.75155882,7.64727273 L1.75201337,8.12113636 L3.34292246,8.11795455 L3.34246791,7.64727273 C3.34246791,7.19659091 3.46314973,6.59659091 4.03883155,6.2975 C6.03474064,5.26045455 6.14428609,3.47977273 6.145877,3.13340909 C6.148377,2.64090909 5.95224064,1.60636364 5.20246791,0.852727273 C4.64724064,0.295 3.89019518,0 3.01314973,0 Z" id="Path"></path>
                <polygon id="Path" points="1.81818182 10.8863636 3.40909091 10.8863636 3.40909091 9.63636364 1.81818182 9.63636364"></polygon>
            </g>
        </g>
    </g>
</svg>