<?xml version="1.0" encoding="UTF-8" standalone="no"?>
<svg
   xmlns:sketch="http://www.bohemiancoding.com/sketch/ns"
   xmlns:dc="http://purl.org/dc/elements/1.1/"
   xmlns:cc="http://creativecommons.org/ns#"
   xmlns:rdf="http://www.w3.org/1999/02/22-rdf-syntax-ns#"
   xmlns:svg="http://www.w3.org/2000/svg"
   xmlns="http://www.w3.org/2000/svg"
   xmlns:sodipodi="http://sodipodi.sourceforge.net/DTD/sodipodi-0.dtd"
   xmlns:inkscape="http://www.inkscape.org/namespaces/inkscape"
   width="30"
   height="30"
   viewBox="0 0 30 30"
   version="1.1"
   id="svg2"
   inkscape:version="0.91 r13725"
   sodipodi:docname="tab_monitor_unavailable.svg">
  <metadata
     id="metadata15">
    <rdf:RDF>
      <cc:Work
         rdf:about="">
        <dc:format>image/svg+xml</dc:format>
        <dc:type
           rdf:resource="http://purl.org/dc/dcmitype/StillImage" />
        <dc:title>Fill 1 Copy 3</dc:title>
      </cc:Work>
    </rdf:RDF>
  </metadata>
  <sodipodi:namedview
     pagecolor="#000000"
     bordercolor="#666666"
     borderopacity="1"
     objecttolerance="10"
     gridtolerance="10"
     guidetolerance="10"
     inkscape:pageopacity="0"
     inkscape:pageshadow="2"
     inkscape:window-width="1920"
     inkscape:window-height="1148"
     id="namedview13"
     showgrid="false"
     showborder="true"
     inkscape:zoom="12.987195"
     inkscape:cx="14.346643"
     inkscape:cy="15.151358"
     inkscape:window-x="-8"
     inkscape:window-y="-8"
     inkscape:window-maximized="1"
     inkscape:current-layer="svg2"
     inkscape:snap-global="true"
     inkscape:object-nodes="false"
     inkscape:snap-smooth-nodes="false"
     inkscape:snap-midpoints="false"
     inkscape:snap-intersection-paths="false"
     inkscape:snap-bbox="true"
     inkscape:snap-others="false"
     inkscape:snap-nodes="false" />
  <!-- Generator: Sketch 3.4.4 (17249) - http://www.bohemiancoding.com/sketch -->
  <title
     id="title4">Fill 1 Copy 3</title>
  <desc
     id="desc6">Created with Sketch.</desc>
  <defs
     id="defs8" />
  <g
     id="Page-1"
     sketch:type="MSPage"
     style="fill:none;fill-rule:evenodd;stroke:none;stroke-width:1"
     transform="matrix(1.3157895,0,0,1.3157895,2.5,2.4999995)">
    <g
       id="HIG"
       sketch:type="MSArtboardGroup"
       transform="translate(-718,-2432)"
       style="fill:#ffffff">
      <path
         d="m 718,2432 19,0 0,0.9048 -19,0 0,-0.9048 0,0 z m 0,18.0952 1.73776,0 1.7267,-0.9047 12.13477,0 1.69775,0.9047 1.70302,0 0,0.9048 -1.70166,0 -1.69911,-0.9048 -12.13593,0 -1.72554,0.8949 L 718,2451 l 0,-0.9048 0,0 z m 18.13636,-17.1904 0.86364,0 0,17.1904 -0.86364,0 0,-17.1904 0,0 z m -18.13636,0 0.86364,0 0,17.1904 -0.86364,0 0,-17.1904 0,0 z m 2.59091,1.8095 13.81818,0 0,12.6667 -13.81818,0 0,-12.6667 0,0 z m 0.86364,0.9047 12.0909,0 0,10.8572 -12.0909,0 0,-10.8572 0,0 z m 4.31818,0 3.45454,0 0,2.7143 -3.45454,0 0,-2.7143 0,0 z m -2.59091,9.9524 8.63636,0 0,0.9048 -8.63636,0 0,-0.9048 0,0 z m 3.45454,-7.2381 1.72728,0 0,0.9048 -1.72728,0 0,-0.9048 0,0 z"
         id="Fill-1-Copy-3"
         sketch:type="MSShapeGroup"
         inkscape:connector-curvature="0" />
    </g>
  </g>
  <circle
     style="fill:#7f7f7f;fill-opacity:1"
     id="path3337"
     cx="22.5"
     cy="7.5"
     r="7.5" />
  <g
     style="font-style:normal;font-weight:normal;font-size:10.78604317px;line-height:125%;font-family:sans-serif;letter-spacing:0px;word-spacing:0px;fill:#000000;fill-opacity:1;stroke:none;stroke-width:1px;stroke-linecap:butt;stroke-linejoin:miter;stroke-opacity:1"
     id="text3339">
    <path
       d="m 25.53769,5.6750499 q 0,0.5319289 -0.157999,0.9427255 -0.152732,0.4055299 -0.43713,0.7057274 -0.284397,0.3001975 -0.68466,0.5371955 -0.394997,0.236998 -0.895326,0.4318631 l 0,1.2007899 -1.853851,0 0,-1.7748518 q 0.37393,-0.1000658 0.674127,-0.2053983 0.305464,-0.1053324 0.637262,-0.3423305 0.31073,-0.2106649 0.484529,-0.4897959 0.179065,-0.279131 0.179065,-0.6319947 0,-0.5266622 -0.34233,-0.7478604 -0.337064,-0.2264648 -0.953259,-0.2264648 -0.379197,0 -0.85846,0.1632653 -0.473996,0.1632653 -0.868992,0.4213298 l -0.210665,0 0,-1.6063199 q 0.337064,-0.1421988 1.037524,-0.2949308 0.700461,-0.1579987 1.421988,-0.1579987 1.300856,0 2.064517,0.5740619 0.76366,0.5740618 0.76366,1.5009874 z M 23.51004,11.6 l -2.127715,0 0,-1.390388 2.127715,0 0,1.390388 z"
       style="font-style:normal;font-variant:normal;font-weight:bold;font-stretch:normal;font-family:Verdana;-inkscape-font-specification:'Verdana Bold';fill:#ffffff"
       id="path4144" />
  </g>
</svg>
