<svg xmlns="http://www.w3.org/2000/svg" viewBox="0 0 30 30">
    <path d="M2.5 2.5h25v1.19h-25V2.5zm0 23.81h2.287l2.272-1.19h15.966l2.234 1.19H27.5v1.19h-2.239l-2.236-1.19H7.057l-2.27 1.177L2.5 27.5v-1.19zM26.364 3.69H27.5v22.62h-1.136V3.69zM2.5 3.69h1.136v22.62H2.5V3.69zm3.41 2.381h18.18v16.667H5.91V6.071zm1.135 1.19h15.91v14.287H7.045V7.262zm5.682 0h4.546v3.572h-4.546V7.262zM9.318 20.358h11.364v1.19H9.318v-1.19zm4.546-9.524h2.272v1.19h-2.272v-1.19z" fill="#fff" fill-rule="evenodd"/>
    <circle cx="22.5" cy="7.5" r="7.5" fill="#7f7f7f"/>
    <path d="M25.538 5.675q0 .532-.158.943-.153.405-.437.706-.285.3-.685.537-.395.237-.895.432v1.2h-1.854V7.718q.374-.1.674-.205.305-.105.637-.342.31-.21.485-.49.179-.28.179-.632 0-.527-.343-.748-.337-.226-.953-.226-.38 0-.858.163-.474.163-.87.421h-.21V4.053q.337-.142 1.038-.295.7-.158 1.422-.158 1.3 0 2.064.574t.764 1.501zM23.51 11.6h-2.128v-1.39h2.128v1.39z" style="-inkscape-font-specification:'Verdana Bold'" font-weight="700" font-family="Verdana" fill="#fff" font-size="10.786" letter-spacing="0" word-spacing="0"/>
</svg>
