<?xml version="1.0" encoding="UTF-8" standalone="no"?>
<svg
   xmlns:sketch="http://www.bohemiancoding.com/sketch/ns"
   xmlns:dc="http://purl.org/dc/elements/1.1/"
   xmlns:cc="http://creativecommons.org/ns#"
   xmlns:rdf="http://www.w3.org/1999/02/22-rdf-syntax-ns#"
   xmlns:svg="http://www.w3.org/2000/svg"
   xmlns="http://www.w3.org/2000/svg"
   xmlns:sodipodi="http://sodipodi.sourceforge.net/DTD/sodipodi-0.dtd"
   xmlns:inkscape="http://www.inkscape.org/namespaces/inkscape"
   width="30"
   height="30"
   viewBox="0 0 30 30"
   version="1.1"
   id="svg2"
   inkscape:version="0.91 r13725"
   sodipodi:docname="tab_settings.svg">
  <metadata
     id="metadata15">
    <rdf:RDF>
      <cc:Work
         rdf:about="">
        <dc:format>image/svg+xml</dc:format>
        <dc:type
           rdf:resource="http://purl.org/dc/dcmitype/StillImage" />
        <dc:title>Rectangle 2365 Copy 3</dc:title>
      </cc:Work>
    </rdf:RDF>
  </metadata>
  <sodipodi:namedview
     pagecolor="#000000"
     bordercolor="#666666"
     borderopacity="1"
     objecttolerance="10"
     gridtolerance="10"
     guidetolerance="10"
     inkscape:pageopacity="0"
     inkscape:pageshadow="2"
     inkscape:window-width="1052"
     inkscape:window-height="981"
     id="namedview13"
     showgrid="false"
     inkscape:zoom="12.421053"
     inkscape:cx="8.5"
     inkscape:cy="9.5"
     inkscape:window-x="0"
     inkscape:window-y="0"
     inkscape:window-maximized="0"
     inkscape:current-layer="svg2" />
  <!-- Generator: Sketch 3.4.4 (17249) - http://www.bohemiancoding.com/sketch -->
  <title
     id="title4">Rectangle 2365 Copy 3</title>
  <desc
     id="desc6">Created with Sketch.</desc>
  <defs
     id="defs8" />
  <g
     id="Page-1"
     sketch:type="MSPage"
     style="fill:#ffffff;fill-rule:evenodd;stroke:none;stroke-width:1"
     transform="matrix(1.3157895,0,0,1.3157895,3.816,2.4999995)">
    <g
       id="HIG"
       sketch:type="MSArtboardGroup"
       transform="translate(-427,-2432)"
       style="fill:#ffffff">
      <path
         d="m 436,2450 8,0 0,1 -8,0 0,-1 z m 0,-2 7,0 0,1 -7,0 0,-1 z m 0,-2 6,0 0,1 -6,0 0,-1 z m 0,-2 5,0 0,1 -5,0 0,-1 z m 0,-2 4,0 0,1 -4,0 0,-1 z m 0,-2 3,0 0,1 -3,0 0,-1 z m 0,-2 2,0 0,1 -2,0 0,-1 z m 0,-2 4,0 0,1 -4,0 0,-1 z m 0,-2 6,0 0,1 -6,0 0,-1 z m 0,-2 8,0 0,1 -8,0 0,-1 z m -9,0 6,6.5 -6,12.5 8,0 0,-19 -8,0 z"
         id="Rectangle-2365-Copy-3"
         sketch:type="MSShapeGroup"
         style="fill:#ffffff"
         inkscape:connector-curvature="0" />
    </g>
  </g>
</svg>
