<?xml version="1.0" encoding="utf-8"?>
<!-- Generator: Adobe Illustrator 16.2.0, SVG Export Plug-In . SVG Version: 6.00 Build 0)  -->
<!DOCTYPE svg PUBLIC "-//W3C//DTD SVG 1.1//EN" "http://www.w3.org/Graphics/SVG/1.1/DTD/svg11.dtd">
<svg version="1.1" xmlns="http://www.w3.org/2000/svg" xmlns:xlink="http://www.w3.org/1999/xlink" x="0px" y="0px" width="30px"
	 height="30px" viewBox="0 0 30 30" enable-background="new 0 0 30 30" xml:space="preserve">
<g id="frame_30x30" display="none">
	<rect display="inline" width="30" height="30"/>
</g>
<g id="frame_24x24" display="none">
	<rect x="3" y="3" display="inline" fill="#BCBEC0" width="24" height="24"/>
</g>
<g id="icon">
	<path fill="#FFFFFF" d="M3,27h24l-6-16.001l0.849-2.262l0.348-0.929l0.001,0L24,2.999H6l3,8l-1.684,4.493H3v1
		h3.94l-0.005,0.015L3,27z M11.424,16.492v2.492l5.18-2.993L11.424,13v2.492H8.383l1.553-4.142l0.132-0.351l-0.132-0.351
		L9.122,8.477L8.863,7.788L8.772,7.543h0L7.443,3.999h15.114l-1.328,3.544l-0.221,0.588l-0.13,0.345v0l-0.814,2.171l-0.132,0.351
		l0.132,0.351l1.7,4.534l0.35,0.931L25.557,26H4.443l3.443-9.183l0.122-0.325H11.424z"/>
</g>
</svg>
