<?xml version="1.0" encoding="utf-8"?>
<!-- Generator: Adobe Illustrator 16.2.0, SVG Export Plug-In . SVG Version: 6.00 Build 0)  -->
<!DOCTYPE svg PUBLIC "-//W3C//DTD SVG 1.1//EN" "http://www.w3.org/Graphics/SVG/1.1/DTD/svg11.dtd">
<svg version="1.1" id="Layer_1" xmlns="http://www.w3.org/2000/svg" xmlns:xlink="http://www.w3.org/1999/xlink" x="0px" y="0px"
	 width="30px" height="30px" viewBox="0 0 30 30" enable-background="new 0 0 30 30" xml:space="preserve">
<g id="frame_30x30" display="none">
	<rect display="inline" width="30" height="30"/>
</g>
<g id="frame_24x24" display="none">
	<rect x="3" y="3" display="inline" fill="#BCBEC0" width="24" height="24"/>
</g>
<g id="icon">
	<path fill="#FFFFFF" d="M15.002,8.724H15l0,0c0,0,0,0-0.002,0C9.239,8.724,4.408,11.39,3,14.999
		c1.407,3.61,6.238,6.276,11.998,6.276c5.762,0,10.596-2.666,12.002-6.276C25.594,11.39,20.762,8.725,15.002,8.724z M19.23,14.954
		c0,2.332-1.898,4.229-4.23,4.229s-4.229-1.896-4.229-4.229s1.897-4.23,4.229-4.23c0,0,0,0,0.002,0
		C17.332,10.724,19.23,12.622,19.23,14.954z M15,9.72"/>
</g>
</svg>
