<?xml version="1.0" encoding="UTF-8"?>
<svg width="24" height="14" viewBox="0 0 24 14" xmlns="http://www.w3.org/2000/svg">
    <path d="M12.002 0L12 0 12 0C12 0 12 0 11.998 0 6.239 0 1.408 2.974 0 6.999 1.407 11.026 6.238 14 11.998 14 17.76 14 22.594 11.026 24 6.999 22.594 2.974 17.762 0.001 12.002 0ZM11.998 13C6.93 13 2.487 10.679 1 7.305 2.129 4.744 4.964 2.792 8.481 2 7.413 3.034 6.728 4.513 6.728 6.177 6.728 9.293 9.087 11.82 11.999 11.82 14.914 11.82 17.272 9.293 17.272 6.177 17.272 4.514 16.588 3.035 15.52 2.002 19.038 2.794 21.872 4.745 23 7.305 21.515 10.679 17.07 13 11.998 13Z" />
</svg>