<?xml version="1.0" encoding="UTF-8"?>
<svg width="24" height="24" viewBox="0 0 24 24" xmlns="http://www.w3.org/2000/svg">
    <path d="M12.002 5L12 5 12 5C12 5 12 5 11.998 5 6.239 5 1.408 7.974 0 11.999 1.407 16.026 6.238 19 11.998 19 17.76 19 22.594 16.026 24 11.999 22.594 7.974 17.762 5.001 12.002 5ZM11.998 18C6.93 18 2.487 15.679 1 12.305 2.129 9.744 4.964 7.792 8.481 7 7.413 8.034 6.728 9.513 6.728 11.177 6.728 14.293 9.087 16.82 11.999 16.82 14.914 16.82 17.272 14.293 17.272 11.177 17.272 9.514 16.588 8.035 15.52 7.002 19.038 7.794 21.872 9.745 23 12.305 21.515 15.679 17.07 18 11.998 18Z"/>
</svg>