<?xml version="1.0" encoding="UTF-8"?>
<svg width="24px" height="14px" viewBox="0 0 24 14" version="1.1" xmlns="http://www.w3.org/2000/svg" xmlns:xlink="http://www.w3.org/1999/xlink">
    <!-- Generator: Sketch 46.2 (44496) - http://www.bohemiancoding.com/sketch -->
    <title>Path</title>
    <desc>Created with Sketch.</desc>
    <defs></defs>
    <g id="Visual-design" stroke="none" stroke-width="1" fill="none" fill-rule="evenodd">
        <g id="01-Default-theme---Prepare---Custom" transform="translate(-998.000000, -82.000000)" fill="#CFCFCF">
            <g id="Group-3" transform="translate(984.000000, 62.000000)">
                <g id="Group-7-Copy">
                    <path d="M26.002,20 L26,20 L26,20 C26,20 26,20 25.998,20 C20.239,20 15.408,22.97355 14,26.9988846 C15.407,31.02645 20.238,34 25.998,34 C31.76,34 36.594,31.02645 38,26.9988846 C36.594,22.97355 31.762,20.0011154 26.002,20 Z M25.9984878,33 C20.9297072,33 16.4869633,30.6787011 15,27.3052095 C16.129084,24.7443343 18.9638913,22.7921122 22.4811896,22 C21.4125922,23.0338468 20.728085,24.5133915 20.728085,26.1774747 C20.728085,29.2930442 23.0870641,31.820465 25.9994959,31.820465 C28.913944,31.820465 31.271915,29.2930442 31.271915,26.1774747 C31.271915,24.5144707 30.5884159,23.0349259 29.5198185,22.0021583 C33.0381249,22.7942706 35.8719241,24.7454135 37,27.3052095 C35.5150529,30.6787011 31.0702928,33 25.9984878,33 Z" id="Path"></path>
                </g>
            </g>
        </g>
    </g>
</svg>