<?xml version="1.0" encoding="UTF-8" ?>
<svg width="20px" height="17px" viewBox="0 0 20 17" version="1.1" xmlns="http://www.w3.org/2000/svg">
    <path d="M9.552 0C8.949 0 8.403 0.308 8.097 0.83L0.23 14.256C-0.076 14.78-0.077 15.415 0.23 15.937 0.573 16.522 1.146 16.769 1.751 16.767L17.354 16.767C17.959 16.769 18.531 16.522 18.875 15.937 19.182 15.415 19.181 14.78 18.875 14.256L11.008 0.83C10.702 0.308 10.156 0 9.552 0L9.552 0ZM9.552 1.397C9.636 1.397 9.762 1.471 9.8 1.536L17.667 14.962C17.704 15.027 17.704 15.16 17.667 15.224 17.665 15.227 17.437 15.37 17.354 15.37L1.751 15.37C1.668 15.37 1.44 15.227 1.438 15.224 1.4 15.16 1.4 15.027 1.438 14.962L9.305 1.536C9.343 1.471 9.469 1.397 9.552 1.397ZM9.552 5.356C8.909 5.356 8.388 5.877 8.388 6.521L8.621 10.479C8.621 10.994 9.038 11.411 9.552 11.411 10.067 11.411 10.484 10.994 10.484 10.479L10.717 6.521C10.717 5.877 10.195 5.356 9.552 5.356ZM9.552 11.877C8.781 11.877 8.155 12.502 8.155 13.274 8.155 14.046 8.781 14.671 9.552 14.671 10.324 14.671 10.95 14.046 10.95 13.274 10.95 12.502 10.324 11.877 9.552 11.877 Z" />
</svg>