<svg xmlns="http://www.w3.org/2000/svg" viewBox="0 0 30 30">
    <path d="M17.14 23.819V20.64q0-.234-.158-.392-.16-.16-.377-.16h-3.21q-.218 0-.377.16-.158.158-.158.392v3.178q0 .234.158.393.16.159.377.159h3.21q.218 0 .377-.16.158-.158.158-.392zm-.033-6.254l.301-7.676q0-.2-.167-.318-.218-.184-.402-.184h-3.678q-.184 0-.402.184-.167.117-.167.352l.284 7.642q0 .167.168.276.167.108.4.108h3.094q.235 0 .393-.108.16-.11.176-.276zm-.234-15.619l12.842 23.545q.586 1.053-.033 2.107-.284.485-.778.77-.493.283-1.061.283H2.157q-.568 0-1.061-.284-.494-.284-.778-.77-.619-1.053-.033-2.106L13.127 1.946q.284-.518.786-.82.502-.3 1.087-.3t1.087.3q.502.302.786.82z"/>
</svg>
