<?xml version="1.0" encoding="utf-8"?>
<!-- Generator: Adobe Illustrator 18.1.0, SVG Export Plug-In . SVG Version: 6.00 Build 0)  -->
<!DOCTYPE svg PUBLIC "-//W3C//DTD SVG 1.1//EN" "http://www.w3.org/Graphics/SVG/1.1/DTD/svg11.dtd">
<svg version="1.1" id="Layer_1" xmlns:sketch="http://www.bohemiancoding.com/sketch/ns"
	 xmlns="http://www.w3.org/2000/svg" xmlns:xlink="http://www.w3.org/1999/xlink" x="0px" y="0px" viewBox="-122.4 196.9 50.3 74.1"
	 enable-background="new -122.4 196.9 50.3 74.1" xml:space="preserve">
<title>logo</title>
<desc>Created with Sketch.</desc>
<g id="homepage" sketch:type="MSPage">
	<g id="Home-menu" transform="translate(-35.000000, -37.000000)" sketch:type="MSArtboardGroup">
		<g id="hero-3" transform="translate(-792.000000, -68.000000)" sketch:type="MSLayerGroup">
			<g id="Group-2">
			</g>
		</g>
		<g id="Menu" sketch:type="MSLayerGroup">
			<g id="logo" transform="translate(35.000000, 37.845203)" sketch:type="MSShapeGroup">
				<g id="Robot" transform="translate(51.265823, 0.000000)">
					<path id="Fill-23" fill="#000000" d="M-139.9,203.6c-0.3,0-0.6,0-0.9,0.1c-0.3,0.1-0.5,0.2-0.7,0.4c0,0,0,0,0,0c0,0,0,0,0,0
						c-0.1,0.1-0.2,0.2-0.3,0.3c0,0,0,0,0,0c-0.1,0.1-0.1,0.2-0.2,0.3c0,0,0,0,0,0c0,0,0,0,0,0c-0.1,0.1-0.1,0.2-0.1,0.4
						c0,0,0,0,0,0c0,0.1,0,0.3,0,0.4c0,0.3,0.1,0.6,0.2,0.9c0.1,0.3,0.3,0.5,0.5,0.7c0.2,0.2,0.5,0.4,0.7,0.5
						c0.3,0.1,0.6,0.2,0.9,0.2c0.1,0,0.2,0,0.3,0c0,0,0.1,0,0.1,0c0.1,0,0.1,0,0.2,0c0,0,0.1,0,0.1,0c0.1,0,0.1,0,0.2-0.1
						c0,0,0,0,0.1,0c0,0,0,0,0,0c0,0,0,0,0,0c0.3-0.1,0.5-0.2,0.7-0.4c0.1-0.1,0.2-0.2,0.3-0.3c0.1-0.1,0.2-0.3,0.2-0.4
						c0.1-0.3,0.2-0.5,0.2-0.8s-0.1-0.6-0.2-0.9c-0.1-0.2-0.2-0.3-0.3-0.5c0,0,0,0,0,0c-0.1-0.1-0.1-0.1-0.2-0.2
						c-0.1-0.1-0.2-0.2-0.3-0.3c-0.1-0.1-0.3-0.2-0.4-0.2C-139.3,203.7-139.6,203.6-139.9,203.6"/>
					<path id="Fill-24" fill="#000000" d="M-138.4,211.3c-0.1-0.1-0.1-0.1-0.2-0.1c-0.1,0-0.2-0.1-0.3-0.1l-11.4-0.3
						c-0.1,0-0.2,0-0.3,0c-0.1,0-0.1,0.1-0.2,0.1c0,0,0,0,0,0c0,0,0,0,0,0c-0.1,0.1-0.1,0.1-0.1,0.2c0,0,0,0,0,0c0,0,0,0,0,0
						c0,0.1-0.1,0.1-0.1,0.2v0.7c0,0.1,0,0.2,0.1,0.3c0,0.1,0.1,0.1,0.2,0.2c0.1,0.1,0.1,0.1,0.2,0.1c0.1,0,0.2,0.1,0.3,0.1
						l11.4,0.2c0.1,0,0.2,0,0.3,0c0.1,0,0.1-0.1,0.2-0.1c0.1-0.1,0.1-0.1,0.1-0.2c0-0.1,0.1-0.2,0.1-0.2v-0.6c0-0.1,0-0.2-0.1-0.2
						C-138.3,211.5-138.4,211.4-138.4,211.3"/>
					<path id="Fill-25" fill="#000000" d="M-151,207.2c0.2,0.2,0.5,0.4,0.9,0.6c0.3,0.1,0.7,0.2,1,0.2c0.1,0,0.2,0,0.4,0
						c0,0,0.1,0,0.1,0c0.1,0,0.2,0,0.3-0.1c0,0,0,0,0,0c0.1,0,0.2,0,0.2-0.1c0,0,0,0,0,0c0.1,0,0.3-0.1,0.4-0.2c0,0,0,0,0,0
						c0.1-0.1,0.3-0.2,0.4-0.3c0.2-0.2,0.4-0.5,0.6-0.8c0.1-0.3,0.2-0.6,0.2-0.9c0-0.3-0.1-0.7-0.2-1c-0.1-0.3-0.3-0.6-0.6-0.8
						c-0.2-0.2-0.5-0.4-0.8-0.6c-0.3-0.1-0.7-0.2-1-0.2c-0.4,0-0.7,0-1,0.1c-0.3,0.1-0.6,0.3-0.8,0.4c0,0-0.1,0-0.1,0.1
						c0,0-0.1,0.1-0.1,0.1c-0.1,0.1-0.1,0.1-0.2,0.2c-0.1,0.1-0.1,0.2-0.2,0.2c0,0.1-0.1,0.1-0.1,0.2c0,0,0,0,0,0c0,0,0,0,0,0
						c-0.1,0.1-0.1,0.3-0.1,0.4c0,0,0,0,0,0c0,0.1-0.1,0.3-0.1,0.5c0,0.3,0.1,0.7,0.2,1C-151.4,206.7-151.3,207-151,207.2"/>
					<path id="Fill-26" fill="#000000" d="M-139.8,235.5h0.9c0.6,0,2.1,0.3,2.1,0.3s-1.5,0.3-2.1,0.3h-0.9c0,0-0.1,0-0.1,0l-0.1,0.8
						l-0.1-0.8c-0.7-0.1-1.7-0.2-1.7-0.2s1-0.2,1.7-0.2l-0.3-1.6l-3.2-0.1l-0.2,1.9l1.9,0.1l-1.9,0.1l-0.2,1.8h0.4
						c0.9,0,3.1,0.3,3.1,0.3s-2.2,0.3-3.1,0.3h-0.4l-0.1,0.7l-0.1-0.7h-0.7c-0.9,0-3.1-0.3-3.1-0.3s2.2-0.3,3.1-0.3h0.7l-0.2-1.8
						l-4.6,0.3l-0.4,1.9l-0.4-1.9l-3.6-0.4l3.6-0.4l0.4-1.8l-5.1-0.2l9.8-0.4l-0.1-1.6l-3-0.2l-0.3,1.6l-0.3-1.6l-5.9-0.4l5.9-0.4
						l0.4-1.7l0.3,1.6l3-0.2l0.2-2.1c-0.9-0.1-1.6-0.2-1.6-0.2s0.8-0.1,1.7-0.2l0.2-1.6h-0.6c-1.1,0-3.7-0.4-3.7-0.4
						s2.6-0.4,3.7-0.4h0.7l0.1-1.2l0.1,1.2h0.6c1.1,0,3.8,0.4,3.8,0.4s-2.7,0.4-3.8,0.4h-0.5l0.2,1.5c0.4,0,0.8-0.1,1.1-0.1h1.5
						c1,0,3.7,0.4,3.7,0.4c0,0-2.6,0.4-3.7,0.4h-1.5c-0.3,0-0.7,0-1.1-0.1l0.2,2l2.5,0.7l-2.5,0.7l-0.1,1.5l3.1-0.1l0.5-3.4l0.5,3.4
						l4.2,0.5l-4.2,0.5L-139.8,235.5L-139.8,235.5L-139.8,235.5z M-150.9,227.5h1c0.7,0,2.4,0.3,2.4,0.3s-1.7,0.3-2.4,0.3h-1
						c-0.7,0-2.3-0.3-2.3-0.3S-151.6,227.5-150.9,227.5L-150.9,227.5z M-137.4,230.5h0.1c0.4,0,1.3,0.3,1.3,0.3s-0.9,0.3-1.3,0.3
						h-0.6c-0.4,0-1.3-0.3-1.3-0.3s0.9-0.3,1.3-0.3H-137.4L-137.4,230.5z M-131.8,221.6c0-0.1,0-0.1-0.1-0.2c0-0.1-0.1-0.1-0.1-0.2
						c-0.1,0-0.1-0.1-0.2-0.1c-0.1,0-0.2,0-0.3,0l-25,0.1c-0.1,0-0.2,0-0.3,0c-0.1,0-0.2,0.1-0.2,0.1c-0.1,0.1-0.1,0.1-0.2,0.2
						c0,0.1-0.1,0.2-0.1,0.2c-0.2,1.8-0.3,3.6-0.3,5.4c-0.1,1.8-0.1,3.6-0.1,5.4c0,1.8,0,3.6,0.1,5.4c0.1,1.8,0.2,3.6,0.3,5.4
						c0,0.1,0,0.2,0.1,0.2c0,0.1,0.1,0.1,0.2,0.2c0.1,0.1,0.2,0.1,0.2,0.1c0.2,0.1,6.9,0.4,6.9,0.4c0.5-0.3,1-0.6,1.5-0.8
						c0.5-0.2,1-0.4,1.6-0.6c0.3-0.1,0.5-0.2,0.8-0.2c0,0,0,0,0,0c0.2,0,0.3-0.1,0.5-0.1c0.1,0,0.2-0.1,0.3-0.1c0,0,0,0,0,0h0
						c0,0,0,0,0.1,0c0.1,0,0.1,0,0.2,0c0,0,0,0,0,0c0,0,0,0,0.1,0c0.1,0,0.2,0,0.3,0c0.1,0,0.1,0,0.2,0c0.3,0,0.6-0.1,0.8-0.1
						c0.3,0,0.5,0,0.8,0c0.1,0,0.1,0,0.2,0c0.2,0,0.4,0,0.6,0h0c0,0,0.1,0,0.1,0c0,0,0,0,0.1,0h0c0.1,0,0.3,0,0.4,0
						c0.1,0,0.2,0,0.3,0c2,0.2,3.8,1.1,3.8,1.1c0.5-0.1,6-1.3,6.1-1.3c0.1,0,0.2-0.1,0.2-0.1c0.1-0.1,0.1-0.1,0.2-0.2
						c0-0.1,0.1-0.1,0.1-0.2c0.1-1.7,0.2-3.3,0.3-5c0.1-1.7,0.1-3.3,0.1-5c0-1.7,0-3.3-0.1-5C-131.6,224.9-131.7,223.2-131.8,221.6
						L-131.8,221.6z"/>
					<path id="Fill-27" fill="#000000" d="M-149.4,233.6l0.4,1.8l4.5,0.3l-0.2-1.9L-149.4,233.6"/>
					<path id="Fill-28" fill="#000000" d="M-142.3,260.2c-0.2,0.3-0.2,2.2-0.1,2.6c0.1,0.5,2.1,0.1,2.1,0.1s-1.1-2.1,0.7-2.7
						c0.4-0.1,1.6-0.4,2.9-0.6c1.9-0.4,4.1-0.7,4.1-0.7s-1.1-0.3-2.7-0.1l-0.3,0l-0.3,0h0l-3.7,0.5
						C-141.4,259.6-142,259.8-142.3,260.2"/>
					<path id="Fill-29" fill="#000000" d="M-128.1,243.8v-1.5c0,0,0,0,0,0c0.1-0.1,0.1-0.1,0.2-0.2c0.1-0.1,0.3-0.2,0.4-0.3
						c0.1-0.1,0.1-0.2,0.1-0.3c0-0.1,0-0.2-0.1-0.4c0-0.1-0.1-0.3-0.2-0.4c-0.1-0.1-0.2-0.3-0.3-0.3c0,0-0.1-0.1-0.1-0.1v-3.2
						c0,0,0.1,0,0.1,0c0.3-0.1,0.6-0.2,0.8-0.4c0,0.1,0.1,0.1,0.1,0.2c0.2,0.3,0.5,0.6,0.7,1.1c0.2,0.4,0.4,0.9,0.5,1.5
						C-125.8,239.5-125.2,243-128.1,243.8L-128.1,243.8z M-128.1,234.4c0.3-0.1,0.8-0.2,1.1-0.3c0.1,0,0.2-0.1,0.3-0.1v0.3
						c-0.1,0-0.2,0.1-0.2,0.1c-0.4,0.2-0.9,0.4-1.2,0.5V234.4L-128.1,234.4z M-128.1,232.8c0.3,0,0.7-0.1,1.1-0.1
						c0.1,0,0.3,0,0.4-0.1v0.3c-0.1,0-0.2,0.1-0.4,0.1c-0.4,0.1-0.8,0.2-1.1,0.3V232.8L-128.1,232.8z M-128.1,231.1
						c0.4,0,1,0,1.5,0.1v0.2c-0.5,0.1-1,0.2-1.5,0.3V231.1L-128.1,231.1z M-128.1,229.4c0.3,0.1,0.7,0.1,1.1,0.2
						c0.1,0,0.3,0.1,0.4,0.1v0.3c-0.1,0-0.3,0-0.4,0c-0.4,0-0.7,0-1,0V229.4L-128.1,229.4z M-128.1,227.6c0.4,0.1,0.8,0.2,1.2,0.4
						c0.1,0,0.2,0.1,0.3,0.1v0.3c-0.1,0-0.2-0.1-0.4-0.1c-0.4-0.1-0.8-0.1-1.1-0.2V227.6L-128.1,227.6z M-128.1,221.4
						C-128.1,221.4-128,221.4-128.1,221.4c0.5,0.3,1,1.6,1.3,2.2c0.3,0.6,0.4,1.3,0.4,2.1c0,0.1,0,0.1,0,0.2c0,0.1-0.1,0.1-0.1,0.1
						c0,0-0.1,0.1-0.1,0.1c0,0-0.1,0-0.2,0c0,0-0.1,0-0.2,0s-0.1,0-0.2,0c0,0-0.1,0-0.1,0c-0.3,0-0.6,0-0.9,0L-128.1,221.4
						L-128.1,221.4z M-129.9,221.4v22.7c0,0.3-0.1,0.6-0.2,0.9c-0.1,0.3-0.3,0.5-0.5,0.7c-0.2,0.2-0.5,0.4-0.7,0.5
						c-0.3,0.1-0.6,0.2-0.9,0.2l-1.5,0.1c0,0,0,0,0,0l-0.1-0.3c-0.1-0.4-0.5-0.7-0.8-0.7l-1.6,0.1l-19,1.2c-0.4,0-0.8,0.3-0.9,0.7
						l-0.4,0.9c0,0,0,0,0,0l-1.3,0.1c-0.4,0-0.7,0-1-0.1c-0.3-0.1-0.6-0.2-0.9-0.4c-0.2-0.2-0.4-0.4-0.6-0.7
						c-0.1-0.3-0.2-0.6-0.2-0.9v-25c0-0.3,0.1-0.7,0.2-0.9c0.1-0.3,0.3-0.6,0.6-0.8c0.2-0.2,0.5-0.4,0.9-0.5
						c0.3-0.1,0.6-0.2,0.9-0.2c0,0,0.1,0,0.1,0l1.2,0c0-0.1,0-0.1,0-0.2l0-0.4c0-0.4,0.3-0.7,0.7-0.7l11.4,0.2l1.1,0l2.7,0l1.7,0
						l5.2,0.1c0.3,0,0.6,0.2,0.7,0.6c0,0.1,0,0.1,0,0.2l0,0.2c0,0,0,0.1,0,0.1l0.8,0c0.3,0,0.6,0.1,0.9,0.2c0.3,0.1,0.5,0.3,0.7,0.5
						c0.2,0.2,0.4,0.4,0.5,0.7C-130,220.7-129.9,221-129.9,221.4L-129.9,221.4L-129.9,221.4z M-137.6,255.8v-6.4c0,0,0-0.1,0-0.1
						s0,0,0-0.1c0.1,0,0.3,0,0.4,0l0,2.1c0.7-0.6,1.4-1.2,2.3-0.9c0.4,0.1,0.7,0.3,1,0.4v4.6L-137.6,255.8L-137.6,255.8z
						 M-141.1,258.1l5.5-0.6l1.7-0.2c0.3,0,0.5,0,0.7,0.1c0.2,0.1,0.4,0.2,0.6,0.4c0.2,0.2,0.3,0.4,0.4,0.7c0,0,0,0.1,0,0.1
						c0.1,0.2,0.1,0.5,0.1,0.8v3c-0.4,0.1-1.1,0.1-1.8,0.3c-2.4,0.3-6.1,0.8-7.4,1c-2,0.3-1.9-0.5-1.9-0.5v-2.4c0-0.3,0-0.5,0.1-0.8
						c0-0.1,0-0.1,0.1-0.2c0.1-0.3,0.2-0.6,0.4-0.8c0.2-0.2,0.4-0.4,0.6-0.6C-141.6,258.2-141.4,258.1-141.1,258.1L-141.1,258.1z
						 M-140.6,251.9c0.6,0.4,1.4,0.8,2.2,0.4l0.2-0.1l-0.4,3.7l-3.2,0.3v-6.4c0,0,0-0.1,0-0.2c0.1,0,0.2,0,0.4,0l0,3
						C-141.2,252.2-140.8,251.7-140.6,251.9L-140.6,251.9z M-131.6,262.9c0,0,0.1,0,0.1,0c0,0,0.1,0,0.1,0.1c0,0,0.1,0.1,0.1,0.1
						c0,0.1,0,0.1,0,0.2v0.4c0,0.1,0,0.1,0,0.2c0,0.1,0,0.1-0.1,0.2c0,0-0.1,0.1-0.1,0.1c0,0-0.1,0-0.1,0.1l-11.8,1.6
						c-0.1,0-0.1,0-0.2,0c0,0-0.1,0-0.1-0.1c0,0-0.1-0.1-0.1-0.1c0-0.1,0-0.1,0-0.2v-0.5c0-0.1,0-0.1,0-0.2c0-0.1,0-0.1,0.1-0.2
						c0,0,0.1-0.1,0.1-0.1c0,0,0.1-0.1,0.2-0.1l9.4-1.3l0.1,0l0.2,0l0.8-0.1l0.8-0.1L-131.6,262.9L-131.6,262.9z M-145.2,265.7
						c0,0.1,0,0.1,0,0.2c0,0.1-0.1,0.1-0.1,0.2c0,0.1-0.1,0.1-0.1,0.1c0,0-0.1,0.1-0.2,0.1l-12.6,1.7c-0.4,0-0.5-0.5-0.3-1l-7.5-6.2
						l8.2,5.7c0,0,0.1,0,0.3,0l11.9-1.6c0.1,0,0.1,0,0.2,0c0,0,0.1,0,0.1,0.1c0,0,0.1,0.1,0.1,0.1c0,0.1,0,0.1,0,0.2V265.7
						L-145.2,265.7z M-165.1,245.8c-0.1,0-0.2,0-0.2,0.1c-0.1,0-0.2,0-0.3,0.1c-0.1,0-0.1,0-0.2,0c-0.1,0-0.1,0-0.2,0c0,0,0,0,0,0
						c0,0,0,0,0,0c0,0,0,0,0,0c-0.1,0-0.2,0-0.3,0c-0.1,0-0.1,0-0.2,0h0c-0.1,0-0.2,0-0.3,0c-0.1,0-0.2,0-0.3,0c0,0,0,0,0,0
						c0,0,0,0,0,0c-0.2,0-0.4-0.1-0.6-0.1c0,0-0.1,0-0.1,0c0,0,0,0,0,0c0,0-0.1,0-0.2,0c0,0-0.1,0-0.1-0.1c0,0-0.1,0-0.1,0
						c0,0,0,0,0,0c-0.1,0-0.1,0-0.2-0.1c0,0,0,0,0,0c0,0,0,0,0,0c0,0-0.1,0-0.1,0c0,0,0,0,0,0h0c-0.1,0-0.1-0.1-0.2-0.1c0,0,0,0,0,0
						c0,0-0.1-0.1-0.1-0.1c0,0,0,0,0,0l0,0c0,0-0.1,0-0.1-0.1c0,0,0,0-0.1,0c0,0,3.1-0.1,3.1-0.1s-1.3-0.8-1.6-1.1
						c-0.5-0.5,0.7-2.9,0.8-3.2l-2.4-1.1l-0.5-0.2l0.6,0.1l2.7,0.3c-0.2-0.3-1.6-0.6-2.3-0.9c-0.3-0.1-0.4-0.2-0.3-0.3c0,0,0,0,0,0
						c0.1,0,0.3,0,0.5,0.1c0.4,0,0.9,0,1.6,0c1.4,0,2.3-0.1,2.9-0.2c0,0,0,0.1,0.1,0.1c0.2,0.4,0.4,1,0.6,1.6
						c0.2,0.6,0.4,1.2,0.4,1.8c0.1,0.6,0.1,1.2-0.1,1.7h0c-0.1,0-0.2,0-0.3,0c-0.1,0-0.2-0.1-0.4-0.1c-0.1,0-0.2-0.1-0.3-0.1
						c0,0,0,0,0,0c0,0,0,0,0,0c-0.1,0-0.2-0.1-0.3-0.1c0,0,0-0.1,0-0.2c0-0.1,0-0.2-0.1-0.2c0-0.1,0-0.2-0.1-0.3
						c0-0.1-0.1-0.2-0.1-0.2c0-0.1-0.1-0.2-0.1-0.3c-0.1-0.1-0.1-0.1-0.2-0.2c-0.1-0.1-0.1-0.1-0.2-0.1c-0.1,0-0.1,0-0.2,0
						c-0.2,0-0.3,0.1-0.4,0.2c-0.1,0.1-0.3,0.3-0.4,0.4c-0.1,0.2-0.2,0.3-0.2,0.5c-0.1,0.2-0.1,0.3-0.1,0.4c0,0.1,0.1,0.2,0.2,0.3
						c0.1,0.1,0.3,0.2,0.4,0.3c0.1,0.1,0.2,0.1,0.3,0.2c0.1,0,0.1,0.1,0.2,0.1c0.2,0.1,0.4,0.2,0.5,0.2c0,0.1,0,0.2,0,0.3
						c0,0.1,0,0.2,0,0.4c0,0.1,0,0.2-0.1,0.3c0,0.1-0.1,0.2-0.2,0.2C-165,245.7-165.1,245.8-165.1,245.8L-165.1,245.8z
						 M-163.9,235.5l0,0.3c-0.1,0-0.1,0.1-0.2,0.1c-0.7,0.4-1.5,0.6-1.6,0.6c-0.1,0-0.7,0.1-1.2,0.1c-0.3,0-0.5,0-0.7,0
						c-0.3,0-0.4,0-0.5,0c-0.1,0-0.8-0.1-1.4-0.3l0-0.4c0.6,0,1.3,0,1.4,0c0,0,0.2,0,0.5,0c0.2,0,0.4,0,0.7,0c0.6,0,1.1-0.1,1.2-0.1
						c0.2,0,0.9-0.1,1.6-0.3C-164.1,235.5-164,235.5-163.9,235.5L-163.9,235.5z M-164.2,234.4c-0.7,0.2-1.4,0.4-1.5,0.4
						c-0.1,0-0.6,0.1-1.1,0.1c-0.3,0-0.6,0-0.8,0c-0.2,0-0.3,0-0.3,0c-0.1,0-0.8-0.1-1.5-0.3c0,0-0.1,0-0.1,0l0-0.3c0,0,0.1,0,0.1,0
						c0.7,0,1.4-0.1,1.5-0.1c0,0,0.2,0,0.3,0c0.2,0,0.5,0,0.8,0c0.5,0,1-0.1,1.1-0.1c0.1,0,0.8,0,1.5,0c0.1,0,0.2,0,0.3,0l0,0.3
						C-164,234.3-164.1,234.4-164.2,234.4L-164.2,234.4z M-169.7,232.6c0.7-0.1,1.7-0.3,1.9-0.3l0.1,0l2,0c0.2,0,1.2,0.1,1.9,0.2
						v0.2c-0.7,0.1-1.7,0.3-1.9,0.3l-2,0l-0.1,0c-0.2,0-1.2-0.1-1.9-0.2V232.6L-169.7,232.6z M-163.8,231v0.3c-0.1,0-0.2,0-0.4,0
						c-0.7,0-1.5,0-1.6,0c-0.1,0-0.6,0-1.2,0c-0.3,0-0.5,0-0.7,0c-0.2,0-0.4,0-0.5,0c-0.2,0-0.9-0.1-1.6,0v-0.4
						c0.7-0.2,1.4-0.3,1.6-0.4c0,0,0.2,0,0.5,0c0.2,0,0.5,0,0.7,0c0.6,0,1.1,0,1.2,0c0.2,0,0.9,0.1,1.6,0.4
						C-164,230.9-163.9,230.9-163.8,231L-163.8,231z M-164.1,229.6c-0.7-0.2-1.6-0.2-1.7-0.2c-0.1,0-0.7-0.1-1.3-0.1
						c-0.2,0-0.4,0-0.6,0c-0.4,0-0.6,0-0.7,0l-0.6,0c-0.2,0-0.5,0-0.7,0.1V229c0.2-0.1,0.5-0.1,0.7-0.2c0.3-0.1,0.6-0.1,0.7-0.1
						c0.1,0,0.3,0,0.7,0c0.2,0,0.4,0,0.6,0c0.6,0,1.2,0.1,1.3,0.1c0.2,0,1,0.2,1.7,0.5c0.1,0,0.2,0.1,0.3,0.1v0.2
						C-163.9,229.6-164,229.6-164.1,229.6L-164.1,229.6z M-170.2,226.5c0-0.1,0-0.4,0-0.4c0.2-1.6,4.1-6,4.1-6s1.7-0.5,2.4-0.5
						c0.5,0,1,0.4,0.9,1.6c0,0.2-0.4,5-0.4,5c0,0,0,0.1-0.1,0.1c0,0-0.1,0.1-0.1,0.1c-0.7,0.6-5.9,0.6-6.4,0.5
						C-170.1,226.9-170.2,226.7-170.2,226.5L-170.2,226.5z M-151.5,257.2l0-6.5c0,0,0.1,0,0.4,0l0,2.2c0.7-0.6,1.5-1.2,2.4-1
						c0.5,0.1,0.9,0.3,1.3,0.6v4.4L-151.5,257.2L-151.5,257.2z M-154.7,253.4c0.6,0.5,1.4,0.9,2.3,0.4l0.4-0.2l-0.4,3.7l-3.5,0.4
						v-5.6l0-1c0,0,0.2,0,0.5,0l0,3.1C-155.4,253.6-155,253.2-154.7,253.4L-154.7,253.4z M-158.1,262.2c0,0,0-0.3,0.1-0.4
						c0-0.1,0-0.2,0.1-0.3c0.1-0.3,0.3-0.6,0.5-0.8c0.2-0.2,0.4-0.5,0.7-0.6c0.3-0.2,0.5-0.3,0.8-0.3l7.9-0.9c0.3,0,0.6,0,0.8,0.1
						c0.2,0.1,0.5,0.2,0.7,0.4c0.2,0.2,0.3,0.4,0.4,0.7c0,0.1,0,0.1,0.1,0.2c0.1,0.2,0.1,0.5,0.1,0.7v3.2l-0.4,0l-10.1,1.3l-0.5,0.1
						c0,0-1,0.1-1.2-0.6v-1.7c-0.4-0.3-6.4-5.2-6.4-5.2L-158.1,262.2L-158.1,262.2z M-158.8,206.5l1.2-0.1l0.5,0c0,0,0,0,0.1,0
						c0,0,0,0,0.1,0c0.1,0,0.2,0,0.3,0.1c0.6,0.4,1,1.7,1,3.4c0,2-0.6,3.6-1.3,3.6v0h0c0,0,0,0,0,0h0c0,0,0,0,0,0h0l-1.3,0l-1.6,0.1
						l-0.3,0c0,0,0,0,0.1,0c0.4-0.1,0.7-0.8,0.9-1.8c0.1-0.5,0.1-1.1,0.1-1.7c0-0.7-0.1-1.3-0.2-1.8c-0.2-1-0.6-1.6-0.9-1.6
						L-158.8,206.5L-158.8,206.5z M-153.3,196.9c0.4-0.1,0.9-0.1,0.9,0.3c0,0.4,0,1.3,0,1.8h0c-0.3,0.1-0.6,0.3-0.9,0.4V196.9
						L-153.3,196.9z M-151.5,200.9c0.3-0.1,0.7-0.2,1-0.1l8.4,0.5l2.8,0.2l0.6,0c0.3,0,0.7,0.1,1,0.2c0.3,0.1,0.6,0.3,0.8,0.5
						c0.2,0.2,0.4,0.5,0.5,0.8c0.1,0.3,0.2,0.6,0.2,0.9v10.7c0,0.3-0.1,0.6-0.2,0.9c-0.1,0.3-0.3,0.5-0.5,0.7l-3.9-0.1l-11.7-0.2
						c-0.2-0.2-0.3-0.4-0.4-0.6c-0.1-0.3-0.2-0.6-0.2-1v-11.2c0-0.3,0.1-0.7,0.2-0.9c0.1-0.3,0.3-0.5,0.6-0.7
						C-152.2,201.2-151.9,201-151.5,200.9L-151.5,200.9z M-139.3,197c0.4-0.1,0.8-0.1,0.8,0.3c0,0.5,0,1.6,0,2.1c0,0,0,0,0,0l-0.8,0
						V197L-139.3,197z M-172.7,226.4c-0.2,1.8,0.9,2.2,0.9,2.2v5.8c0,0.1,0,0.1,0,0.2l0,1.2c0,0,0,0.1,0,0.1v0.7
						c0,0-0.1,0.1-0.1,0.1c-0.4,0.4-0.7,0.9-1,1.4c-0.4,0.7-0.6,1.3-0.7,2c-0.1,0.9-0.1,1.7,0.2,2.5c0.1,0.3,0.3,0.7,0.5,1
						c0.9,1.5,2,2.5,3,3.2c1.8,1.3,5,1,5,1v6.7c-0.1,0.1-0.1,0.1-0.2,0.2c0,0-0.1,0.1-0.1,0.1c-0.2,0.2-0.3,0.3-0.5,0.5
						c0,0-0.1,0.1-0.1,0.1c-0.2,0.2-0.3,0.5-0.4,0.7c0,0.1-0.1,0.1-0.1,0.2c-0.1,0.2-0.2,0.4-0.2,0.6c0,0.1,0,0.2-0.1,0.3
						c0,0.1,0,0.1,0,0.2c0,0.2,0,0.4,0,0.6v2.1c0,0,0,0,0,0c0,0-0.1,0.1-0.1,0.1c-0.2,0.2-0.3,0.4-0.4,0.7c0,0,0,0.1,0,0.1
						c-0.1,0.3-0.1,0.5-0.1,0.8v0.4c0,0.1,0,0.3,0,0.4c0,0.1,0.1,0.3,0.1,0.4c0.1,0.1,0.1,0.3,0.2,0.4c0.1,0.1,0.2,0.3,0.3,0.4
						l6.1,5.5c0,0,0,0,0.1,0.1c0.3,0.2,0.6,0.4,0.9,0.5c0.3,0.1,0.7,0.1,1,0.1c0.1,0,0.2,0,0.3,0l12.9-1.8c0.4,0,0.7-0.2,1-0.3
						c0.4,0.1,0.7,0.1,1.1,0l11.8-1.6c0.4-0.1,0.8-0.2,1.2-0.4c0.3-0.2,0.5-0.4,0.7-0.7c0.2-0.2,0.3-0.5,0.4-0.8
						c0.1-0.3,0.1-0.5,0.1-0.8v-0.4c0-0.3-0.1-0.6-0.2-0.8c-0.1-0.3-0.3-0.5-0.5-0.8c0,0,0,0-0.1-0.1v-2.4c0-1.4-0.4-3.3-2.2-3.8
						v-6.8c0.6-0.1,3.7-0.4,3.7-2.7c0.9-0.1,3.4-0.6,4.4-4.2c0.2-0.8,0.3-1.7,0.2-2.6c-0.1-0.7-0.3-1.4-0.6-2
						c-0.2-0.5-0.5-1-0.9-1.4c-0.1-0.1-0.1-0.1-0.2-0.2v-8.3c0.2-0.1,0.8-0.4,0.8-1.7c0-0.8-1.9-5.4-2.5-6.1c-0.7-0.8-2-1.8-2.8-2.1
						c-0.2-0.1-0.4-0.2-0.5-0.2c-0.6-0.2-1.2-0.3-1.8-0.3c-0.1-0.3-0.4-0.5-0.7-0.5l-1.1,0v-2.6c1.2-0.5,1.9-1.7,1.9-3.3
						c0-0.7-0.1-2.5-1.2-3.4c-0.2-0.2-0.4-0.3-0.6-0.4v-2.5l0-0.2c0-0.6-0.1-1.1-0.3-1.6c-0.2-0.5-0.5-1-0.9-1.4
						c-0.4-0.4-0.9-0.8-1.4-1c-0.3-0.2-0.7-0.3-1-0.3V197c0-0.5-0.9-1.3-3.8-0.3c0,0,0,0,0,0c-0.4,0.1-0.6,0.5-0.6,0.8v1.7l-8.2-0.5
						c-0.4,0-0.8,0-1.2,0.1v-1.9c0-0.5-0.9-1.3-3.8-0.3c-0.4,0.1-0.7,0.5-0.7,0.8v3.9c0,0.1,0,0.3,0,0.3l-3.8,3.1
						c-0.4,0-0.9,0.1-1.5,0.2c-1.9,0.4-2.6,3.1-2.6,5.3c0,2,0.5,3.5,1.3,4.4v2.3l-3.8,1.1C-167.3,218.3-172.5,224.6-172.7,226.4
						L-172.7,226.4z"/>
					<path id="Fill-30" fill="#000000" d="M-157,265.1c0.5,0,4.2-0.5,4.2-0.5s-0.8-0.2-0.5-1.6c0.2-1,2.1-1.4,3.4-1.7
						c1.3-0.3,3.1-0.5,3.1-0.5s-1.1-0.3-2.7-0.1l-0.3,0l-0.3,0h0c0,0-5.7,0.7-7.1,1.3c-0.4,0.2-0.4,1.9-0.4,2.7
						C-157.6,265.1-157.3,265.1-157,265.1"/>
					<path id="Fill-31" fill="#000000" d="M-156,260.4c-0.6,0.1-1,0.9-1,0.9l5-0.7C-152.1,260.5-153.5,260.1-156,260.4"/>
					<path id="Fill-32" fill="#000000" d="M-138.6,258.8c0,0-1.4-0.4-2.4-0.3c-0.9,0.1-1.2,1-1.2,1
						C-141.7,259-138.7,258.8-138.6,258.8"/>
					<path id="Fill-33" fill="#000000" d="M-165.5,226.1c0,0-1.8-1-1.5-1.6c0.5-0.9,1.9-0.6,2.4-1.2c0.8-1,0.6-2.5,0.6-2.5
						s-1.7-0.3-2.2,0.3c-0.8,1-3,4.2-3.2,4.6C-170.2,226.7-165.5,226.1-165.5,226.1"/>
					<path id="Fill-34" fill="#000000" d="M-157,212.9c0.2,0,0.5-0.6,0.7-1.7c0,0-0.1,0-0.1,0c-0.1-0.1-0.3-0.1-0.4-0.2
						c-0.1,0-0.1-0.1-0.2-0.1c-0.2-0.2-0.2-0.4-0.4-0.6c-0.3-0.2-0.6-0.2-0.9-0.1c0,0-0.3,0.1-0.4-0.2c0,0.2,0,0.3,0,0.5
						c0,0.5-0.1,1.1-0.2,1.4c-0.1,0.3-0.1,0.6-0.2,0.8c0,0.1-0.1,0.2-0.1,0.3L-157,212.9C-157.1,212.9-157.1,212.9-157,212.9"/>
				</g>
			</g>
		</g>
	</g>
</g>
</svg>
