<?xml version="1.0" encoding="UTF-8" standalone="no"?>
<!-- Generator: Adobe Illustrator 18.1.1, SVG Export Plug-In . SVG Version: 6.00 Build 0)  -->

<svg
   xmlns:dc="http://purl.org/dc/elements/1.1/"
   xmlns:cc="http://creativecommons.org/ns#"
   xmlns:rdf="http://www.w3.org/1999/02/22-rdf-syntax-ns#"
   xmlns:svg="http://www.w3.org/2000/svg"
   xmlns="http://www.w3.org/2000/svg"
   xmlns:sodipodi="http://sodipodi.sourceforge.net/DTD/sodipodi-0.dtd"
   xmlns:inkscape="http://www.inkscape.org/namespaces/inkscape"
   version="1.1"
   id="Laag_1"
   x="0px"
   y="0px"
   viewBox="0 0 99.999998 21.578381"
   enable-background="new 0 0 841.9 595.3"
   xml:space="preserve"
   inkscape:version="0.91 r13725"
   sodipodi:docname="logo.svg"
   width="100"
   height="21.578381"><metadata
     id="metadata4238"><rdf:RDF><cc:Work
         rdf:about=""><dc:format>image/svg+xml</dc:format><dc:type
           rdf:resource="http://purl.org/dc/dcmitype/StillImage" /><dc:title></dc:title></cc:Work></rdf:RDF></metadata><defs
     id="defs4236" /><sodipodi:namedview
     pagecolor="#ffffff"
     bordercolor="#666666"
     borderopacity="1"
     objecttolerance="10"
     gridtolerance="10"
     guidetolerance="10"
     inkscape:pageopacity="0"
     inkscape:pageshadow="2"
     inkscape:window-width="1869"
     inkscape:window-height="1167"
     id="namedview4234"
     showgrid="false"
     fit-margin-top="0"
     fit-margin-left="0"
     fit-margin-right="0"
     fit-margin-bottom="0"
     inkscape:zoom="6.252524"
     inkscape:cx="34.820531"
     inkscape:cy="13.055339"
     inkscape:window-x="0"
     inkscape:window-y="0"
     inkscape:window-maximized="1"
     inkscape:current-layer="Laag_1" /><g
     id="g4208"
     transform="matrix(0.13444474,0,0,0.13444474,-7.6499057,-23.433718)"><polygon
       points="740.6,329.7 780.5,329.7 800.7,309.5 800.7,269.7 760.9,269.7 740.6,289.9 "
       id="polygon4210"
       style="fill:#20a6db" /><g
       id="g4212"><path
         d="m 56.9,253.7 c 0,44.3 28.1,76.1 74.4,76.1 l 70.3,0 0,-39.8 -70.3,0 c -23.4,-0.1 -34.9,-16.6 -34.9,-36.3 0,-19.7 11.5,-35.9 34.9,-36.1 l 70.3,0 0,-39.7 -70.3,0 c -46.4,-0.1 -74.4,31.4 -74.4,75.8 z"
         id="path4214"
         inkscape:connector-curvature="0"
         style="fill:#1a171b" /><path
         d="m 351.3,260.5 c 0,23.4 -16.5,35.9 -36.2,35.9 -19.7,0 -35.9,-12.5 -35.9,-35.9 l 0,-82.7 -39.9,0 0,82.7 c 0,46.3 31.5,74.3 75.8,74.3 44.3,0 76.1,-28.1 76.1,-74.3 l 0,-82.7 -39.9,0 0,82.7 z"
         id="path4216"
         inkscape:connector-curvature="0"
         style="fill:#1a171b" /><path
         d="m 625.1,177.8 c -46.3,0 -74.4,31.5 -74.4,75.8 0,44.3 28.1,76.1 74.4,76.1 l 16.4,0 0,-39.7 -16.4,0 c -23.4,-0.1 -34.9,-16.6 -34.9,-36.3 0,-19.7 11.5,-35.9 34.9,-36.1 l 37.3,0 0,52 0,20.4 0,39.8 39.9,0 0,-2.3 0,-37.5 0,-72.4 0,-32.8 0,-7 -77.2,0 z"
         id="path4218"
         inkscape:connector-curvature="0"
         style="fill:#1a171b" /><path
         d="m 429,250.1 0,79.6 39.4,0 0,-79.6 c 0,-19.7 11.5,-35.9 34.9,-36.1 l 28.8,0 0,-39.7 -28.8,0 c -46.3,0 -74.3,31.5 -74.3,75.8 z"
         id="path4220"
         inkscape:connector-curvature="0"
         style="fill:#1a171b" /></g></g><g
     id="g4222"
     transform="translate(1.94e-7,-573.72161)" /><g
     id="g4224"
     transform="translate(1.94e-7,-573.72161)" /><g
     id="g4226"
     transform="translate(1.94e-7,-573.72161)" /><g
     id="g4228"
     transform="translate(1.94e-7,-573.72161)" /><g
     id="g4230"
     transform="translate(1.94e-7,-573.72161)" /><g
     id="g4232"
     transform="translate(1.94e-7,-573.72161)" /></svg>