<svg width="12px" height="12px" viewBox="0 0 12 12" version="1.1" xmlns="http://www.w3.org/2000/svg" xmlns:xlink="http://www.w3.org/1999/xlink">
    <g id="Page-1" stroke="none" stroke-width="1" fill="none" fill-rule="evenodd">
        <path d="M4.298828,0.998047 L7.7,0.998047 L8.7,3 L12,3 L12,10 L0,10 L0,3 L3.3,3 L4.298828,0.998047 Z M6,4 C4.625211,4 3.5,5.1252 3.5,6.5 C3.5,7.8748 4.625211,9 6,9 C7.37479,9 8.5,7.8748 8.5,6.5 C8.5,5.1252 7.37479,4 6,4 Z M6,5 C6.83435,5 7.5,5.6657 7.5,6.5 C7.5,7.3343 6.83435,8 6,8 C5.165651,8 4.5,7.3343 4.5,6.5 C4.5,5.6657 5.165651,5 6,5 Z" id="Combined-Shape" fill="#0A0850" fill-rule="nonzero"></path>
    </g>
</svg>