<svg id="Layer_1" data-name="Layer 1" xmlns="http://www.w3.org/2000/svg" viewBox="0 0 300 300"><defs><style>.cls-1,.cls-6{fill:none;stroke:#061884;stroke-width:2px;}.cls-1,.cls-5,.cls-6{stroke-linecap:round;}.cls-1{stroke-miterlimit:10;}.cls-2,.cls-5{fill:#fff;}.cls-3{fill:#f3f8fe;}.cls-4{fill:#061884;}.cls-5{stroke:#f3f8fe;stroke-width:12px;}.cls-5,.cls-6{stroke-linejoin:round;}.cls-7{fill:#c5dbfb;}</style></defs><g id="Software-download"><line class="cls-1" x1="80" y1="272" x2="226" y2="272"/><path class="cls-2" d="M50,185V164.64a20.24,20.24,0,0,1,19.75-20.33,6,6,0,0,0,5.83-6v-.1A30.41,30.41,0,0,1,106,107.91c.59,0,1.22,0,2,.08h.39a6,6,0,0,0,5.64-4,60.55,60.55,0,0,1,116.17,33.24,6,6,0,0,0,5.07,7.21A20.35,20.35,0,0,1,232.48,185Z"/><path class="cls-3" d="M171,69.91A54.57,54.57,0,0,1,224.29,136a12,12,0,0,0,10.13,14.42A14.36,14.36,0,0,1,232.48,179H56V164.64A14.28,14.28,0,0,1,69.93,150.3a12,12,0,0,0,11.65-12v-.1A24.4,24.4,0,0,1,106,113.91c.45,0,1,0,1.61.07l.78,0a12,12,0,0,0,11.29-8A54.69,54.69,0,0,1,171,69.91m0-12h0A66.57,66.57,0,0,0,108.33,102c-.78,0-1.58-.09-2.38-.09a36.37,36.37,0,0,0-36.37,36.38h0v0A26.35,26.35,0,0,0,44,164.64V191H232.48A26.35,26.35,0,0,0,236,138.53a66.57,66.57,0,0,0,1.5-14.07h0A66.55,66.55,0,0,0,171,57.91Z"/><path class="cls-4" d="M171,57.91a66.55,66.55,0,0,1,66.54,66.55h0a66.57,66.57,0,0,1-1.5,14.07A26.35,26.35,0,0,1,232.48,191H44V164.64a26.35,26.35,0,0,1,25.58-26.33v0h0A36.37,36.37,0,0,1,106,101.91c.8,0,1.6,0,2.38.09A66.57,66.57,0,0,1,171,57.91h0m0-2a68.71,68.71,0,0,0-64,44l-1,0a38.42,38.42,0,0,0-38.33,36.52A28.35,28.35,0,0,0,42,164.64V191a2,2,0,0,0,2,2H232.48a28.35,28.35,0,0,0,5.9-56.09,68.55,68.55,0,0,0-67.4-81Z"/><path class="cls-5" d="M76,136.63a29.92,29.92,0,0,1,52.43-18.81"/><path class="cls-6" d="M68.42,136.73a37.32,37.32,0,0,1,65.4-23.46"/><path class="cls-7" d="M127.28,201.2a1,1,0,0,1-.92-.58,26.21,26.21,0,0,1-1.06-2.49,1,1,0,0,1,.61-1.32,1.07,1.07,0,0,1,.35-.06,1,1,0,0,1,1,.66c.3.79.63,1.57,1,2.32a1,1,0,0,1-.48,1.37A1,1,0,0,1,127.28,201.2Z"/><path class="cls-4" d="M126.26,197.77q.46,1.23,1,2.4a25.41,25.41,0,0,1-1-2.4m0-2.05a2,2,0,0,0-.71.13,2,2,0,0,0-1.21,2.63,26.82,26.82,0,0,0,1.1,2.59,2,2,0,0,0,1.85,1.16,2,2,0,0,0,.88-.21,2.06,2.06,0,0,0,1-2.73c-.35-.72-.67-1.48-1-2.24a2.06,2.06,0,0,0-1.92-1.33Z"/><path class="cls-7" d="M117.21,221.73a1,1,0,0,1-.72-.33c-.76-.84-1.52-1.74-2.24-2.66-.25-.31-.48-.62-.71-.93a50.38,50.38,0,0,1-7.49-14.2c-.14-.4-.27-.79-.39-1.19s-.25-.81-.36-1.21-.2-.72-.29-1.09l0-.12q-.17-.57-.3-1.17c-.15-.69-.3-1.38-.43-2.07l0-.12c0-.23-.09-.45-.12-.68s-.12-.63-.16-1-.1-.64-.14-1c-.2-1.45-.33-2.91-.39-4.34,0-.8-.06-1.62-.06-2.45a51.06,51.06,0,0,1,51-51h.8a51.57,51.57,0,0,1,7,.58V126a1,1,0,0,1,.62-.92,1,1,0,0,1,.38-.08,1,1,0,0,1,.71.29l22.53,22.24a1.11,1.11,0,0,1,.32.74,1.06,1.06,0,0,1-.26.75L163.82,171.3a1,1,0,0,1-.71.29,1,1,0,0,1-.38-.07,1,1,0,0,1-.62-.93V159.3a28.49,28.49,0,0,0-7-1c-.25,0-.46,0-.66,0h-.07a29,29,0,0,0-29,29c0,.49,0,1,0,1.46a.49.49,0,0,1,0,.12q0,.61.09,1.23c0,.23,0,.46.08.67a5.15,5.15,0,0,0,.1.73s0,.08,0,.12,0,.18,0,.28c.06.36.11.66.17,1s.08.39.12.57c.08.38.16.71.24,1.05a.41.41,0,0,1,0,.1c.09.34.19.69.29,1s.12.42.18.58l.06.17c.11.36.23.73.37,1.09.3.81.63,1.58,1,2.32.18.39.37.76.57,1.12s.4.73.61,1.08A12,12,0,0,0,130,203c.2.34.4.62.6.9l.07.11a.57.57,0,0,0,.1.13c.23.33.44.61.67.89a12,12,0,0,0,.79,1,1,1,0,0,1,0,1.38l-14.27,14.07a1,1,0,0,1-.71.28Z"/><path class="cls-4" d="M163.11,126l22.53,22.24.06.06-14.39,14.2-8.2,8.09v-12a29.35,29.35,0,0,0-8-1.28c-.25,0-.5,0-.75,0a30,30,0,0,0-30,30c0,.51,0,1,0,1.53a.28.28,0,0,0,0,.09c0,.43,0,.86.09,1.28,0,.24,0,.48.08.71s.06.53.11.79a2.9,2.9,0,0,0,.06.41c0,.33.1.65.17,1s.08.4.13.6q.11.52.24,1.05a.38.38,0,0,0,0,.1q.14.54.3,1.08c.06.21.12.43.2.64a.3.3,0,0,0,0,.11c.12.39.25.78.4,1.16a25.41,25.41,0,0,0,1,2.4c.18.39.38.78.59,1.16s.41.76.64,1.13.43.74.68,1.1.4.62.62.92a2.22,2.22,0,0,0,.19.27c.22.31.44.61.69.91s.52.67.81,1l-14.27,14.07c-.76-.84-1.5-1.72-2.2-2.61l-.73-1A49.49,49.49,0,0,1,107,203.29c-.13-.39-.26-.78-.38-1.17s-.24-.78-.35-1.18-.22-.8-.32-1.19-.2-.76-.29-1.15c-.15-.67-.29-1.35-.42-2,0-.26-.1-.51-.14-.77s-.11-.62-.15-.93-.1-.64-.14-1c-.19-1.4-.32-2.82-.38-4.26q-.06-1.18-.06-2.4a50,50,0,0,1,50-50h.75a50.09,50.09,0,0,1,8,.75V126m0-2a1.9,1.9,0,0,0-.77.16,2,2,0,0,0-1.23,1.84v9.69a53,53,0,0,0-5.94-.43h-.81a52.06,52.06,0,0,0-52,52c0,.84,0,1.68.07,2.5.06,1.45.19,2.94.39,4.43,0,.31.09.64.14,1s.1.66.16,1,.08.46.13.69l0,.11c.14.72.28,1.42.43,2.09.1.42.2.82.31,1.22l0,.11c.09.38.19.76.31,1.15s.23.78.35,1.19.26.81.4,1.22a51.28,51.28,0,0,0,7.6,14.43l.76,1c.74,1,1.51,1.87,2.29,2.73a2,2,0,0,0,1.43.65h0a2,2,0,0,0,1.41-.57l14.27-14.07a2,2,0,0,0,.1-2.75c-.27-.3-.5-.59-.7-.86l-.08-.1c-.22-.26-.41-.53-.59-.78l-.06-.07-.05-.07c0-.06-.07-.11-.1-.16a8.29,8.29,0,0,1-.53-.78l-.06-.1c-.23-.32-.42-.66-.59-.94a.16.16,0,0,0,0-.07c-.17-.29-.35-.6-.57-1s-.39-.74-.54-1.07a23.94,23.94,0,0,1-1-2.24l0-.05c-.11-.29-.22-.61-.34-1a1.16,1.16,0,0,0-.06-.15l0-.09c0-.13-.08-.27-.12-.4l0-.08c-.11-.36-.2-.69-.29-1a.74.74,0,0,0,0-.14c-.07-.31-.14-.61-.2-.92l0-.09c0-.17-.07-.34-.1-.51s-.12-.59-.16-.88a.5.5,0,0,0,0-.12.51.51,0,0,1,0-.13l0-.23c0-.21-.06-.42-.09-.64s-.06-.44-.07-.65c0-.41-.07-.81-.09-1.21,0-.05,0-.11,0-.16,0-.4,0-.85,0-1.37a28,28,0,0,1,28-28h.13a3.54,3.54,0,0,1,.46,0h.12a28.33,28.33,0,0,1,6,.8v10.52a2,2,0,0,0,1.23,1.85,2.07,2.07,0,0,0,.77.15,2,2,0,0,0,1.41-.57l8.2-8.09,14.39-14.2a2,2,0,0,0,.59-1.42,2,2,0,0,0-.58-1.42l-.06-.06-22.54-22.25a2,2,0,0,0-1.41-.58Z"/><path class="cls-7" d="M145.66,249.51a1,1,0,0,1-.7-.28l-22.59-22.31a1,1,0,0,1-.3-.71,1,1,0,0,1,.3-.71L145,203.21a1,1,0,0,1,.7-.29,1,1,0,0,1,.39.08,1,1,0,0,1,.61.92v11.29a27.7,27.7,0,0,0,7,1c.24,0,.43,0,.62,0h.06a29,29,0,0,0,29-29c0-.49,0-1,0-1.47a1,1,0,0,0,0-.12c0-.39,0-.79-.08-1.18s-.06-.56-.1-.82a3.63,3.63,0,0,0-.06-.48c0-.28-.06-.49-.1-.69s-.08-.47-.12-.66c-.06-.34-.11-.61-.18-.87a11.27,11.27,0,0,0-.27-1.11c-.07-.31-.15-.58-.23-.85s-.11-.38-.17-.56a4.53,4.53,0,0,0-.15-.44.42.42,0,0,1,0-.1,7.41,7.41,0,0,0-.26-.75,28.15,28.15,0,0,0-2.5-5.11c-.17-.3-.35-.58-.54-.85a7.77,7.77,0,0,0-.56-.78c-.23-.34-.44-.63-.67-.91s-.48-.63-.74-.93a1,1,0,0,1,0-1.41l14.27-14.07a1,1,0,0,1,.7-.29h0a1,1,0,0,1,.72.33,51.46,51.46,0,0,1,4.23,5.39c.21.3.43.63.63.95s.42.65.62,1,.3.47.45.73l.13.23c.43.7.81,1.4,1.13,2l.53,1c.16.31.32.65.48,1s.35.73.5,1.09c.3.64.58,1.31.85,2,.64,1.63,1.19,3.27,1.65,4.88l.24.9,0,.18c.12.43.23.89.33,1.34s.17.76.25,1.15.15.73.22,1.11c.24,1.32.42,2.61.55,3.94,0,.44.08.86.11,1.29s.07,1,.09,1.48c0,.8.06,1.62.06,2.44a51.05,51.05,0,0,1-51,51h-.74a48.26,48.26,0,0,1-7-.57v10.84a1,1,0,0,1-.61.93A1,1,0,0,1,145.66,249.51Z"/><path class="cls-4" d="M191.52,153.8a49.17,49.17,0,0,1,4.15,5.28c.21.3.42.62.62.93s.41.63.6,1,.39.64.58,1c.39.64.75,1.3,1.1,2l.52,1c.17.33.33.67.49,1s.32.68.47,1c.3.65.57,1.31.84,2q.92,2.34,1.61,4.78c.1.35.19.71.28,1.06s.22.87.32,1.31.17.74.24,1.11.15.74.22,1.11c.23,1.27.41,2.55.54,3.86,0,.42.08.84.11,1.26s.07,1,.09,1.45q.06,1.18.06,2.4a50,50,0,0,1-50,50h-.7a49,49,0,0,1-8-.75v12l-22.41-22.12-.18-.18L137.45,212l8.21-8.1v12a29,29,0,0,0,8,1.27c.23,0,.46,0,.7,0a30,30,0,0,0,30-30c0-.51,0-1,0-1.53a.41.41,0,0,0,0-.11q0-.62-.09-1.23c0-.29-.06-.58-.1-.87a4.81,4.81,0,0,0-.07-.53c0-.24-.06-.48-.11-.71s-.07-.45-.12-.67-.11-.59-.18-.88-.17-.77-.28-1.15-.15-.58-.24-.87-.11-.39-.18-.59-.1-.32-.17-.49-.18-.56-.29-.84a29.58,29.58,0,0,0-2.58-5.27c-.18-.3-.37-.6-.57-.89s-.38-.56-.59-.83-.44-.62-.68-.92-.51-.66-.79-1l0,0,14.27-14.07m0-2a2,2,0,0,0-1.4.58l-14.27,14.07a2,2,0,0,0-.6,1.42,2,2,0,0,0,.56,1.38c.2.23.41.5.66.83l0,0c.21.27.41.53.59.8l.08.1c.17.23.34.46.48.68l0,.06c.17.25.34.52.5.78a27.57,27.57,0,0,1,2.42,4.94c.11.29.19.5.24.69l.07.21c.05.12.08.22.12.33a.14.14,0,0,0,0,.06,3.31,3.31,0,0,1,.12.42l0,.11c.08.24.15.49.21.74,0,0,0,.06,0,.09a9.84,9.84,0,0,1,.24,1l0,.06c.06.25.11.49.15.74a.5.5,0,0,1,0,.12,4,4,0,0,1,.09.48l0,.17a4.51,4.51,0,0,1,.08.53s0,.06,0,.08,0,.22,0,.31,0,.11,0,.17c0,.24.07.49.09.73v.06c0,.38.07.75.09,1.13a.66.66,0,0,0,0,.14c0,.41,0,.87,0,1.4a28,28,0,0,1-28,28h-.66a26.68,26.68,0,0,1-6-.79V203.92a2,2,0,0,0-1.22-1.84,2,2,0,0,0-.78-.16,2,2,0,0,0-1.4.58l-8.21,8.1-14.38,14.19a2,2,0,0,0,0,2.84l.18.18,22.42,22.13a2,2,0,0,0,1.4.57,2.12,2.12,0,0,0,.78-.15,2,2,0,0,0,1.22-1.85v-9.69a49.73,49.73,0,0,0,6,.42h.75a52,52,0,0,0,52-52c0-.84,0-1.68-.06-2.5,0-.5-.05-1-.09-1.51s-.07-.85-.12-1.29c-.13-1.37-.31-2.68-.56-4-.07-.4-.14-.78-.23-1.15s-.16-.79-.25-1.19-.21-.9-.34-1.37l0-.13c-.08-.31-.16-.63-.25-1-.46-1.63-1-3.3-1.67-5-.27-.67-.56-1.36-.88-2.06-.15-.36-.32-.71-.48-1.06s-.35-.73-.53-1.08-.34-.68-.53-1c-.33-.62-.72-1.35-1.16-2.07l-.11-.18c-.15-.27-.31-.53-.47-.79l-.65-1c-.19-.29-.41-.63-.64-.95a51.57,51.57,0,0,0-4.3-5.48,2,2,0,0,0-1.43-.66Z"/></g></svg>