<svg width="24" height="24" viewBox="0 0 24 24" xmlns="http://www.w3.org/2000/svg">
<path fill-rule="evenodd" clip-rule="evenodd"
      d="M5 5H19V19H5V5ZM3 6C3 4.34315 4.34315 3 6 3H18C19.6569 3 21 4.34315 21 6V18C21 19.6569 19.6569 21 18 21H6C4.34315 21 3 19.6569 3 18V6ZM13.1058 7.43463L11.7891 6.7763C10.663 6.21324 9.33744 6.21324 8.21136 6.77628L7.55301 7.10546C7.05903 7.35245 6.8588 7.95312 7.10579 8.4471C7.35278 8.94108 7.95345 9.1413 8.44743 8.89431L9.10579 8.56514C9.66886 8.2836 10.3317 8.28365 10.8946 8.56515L12.2114 9.22351C13.3374 9.78654 14.6631 9.78652 15.7891 9.22348L16.4474 8.89433C16.9414 8.64735 17.1416 8.04668 16.8947 7.5527C16.6477 7.05871 16.047 6.85847 15.553 7.10545L14.8946 7.43466C14.3316 7.71616 13.6688 7.71613 13.1058 7.43463ZM11.7891 10.7763L13.1058 11.4347C13.6688 11.7162 14.3316 11.7162 14.8946 11.4347L15.553 11.1055C16.047 10.8585 16.6477 11.0587 16.8946 11.5527C17.1416 12.0467 16.9414 12.6474 16.4474 12.8943L15.7891 13.2235C14.663 13.7866 13.3374 13.7866 12.2114 13.2235L10.8946 12.5651C10.3317 12.2836 9.66887 12.2836 9.10581 12.5651L8.44745 12.8943C7.95348 13.1413 7.3528 12.9411 7.1058 12.4472C6.8588 11.9532 7.05901 11.3525 7.55298 11.1055L8.21134 10.7763C9.33743 10.2132 10.663 10.2132 11.7891 10.7763ZM13.1058 15.4347L11.7891 14.7763C10.663 14.2132 9.33743 14.2132 8.21134 14.7763L7.55298 15.1055C7.05901 15.3525 6.8588 15.9532 7.1058 16.4472C7.3528 16.9411 7.95348 17.1413 8.44745 16.8943L9.10581 16.5651C9.66887 16.2836 10.3317 16.2836 10.8946 16.5651L12.2114 17.2235C13.3374 17.7866 14.663 17.7866 15.7891 17.2235L16.4474 16.8943C16.9414 16.6474 17.1416 16.0467 16.8946 15.5527C16.6477 15.0587 16.047 14.8585 15.553 15.1055L14.8946 15.4347C14.3316 15.7162 13.6688 15.7162 13.1058 15.4347Z"/>
</svg>
