<svg viewBox="0 0 18 18" xmlns="http://www.w3.org/2000/svg">
<path d="M4 4H0V3C0 2.20435 0.316071 1.44129 0.87868 0.87868C1.44129 0.316071 2.20435 0 3 0H4V4ZM11 0H7V4H11V0ZM18 3C18 2.20435 17.6839 1.44129 17.1213 0.87868C16.5587 0.316071 15.7956 0 15 0H14V4H18V3ZM4 7H0V11H4V7ZM11 7H7V11H11V7ZM18 7H14V11H18V7ZM4 14H0V15C0 15.7956 0.316071 16.5587 0.87868 17.1213C1.44129 17.6839 2.20435 18 3 18H4V14ZM11 14H7V18H11V14ZM18 15V14H14V18H15C15.7956 18 16.5587 17.6839 17.1213 17.1213C17.6839 16.5587 18 15.7956 18 15Z" fill="#000E1A"/>
</svg>
