<?xml version="1.0" encoding="utf-8"?>
<svg version="1.1" xmlns="http://www.w3.org/2000/svg" viewBox="0 0 24 24">
<path d="M17.4,20.8l-5.4-4l-5.4,4c-0.8,0.6-1.9-0.2-1.5-1.1l2.2-6.3L2.4,9.8C1.6,9.2,2,8,3,8h6.2l1.9-5.3c0.3-0.9,1.6-0.9,1.9,0
	L14.8,8H21c1,0,1.4,1.2,0.6,1.8l-4.9,3.6l2.2,6.3C19.3,20.6,18.2,21.4,17.4,20.8z M13.7,15.6l2.3,1.7L15,14.6L13.7,15.6z M9,14.6
	L8,17.3l2.3-1.7L9,14.6z M9.7,12.6l2.3,1.7l2.3-1.7L13.4,10h-2.8L9.7,12.6z M15.5,10l0.5,1.4l1.9-1.4H15.5z M6.1,10L8,11.4L8.5,10
	H6.1z M11.3,8h1.4L12,6L11.3,8z" />
</svg>
