<svg width="24" height="24" viewBox="0 0 24 24" xmlns="http://www.w3.org/2000/svg">
<path d="M7 7H3V6C3 5.20435 3.31607 4.44129 3.87868 3.87868C4.44129 3.31607 5.20435 3 6 3H7V7ZM14 3H10V7H14V3ZM21 6C21 5.20435 20.6839 4.44129 20.1213 3.87868C19.5587 3.31607 18.7956 3 18 3H17V7H21V6ZM7 10H3V14H7V10ZM14 10H10V14H14V10ZM21 10H17V14H21V10ZM7 17H3V18C3 18.7956 3.31607 19.5587 3.87868 20.1213C4.44129 20.6839 5.20435 21 6 21H7V17ZM14 17H10V21H14V17ZM21 18V17H17V21H18C18.7956 21 19.5587 20.6839 20.1213 20.1213C20.6839 19.5587 21 18.7956 21 18Z" />
</svg>
