<svg width="48" height="48" viewBox="0 0 48 48" xmlns="http://www.w3.org/2000/svg">
<path d="M42 6.00001H6C5.7371 5.9991 5.47662 6.05021 5.23355 6.1504C4.99049 6.25058 4.76965 6.39787 4.58375 6.58377C4.39785 6.76966 4.25057 6.99051 4.15038 7.23357C4.05019 7.47663 3.99908 7.73711 4 8.00001V40C3.99908 40.2629 4.05019 40.5234 4.15038 40.7665C4.25057 41.0095 4.39785 41.2304 4.58375 41.4163C4.76965 41.6022 4.99049 41.7494 5.23355 41.8496C5.47662 41.9498 5.7371 42.0009 6 42H42C42.5299 41.9985 43.0378 41.7872 43.4125 41.4125C43.7872 41.0378 43.9984 40.53 44 40V8.00001C44.0009 7.73711 43.9498 7.47663 43.8496 7.23357C43.7494 6.99051 43.6021 6.76966 43.4162 6.58377C43.2303 6.39787 43.0095 6.25058 42.7664 6.1504C42.5234 6.05021 42.2629 5.9991 42 6.00001ZM6 8.00001H42V13H6V8.00001ZM42 40H6V15H42V40ZM11 10.5C11 10.7967 10.912 11.0867 10.7472 11.3334C10.5824 11.58 10.3481 11.7723 10.074 11.8858C9.79993 11.9994 9.49833 12.0291 9.20736 11.9712C8.91639 11.9133 8.64912 11.7705 8.43934 11.5607C8.22956 11.3509 8.0867 11.0836 8.02882 10.7926C7.97094 10.5017 8.00065 10.2001 8.11418 9.92599C8.22771 9.6519 8.41997 9.41763 8.66664 9.25281C8.91332 9.08799 9.20332 9.00001 9.5 9.00001C9.89782 9.00001 10.2794 9.15805 10.5607 9.43935C10.842 9.72066 11 10.1022 11 10.5ZM15 10.5C15 10.7967 14.912 11.0867 14.7472 11.3334C14.5824 11.58 14.3481 11.7723 14.074 11.8858C13.7999 11.9994 13.4983 12.0291 13.2074 11.9712C12.9164 11.9133 12.6491 11.7705 12.4393 11.5607C12.2296 11.3509 12.0867 11.0836 12.0288 10.7926C11.9709 10.5017 12.0006 10.2001 12.1142 9.92599C12.2277 9.6519 12.42 9.41763 12.6666 9.25281C12.9133 9.08799 13.2033 9.00001 13.5 9.00001C13.8978 9.00001 14.2794 9.15805 14.5607 9.43935C14.842 9.72066 15 10.1022 15 10.5ZM19 10.5C19 10.7967 18.912 11.0867 18.7472 11.3334C18.5824 11.58 18.3481 11.7723 18.074 11.8858C17.7999 11.9994 17.4983 12.0291 17.2074 11.9712C16.9164 11.9133 16.6491 11.7705 16.4393 11.5607C16.2296 11.3509 16.0867 11.0836 16.0288 10.7926C15.9709 10.5017 16.0006 10.2001 16.1142 9.92599C16.2277 9.6519 16.42 9.41763 16.6666 9.25281C16.9133 9.08799 17.2033 9.00001 17.5 9.00001C17.8978 9.00001 18.2794 9.15805 18.5607 9.43935C18.842 9.72066 19 10.1022 19 10.5ZM22 37H9V18H22V37ZM11 35H20V20H11V35ZM39 20H25V18H39V20ZM39 24H25V22H39V24ZM39 28H25V26H39V28ZM39 32H25V30H39V32ZM39 36H25V34H39V36Z" />
</svg>
