<?xml version="1.0" encoding="UTF-8"?>
<svg version="1.1" id="Layer_1" x="0px" y="0px" viewBox="0 0 24 24" style="enable-background:new 0 0 24 24;" xml:space="preserve" xmlns="http://www.w3.org/2000/svg" xmlns:svg="http://www.w3.org/2000/svg">
<g>
<path
   d="m 21.623816,17.375136 -4.3725,-4.38 V 9.7476157 c 6e-4,-0.09871 -0.0183,-0.19656 -0.0557,-0.28793 -0.0373,-0.09138 -0.0923,-0.17449 -0.1618,-0.24457 L 9.5338267,1.7151117 c -0.06972,-0.0703 -0.15267,-0.126092 -0.24406,-0.164168 -0.0914,-0.03808 -0.18943,-0.05768 -0.28844,-0.05768 -0.099,0 -0.19703,0.0196 -0.28843,0.05768 -0.09139,0.03808 -0.17434,0.09387 -0.24407,0.164168 l -6.749995,6.750004 c -0.0703,0.06972 -0.126092,0.15267 -0.164168,0.24406 -0.03808,0.0914 -0.05768,0.18943 -0.05768,0.28844 0,0.09901 0.0196,0.19703 0.05768,0.28843 0.03808,0.09139 0.09387,0.17434 0.164168,0.24407 l 7.499995,7.5000203 c 0.07008,0.0695 0.1532,0.1245 0.24457,0.1618 0.09138,0.0373 0.18923,0.0562 0.28793,0.0557 h 3.2549893 l 4.3725,4.38 c 0.5629,0.5629 1.3264,0.8791 2.1225,0.8791 0.7961,0 1.5596,-0.3162 2.1225,-0.8791 0.5629,-0.5629 0.8792,-1.3264 0.8792,-2.1225 0,-0.7961 -0.3163,-1.5596 -0.8792,-2.1225 z M 4.5013367,7.8051157 l 1.71749,1.725 1.06501,-1.065 -1.72501,-1.7175 1.1925,-1.1925 3.2175,3.225 1.0649893,-1.065 -3.2249893,-3.2175 1.1925,-1.1925 L 13.943816,8.2476158 8.2513266,13.940136 3.3088367,8.9976157 Z M 20.558816,20.555136 c -0.281,0.2794 -0.6612,0.4362 -1.0575,0.4362 -0.3963,0 -0.7764,-0.1568 -1.0575,-0.4362 l -4.5975,-4.59 c -0.1598,-0.1099 -0.3414,-0.1841 -0.5325,-0.2175 h -3.254989 l -0.7500003,-0.75 5.6924893,-5.6925202 0.75,0.7500002 v 3.25502 c 8e-4,0.1967 0.079,0.3853 0.2175,0.525 l 4.59,4.605 c 0.2794,0.281 0.4362,0.6612 0.4362,1.0575 0,0.3963 -0.1568,0.7764 -0.4362,1.0575 z" />
</g>
</svg>
