<svg width="24" height="24" viewBox="0 0 24 24" xmlns="http://www.w3.org/2000/svg">
<path d="M18 9.9C18.2 9.9 18.4 9.8 18.5 9.7C19 9.5 19.4 9.2 19.8 8.8C20.2 8.4 20.5 8 20.7 7.5C20.9 7 21 6.5 21 6H19C19 6.3 18.9 6.5 18.8 6.8C18.7 7 18.6 7.3 18.4 7.4C18.2 7.6 18.1 7.7 17.9 7.8C17.8 7.4 17.7 7.1 17.6 6.7C17.3 6 16.9 5.3 16.3 4.8C15.7 4.2 15.1 3.8 14.4 3.5C12.9 2.9 11.3 2.9 9.8 3.5C9 3.8 8.3 4.2 7.8 4.8C7.2 5.3 6.8 6 6.5 6.7C6.3 7.1 6.2 7.4 6.1 7.8C5.9 7.7 5.7 7.6 5.6 7.4C5.4 7.2 5.3 7 5.2 6.8C5.1 6.5 5 6.3 5 6H3C3 6.5 3.1 7 3.3 7.5C3.5 8 3.8 8.5 4.2 8.8C4.5 9.2 5 9.5 5.5 9.7C5.6 9.8 5.8 9.8 6 9.9V11H3V13H6V15V15.1C5.8 15.1 5.6 15.2 5.5 15.3C5 15.5 4.6 15.8 4.2 16.2C3.8 16.6 3.5 17 3.3 17.5C3.1 18 3 18.5 3 19H5C5 18.7 5.1 18.5 5.2 18.2C5.3 18 5.4 17.7 5.6 17.6C5.8 17.4 6 17.3 6.2 17.2C6.3 17.2 6.3 17.2 6.4 17.2C6.4 17.3 6.4 17.3 6.5 17.4C6.8 18.1 7.2 18.8 7.8 19.3C8.4 19.9 9 20.3 9.7 20.6C10.4 20.9 11.2 21 12 21C12.8 21 13.6 20.8 14.3 20.5C15 20.2 15.7 19.8 16.2 19.2C16.8 18.6 17.2 18 17.5 17.3C17.5 17.2 17.5 17.2 17.6 17.1C17.7 17.1 17.7 17.1 17.8 17.1C18 17.2 18.3 17.3 18.4 17.5C18.6 17.7 18.7 17.9 18.8 18.2C18.9 18.4 19 18.7 19 19H21C21 18.5 20.9 18 20.7 17.5C20.5 17 20.2 16.6 19.8 16.2C19.4 15.8 19 15.5 18.5 15.3C18.3 15.2 18.1 15.2 18 15.1V15V13H21V11H18V9.9ZM9.2 6.2C9.5 5.8 10 5.5 10.5 5.3C11.5 4.9 12.6 4.9 13.6 5.3C14.1 5.5 14.5 5.8 14.9 6.2C15.3 6.6 15.6 7 15.8 7.5C15.9 7.7 15.9 7.9 16 8H8.1C8.1 7.8 8.2 7.6 8.3 7.5C8.5 7 8.8 6.5 9.2 6.2ZM9.2 17.8C8.8 17.4 8.5 17 8.3 16.5C8.1 16 8 15.5 8 15V10H11V18.9C10.8 18.9 10.6 18.8 10.5 18.7C10 18.5 9.5 18.2 9.2 17.8ZM15.7 16.5C15.5 17 15.2 17.4 14.8 17.8C14.4 18.2 14 18.5 13.5 18.7C13.3 18.8 13.1 18.8 13 18.9V10H16V15C16 15.5 15.9 16 15.7 16.5Z" />
</svg>
