<?xml version="1.0" encoding="utf-8"?>
<svg width="22" height="21" viewBox="0 0 22 21" xmlns="http://www.w3.org/2000/svg">
<path d="M21.5 19.25H4.24999V20.75H21.5V19.25Z" />
<path d="M19.535 6.88249L13.5875 0.942493C13.4482 0.803029 13.2827 0.69239 13.1006 0.616904C12.9185 0.541417 12.7234 0.502563 12.5262 0.502563C12.3291 0.502563 12.1339 0.541417 11.9518 0.616904C11.7697 0.69239 11.6043 0.803029 11.465 0.942493L0.964985 11.4425C0.82552 11.5818 0.714882 11.7472 0.639395 11.9293C0.563909 12.1114 0.525055 12.3066 0.525055 12.5037C0.525055 12.7009 0.563909 12.8961 0.639395 13.0782C0.714882 13.2603 0.82552 13.4257 0.964985 13.565L4.34749 17H11.54L19.535 9.00499C19.6745 8.86568 19.7851 8.70025 19.8606 8.51815C19.9361 8.33606 19.9749 8.14087 19.9749 7.94374C19.9749 7.74662 19.9361 7.55143 19.8606 7.36933C19.7851 7.18724 19.6745 7.0218 19.535 6.88249ZM10.9175 15.5H4.99999L1.99998 12.5L6.73249 7.76749L12.68 13.7075L10.9175 15.5ZM13.7375 12.68L7.79749 6.73249L12.5 1.99999L18.5 7.94749L13.7375 12.68Z" />
</svg>
