<?xml version="1.0" encoding="iso-8859-1"?>
<svg version="1.1" xmlns="http://www.w3.org/2000/svg" xmlns:xlink="http://www.w3.org/1999/xlink" x="0px" y="0px"
	 viewBox="0 0 24 24" style="enable-background:new 0 0 24 24;" xml:space="preserve">
<g id="Layer_1">
	<g>
		<path d="M12,2C6.477,2,2,6.477,2,12v9h2v-3.018C5.824,20.417,8.723,22,12,22c5.523,0,10-4.477,10-10C22,6.477,17.523,2,12,2z
			 M12,20c-4.418,0-8-3.582-8-8s3.582-8,8-8s8,3.582,8,8S16.418,20,12,20z"/>
		<path d="M14.79,16H9.21v-1.26l1.94-2c0.4-0.41,0.71-0.75,0.95-1c0.195-0.208,0.363-0.44,0.5-0.69
			c0.099-0.202,0.15-0.425,0.15-0.65c0.022-0.232-0.072-0.46-0.25-0.61c-0.18-0.13-0.398-0.197-0.62-0.19
			c-0.286,0.002-0.568,0.074-0.82,0.21c-0.311,0.168-0.603,0.369-0.87,0.6l-1-1.2c0.233-0.203,0.476-0.394,0.73-0.57
			c0.278-0.194,0.585-0.342,0.91-0.44c0.396-0.133,0.812-0.201,1.23-0.2c0.469-0.014,0.935,0.082,1.36,0.28
			c0.358,0.166,0.663,0.43,0.88,0.76c0.206,0.326,0.314,0.704,0.31,1.09c0.004,0.414-0.085,0.824-0.26,1.2
			c-0.187,0.395-0.437,0.756-0.74,1.07c-0.33,0.35-0.74,0.74-1.21,1.18l-0.82,0.75v0.07h3.21V16z"/>
	</g>
</g>
<g id="Comments">
</g>
</svg>
