<?xml version="1.0" encoding="utf-8"?>
<svg version="1.1" xmlns="http://www.w3.org/2000/svg" viewBox="0 0 24 24">
<path d="M19.1,12c1.9-1.9,1.9-5.1,0-7.1l-0.7-0.7l-5,5c0.2-1.5-0.2-3.1-1.4-4.3C10.1,3,6.9,3,5,4.9L4.3,5.6
	l5,5C7.8,10.4,6.2,10.8,5,12c-1.9,1.9-1.9,5.1,0,7.1l0.7,0.7l5-5c-0.2,1.5,0.2,3.1,1.4,4.3c1.9,1.9,5.1,1.9,7.1,0l0.7-0.7l-5-5
	C16.4,13.6,18,13.2,19.1,12z M18.3,7.2c0.5,1.1,0.3,2.5-0.6,3.4s-2.3,1.1-3.4,0.6L18.3,7.2z M10.7,6.3c0.9,0.9,1.1,2.3,0.6,3.4l-4-4
	C8.4,5.2,9.7,5.4,10.7,6.3z M5.8,16.8c-0.5-1.1-0.3-2.5,0.6-3.4c0.9-0.9,2.3-1.1,3.4-0.6L5.8,16.8z M13.5,17.7
	c-0.9-0.9-1.1-2.3-0.6-3.4l4,4C15.8,18.8,14.4,18.6,13.5,17.7z" />
</svg>
