<svg width="24" height="24" viewBox="0 0 24 24" xmlns="http://www.w3.org/2000/svg">
<path d="M19 12C19 11.895 18.9888 11.7928 18.9843 11.6889L21.2354 9.9966L18.3525 5.0034L15.7525 6.1005C15.5837 5.9927 15.4112 5.8905 15.2325 5.7972L14.8828 3H9.11725L8.76725 5.7972C8.58555 5.8923 8.40965 5.9964 8.23725 6.1066L5.64725 5.0034L2.76465 9.9966L5.01525 11.7C5.01095 11.8 5.00005 11.8988 5.00005 12C5.00005 12.105 5.01125 12.2072 5.01575 12.3111L2.76465 14.0034L5.64755 18.9966L8.24755 17.8994C8.41635 18.0072 8.58885 18.1094 8.76755 18.2028L9.11725 21H14.8828L15.2328 18.2028C15.4145 18.1077 15.5904 18.0036 15.7628 17.8934L18.3528 18.9966L21.2357 14.0034L18.9848 12.3C18.9891 12.2 19 12.1012 19 12ZM18.62 14.5327L17.5028 16.4673L15.4513 15.6018C14.8703 16.1531 14.1649 16.5564 13.3949 16.7773L13.1172 19H10.8828L10.605 16.7773C9.8351 16.5564 9.12973 16.1531 8.54865 15.6018L6.49715 16.4673L5.38005 14.5327L7.15795 13.1865C6.94757 12.4095 6.94757 11.5905 7.15795 10.8135L5.38005 9.4673L6.49715 7.5327L8.54865 8.3982C9.12973 7.84686 9.8351 7.44364 10.605 7.2227L10.8828 5H13.1172L13.395 7.2227C14.165 7.44364 14.8704 7.84686 15.4514 8.3982L17.5029 7.5327L18.62 9.4673L16.8421 10.8135C17.0525 11.5905 17.0525 12.4095 16.8421 13.1865L18.62 14.5327Z"/>
<path d="M11 15.414L8.29297 12.707L9.70697 11.293L11 12.586L14.293 9.29297L15.707 10.707L11 15.414Z"/>
</svg>
