<svg width="24" height="24" viewBox="0 0 24 24" xmlns="http://www.w3.org/2000/svg">
<path d="M12 2C10.0222 2 8.08879 2.58649 6.4443 3.6853C4.79981 4.78412 3.51809 6.3459 2.76121 8.17317C2.00433 10.0004 1.8063 12.0111 2.19215 13.9509C2.578 15.8907 3.53041 17.6725 4.92894 19.0711C6.32746 20.4696 8.10929 21.422 10.0491 21.8079C11.9889 22.1937 13.9996 21.9957 15.8268 21.2388C17.6541 20.4819 19.2159 19.2002 20.3147 17.5557C21.4135 15.9112 22 13.9778 22 12C22 10.6868 21.7413 9.38642 21.2388 8.17317C20.7363 6.95991 19.9997 5.85752 19.0711 4.92893C18.1425 4.00035 17.0401 3.26375 15.8268 2.7612C14.6136 2.25866 13.3132 2 12 2ZM19.9309 11H16.9594C16.8101 8.655 16.0204 6.39588 14.6763 4.4685C16.0708 4.96434 17.3003 5.83742 18.228 6.99057C19.1557 8.14372 19.7452 9.5317 19.9309 11ZM9.06 13H14.94C14.7622 15.4921 13.7228 17.8448 12 19.6543C10.2772 17.8448 9.2378 15.4921 9.06 13ZM9.06 11C9.23776 8.50785 10.2772 6.15522 12 4.3457C13.7226 6.15537 14.762 8.50792 14.94 11H9.06ZM9.3241 4.4685C7.9799 6.39584 7.19008 8.65496 7.0406 11H4.0691C4.25479 9.5317 4.8443 8.14372 5.77201 6.99057C6.69972 5.83742 7.92924 4.96434 9.3237 4.4685H9.3241ZM4.0691 13H7.0406C7.18996 15.345 7.97964 17.6041 9.3237 19.5315C7.92924 19.0357 6.69972 18.1626 5.77201 17.0094C4.8443 15.8563 4.25479 14.4683 4.0691 13ZM14.6763 19.5315C16.0204 17.6041 16.8101 15.345 16.9594 13H19.9309C19.7452 14.4683 19.1557 15.8563 18.228 17.0094C17.3003 18.1626 16.0708 19.0357 14.6763 19.5315Z" />
</svg>