<svg width="24" height="24" viewBox="0 0 24 24" xmlns="http://www.w3.org/2000/svg">
<path d="M5.98284 20.8333C6.79951 20.8164 7.57846 20.4864 8.15864 19.9114L14.5224 13.5467L16.644 15.6682L21.5932 10.719L14.9359 4.06189H9.86594L7.45194 6.47589L10.2797 9.30399L3.91544 15.6682C3.62636 15.9408 3.39604 16.2696 3.23862 16.6345C3.0812 16.9993 3 17.3924 3 17.7898C3 18.1871 3.0812 18.5803 3.23862 18.9451C3.39604 19.31 3.62636 19.6388 3.91544 19.9114C4.17985 20.1968 4.49937 20.4257 4.85471 20.5841C5.21005 20.7426 5.59382 20.8273 5.98284 20.8333ZM10.6938 6.06189H14.1078L18.7651 10.7191L16.644 12.8402L10.2797 6.47579L10.6938 6.06189ZM5.33544 17.0764L11.6938 10.718L13.1078 12.1331L6.74454 18.4973C6.65152 18.5911 6.54085 18.6656 6.41891 18.7164C6.29696 18.7672 6.16616 18.7933 6.03406 18.7934C5.90195 18.7934 5.77115 18.7672 5.6492 18.7164C5.52726 18.6656 5.41658 18.5911 5.32356 18.4973C5.23053 18.4035 5.15701 18.2922 5.10722 18.1699C5.05743 18.0475 5.03236 17.9165 5.03347 17.7844C5.03457 17.6523 5.06182 17.5217 5.11365 17.4002C5.16548 17.2787 5.24086 17.1686 5.33544 17.0764Z"/>
</svg>
