<svg width="24" height="24" viewBox="0 0 24 24" xmlns="http://www.w3.org/2000/svg">
<path d="M12 22C10.0222 22 8.08879 21.4135 6.4443 20.3147C4.79981 19.2159 3.51809 17.6541 2.76121 15.8268C2.00433 13.9996 1.8063 11.9889 2.19215 10.0491C2.578 8.10929 3.53041 6.32746 4.92894 4.92894C6.32746 3.53041 8.10929 2.578 10.0491 2.19215C11.9889 1.8063 13.9996 2.00433 15.8268 2.76121C17.6541 3.51809 19.2159 4.79981 20.3147 6.4443C21.4135 8.08879 22 10.0222 22 12C21.997 14.6512 20.9424 17.193 19.0677 19.0677C17.193 20.9424 14.6512 21.997 12 22ZM12 4C10.4178 4 8.87104 4.4692 7.55544 5.34825C6.23985 6.2273 5.21447 7.47673 4.60897 8.93854C4.00347 10.4003 3.84504 12.0089 4.15372 13.5607C4.4624 15.1126 5.22433 16.538 6.34315 17.6569C7.46197 18.7757 8.88743 19.5376 10.4393 19.8463C11.9911 20.155 13.5997 19.9965 15.0615 19.391C16.5233 18.7855 17.7727 17.7602 18.6518 16.4446C19.5308 15.129 20 13.5823 20 12C19.9976 9.87902 19.1539 7.8456 17.6542 6.34584C16.1544 4.84608 14.121 4.00244 12 4ZM13.9717 13.7749C14.6315 13.4014 15.1721 12.8488 15.531 12.1809C15.8899 11.5131 16.0525 10.7574 16 10.001C15.9818 9.32486 15.8182 8.66055 15.5205 8.0532C15.1975 7.40521 14.6923 6.86569 14.0668 6.50093C13.4414 6.13617 12.723 5.96206 12 6C11.2771 5.96216 10.5588 6.13631 9.93346 6.50107C9.30813 6.86582 8.80296 7.40529 8.48 8.0532C8.18212 8.66052 8.01841 9.32482 8 10.001L10 10.0063C9.98182 9.73868 10.021 9.47026 10.115 9.21902C10.209 8.96778 10.3556 8.73953 10.545 8.54956C10.7344 8.35959 10.9621 8.21228 11.2131 8.1175C11.464 8.02272 11.7323 7.98266 12 8C12.2672 7.98248 12.535 8.02219 12.7856 8.1165C13.0362 8.21081 13.2638 8.35754 13.4531 8.54687C13.6425 8.73621 13.7892 8.96378 13.8835 9.21438C13.9778 9.46498 14.0175 9.73282 14 10C14.0478 10.3918 13.9823 10.7891 13.8113 11.1448C13.6404 11.5006 13.371 11.7999 13.0352 12.0073C12.4508 12.2669 11.9506 12.6847 11.591 13.2135C11.2314 13.7423 11.0267 14.3611 11 15H13C13 14.3569 13.6768 13.93 13.9717 13.7749ZM13 16H11V18H13V16Z" />
</svg>
