<?xml version="1.0" encoding="utf-8"?>
<svg version="1.1" xmlns="http://www.w3.org/2000/svg" viewBox="0 0 24 24">
<path d="M18,3H6C4.3,3,3,4.3,3,6v12c0,1.7,1.3,3,3,3h12c1.7,0,3-1.3,3-3V6C21,4.3,19.7,3,18,3z M15.1,7.5
	L12,10.6L8.9,7.5L11.4,5h1.2L15.1,7.5z M15.4,5h2.2l-1.1,1.1L15.4,5z M16.5,8.9l2.5,2.5v1.2l-2.5,2.5L13.4,12L16.5,8.9z M10.6,12
	l-3.1,3.1L5,12.6v-1.2l2.5-2.5L10.6,12z M7.5,6.1L6.4,5h2.2L7.5,6.1z M5,8.6V6.4l1.1,1.1L5,8.6z M6.1,16.5L5,17.6v-2.2L6.1,16.5z
	 M8.9,16.5l3.1-3.1l3.1,3.1L12.6,19h-1.2L8.9,16.5z M8.6,19H6.4l1.1-1.1L8.6,19z M16.5,17.9l1.1,1.1h-2.2L16.5,17.9z M17.9,16.5
	l1.1-1.1v2.2L17.9,16.5z M17.9,7.5L19,6.4v2.2L17.9,7.5z" />
</svg>
