<?xml version="1.0" encoding="iso-8859-1"?>
<svg version="1.1" id="Artwork" xmlns="http://www.w3.org/2000/svg" xmlns:xlink="http://www.w3.org/1999/xlink" x="0px" y="0px"
	 viewBox="0 0 24 24" style="enable-background:new 0 0 24 24;" xml:space="preserve">
<g>
	<polygon points="16.7,6.7 15.3,5.3 13,7.6 13,3 11,3 11,7.6 8.7,5.3 7.3,6.7 12,11.4 	"/>
	<path d="M21.8,19.3l-6-7C15.6,12.1,15.3,12,15,12H9c-0.3,0-0.6,0.1-0.8,0.3l-6,7c-0.3,0.3-0.3,0.7-0.1,1.1S2.6,21,3,21h18
		c0.4,0,0.7-0.2,0.9-0.6S22,19.6,21.8,19.3z M5.2,19l4.3-5h5.1l4.3,5H5.2z"/>
</g>
</svg>
