<?xml version="1.0" encoding="utf-8"?>
<svg version="1.1" xmlns="http://www.w3.org/2000/svg" viewBox="0 0 24 24">
<path d="M19.8,11.3L17,14.1c-0.9,0.9-2.2,1.5-3.5,1.5c-1.3,0-2.6-0.5-3.5-1.5l1.4-1.4c1.1,1.1,3.1,1.1,4.2,0
	l2.8-2.8c1.2-1.2,1.2-3.1,0-4.2c-1.2-1.2-3.1-1.2-4.2,0L12.7,7l-1.4-1.4l1.4-1.4c1.9-1.9,5.1-1.9,7.1,0C21.7,6.2,21.7,9.3,19.8,11.3
	z M9.9,18.4c-1.2,1.2-3.1,1.2-4.2,0c-1.2-1.2-1.2-3.1,0-4.2l2.8-2.8c1.1-1.1,3.1-1.1,4.2,0l1.4-1.4c-0.9-0.9-2.2-1.5-3.5-1.5
	C9.3,8.4,8,8.9,7.1,9.9l-2.8,2.8c-0.9,0.9-1.5,2.2-1.5,3.5c0,1.3,0.5,2.6,1.5,3.5c1,1,2.3,1.5,3.5,1.5c1.3,0,2.6-0.5,3.5-1.5
	l1.4-1.4L11.3,17L9.9,18.4z" />
</svg>
