<?xml version="1.0" encoding="utf-8"?>
<svg version="1.1" viewBox="0 0 48 48" xmlns="http://www.w3.org/2000/svg">
<path d="M39 35H27C26.4696 35 25.9609 34.7893 25.5858 34.4142C25.2107 34.0391 25 33.5304 25 33V32.51L36 24.51V20H38C38.7957 20 39.5587 19.6839 40.1213 19.1213C40.6839 18.5587 41 17.7956 41 17V7H6V17C6 17.7956 6.31607 18.5587 6.87868 19.1213C7.44129 19.6839 8.20435 20 9 20H11V24.54L23 32.54V33C23 34.0609 23.4214 35.0783 24.1716 35.8284C24.9217 36.5786 25.9391 37 27 37H39C39.2652 37 39.5196 37.1054 39.7071 37.2929C39.8946 37.4804 40 37.7348 40 38C40 38.2652 39.8946 38.5196 39.7071 38.7071C39.5196 38.8946 39.2652 39 39 39H6V41H39C39.7957 41 40.5587 40.6839 41.1213 40.1213C41.6839 39.5587 42 38.7956 42 38C42 37.2044 41.6839 36.4413 41.1213 35.8787C40.5587 35.3161 39.7957 35 39 35ZM8 18V9H39V18H8ZM24 30.78L13 23.46V20H34V23.49L24 30.78Z"/>
</svg>
