<?xml version="1.0" encoding="iso-8859-1"?>
<svg version="1.1" id="Artwork" xmlns="http://www.w3.org/2000/svg" xmlns:xlink="http://www.w3.org/1999/xlink" x="0px" y="0px"
	 viewBox="0 0 24 24" style="enable-background:new 0 0 24 24;" xml:space="preserve">
<g>
	<path d="M20.7,4.7l-16,16c-0.6-0.3-1.1-0.8-1.4-1.4l16-16C19.9,3.6,20.4,4.1,20.7,4.7z"/>
	<polygon points="16.4,3 3,16.4 3,13.6 13.6,3 	"/>
	<polygon points="10.4,3 3,10.4 3,7.6 7.6,3 	"/>
	<polygon points="21,13.6 21,16.4 16.4,21 13.6,21 	"/>
	<polygon points="21,7.6 21,10.4 10.4,21 7.6,21 	"/>
	<polygon points="10.4,3 3,10.4 3,7.6 7.6,3 	"/>
	<polygon points="16.4,3 3,16.4 3,13.6 13.6,3 	"/>
	<path d="M20.7,4.7l-16,16c-0.6-0.3-1.1-0.8-1.4-1.4l16-16C19.9,3.6,20.4,4.1,20.7,4.7z"/>
	<polygon points="21,7.6 21,10.4 10.4,21 7.6,21 	"/>
	<polygon points="21,13.6 21,16.4 16.4,21 13.6,21 	"/>
</g>
</svg>
