<?xml version="1.0" encoding="utf-8"?>
<svg version="1.1" xmlns="http://www.w3.org/2000/svg" viewBox="0 0 24 24">
  <path
     id="path2"
     d="M 6 3 C 4.3000017 3 3 4.3000017 3 6 L 3 18 C 3 19.699998 4.3000017 21 6 21 L 18 21 C 19.699998 21 21 19.699998 21 18 L 21 6 C 21 4.3000017 19.699998 3 18 3 L 6 3 z M 5 5 L 7.6972656 5 L 7.6972656 19 L 5 19 L 5 5 z M 9.5957031 5 L 19 5 L 19 19 L 9.5957031 19 L 9.5957031 16.517578 L 11.369141 16.517578 L 11.369141 14.617188 L 9.5957031 14.617188 L 9.5957031 12.958984 L 11.802734 12.958984 L 11.802734 11.058594 L 9.5957031 11.058594 L 9.5957031 8.890625 L 11.369141 8.890625 L 11.369141 6.9902344 L 9.5957031 6.9902344 L 9.5957031 5 z " />
</svg>
