<svg width="24" height="24" viewBox="0 0 24 24" xmlns="http://www.w3.org/2000/svg">
<path d="M19 12C19 11.895 18.9888 11.7928 18.9843 11.6889L21.2354 9.9966L18.3525 5.0034L15.7525 6.1005C15.5837 5.9927 15.4112 5.8905 15.2325 5.7972L14.8828 3H9.1172L8.7672 5.7972C8.5855 5.8923 8.4096 5.9964 8.2372 6.1066L5.6472 5.0034L2.7646 9.9966L5.0152 11.7C5.0109 11.8 5 11.8988 5 12C5 12.105 5.0112 12.2072 5.0157 12.3111L2.7646 14.0034L5.6475 18.9966L8.2475 17.8994C8.4163 18.0072 8.5888 18.1094 8.7675 18.2028L9.1172 21H14.8828L15.2328 18.2028C15.4145 18.1077 15.5904 18.0036 15.7628 17.8934L18.3528 18.9966L21.2357 14.0034L18.9848 12.3C18.9891 12.2 19 12.1012 19 12ZM18.62 14.5327L17.5028 16.4673L15.4513 15.6018C14.8702 16.1531 14.1648 16.5564 13.3949 16.7773L13.1172 19H10.8828L10.605 16.7773C9.83505 16.5564 9.12968 16.1531 8.5486 15.6018L6.4971 16.4673L5.38 14.5327L7.1579 13.1865C6.94752 12.4095 6.94752 11.5905 7.1579 10.8135L5.38 9.4673L6.4971 7.5327L8.5486 8.3982C9.12968 7.84686 9.83505 7.44364 10.605 7.2227L10.8828 5H13.1172L13.395 7.2227C14.1649 7.44364 14.8703 7.84686 15.4514 8.3982L17.5029 7.5327L18.62 9.4673L16.8421 10.8135C17.0525 11.5905 17.0525 12.4095 16.8421 13.1865L18.62 14.5327ZM12 9C11.4067 9 10.8266 9.17595 10.3333 9.50559C9.83994 9.83524 9.45542 10.3038 9.22836 10.8519C9.0013 11.4001 8.94189 12.0033 9.05764 12.5853C9.1734 13.1672 9.45912 13.7018 9.87868 14.1213C10.2982 14.5409 10.8328 14.8266 11.4147 14.9424C11.9967 15.0581 12.5999 14.9987 13.148 14.7716C13.6962 14.5446 14.1648 14.1601 14.4944 13.6667C14.8241 13.1734 15 12.5933 15 12C14.9991 11.2046 14.6828 10.4421 14.1204 9.87964C13.5579 9.31722 12.7954 9.00087 12 9ZM12 13C11.8022 13 11.6089 12.9414 11.4444 12.8315C11.28 12.7216 11.1518 12.5654 11.0761 12.3827C11.0004 12.2 10.9806 11.9989 11.0192 11.8049C11.0578 11.6109 11.153 11.4327 11.2929 11.2929C11.4327 11.153 11.6109 11.0578 11.8049 11.0192C11.9989 10.9806 12.2 11.0004 12.3827 11.0761C12.5654 11.1518 12.7216 11.28 12.8315 11.4444C12.9413 11.6089 13 11.8022 13 12C12.9998 12.2651 12.8943 12.5194 12.7068 12.7068C12.5194 12.8943 12.2651 12.9998 12 13Z"/>
</svg>
