<svg width="24" height="24" viewBox="0 0 24 24" xmlns="http://www.w3.org/2000/svg">
<path d="M5.99631 13C5.99631 13.7956 6.31238 14.5587 6.87499 15.1213C7.4376 15.6839 8.20066 16 8.99631 16H17.9963C18.792 16 19.555 15.6839 20.1176 15.1213C20.6802 14.5587 20.9963 13.7956 20.9963 13V7H7.99631V4H1.99631V6H5.99631V13ZM18.9963 9V14H7.99631V9H18.9963ZM21.9963 19C21.9963 19.3956 21.879 19.7822 21.6592 20.1111C21.4395 20.44 21.1271 20.6964 20.7617 20.8478C20.3962 20.9991 19.9941 21.0387 19.6061 20.9616C19.2182 20.8844 18.8618 20.6939 18.5821 20.4142C18.3024 20.1345 18.1119 19.7781 18.0347 19.3902C17.9576 19.0022 17.9972 18.6001 18.1485 18.2346C18.2999 17.8692 18.5563 17.5568 18.8852 17.3371C19.2141 17.1173 19.6007 17 19.9963 17C20.5266 17.0006 21.0349 17.2115 21.4098 17.5865C21.7848 17.9614 21.9957 18.4698 21.9963 19ZM9.99631 19C9.99631 19.3956 9.87901 19.7822 9.65925 20.1111C9.43948 20.44 9.12713 20.6964 8.76167 20.8478C8.39622 20.9991 7.99409 21.0387 7.60613 20.9616C7.21816 20.8844 6.8618 20.6939 6.58209 20.4142C6.30239 20.1345 6.11191 19.7781 6.03474 19.3902C5.95757 19.0022 5.99717 18.6001 6.14855 18.2346C6.29992 17.8692 6.55627 17.5568 6.88517 17.3371C7.21407 17.1173 7.60074 17 7.99631 17C8.52655 17.0006 9.03491 17.2115 9.40985 17.5865C9.78479 17.9614 9.9957 18.4698 9.99631 19Z" />
</svg>
