<?xml version="1.0" encoding="utf-8"?>
<svg version="1.1" xmlns="http://www.w3.org/2000/svg" viewBox="0 0 24 24">
<path d="M4,14c0,2,0.7,3.9,2,5.3l-1.5,1.3C2.9,18.8,2,16.5,2,14C2,8.5,6.5,4,12,4c1.9,0,3.6,0.5,5.1,1.4
	l-1.5,1.5C14.5,6.3,13.3,6,12,6C7.6,6,4,9.6,4,14z M20.6,8.9l-1.5,1.5c0.5,1.1,0.9,2.3,0.9,3.6c0,2-0.7,3.9-2,5.3l1.5,1.3
	c1.6-1.8,2.5-4.2,2.5-6.7C22,12.1,21.5,10.4,20.6,8.9z M19.7,7.7l-1.4-1.4l-5.8,5.8C12.3,12,12.2,12,12,12c-1.1,0-2,0.9-2,2
	c0,1.1,0.9,2,2,2s2-0.9,2-2c0-0.2,0-0.3-0.1-0.5L19.7,7.7z" />
</svg>
