<svg width="24" height="24" viewBox="0 0 24 24" xmlns="http://www.w3.org/2000/svg">
<path d="M22 12C22 14.6522 20.9464 17.1957 19.0711 19.0711C17.1957 20.9464 14.6522 22 12 22C9.34784 22 6.8043 20.9464 4.92893 19.0711C3.05357 17.1957 2 14.6522 2 12H4C4 13.5823 4.46919 15.129 5.34824 16.4446C6.22729 17.7602 7.47672 18.7855 8.93853 19.391C10.4003 19.9965 12.0089 20.155 13.5607 19.8463C15.1126 19.5376 16.538 18.7757 17.6569 17.6569C18.7757 16.538 19.5376 15.1126 19.8463 13.5607C20.155 12.0089 19.9965 10.4003 19.391 8.93853C18.7855 7.47672 17.7602 6.22729 16.4446 5.34824C15.129 4.46919 13.5823 4 12 4V2C14.6508 2.00436 17.1918 3.05933 19.0662 4.93375C20.9407 6.80817 21.9956 9.34917 22 12Z"/>
</svg>
