<?xml version="1.0" encoding="utf-8"?>
<svg version="1.1" xmlns="http://www.w3.org/2000/svg" viewBox="0 0 24 24">
<path d="M22,8c0-1.6-0.6-3.1-1.8-4.2C19.1,2.6,17.6,2,16,2c-1.5,0-3,0.6-4.1,1.6L2.8,8.5
	C2.3,8.8,2.1,9.4,2.4,9.9c0.2,0.3,0.5,0.5,0.9,0.5c0.2,0,0.3,0,0.5-0.1l6.4-3.4C10,7.2,10,7.6,10,8c0,1.3,0.4,2.5,1.1,3.5l-5.7,5.7
	c-0.4,0.4-0.4,1,0,1.4c0.2,0.2,0.5,0.3,0.7,0.3s0.5-0.1,0.7-0.3l5.7-5.7c1,0.7,2.2,1.1,3.5,1.1c0.4,0,0.8,0,1.1-0.1l-3.4,6.4
	c-0.3,0.5-0.1,1.1,0.4,1.4c0.2,0.1,0.3,0.1,0.5,0.1c0.4,0,0.7-0.2,0.9-0.5l4.9-9.1C21.4,11,22,9.5,22,8z M14,11.4l2.7-2.7
	c0.4-0.4,0.4-1,0-1.4s-1-0.4-1.4,0L12.6,10C12.2,9.4,12,8.7,12,8c0-1.1,0.4-2.1,1.2-2.8v0C13.9,4.4,14.9,4,16,4s2.1,0.4,2.8,1.2
	C19.6,5.9,20,6.9,20,8s-0.4,2.1-1.2,2.8C18.1,11.6,17.1,12,16,12C15.3,12,14.6,11.8,14,11.4z" />
</svg>
