<svg width="300" height="300" viewBox="0 0 300 300" fill="none" xmlns="http://www.w3.org/2000/svg">
<g clip-path="url(#clip0_1302_32588)">
<path d="M9 281.999H255" stroke="#F3F3F3" stroke-width="2" stroke-miterlimit="10" stroke-linecap="round"/>
<path d="M52.1851 92.0035C58.8951 75.5911 83.7151 17.7935 99.2051 21.1395C114.985 24.5359 110.565 78.5379 109.215 92.0035" stroke="#F3F3F3" stroke-width="4" stroke-miterlimit="10" stroke-linecap="round"/>
<path d="M111.525 92.0034C110.135 71.3655 109.555 34.8647 122.435 32.0877C135.385 29.2907 154.865 69.2377 164.815 92.0034" stroke="#F3F3F3" stroke-width="4" stroke-miterlimit="10" stroke-linecap="round"/>
<path d="M158 275C168.395 275 177.362 278.115 181.525 281.171C182.224 281.699 183.075 281.989 183.952 282H197C198.061 282 199.078 281.579 199.828 280.828C200.579 280.078 201 279.061 201 278V96C201 94.9391 200.579 93.9217 199.828 93.1716C199.078 92.4214 198.061 92 197 92H21C19.9391 92 18.9217 92.4214 18.1716 93.1716C17.4214 93.9217 17 94.9391 17 96V278C17 279.061 17.4214 280.078 18.1716 280.828C18.9217 281.579 19.9391 282 21 282H34.0487C34.9254 281.989 35.7758 281.699 36.4757 281.171C40.6383 278.115 49.6054 275 60 275H158Z" fill="#555557" stroke="#F3F3F3" stroke-width="2" stroke-miterlimit="10"/>
<path d="M31 258.999C32.1046 258.999 33 258.104 33 256.999C33 255.894 32.1046 254.999 31 254.999C29.8954 254.999 29 255.894 29 256.999C29 258.104 29.8954 258.999 31 258.999Z" fill="#F3F3F3"/>
<path d="M187 258.999C188.105 258.999 189 258.104 189 256.999C189 255.894 188.105 254.999 187 254.999C185.895 254.999 185 255.894 185 256.999C185 258.104 185.895 258.999 187 258.999Z" fill="#F3F3F3"/>
<path d="M31 101C32.1046 101 33 100.105 33 99C33 97.8954 32.1046 97 31 97C29.8954 97 29 97.8954 29 99C29 100.105 29.8954 101 31 101Z" fill="#F3F3F3"/>
<path d="M83 101C84.1046 101 85 100.105 85 99C85 97.8954 84.1046 97 83 97C81.8954 97 81 97.8954 81 99C81 100.105 81.8954 101 83 101Z" fill="#F3F3F3"/>
<path d="M135 101C136.105 101 137 100.105 137 99C137 97.8954 136.105 97 135 97C133.895 97 133 97.8954 133 99C133 100.105 133.895 101 135 101Z" fill="#F3F3F3"/>
<path d="M187 101C188.105 101 189 100.105 189 99C189 97.8954 188.105 97 187 97C185.895 97 185 97.8954 185 99C185 100.105 185.895 101 187 101Z" fill="#F3F3F3"/>
<path d="M42 245.5C39.2162 245.497 36.5473 244.39 34.5788 242.421C32.6104 240.453 31.5031 237.784 31.5 235V114C31.5007 113.337 31.7643 112.702 32.233 112.233C32.7017 111.764 33.3372 111.501 34 111.5H184C184.663 111.501 185.298 111.764 185.767 112.233C186.236 112.702 186.499 113.337 186.5 114V235C186.497 237.784 185.39 240.453 183.421 242.421C181.453 244.39 178.784 245.497 176 245.5H42Z" fill="#1F1F20"/>
<path d="M184 113C184.265 113 184.519 113.106 184.707 113.293C184.894 113.481 185 113.735 185 114V235C184.997 237.386 184.048 239.674 182.361 241.361C180.674 243.048 178.386 243.997 176 244H42C39.6139 243.997 37.3262 243.048 35.639 241.361C33.9517 239.674 33.0026 237.386 33 235V114C33.0003 113.735 33.1057 113.481 33.2932 113.293C33.4807 113.106 33.7349 113 34 113H184ZM184 110H34C32.9391 110 31.9217 110.421 31.1716 111.172C30.4214 111.922 30 112.939 30 114V235C30 238.183 31.2643 241.235 33.5147 243.485C35.7652 245.736 38.8174 247 42 247H176C179.183 247 182.235 245.736 184.485 243.485C186.736 241.235 188 238.183 188 235V114C188 112.939 187.579 111.922 186.828 111.172C186.078 110.421 185.061 110 184 110Z" fill="#555557"/>
<path d="M176 247H42C38.8174 247 35.7652 245.736 33.5147 243.485C31.2643 241.235 30 238.183 30 235V114C30 112.939 30.4214 111.922 31.1716 111.172C31.9217 110.421 32.9391 110 34 110H184C185.061 110 186.078 110.421 186.828 111.172C187.579 111.922 188 112.939 188 114V235C188 238.183 186.736 241.235 184.485 243.485C182.235 245.736 179.183 247 176 247Z" stroke="#F3F3F3" stroke-width="2" stroke-miterlimit="10"/>
<path d="M58 262H66" stroke="#F3F3F3" stroke-width="2" stroke-miterlimit="10"/>
<path d="M108.5 164.001L82.392 173.65L68.5 198.082L73.325 225.866L94.609 244.001H122.392L143.676 225.866L148.5 198.082L134.609 173.65L108.5 164.001Z" fill="#555557"/>
<path d="M131 240.5H87C86.7239 240.5 86.5 240.724 86.5 241V265C86.5 265.276 86.7239 265.5 87 265.5H131C131.276 265.5 131.5 265.276 131.5 265V241C131.5 240.724 131.276 240.5 131 240.5Z" fill="#1F1F20"/>
<path d="M130 242V264H88V242H130ZM131 239H87C86.4696 239 85.9609 239.211 85.5858 239.586C85.2107 239.961 85 240.47 85 241V265C85 265.53 85.2107 266.039 85.5858 266.414C85.9609 266.789 86.4696 267 87 267H131C131.53 267 132.039 266.789 132.414 266.414C132.789 266.039 133 265.53 133 265V241C133 240.47 132.789 239.961 132.414 239.586C132.039 239.211 131.53 239 131 239Z" fill="#555557"/>
<path d="M131 239H87C85.8954 239 85 239.895 85 241V265C85 266.105 85.8954 267 87 267H131C132.105 267 133 266.105 133 265V241C133 239.895 132.105 239 131 239Z" stroke="#F3F3F3" stroke-width="2" stroke-miterlimit="10" stroke-linecap="round"/>
<path d="M96.2109 128C95.5949 128.004 94.9936 127.812 94.4944 127.451C93.9951 127.09 93.6239 126.58 93.4346 125.994L90 113.712V109H128V113.712L124.571 125.973C124.385 126.564 124.014 127.079 123.513 127.444C123.013 127.808 122.408 128.003 121.789 128H96.2109Z" fill="#555557"/>
<path d="M127 110V113.575L123.608 125.704C123.483 126.086 123.239 126.418 122.912 126.651C122.585 126.885 122.191 127.007 121.789 127H96.2111C95.8091 127.007 95.4155 126.885 95.088 126.651C94.7606 126.418 94.5166 126.086 94.3918 125.704L91 113.575V110H127ZM129 108H89V113.849L89.0739 114.114L92.4657 126.242C92.7127 127.042 93.2098 127.742 93.884 128.238C94.5582 128.735 95.3739 129.002 96.2111 129H121.789C122.619 129.004 123.43 128.742 124.101 128.253C124.773 127.764 125.271 127.074 125.523 126.283L128.926 114.114L129 113.849V108Z" fill="#F3F3F3"/>
<path d="M100.221 131.001C99.8041 131.004 99.3916 130.918 99.0105 130.749C98.6294 130.581 98.2884 130.334 98.0098 130.024C97.7583 129.742 97.5693 129.411 97.4552 129.051C97.3411 128.691 97.3044 128.311 97.3477 127.936L99.1177 114.001H118.88L120.649 127.929C120.694 128.305 120.657 128.687 120.543 129.048C120.429 129.409 120.24 129.741 119.987 130.024C119.709 130.334 119.368 130.581 118.987 130.75C118.606 130.918 118.194 131.004 117.777 131.001H100.221Z" fill="#555557"/>
<path d="M117.999 115.001L119.657 128.055C119.677 128.31 119.642 128.566 119.556 128.807C119.469 129.047 119.333 129.267 119.155 129.451C118.977 129.635 118.763 129.779 118.525 129.874C118.288 129.969 118.033 130.012 117.777 130.001H100.22C99.965 130.012 99.7101 129.969 99.4726 129.874C99.2351 129.779 99.0204 129.635 98.8428 129.451C98.6651 129.267 98.5284 129.047 98.4419 128.807C98.3553 128.566 98.3207 128.31 98.3405 128.055L99.9991 115.001H117.999M119.761 113.001H98.2367L98.0147 114.749L96.3561 127.803C96.2942 128.321 96.343 128.845 96.4993 129.343C96.6555 129.84 96.9156 130.299 97.2624 130.688C97.6348 131.103 98.0909 131.435 98.6008 131.661C99.1106 131.888 99.6627 132.003 100.22 132.001H117.777C118.335 132.003 118.887 131.888 119.397 131.661C119.906 131.435 120.363 131.103 120.735 130.688C121.081 130.301 121.34 129.845 121.497 129.35C121.653 128.855 121.703 128.332 121.643 127.817L119.983 114.749L119.761 113.001H119.761Z" fill="#F3F3F3"/>
<path d="M130.5 105.001H87.5C86.1739 105.001 84.9021 105.528 83.9645 106.465C83.0268 107.403 82.5 108.675 82.5 110.001C82.5 111.327 83.0268 112.599 83.9645 113.537C84.9021 114.474 86.1739 115.001 87.5 115.001H130.5C131.826 115.001 133.098 114.474 134.036 113.537C134.973 112.599 135.5 111.327 135.5 110.001C135.5 108.675 134.973 107.403 134.036 106.465C133.098 105.528 131.826 105.001 130.5 105.001V105.001Z" fill="#555557" stroke="#F3F3F3" stroke-width="2" stroke-miterlimit="10" stroke-linecap="round"/>
<path d="M109 115V105" stroke="#F3F3F3" stroke-width="2" stroke-miterlimit="10"/>
<path d="M115.102 161H265.898C267.516 161 269.069 161.643 270.213 162.787C271.357 163.931 272 165.484 272 167.102V271H109V167.102C109 165.484 109.643 163.931 110.787 162.787C111.931 161.643 113.484 161 115.102 161Z" fill="#555557" stroke="#F3F3F3" stroke-width="2" stroke-miterlimit="10"/>
<path d="M115 272C114.735 272 114.48 271.895 114.293 271.707C114.105 271.52 114 271.265 114 271V167.675C114 167.231 114.177 166.805 114.491 166.491C114.805 166.177 115.231 166 115.675 166H264.65C265.273 166.001 265.87 166.248 266.311 166.689C266.752 167.13 266.999 167.727 267 168.35V271C267 271.265 266.895 271.52 266.707 271.707C266.52 271.895 266.265 272 266 272H115Z" fill="#1F1F20"/>
<path d="M264.65 167C265.008 167 265.351 167.142 265.605 167.395C265.858 167.649 266 167.992 266 168.35V271H115V167.675C115 167.586 115.017 167.499 115.051 167.417C115.085 167.335 115.135 167.26 115.198 167.198C115.26 167.135 115.335 167.085 115.417 167.051C115.499 167.017 115.586 167 115.675 167H264.65ZM264.65 165H115.675C114.966 165.001 114.286 165.283 113.784 165.784C113.283 166.286 113.001 166.966 113 167.675V271C113 271.53 113.211 272.039 113.586 272.414C113.961 272.789 114.47 273 115 273H266C266.53 273 267.039 272.789 267.414 272.414C267.789 272.039 268 271.53 268 271V168.35C267.999 167.462 267.646 166.61 267.018 165.982C266.39 165.354 265.538 165.001 264.65 165V165Z" fill="#F3F3F3"/>
<path d="M264 169V269H117V169H264ZM264.65 167H115.675C115.586 167 115.499 167.017 115.417 167.051C115.335 167.085 115.26 167.135 115.198 167.198C115.135 167.26 115.085 167.335 115.051 167.417C115.017 167.499 115 167.586 115 167.675V271H266V168.35C266 167.992 265.858 167.649 265.605 167.395C265.351 167.142 265.008 167 264.65 167Z" fill="#555557"/>
<path d="M91 282H291" stroke="#F3F3F3" stroke-width="2" stroke-linecap="round" stroke-linejoin="round"/>
<path d="M104.127 282C101.476 281.997 98.9339 280.942 97.0592 279.068C95.1845 277.193 94.13 274.651 94.127 272C94.127 271.735 94.2323 271.48 94.4198 271.293C94.6074 271.105 94.8617 271 95.127 271H286.673C286.938 271 287.192 271.105 287.38 271.293C287.567 271.48 287.673 271.735 287.673 272C287.67 274.651 286.615 277.193 284.741 279.068C282.866 280.942 280.324 281.997 277.673 282H104.127Z" fill="#555557"/>
<path d="M286.673 272C286.673 274.387 285.725 276.676 284.037 278.364C282.349 280.052 280.06 281 277.673 281H104.126C101.74 281 99.4503 280.052 97.7625 278.364C96.0747 276.676 95.1265 274.387 95.1265 272H286.673ZM286.673 270H95.1265C94.596 270 94.0873 270.211 93.7122 270.586C93.3372 270.961 93.1265 271.47 93.1265 272C93.1298 274.916 94.2898 277.712 96.3519 279.775C98.4141 281.837 101.21 282.997 104.126 283H277.673C280.589 282.997 283.385 281.837 285.447 279.775C287.51 277.712 288.67 274.916 288.673 272C288.673 271.47 288.462 270.961 288.087 270.586C287.712 270.211 287.203 270 286.673 270Z" fill="#F3F3F3"/>
<path d="M206 271H176C176 271.796 176.316 272.559 176.879 273.121C177.441 273.684 178.204 274 179 274H203C203.796 274 204.559 273.684 205.121 273.121C205.684 272.559 206 271.796 206 271Z" fill="#F3F3F3"/>
<path d="M151.5 204.5H139.5C138.948 204.5 138.5 204.948 138.5 205.5V227.5C138.5 228.052 138.948 228.5 139.5 228.5H151.5C152.052 228.5 152.5 228.052 152.5 227.5V205.5C152.5 204.948 152.052 204.5 151.5 204.5Z" fill="#555557"/>
<path d="M169.5 204.5H157.5C156.948 204.5 156.5 204.948 156.5 205.5V227.5C156.5 228.052 156.948 228.5 157.5 228.5H169.5C170.052 228.5 170.5 228.052 170.5 227.5V205.5C170.5 204.948 170.052 204.5 169.5 204.5Z" fill="#555557"/>
<path d="M187.5 204.5H175.5C174.948 204.5 174.5 204.948 174.5 205.5V227.5C174.5 228.052 174.948 228.5 175.5 228.5H187.5C188.052 228.5 188.5 228.052 188.5 227.5V205.5C188.5 204.948 188.052 204.5 187.5 204.5Z" fill="#555557"/>
<path d="M205.5 204.5H193.5C192.948 204.5 192.5 204.948 192.5 205.5V227.5C192.5 228.052 192.948 228.5 193.5 228.5H205.5C206.052 228.5 206.5 228.052 206.5 227.5V205.5C206.5 204.948 206.052 204.5 205.5 204.5Z" fill="#555557"/>
<path d="M223.5 204.5H211.5C210.948 204.5 210.5 204.948 210.5 205.5V227.5C210.5 228.052 210.948 228.5 211.5 228.5H223.5C224.052 228.5 224.5 228.052 224.5 227.5V205.5C224.5 204.948 224.052 204.5 223.5 204.5Z" fill="#555557"/>
<path d="M241.5 204.5H229.5C228.948 204.5 228.5 204.948 228.5 205.5V227.5C228.5 228.052 228.948 228.5 229.5 228.5H241.5C242.052 228.5 242.5 228.052 242.5 227.5V205.5C242.5 204.948 242.052 204.5 241.5 204.5Z" fill="#555557"/>
<path d="M149.291 216.491C149.313 217.56 149.184 218.627 148.908 219.659C148.711 220.439 148.284 221.141 147.684 221.676C147.058 222.167 146.277 222.417 145.482 222.38C144.908 222.412 144.337 222.283 143.832 222.007C143.328 221.731 142.91 221.32 142.627 220.82C141.946 219.483 141.628 217.99 141.707 216.491C141.686 215.423 141.813 214.357 142.084 213.324C142.274 212.548 142.695 211.847 143.291 211.316C143.914 210.829 144.692 210.581 145.482 210.619C146.056 210.59 146.626 210.718 147.131 210.99C147.637 211.262 148.058 211.668 148.348 212.163C149.048 213.494 149.374 214.99 149.291 216.491V216.491ZM143.115 216.491C143.053 217.689 143.235 218.887 143.65 220.011C143.813 220.36 144.071 220.655 144.395 220.861C144.719 221.068 145.096 221.179 145.48 221.179C145.864 221.18 146.241 221.071 146.566 220.866C146.891 220.661 147.151 220.367 147.315 220.019C148.052 217.733 148.052 215.274 147.315 212.987C147.152 212.639 146.893 212.343 146.569 212.136C146.244 211.93 145.867 211.82 145.483 211.82C145.098 211.82 144.721 211.93 144.396 212.136C144.072 212.343 143.813 212.639 143.65 212.987C143.236 214.107 143.054 215.299 143.115 216.491V216.491Z" fill="#F3F3F3"/>
<path d="M167.292 216.491C167.314 217.56 167.185 218.627 166.909 219.659C166.712 220.439 166.285 221.141 165.685 221.676C165.059 222.167 164.278 222.417 163.484 222.38C162.909 222.412 162.338 222.282 161.833 222.007C161.329 221.731 160.911 221.32 160.628 220.82C159.947 219.483 159.629 217.99 159.708 216.491C159.687 215.423 159.814 214.357 160.085 213.324C160.275 212.548 160.696 211.847 161.292 211.316C161.915 210.829 162.693 210.581 163.483 210.619C164.057 210.59 164.627 210.718 165.132 210.99C165.638 211.262 166.058 211.668 166.349 212.163C167.048 213.494 167.375 214.99 167.292 216.491V216.491ZM161.116 216.491C161.054 217.689 161.236 218.887 161.652 220.011C161.814 220.36 162.072 220.655 162.396 220.861C162.72 221.068 163.097 221.179 163.481 221.179C163.865 221.18 164.242 221.072 164.567 220.866C164.892 220.661 165.151 220.367 165.316 220.019C166.053 217.733 166.053 215.273 165.316 212.987C165.153 212.639 164.894 212.343 164.57 212.136C164.245 211.929 163.868 211.82 163.484 211.82C163.099 211.82 162.722 211.929 162.397 212.136C162.073 212.343 161.814 212.639 161.652 212.987C161.237 214.107 161.055 215.299 161.116 216.491V216.491Z" fill="#F3F3F3"/>
<path d="M185.293 216.491C185.315 217.56 185.186 218.627 184.91 219.659C184.713 220.439 184.286 221.141 183.686 221.676C183.06 222.167 182.279 222.417 181.485 222.38C180.91 222.412 180.339 222.282 179.834 222.007C179.33 221.731 178.912 221.32 178.629 220.82C177.948 219.483 177.63 217.99 177.709 216.491C177.688 215.423 177.815 214.357 178.086 213.324C178.276 212.548 178.697 211.847 179.293 211.316C179.916 210.829 180.694 210.581 181.484 210.619C182.058 210.59 182.628 210.718 183.133 210.99C183.639 211.262 184.059 211.668 184.35 212.163C185.049 213.494 185.376 214.99 185.293 216.491V216.491ZM179.117 216.491C179.055 217.689 179.237 218.887 179.652 220.011C179.815 220.36 180.073 220.655 180.397 220.861C180.721 221.068 181.098 221.179 181.482 221.179C181.866 221.18 182.243 221.071 182.568 220.866C182.893 220.661 183.152 220.367 183.317 220.019C184.053 217.733 184.053 215.274 183.317 212.987C183.154 212.639 182.895 212.343 182.571 212.136C182.246 211.93 181.869 211.82 181.484 211.82C181.1 211.82 180.723 211.93 180.398 212.136C180.074 212.343 179.815 212.639 179.652 212.987C179.238 214.107 179.056 215.299 179.117 216.491V216.491Z" fill="#F3F3F3"/>
<path d="M203.294 216.491C203.316 217.56 203.187 218.627 202.911 219.659C202.713 220.439 202.287 221.141 201.687 221.676C201.061 222.167 200.28 222.417 199.485 222.38C198.911 222.412 198.34 222.282 197.835 222.007C197.331 221.731 196.913 221.32 196.63 220.82C195.949 219.483 195.631 217.99 195.71 216.491C195.689 215.423 195.816 214.357 196.087 213.324C196.277 212.548 196.698 211.847 197.294 211.316C197.917 210.829 198.695 210.581 199.485 210.619C200.059 210.59 200.629 210.718 201.134 210.99C201.64 211.262 202.06 211.668 202.351 212.163C203.05 213.494 203.376 214.99 203.294 216.491V216.491ZM197.118 216.491C197.056 217.689 197.238 218.887 197.653 220.011C197.816 220.36 198.074 220.655 198.398 220.861C198.722 221.068 199.099 221.179 199.483 221.179C199.867 221.18 200.244 221.071 200.569 220.866C200.894 220.661 201.153 220.367 201.317 220.019C202.054 217.733 202.054 215.274 201.317 212.987C201.155 212.639 200.896 212.343 200.572 212.136C200.247 211.93 199.87 211.82 199.485 211.82C199.101 211.82 198.724 211.93 198.399 212.136C198.075 212.343 197.816 212.639 197.653 212.987C197.239 214.107 197.057 215.299 197.118 216.491V216.491Z" fill="#F3F3F3"/>
<path d="M221.295 216.491C221.317 217.56 221.188 218.627 220.912 219.659C220.714 220.439 220.288 221.141 219.688 221.676C219.062 222.167 218.281 222.417 217.486 222.38C216.912 222.412 216.341 222.283 215.836 222.007C215.332 221.731 214.914 221.32 214.631 220.82C213.95 219.483 213.632 217.99 213.711 216.491C213.69 215.423 213.816 214.357 214.088 213.324C214.278 212.548 214.699 211.847 215.295 211.316C215.918 210.829 216.696 210.581 217.486 210.619C218.06 210.59 218.63 210.718 219.135 210.99C219.641 211.262 220.061 211.668 220.352 212.163C221.051 213.494 221.377 214.99 221.295 216.491V216.491ZM215.119 216.491C215.057 217.689 215.239 218.887 215.654 220.011C215.817 220.36 216.075 220.655 216.399 220.861C216.723 221.068 217.1 221.179 217.484 221.179C217.868 221.18 218.245 221.071 218.57 220.866C218.895 220.661 219.154 220.367 219.318 220.019C220.055 217.733 220.055 215.274 219.318 212.987C219.156 212.639 218.897 212.343 218.573 212.136C218.248 211.93 217.871 211.82 217.486 211.82C217.102 211.82 216.725 211.93 216.4 212.136C216.076 212.343 215.817 212.639 215.654 212.987C215.24 214.107 215.058 215.299 215.119 216.491V216.491Z" fill="#F3F3F3"/>
<path d="M239.296 216.491C239.318 217.56 239.189 218.627 238.913 219.659C238.715 220.439 238.289 221.141 237.689 221.676C237.063 222.167 236.282 222.417 235.487 222.38C234.913 222.412 234.342 222.282 233.837 222.007C233.333 221.731 232.915 221.32 232.632 220.82C231.951 219.483 231.633 217.99 231.712 216.491C231.691 215.423 231.817 214.357 232.089 213.324C232.279 212.548 232.7 211.847 233.296 211.316C233.919 210.829 234.697 210.581 235.487 210.619C236.061 210.59 236.631 210.718 237.136 210.99C237.642 211.262 238.062 211.668 238.353 212.163C239.052 213.494 239.378 214.99 239.296 216.491V216.491ZM233.12 216.491C233.058 217.689 233.24 218.887 233.655 220.011C233.818 220.36 234.076 220.655 234.4 220.861C234.724 221.068 235.101 221.179 235.485 221.179C235.869 221.18 236.246 221.072 236.571 220.866C236.896 220.661 237.155 220.367 237.319 220.019C238.057 217.733 238.057 215.273 237.319 212.987C237.157 212.639 236.898 212.343 236.574 212.136C236.249 211.929 235.872 211.82 235.487 211.82C235.103 211.82 234.726 211.929 234.401 212.136C234.077 212.343 233.818 212.639 233.655 212.987C233.241 214.107 233.059 215.299 233.12 216.491H233.12Z" fill="#F3F3F3"/>
</g>
<defs>
<clipPath id="clip0_1302_32588">
<rect width="284" height="264" fill="white" transform="translate(8 19)"/>
</clipPath>
</defs>
</svg>
