<?xml version="1.0" encoding="UTF-8"?>
<svg id="Layer_1" data-name="Layer 1" xmlns="http://www.w3.org/2000/svg" viewBox="0 0 298 271">
  <defs>
    <style>
      .cls-1, .cls-2, .cls-3, .cls-4, .cls-5, .cls-6, .cls-7, .cls-8, .cls-9, .cls-10 {
        stroke: #f3f3f3;
      }

      .cls-1, .cls-2, .cls-3, .cls-4, .cls-5, .cls-6, .cls-8, .cls-11, .cls-9, .cls-10 {
        stroke-miterlimit: 10;
      }

      .cls-1, .cls-12, .cls-4, .cls-10 {
        fill: #555557;
      }

      .cls-1, .cls-9 {
        stroke-width: 1.8px;
      }

      .cls-2 {
        stroke-dasharray: 0 0 4 4;
      }

      .cls-2, .cls-3, .cls-4, .cls-5, .cls-6, .cls-7, .cls-8, .cls-11, .cls-10 {
        stroke-width: 2px;
      }

      .cls-2, .cls-3, .cls-5, .cls-6, .cls-7, .cls-8, .cls-11, .cls-9 {
        fill: none;
      }

      .cls-13 {
        fill: #f3f3f3;
      }

      .cls-14 {
        fill: #1f1f20;
      }

      .cls-3 {
        stroke-dasharray: 0 0 4 4;
      }

      .cls-5 {
        stroke-dasharray: 0 0 3.9 3.9;
      }

      .cls-6 {
        stroke-dasharray: 0 0 3.81 3.81;
      }

      .cls-7 {
        stroke-linecap: round;
        stroke-linejoin: round;
      }

      .cls-11 {
        stroke: #061884;
      }

      .cls-10 {
        stroke-dasharray: 0 4;
      }
    </style>
  </defs>
  <g id="a">
    <line class="cls-11" x1="150" y1="98" x2="150" y2="100"/>
    <g>
      <line class="cls-8" x1="150" y1="46" x2="150" y2="48"/>
      <line class="cls-6" x1="150" y1="51.81" x2="150" y2="88.04"/>
      <line class="cls-8" x1="150" y1="89.95" x2="150" y2="91.95"/>
    </g>
    <g>
      <line class="cls-8" x1="227" y1="46" x2="227" y2="48"/>
      <line class="cls-3" x1="227" y1="52" x2="227" y2="66"/>
      <line class="cls-8" x1="227" y1="68" x2="227" y2="70"/>
    </g>
    <g>
      <line class="cls-8" x1="73" y1="46" x2="73" y2="48"/>
      <line class="cls-2" x1="73" y1="52" x2="73" y2="66.01"/>
      <line class="cls-8" x1="73" y1="68.02" x2="73" y2="70.02"/>
    </g>
    <line class="cls-10" x1="74" y1="69" x2="72" y2="69"/>
    <g>
      <line class="cls-8" x1="228.01" y1="69" x2="226.01" y2="69"/>
      <line class="cls-5" x1="222.11" y1="69" x2="75.95" y2="69"/>
      <line class="cls-8" x1="74" y1="69" x2="72" y2="69"/>
    </g>
    <path class="cls-13" d="M91,0V36h-6.33l-4-3h-15.33l-4,3h-6.33V0h36Zm-2,2H57V34h3.67l4-3h16.67l4,3h3.67V2Zm-4,23c0,1.66-1.34,3-3,3h-18c-1.66,0-3-1.34-3-3V5h24V25Zm-15-18v3h6v-3h-6Zm13,0h-5v5h-10V7h-5V26h20V7Z"/>
    <path class="cls-13" d="M168,0V36h-6.33l-4-3h-15.33l-4,3h-6.33V0h36Zm-2,2h-32V34h3.67l4-3h16.67l4,3h3.67V2Zm-4,23c0,1.66-1.34,3-3,3h-18c-1.66,0-3-1.34-3-3V5h24V25Zm-15-18v3h6v-3h-6Zm13,0h-5v5h-10V7h-5V26h20V7Z"/>
    <path class="cls-13" d="M245,0V36h-6.33l-4-3h-15.33l-4,3h-6.33V0h36Zm-2,2h-32V34h3.67l4-3h16.67l4,3h3.67V2Zm-4,23c0,1.66-1.34,3-3,3h-18c-1.66,0-3-1.34-3-3V5h24V25Zm-15-18v3h6v-3h-6Zm13,0h-5v5h-10V7h-5V26h20V7Z"/>
    <path class="cls-4" d="M28,97.1V254h242V97.1h0c0-3.37-2.73-6.1-6.1-6.1H34.1c-3.37,0-6.1,2.73-6.1,6.1Z"/>
    <path class="cls-14" d="M261,255c.55,0,1-.45,1-1V102c0-1.66-1.34-3-3-3H38c-1.1,0-2,.9-2,2V254c0,.55,.45,1,1,1h224Z"/>
    <path class="cls-13" d="M259,100H38c-.55,0-1,.45-1,1V254h224V102c0-1.1-.9-2-2-2m4,2V254c0,1.1-.9,2-2,2H37c-1.1,0-2-.9-2-2V101c0-1.66,1.34-3,3-3h221c2.21,0,4,1.79,4,4Z"/>
    <path class="cls-12" d="M259,102H39V252h220V102m2,0V254H37V101c0-.55,.45-1,1-1h221c1.1,0,2,.9,2,2Z"/>
    <line class="cls-7" x1="297" y1="270" x2="1" y2="270"/>
    <path class="cls-12" d="M276.89,270c8.28,0,14.99-6.72,15-15,0-.55-.45-1-1-1H7.11c-.55,0-1,.45-1,1,0,8.28,6.72,14.99,15,15h255.77Z"/>
    <path class="cls-13" d="M290.89,255H7.11c0,7.73,6.27,14,14,14h255.77c7.73,0,14-6.27,14-14m2,0c-.01,8.83-7.17,15.99-16,16H21.11c-8.83-.01-15.99-7.17-16-16,0-1.1,.9-2,2-2H290.89c1.1,0,2,.9,2,2Zm-2,2h0Z"/>
    <path class="cls-13" d="M172,254.61c0,2.43-1.97,4.39-4.39,4.39h-36.21c-2.43,0-4.39-1.97-4.39-4.39v-.61h45v.61Z"/>
    <polygon class="cls-8" points="191.31 191.39 191.31 131.89 131.81 131.89 106.31 157.39 106.31 216.89 165.81 216.89 191.31 191.39"/>
    <path class="cls-8" d="M161.56,195.64h-12.75c-11.74,0-21.25-9.51-21.25-21.25s9.51-21.25,21.25-21.25h12.75"/>
    <path class="cls-14" d="M209.37,134.96c0-9.8-7.91-17.77-17.71-17.84-9.85-.07-17.9,7.85-17.97,17.71-.07,9.85,7.85,17.9,17.71,17.97,9.89,.03,17.93-7.96,17.97-17.84Z"/>
    <path class="cls-14" d="M191.39,118.62c-9.06-.04-16.44,7.28-16.47,16.34,0,8.97,7.24,16.27,16.21,16.34,9.02,.07,16.4-7.18,16.47-16.21,.07-9.02-7.18-16.4-16.21-16.47m19.47,16.34c0,10.63-8.58,19.27-19.21,19.34-10.68,.07-19.4-8.53-19.47-19.21-.07-10.68,8.53-19.4,19.21-19.47,10.71-.02,19.42,8.63,19.47,19.34Z"/>
    <ellipse class="cls-9" cx="191.39" cy="134.96" rx="16.47" ry="16.34"/>
    <path class="cls-9" d="M191.39,118.62c-2.84,2.76-4.62,6.68-5.55,11.18-.69,3.41-.69,6.91,0,10.32,.93,4.5,2.71,8.42,5.55,11.18"/>
    <path class="cls-9" d="M191.39,151.3c2.84-3.16,4.76-7.02,5.58-11.18,.65-3.41,.65-6.91,0-10.32-.82-4.16-2.75-8.02-5.58-11.18"/>
    <line class="cls-1" x1="207" y1="140.12" x2="175.79" y2="140.12"/>
    <line class="cls-1" x1="207" y1="129.8" x2="175.79" y2="129.8"/>
  </g>
</svg>