<svg width="300" height="300" viewBox="0 0 300 300" fill="none" xmlns="http://www.w3.org/2000/svg">
<g clip-path="url(#clip0_1302_32505)">
<path d="M27 280H273" stroke="#F3F3F3" stroke-width="2" stroke-miterlimit="10" stroke-linecap="round"/>
<path d="M67.9998 267C64.3198 261.91 49.2998 205.08 58.9998 158.58C60.4998 151.35 64.9998 122.28 94.8498 114.98C142.31 103.35 150.28 145.11 152 147.92" stroke="#F3F3F3" stroke-width="4" stroke-miterlimit="10" stroke-linecap="round"/>
<path d="M87.5 83.5H68.5V254.5H87.5V83.5Z" fill="#555557"/>
<path d="M86 85V253H70V85H86ZM89 82H67V256H89V82Z" fill="#808080"/>
<path d="M89 82H67V256H89V82Z" stroke="#F3F3F3" stroke-width="2" stroke-miterlimit="10"/>
<path d="M231.5 83.5H212.5V256.5H231.5V83.5Z" fill="#555557"/>
<path d="M230 85V255H214V85H230ZM233 82H211V258H233V82Z" fill="#808080"/>
<path d="M233 82H211V258H233V82Z" stroke="#F3F3F3" stroke-width="2" stroke-miterlimit="10"/>
<path d="M234.5 67.5H65.5V80.5H234.5V67.5Z" fill="#555557"/>
<path d="M233 69V79H67V69H233ZM236 66H64V82H236V66Z" fill="#808080"/>
<path d="M236 66H64V82H236V66Z" stroke="#F3F3F3" stroke-width="2" stroke-miterlimit="10"/>
<path d="M244.5 151.5H55.5V158.5H244.5V151.5Z" fill="#555557"/>
<path d="M243 153V157H57V153H243ZM246 150H54V160H246V150Z" fill="#808080"/>
<path d="M246 150H54V160H246V150Z" stroke="#F3F3F3" stroke-width="2" stroke-miterlimit="10"/>
<path fill-rule="evenodd" clip-rule="evenodd" d="M128.5 162.5V145C128.5 144.602 128.658 144.221 128.939 143.939C129.221 143.658 129.602 143.5 130 143.5H157.5V162.5H128.5Z" fill="#555557"/>
<path d="M156 145V161H130V145H156ZM159 142H130C129.204 142 128.441 142.316 127.879 142.879C127.316 143.441 127 144.204 127 145V164H159V142Z" fill="#808080"/>
<path d="M159 164H127V145C127 144.204 127.316 143.441 127.879 142.879C128.441 142.316 129.204 142 130 142H159V164Z" stroke="#F3F3F3" stroke-width="2" stroke-miterlimit="10"/>
<path d="M160.5 149.5H141.5V168.5H160.5V149.5Z" fill="#555557"/>
<path d="M159 151V167H143V151H159ZM162 148H140V170H162V148Z" fill="#808080"/>
<path d="M162 148H140V170H162V148Z" stroke="#F3F3F3" stroke-width="2" stroke-miterlimit="10"/>
<path d="M69.9999 155V171C70.0017 171.99 69.7094 172.959 69.1601 173.783C68.6108 174.607 67.8292 175.249 66.9145 175.628C65.9998 176.007 64.9931 176.106 64.022 175.913C63.0509 175.719 62.1592 175.241 61.4599 174.54L48.8799 162C48.5952 161.716 48.3706 161.377 48.2194 161.005C48.0682 160.632 47.9936 160.232 47.9999 159.83V150.17C48.0006 149.375 48.3171 148.612 48.8799 148.05L61.4599 135.46C62.1592 134.759 63.0509 134.281 64.022 134.088C64.9931 133.894 65.9998 133.993 66.9145 134.372C67.8292 134.751 68.6108 135.394 69.1601 136.218C69.7094 137.042 70.0017 138.01 69.9999 139V155Z" fill="#555557" stroke="#F3F3F3" stroke-width="2" stroke-miterlimit="10"/>
<path d="M64.5 142C65.8807 142 67 140.881 67 139.5C67 138.119 65.8807 137 64.5 137C63.1193 137 62 138.119 62 139.5C62 140.881 63.1193 142 64.5 142Z" fill="#F3F3F3"/>
<path d="M64.5 173C65.8807 173 67 171.881 67 170.5C67 169.119 65.8807 168 64.5 168C63.1193 168 62 169.119 62 170.5C62 171.881 63.1193 173 64.5 173Z" fill="#F3F3F3"/>
<path d="M246 137C246.002 136.344 245.872 135.695 245.62 135.09C245.113 133.865 244.141 132.891 242.916 132.383C241.692 131.875 240.315 131.874 239.09 132.38L196.56 150H246V137Z" fill="#555557" stroke="#F3F3F3" stroke-width="2" stroke-miterlimit="10"/>
<path d="M240.67 140C242.051 140 243.17 138.881 243.17 137.5C243.17 136.119 242.051 135 240.67 135C239.289 135 238.17 136.119 238.17 137.5C238.17 138.881 239.289 140 240.67 140Z" fill="#F3F3F3"/>
<path d="M246 173C246.002 173.656 245.872 174.305 245.62 174.91C245.113 176.135 244.141 177.109 242.916 177.617C241.692 178.125 240.315 178.126 239.09 177.62L196.56 160H246V173Z" fill="#555557" stroke="#F3F3F3" stroke-width="2" stroke-miterlimit="10"/>
<path d="M240.67 175C242.051 175 243.17 173.881 243.17 172.5C243.17 171.119 242.051 170 240.67 170C239.289 170 238.17 171.119 238.17 172.5C238.17 173.881 239.289 175 240.67 175Z" fill="#F3F3F3"/>
<path d="M211.5 261.5H148.5V278.5H211.5V261.5Z" fill="#555557"/>
<path d="M210 263V277H150V263H210ZM213 260H147V280H213V260Z" fill="#808080"/>
<path d="M213 260H147V280H213V260Z" stroke="#F3F3F3" stroke-width="2" stroke-miterlimit="10"/>
<path d="M169.5 249.5H150.5V268.5H169.5V249.5Z" fill="#555557"/>
<path d="M168 251V267H152V251H168ZM171 248H149V270H171V248Z" fill="#808080"/>
<path d="M171 248H149V270H171V248Z" stroke="#F3F3F3" stroke-width="2" stroke-miterlimit="10"/>
<path d="M98 248H202" stroke="#F3F3F3" stroke-width="2" stroke-miterlimit="10"/>
<path d="M94 241H206" stroke="#F3F3F3" stroke-width="2" stroke-miterlimit="10"/>
<path d="M103 248V242" stroke="#F3F3F3" stroke-width="2" stroke-miterlimit="10"/>
<path d="M197 248V242" stroke="#F3F3F3" stroke-width="2" stroke-miterlimit="10"/>
<path d="M147.5 257.5H68.5V278.5H147.5V257.5Z" fill="#555557"/>
<path d="M146 259V277H70V259H146ZM149 256H67V280H149V256Z" fill="#808080"/>
<path d="M149 256H67V280H149V256Z" stroke="#F3F3F3" stroke-width="2" stroke-miterlimit="10"/>
<path d="M74.5 266C75.8807 266 77 264.881 77 263.5C77 262.119 75.8807 261 74.5 261C73.1193 261 72 262.119 72 263.5C72 264.881 73.1193 266 74.5 266Z" fill="#F3F3F3"/>
<path d="M83.5 275C84.8807 275 86 273.881 86 272.5C86 271.119 84.8807 270 83.5 270C82.1193 270 81 271.119 81 272.5C81 273.881 82.1193 275 83.5 275Z" fill="#F3F3F3"/>
<path d="M255.5 240.5H212.5V254.5H255.5V240.5Z" fill="#555557"/>
<path d="M254 242V253H214V242H254ZM257 239H211V256H257V239Z" fill="#808080"/>
<path d="M257 239H211V256H257V239Z" stroke="#F3F3F3" stroke-width="2" stroke-miterlimit="10"/>
<path d="M255.5 257.5H212.5V278.5H255.5V257.5Z" fill="#555557"/>
<path d="M254 259V277H214V259H254ZM257 256H211V280H257V256Z" fill="#808080"/>
<path d="M257 256H211V280H257V256Z" stroke="#F3F3F3" stroke-width="2" stroke-miterlimit="10"/>
<path d="M227.5 266C228.881 266 230 264.881 230 263.5C230 262.119 228.881 261 227.5 261C226.119 261 225 262.119 225 263.5C225 264.881 226.119 266 227.5 266Z" fill="#F3F3F3"/>
<path d="M218.5 275C219.881 275 221 273.881 221 272.5C221 271.119 219.881 270 218.5 270C217.119 270 216 271.119 216 272.5C216 273.881 217.119 275 218.5 275Z" fill="#F3F3F3"/>
<path d="M165 208H133V240H165V208Z" fill="#808080"/>
</g>
<defs>
<clipPath id="clip0_1302_32505">
<rect width="248" height="216" fill="white" transform="translate(26 65)"/>
</clipPath>
</defs>
</svg>
