<?xml version="1.0" encoding="UTF-8"?>
<svg width="186px" height="57px" viewBox="0 0 186 57" version="1.1" xmlns="http://www.w3.org/2000/svg" xmlns:xlink="http://www.w3.org/1999/xlink">
    <!-- Generator: Sketch 52.6 (67491) - http://www.bohemiancoding.com/sketch -->
    <title>Cloud_connection-icon</title>
    <desc>Created with Sketch.</desc>
    <g id="Cloud_connection-icon" stroke="none" stroke-width="1" fill="none" fill-rule="evenodd">
        <path d="M38.6261428,52.7109865 L7.48755878,52.7109865 C6.85100215,52.7676651 6.21444551,52.994379 5.75149524,53.3911284 L5.40428251,53.7311992 C5.05706981,54.2979841 4.36264439,54.4113411 3.66821896,54.4113411 L0.543304569,54.4113411 C0.369698215,54.4113411 0.196091859,54.2413055 0.196091859,54.0712703 L0.196091859,0.623463283 C0.196091859,0.453427843 0.369698215,0.283392401 0.543304569,0.283392401 L48.3429212,0.283392401 C48.5165273,0.283392401 48.6901338,0.453427843 48.6901338,0.623463283 L48.6901338,26.0155943 C48.4613867,26.0052354 48.2313048,26 48,26 C46.4042274,26 44.8666558,26.2491876 43.4240742,26.7107738 L43.4240742,6.23463283 C43.4240742,5.61116956 42.9032553,5.15774169 42.3245675,5.15774169 L6.50378945,5.15774169 C5.86723281,5.15774169 5.40428251,5.66784803 5.40428251,6.23463283 L5.40428251,41.3186122 C5.40428251,42.9056095 6.73526457,44.2092147 8.35559054,44.2092147 L33.3440862,44.2092147 C34.087979,47.6221969 35.9937272,50.6011835 38.6261428,52.7109865 Z" id="Combined-Shape" fill="#08073F" fill-rule="nonzero"></path>
        <path d="M158.961954,52.7109865 L131.487559,52.7109865 C130.851002,52.7676651 130.214446,52.994379 129.751495,53.3911284 L129.404283,53.7311992 C129.05707,54.2979841 128.362644,54.4113411 127.668219,54.4113411 L124.543305,54.4113411 C124.369698,54.4113411 124.196092,54.2413055 124.196092,54.0712703 L124.196092,0.623463283 C124.196092,0.453427843 124.369698,0.283392401 124.543305,0.283392401 L172.342921,0.283392401 C172.516527,0.283392401 172.690134,0.453427843 172.690134,0.623463283 L172.690134,27.0854877 C172.13468,27.0289729 171.570805,27 171,27 C169.770934,27 168.574002,27.1343278 167.424074,27.3886981 L167.424074,6.23463283 C167.424074,5.61116956 166.903255,5.15774169 166.324567,5.15774169 L130.503789,5.15774169 C129.867233,5.15774169 129.404283,5.66784803 129.404283,6.23463283 L129.404283,41.3186122 C129.404283,42.9056095 130.735265,44.2092147 132.355591,44.2092147 L155.096113,44.2092147 C155.462794,47.4493334 156.859805,50.3873861 158.961954,52.7109865 Z" id="Combined-Shape" fill="#08073F" fill-rule="nonzero"></path>
        <path d="M171,56 C163.26057,56 157,49.9481159 157,42.5 C157,35.0518841 163.26057,29 171,29 C178.73943,29 185,35.0518841 185,42.5 C185,49.9481159 178.73943,56 171,56 Z M177.416667,40.7546296 C177.233333,39.1569444 175.858333,37.9351852 174.208333,37.9351852 C173.75,37.9351852 173.383333,38.0291667 173.016667,38.2171296 C172.191667,36.9013889 170.725,36.0555556 169.166667,36.0555556 C166.6,36.0555556 164.583333,38.1231482 164.583333,40.7546296 C164.583333,40.7546296 164.583333,40.7546296 164.583333,40.8486111 C163.025,41.0365741 161.833333,42.4462963 161.833333,44.0439815 C161.833333,45.8296296 163.3,47.3333333 165.041667,47.3333333 C166.416667,47.3333333 175.308333,47.3333333 176.958333,47.3333333 C178.7,47.3333333 180.166667,45.8296296 180.166667,44.0439815 C180.166667,42.3523148 178.975,41.0365741 177.416667,40.7546296 Z" id="Combined-Shape" fill="#3282FF" fill-rule="nonzero"></path>
        <path d="M48,54 C40.8202983,54 35,48.1797017 35,41 C35,33.8202983 40.8202983,28 48,28 C55.1797017,28 61,33.8202983 61,41 C61,48.1797017 55.1797017,54 48,54 Z M46.862511,41.4631428 L43.8629783,38.6111022 L41.1067187,41.5099007 L47.0308248,47.1427085 L55.8527121,37.698579 L52.9296286,34.9680877 L46.862511,41.4631428 Z" id="Combined-Shape" fill="#3282FF" fill-rule="nonzero"></path>
        <path d="M54.5,25 C53.6715729,25 53,24.3284271 53,23.5 C53,22.6715729 53.6715729,22 54.5,22 C55.3284271,22 56,22.6715729 56,23.5 C56,24.3284271 55.3284271,25 54.5,25 Z M78.5,25 C77.6715729,25 77,24.3284271 77,23.5 C77,22.6715729 77.6715729,22 78.5,22 C79.3284271,22 80,22.6715729 80,23.5 C80,24.3284271 79.3284271,25 78.5,25 Z M102.5,25 C101.671573,25 101,24.3284271 101,23.5 C101,22.6715729 101.671573,22 102.5,22 C103.328427,22 104,22.6715729 104,23.5 C104,24.3284271 103.328427,25 102.5,25 Z M62.5,25 C61.6715729,25 61,24.3284271 61,23.5 C61,22.6715729 61.6715729,22 62.5,22 C63.3284271,22 64,22.6715729 64,23.5 C64,24.3284271 63.3284271,25 62.5,25 Z M86.5,25 C85.6715729,25 85,24.3284271 85,23.5 C85,22.6715729 85.6715729,22 86.5,22 C87.3284271,22 88,22.6715729 88,23.5 C88,24.3284271 87.3284271,25 86.5,25 Z M110.5,25 C109.671573,25 109,24.3284271 109,23.5 C109,22.6715729 109.671573,22 110.5,22 C111.328427,22 112,22.6715729 112,23.5 C112,24.3284271 111.328427,25 110.5,25 Z M70.5,25 C69.6715729,25 69,24.3284271 69,23.5 C69,22.6715729 69.6715729,22 70.5,22 C71.3284271,22 72,22.6715729 72,23.5 C72,24.3284271 71.3284271,25 70.5,25 Z M94.5,25 C93.6715729,25 93,24.3284271 93,23.5 C93,22.6715729 93.6715729,22 94.5,22 C95.3284271,22 96,22.6715729 96,23.5 C96,24.3284271 95.3284271,25 94.5,25 Z M118.5,25 C117.671573,25 117,24.3284271 117,23.5 C117,22.6715729 117.671573,22 118.5,22 C119.328427,22 120,22.6715729 120,23.5 C120,24.3284271 119.328427,25 118.5,25 Z" id="Combined-Shape" fill="#3282FF" fill-rule="nonzero"></path>
    </g>
</svg>