<svg width="48" height="48" viewBox="0 0 48 48" fill="none" xmlns="http://www.w3.org/2000/svg">
<path d="M39 14V8H27V14H21V8H9V14H7C6.20435 14 5.44129 14.3161 4.87868 14.8787C4.31607 15.4413 4 16.2044 4 17V37C4 37.7956 4.31607 38.5587 4.87868 39.1213C5.44129 39.6839 6.20435 40 7 40H41C41.7957 40 42.5587 39.6839 43.1213 39.1213C43.6839 38.5587 44 37.7956 44 37V17C44 16.2044 43.6839 15.4413 43.1213 14.8787C42.5587 14.3161 41.7957 14 41 14H39ZM29 10H37V14H29V10ZM11 10H19V14H11V10ZM42 38H6V16H42V38Z" fill="#000E1A"/>
</svg>
