<svg width="48" height="48" viewBox="0 0 48 48" fill="none" xmlns="http://www.w3.org/2000/svg">
<path d="M24 4C18.6975 4.00609 13.614 6.11518 9.86459 9.86459C6.11518 13.614 4.00609 18.6975 4 24V42H6V32.66C7.54979 35.8792 9.93405 38.6241 12.9046 40.6092C15.8752 42.5942 19.3236 43.7468 22.8908 43.947C26.4579 44.1472 30.0136 43.3876 33.1876 41.7474C36.3616 40.1071 39.038 37.6462 40.9382 34.6206C42.8385 31.595 43.893 28.1155 43.9922 24.544C44.0914 20.9726 43.2315 17.4399 41.5021 14.3136C39.7727 11.1872 37.237 8.5815 34.1589 6.76765C31.0808 4.9538 27.5728 3.99809 24 4ZM24 42C20.4399 42 16.9598 40.9443 13.9997 38.9665C11.0397 36.9886 8.73255 34.1774 7.37017 30.8883C6.00779 27.5992 5.65133 23.98 6.34586 20.4884C7.0404 16.9967 8.75473 13.7894 11.2721 11.2721C13.7894 8.75473 16.9967 7.0404 20.4884 6.34587C23.98 5.65133 27.5992 6.00779 30.8883 7.37017C34.1774 8.73255 36.9886 11.0397 38.9665 13.9997C40.9443 16.9598 42 20.4399 42 24C41.9947 28.7723 40.0966 33.3476 36.7221 36.7221C33.3476 40.0966 28.7723 41.9947 24 42ZM24 17C22.6155 17 21.2622 17.4105 20.111 18.1797C18.9599 18.9489 18.0627 20.0421 17.5328 21.3212C17.003 22.6003 16.8644 24.0078 17.1345 25.3656C17.4046 26.7235 18.0713 27.9708 19.0503 28.9498C20.0292 29.9287 21.2765 30.5954 22.6344 30.8655C23.9922 31.1356 25.3997 30.997 26.6788 30.4672C27.9579 29.9373 29.0511 29.0401 29.8203 27.889C30.5895 26.7379 31 25.3845 31 24C30.9979 22.1441 30.2598 20.3648 28.9475 19.0525C27.6352 17.7402 25.8559 17.0021 24 17ZM24 29C23.0111 29 22.0444 28.7068 21.2221 28.1574C20.3999 27.6079 19.759 26.8271 19.3806 25.9134C19.0022 24.9998 18.9031 23.9945 19.0961 23.0246C19.289 22.0546 19.7652 21.1637 20.4645 20.4645C21.1637 19.7652 22.0546 19.289 23.0245 19.0961C23.9945 18.9031 24.9998 19.0022 25.9134 19.3806C26.827 19.759 27.6079 20.3999 28.1573 21.2222C28.7068 22.0444 29 23.0111 29 24C28.9984 25.3256 28.4712 26.5965 27.5338 27.5338C26.5965 28.4712 25.3256 28.9984 24 29ZM24 11C25.7079 10.9954 27.3997 11.3295 28.9776 11.9831C30.5554 12.6367 31.988 13.5967 33.1924 14.8076L31.7783 16.2217C30.7592 15.1971 29.547 14.3848 28.2118 13.8318C26.8767 13.2788 25.4451 12.9961 24 13V11Z" fill="#000E1A"/>
</svg>
