<?xml version="1.0" standalone="no"?>
<!DOCTYPE svg PUBLIC "-//W3C//DTD SVG 20010904//EN"
 "http://www.w3.org/TR/2001/REC-SVG-20010904/DTD/svg10.dtd">
<svg version="1.0" xmlns="http://www.w3.org/2000/svg"
 width="450.000000pt" height="450.000000pt" viewBox="0 0 450.000000 450.000000"
 preserveAspectRatio="xMidYMid meet">

<g transform="translate(0.000000,450.000000) scale(0.100000,-0.100000)"
fill="#000000" stroke="none">
<path d="M2155 3422 c-198 -11 -412 -132 -529 -300 l-28 -41 31 -45 c58 -84
211 -216 251 -216 5 0 10 -4 10 -10 0 -5 9 -10 19 -10 13 0 26 15 41 45 59
121 169 230 293 291 37 18 67 31 67 28 0 -2 10 0 23 5 89 34 335 34 398 0 37
-19 25 7 -24 53 -87 84 -207 153 -310 179 -55 14 -179 25 -242 21z"/>
<path d="M2470 3147 c-3 -3 -23 -8 -45 -11 -61 -9 -153 -46 -218 -86 l-58 -37
64 -1 c127 -1 213 -61 280 -192 19 -36 37 -78 41 -95 4 -16 11 -41 14 -55 8
-32 8 -258 0 -290 -3 -14 -10 -38 -14 -55 -16 -65 -89 -190 -145 -250 -33 -34
-59 -65 -59 -68 0 -3 26 2 57 10 181 47 348 183 447 365 65 117 86 213 81 358
-5 136 -65 310 -118 344 -23 15 -97 41 -144 52 -40 8 -177 17 -183 11z"/>
<path d="M1870 2602 c-61 -33 -139 -94 -181 -139 -50 -55 -89 -108 -89 -122 0
-33 121 -170 195 -221 45 -30 155 -91 155 -86 0 3 24 -5 53 -15 28 -11 88 -22
132 -26 l81 -6 54 45 c98 79 172 186 215 308 20 55 33 274 17 284 -6 3 -15 -9
-22 -28 -17 -52 -84 -122 -146 -152 -137 -67 -314 -7 -382 130 -13 25 -26 47
-30 49 -4 3 -27 -7 -52 -21z"/>
<path d="M3912 1438 l3 -313 40 0 40 0 3 313 2 312 -45 0 -45 0 2 -312z"/>
<path d="M395 1699 c-3 -8 -4 -140 -3 -294 l3 -280 126 1 c143 2 203 16 260
63 115 95 128 340 24 444 -55 54 -106 69 -262 74 -116 5 -144 3 -148 -8z m255
-91 c36 -8 92 -53 111 -90 25 -49 27 -149 5 -193 -18 -36 -61 -77 -96 -92 -14
-5 -61 -11 -105 -12 l-80 -2 0 193 c0 106 3 196 8 199 8 5 125 3 157 -3z"/>
<path d="M2940 1657 c0 -30 2 -56 4 -58 3 -2 25 -3 50 -1 l46 4 0 54 0 54 -50
0 -50 0 0 -53z"/>
<path d="M1443 1532 c-18 -2 -33 -6 -33 -10 -6 -170 -3 -392 5 -395 6 -2 26
-3 45 -3 l35 1 1 153 c0 106 4 156 12 161 15 9 100 7 129 -3 31 -10 36 -35 37
-181 l1 -130 35 -1 c19 0 40 1 46 3 7 3 10 56 9 156 -2 178 -13 214 -74 241
-35 16 -130 19 -248 8z"/>
<path d="M1930 1533 c-14 -2 -38 -9 -53 -15 -25 -10 -28 -15 -23 -41 3 -16 6
-34 6 -39 0 -5 15 -6 33 -3 106 20 143 18 171 -11 25 -24 21 -60 -6 -60 -101
-2 -197 -35 -219 -75 -19 -37 -5 -106 26 -133 46 -40 89 -46 252 -35 l53 4 -1
150 c0 88 -5 164 -12 185 -21 62 -113 92 -227 73z m150 -291 l0 -50 -59 0
c-45 0 -65 5 -80 20 -12 10 -21 22 -21 26 1 27 48 47 117 51 l43 2 0 -49z"/>
<path d="M2292 1532 l-32 -3 2 -202 3 -202 40 0 40 0 2 140 c4 188 2 182 60
180 68 -2 92 -13 99 -42 4 -14 7 -83 8 -152 l1 -126 35 -1 c62 -1 60 -5 60
156 l0 148 38 8 c55 11 55 11 77 1 40 -20 43 -31 44 -167 1 -73 4 -136 6 -140
2 -4 21 -6 42 -5 l38 1 0 159 c0 183 -8 210 -71 240 -30 14 -52 16 -117 11
-44 -4 -86 -11 -93 -17 -9 -7 -22 -6 -44 6 -30 15 -122 18 -238 7z"/>
<path d="M3236 1532 c-39 -8 -98 -56 -118 -96 -16 -31 -21 -60 -21 -116 -1
-112 30 -158 123 -190 55 -19 103 -19 168 -1 42 12 45 17 33 60 -6 22 -11 24
-95 25 -83 1 -89 2 -112 29 -57 66 -39 161 36 194 27 11 96 11 141 -2 22 -5
27 -3 31 17 3 13 9 30 12 39 14 33 -114 59 -198 41z"/>
<path d="M3595 1534 c-11 -3 -36 -9 -56 -15 l-36 -11 10 -40 c10 -38 11 -40
41 -32 17 4 59 8 93 8 51 1 65 -3 77 -19 21 -27 16 -60 -9 -61 -149 -8 -224
-46 -227 -115 -2 -47 2 -59 32 -88 47 -44 89 -51 258 -40 l53 4 -2 156 c-1
181 -10 212 -71 239 -36 16 -120 23 -163 14z m140 -294 l0 -45 -39 -3 c-65 -6
-116 18 -116 53 0 18 66 42 114 41 l41 -1 0 -45z"/>
<path d="M930 1527 c0 -5 48 -125 65 -162 7 -16 25 -59 40 -95 14 -36 33 -80
41 -98 23 -49 21 -59 -24 -161 -23 -52 -39 -97 -36 -100 10 -10 95 -7 103 3 9
13 231 597 231 609 0 4 -21 7 -47 5 -42 -3 -47 -6 -56 -33 -8 -26 -48 -141
-64 -185 -3 -8 -7 -19 -9 -25 -2 -5 -7 -23 -12 -40 l-9 -30 -12 30 c-6 17 -15
39 -20 50 -5 11 -17 40 -26 65 -10 25 -23 59 -30 75 -7 17 -18 45 -25 63 -12
30 -15 32 -61 32 -27 0 -49 -1 -49 -3z"/>
<path d="M2945 1518 c-3 -8 -4 -99 -3 -203 l3 -190 35 -1 c19 0 40 1 46 3 7 3
10 68 10 201 l-1 197 -43 3 c-28 2 -44 -1 -47 -10z"/>
<path d="M3570 898 c-13 -5 -26 -10 -27 -12 -7 -6 9 -36 16 -31 22 13 70 13
87 0 19 -15 19 -15 0 -30 -11 -8 -28 -15 -37 -15 -18 0 -35 -17 -26 -26 2 -3
14 -6 25 -9 34 -6 62 -25 62 -40 0 -22 -39 -38 -81 -32 -45 6 -73 -15 -42 -31
20 -11 99 -9 127 3 27 12 46 63 33 92 -5 13 -14 23 -19 23 -5 0 -2 12 6 27 31
60 -45 110 -124 81z"/>
<path d="M3784 901 c-2 -2 -4 -55 -4 -118 l0 -113 66 0 c44 0 75 6 95 17 57
34 71 127 26 179 -21 24 -33 28 -101 33 -42 4 -79 5 -82 2z m141 -55 c28 -19
36 -55 19 -95 -13 -30 -31 -40 -89 -44 l-30 -2 -3 69 c-2 38 -1 75 2 81 6 17
71 11 101 -9z"/>
</g>
</svg>
