# Blender v2.80 (sub 75) OBJ File: 'hellbotBed.blend'
# www.blender.org
mtllib hellbot_adonis.mtl
o Cube.001
v -89.999985 90.000000 -1.000015
v -89.999985 90.000000 0.999985
v 90.000000 89.999985 0.999996
v 90.000000 89.999985 -1.000004
v 89.999985 -90.000000 1.000015
v 89.999985 -90.000000 -0.999985
v -90.000000 -89.999985 1.000004
v 0.900000 -0.000000 0.000151
v -0.900000 -0.000000 0.000151
v 0.900000 0.000000 0.017850
v -0.900000 0.000000 0.017850
v -89.999985 90.000000 -1.000015
v -89.999985 90.000000 0.999985
v 90.000000 89.999985 -1.000004
v 89.999985 -90.000000 1.000015
v 89.999985 -90.000000 -0.999985
v -90.000000 -89.999985 -0.999996
v -90.000000 -89.999985 1.000004
v 0.900000 0.000000 -1.000000
v -0.900000 0.000000 -1.000000
vt 0.000100 0.000100
vt 0.999900 0.000100
vt 0.999900 0.999900
vt 0.000100 0.999900
vt 0.000000 0.000000
vt 1.000000 0.000000
vt 1.000000 1.000000
vt 0.000000 1.000000
vt 0.017463 0.999987
vt 0.000013 0.999857
vt 0.000013 0.000013
vt 0.017463 0.000143
vt 0.000013 0.000013
vt 0.017463 0.000143
vt 0.017463 0.999987
vt 0.000013 0.999857
vt 0.000000 0.000000
vt 0.123047 0.000000
vt 0.123047 0.126953
vt 0.000000 0.126953
vt 0.017463 0.999987
vt 0.000013 0.999857
vt 0.000013 0.000013
vt 0.017463 0.000143
vt 0.017463 0.000143
vt 0.017463 0.999987
vt 0.000013 0.999857
vn -0.0000 0.0000 1.0000
vn 0.0000 1.0000 -0.0000
vn 1.0000 -0.0000 0.0000
vn 0.0000 -0.0000 -1.0000
vn -1.0000 0.0000 0.0000
vn -0.0000 -1.0000 0.0000
usemtl Material.001
s 1
f 7/1/1 5/2/1 3/3/1 2/4/1
usemtl Material.001_NONE
s off
f 8/5/2 9/6/2 11/7/2 10/8/2
s 1
f 1/9/2 2/10/2 3/11/2 4/12/2
f 4/13/3 3/14/3 5/15/3 6/16/3
f 16/17/4 17/18/4 12/19/4 14/20/4
f 17/21/5 18/22/5 13/23/5 12/24/5
f 16/17/6 15/25/6 18/26/6 17/27/6
l 20 19
