# OBJ written from C:\Users\Flo\Desktop\Cura_FILES\moai.obj
mtllib moai.mtl
# Units	millimeters

g Mesh
v 65 -65 0
v -65 -65 0
v -65 65 0
v 65 65 0
v 65 -65 0
v -65 -65 0
v -65 65 0
v 65 65 0
v -65 65 18.8383
v 65 65 18.8383
vn 0 0 1
vn 1 0 0
vn -1 0 0
vt 0.0975501 1
vt 1 1
vt 1 0.0977239
vt 0.0975501 0.0977239
vt 0.0186426 0.870052
vt 0.0736426 0.870052
vt 0.0186426 0.815052
vt 0.0214764 0.912057
vt 0.0764764 0.967057
vt 0.0214764 0.967057
usemtl red
f 1/1/1 4/2/1 3/3/1 2/4/1
f 7/5/2 9/6/2 6/7/2
f 5/8/3 10/9/3 8/10/3
