<svg xmlns="http://www.w3.org/2000/svg" viewBox="0 0 30 30">
    <switch>
        <g>
            <path d="M27 3.013V3H3v24h24V3.013zM12.891 26.078l-8.967-8.967v-.133l9.081-9.08 9.112 9.113-9.066 9.066h-.16zM3.923 8.618l3.527 3.528-3.527 3.528V8.618zm0 9.798l3.511 3.51-3.511 3.512v-7.022zM26.077 9.87l-5.946-5.946h5.929l.017 5.946zm-7.253-5.947l3.309 3.308-4.246 4.245-4.23-4.23 3.322-3.323h1.845zm-3.151 0l-2.669 2.67-2.67-2.67h5.339zm-11.75 0h5.104l3.323 3.323-4.247 4.247-4.18-4.182V3.923zm.666 22.155l3.498-3.5 3.499 3.5H4.589zm9.765 0l3.515-3.514 3.514 3.514h-7.029zm11.723 0h-3.389l-4.166-4.166 4.246-4.248 3.309 3.309v5.105zm0-6.41l-2.655-2.656 2.655-2.656v5.312zm-3.308-3.309l-4.229-4.231 4.245-4.246 3.292 3.293v1.876l-3.308 3.308z"/>
        </g>
    </switch>
</svg>
