<svg xmlns="http://www.w3.org/2000/svg" viewBox="0 0 30 30">
    <switch>
        <g>
            <path d="M15.032 14.949c.009-4.516 2.462-8.45 6.102-10.574A12.151 12.151 0 0 0 17.6 3a12.254 12.254 0 0 0-2.598 11.963c-3.195-3.209-4.239-7.74-3.156-11.824a12.202 12.202 0 0 0-3.499 1.542c.218 4.5 2.857 8.359 6.645 10.311-4.54-.009-8.491-2.486-10.608-6.156A12.15 12.15 0 0 0 3 12.388a12.25 12.25 0 0 0 12.003 2.632c-3.217 3.205-7.764 4.248-11.856 3.148a12.152 12.152 0 0 0 1.56 3.51c4.508-.213 8.371-2.854 10.325-6.646-.008 4.534-2.479 8.482-6.142 10.601A12.13 12.13 0 0 0 12.45 27a12.258 12.258 0 0 0 2.611-11.979c3.189 3.203 4.236 7.723 3.161 11.803a12.244 12.244 0 0 0 3.496-1.57c-.233-4.481-2.868-8.316-6.643-10.263 4.511.01 8.44 2.458 10.567 6.089a12.186 12.186 0 0 0 1.357-3.543 12.255 12.255 0 0 0-11.938-2.575c3.194-3.182 7.699-4.231 11.77-3.169a12.151 12.151 0 0 0-1.553-3.485c-4.471.238-8.303 2.871-10.246 6.641z"/>
        </g>
    </switch>
</svg>
