<svg xmlns="http://www.w3.org/2000/svg" viewBox="0 0 30 30">
    <switch>
        <g>
            <path style="isolation:auto;mix-blend-mode:normal" d="M9 3l1 8-7 16h24l-7-16 1-8H9zm1.443 1h9.114l-.494 6.648-.131.352.132.352 1.172 3.127H9.766l1.171-3.127.131-.352-.13-.352L10.443 4zm3.412 4.861a1.591 1.57 0 0 0-1.591 1.569A1.591 1.57 0 0 0 13.855 12a1.591 1.57 0 0 0 1.592-1.57 1.591 1.57 0 0 0-1.592-1.569zm-.197 7.428c1.212 0 2.194.939 2.194 2.096 0 1.156-.983 2.094-2.194 2.094-1.21-.001-2.19-.939-2.191-2.094-.001-1.157.98-2.095 2.191-2.096zm-3.863 4.902a1.602 1.602 0 0 1 1.601 1.602 1.602 1.602 0 0 1-1.601 1.602 1.602 1.602 0 0 1-1.602-1.602 1.602 1.602 0 0 1 1.602-1.602z" overflow="visible"/>
        </g>
    </switch>
</svg>
