<svg width="24px" height="24px" viewBox="0 0 24 24" version="1.1" xmlns="http://www.w3.org/2000/svg" xmlns:xlink="http://www.w3.org/1999/xlink">
    <!-- Generator: Sketch 49 (51002) - http://www.bohemiancoding.com/sketch -->
    <desc>Created with Sketch.</desc>
    <defs></defs>
    <g id="Page-1" stroke="none" stroke-width="1" fill="none" fill-rule="evenodd">
        <g id="connected_24" fill="#00B8E9">
            <g id="Connected" transform="translate(1.500000, 1.500000)">
                <path d="M15,12 C11.6862915,12 9,9.3137085 9,6 C9,2.6862915 11.6862915,0 15,0 C18.3137085,0 21,2.6862915 21,6 C21,9.3137085 18.3137085,12 15,12 Z M15,9 C16.6568542,9 18,7.65685425 18,6 C18,4.34314575 16.6568542,3 15,3 C13.3431458,3 12,4.34314575 12,6 C12,7.65685425 13.3431458,9 15,9 Z" id="Combined-Shape" fill-rule="evenodd"></path>
                <path d="M6,21 C2.6862915,21 0,18.3137085 0,15 C0,11.6862915 2.6862915,9 6,9 C9.3137085,9 12,11.6862915 12,15 C12,18.3137085 9.3137085,21 6,21 Z M6,18 C7.65685425,18 9,16.6568542 9,15 C9,13.3431458 7.65685425,12 6,12 C4.34314575,12 3,13.3431458 3,15 C3,16.6568542 4.34314575,18 6,18 Z" id="Combined-Shape" fill-rule="evenodd"></path>
                <path d="M7.06066017,16.0606602 C6.47487373,16.6464466 5.52512627,16.6464466 4.93933983,16.0606602 C4.35355339,15.4748737 4.35355339,14.5251263 4.93933983,13.9393398 L13.9393398,4.93933983 C14.5251263,4.35355339 15.4748737,4.35355339 16.0606602,4.93933983 C16.6464466,5.52512627 16.6464466,6.47487373 16.0606602,7.06066017 L7.06066017,16.0606602 Z" id="Path" fill-rule="nonzero"></path>
            </g>
        </g>
    </g>
</svg>