<svg xmlns="http://www.w3.org/2000/svg" viewBox="0 0 30 30">
    <path d="M30 0H0v30h30V0zM12.4 28.8L1.2 17.6v-.2L12.5 6.1l11.4 11.4-11.3 11.3h-.2zM1.2 7l4.4 4.4-4.4 4.4V7zm0 12.3l4.4 4.4L1.2 28v-8.7zM28.8 8.6l-7.4-7.4h7.4v7.4zm-9-7.4l4.1 4.1-5.3 5.3-5.3-5.3 4.2-4.2h2.3zm-4 0l-3.3 3.3-3.3-3.3h6.6zm-14.6 0h6.4l4.2 4.2-5.3 5.3-5.3-5.3V1.2zM2 28.8l4.4-4.4 4.4 4.4H2zm12.2 0l4.4-4.4 4.4 4.4h-8.8zm14.6 0h-4.2l-5.2-5.2 5.3-5.3 4.1 4.1v6.4zm0-8l-3.3-3.3 3.3-3.3v6.6zm-4.1-4.1l-5.3-5.3 5.3-5.3 4.1 4.1v2.3l-4.1 4.2z"/>
    <path d="M2.254 8.141l.848-.848 21.213 21.213-.848.848z"/>
    <path d="M29.012.188l.849.848L2.354 28.542l-.848-.848z"/>
</svg>
