<svg width="24px" height="24px" viewBox="0 0 24 24" version="1.1" xmlns="http://www.w3.org/2000/svg" xmlns:xlink="http://www.w3.org/1999/xlink">
    <!-- Generator: Sketch 49 (51002) - http://www.bohemiancoding.com/sketch -->
    <desc>Created with Sketch.</desc>
    <defs></defs>
    <g id="Page-1" stroke="none" stroke-width="1" fill="none" fill-rule="evenodd">
        <g id="disconnected_24" fill="#FFA34E">
            <g id="Disconnected">
                <path d="M18,12 C14.6862915,12 12,9.3137085 12,6 C12,2.6862915 14.6862915,0 18,0 C21.3137085,0 24,2.6862915 24,6 C24,9.3137085 21.3137085,12 18,12 Z M18,9 C19.6568542,9 21,7.65685425 21,6 C21,4.34314575 19.6568542,3 18,3 C16.3431458,3 15,4.34314575 15,6 C15,7.65685425 16.3431458,9 18,9 Z" id="Combined-Shape"></path>
                <path d="M6,24 C2.6862915,24 0,21.3137085 0,18 C0,14.6862915 2.6862915,12 6,12 C9.3137085,12 12,14.6862915 12,18 C12,21.3137085 9.3137085,24 6,24 Z M6,21 C7.65685425,21 9,19.6568542 9,18 C9,16.3431458 7.65685425,15 6,15 C4.34314575,15 3,16.3431458 3,18 C3,19.6568542 4.34314575,21 6,21 Z" id="Combined-Shape"></path>
            </g>
        </g>
    </g>
</svg>