<?xml version="1.0" encoding="utf-8"?>
<!-- Generator: Adobe Illustrator 22.1.0, SVG Export Plug-In . SVG Version: 6.00 Build 0)  -->
<svg version="1.1" id="Layer_1" xmlns="http://www.w3.org/2000/svg" xmlns:xlink="http://www.w3.org/1999/xlink" x="0px" y="0px"
	 viewBox="0 0 512 512" style="enable-background:new 0 0 512 512;" xml:space="preserve">
<path d="M255.8,69l56.6,114.7l5.8,11.8l13,1.9l126.6,18.4l-91.6,89.3l-9.4,9.2l2.2,13l21.6,126.1l-113.2-59.5l-11.6-6.1l-11.6,6.1
	l-113.2,59.5l21.6-126.1l2.2-13l-9.4-9.2l-91.6-89.3l126.6-18.4l13-1.9l5.8-11.8L255.8,69 M255.8,12.5l-79,160.1L0,198.3L127.9,323
	L97.7,499l158.1-83.1L413.8,499l-30.2-176l127.9-124.6l-176.7-25.7L255.8,12.5L255.8,12.5z"/>
</svg>
