<?xml version="1.0" encoding="iso-8859-1"?>
<!-- Generator: Adobe Illustrator 25.2.0, SVG Export Plug-In . SVG Version: 6.00 Build 0)  -->
<svg version="1.1" id="Artwork" xmlns="http://www.w3.org/2000/svg" xmlns:xlink="http://www.w3.org/1999/xlink" x="0px" y="0px"
	 viewBox="0 0 48 48" style="enable-background:new 0 0 48 48;" xml:space="preserve">
<path style="fill:#000E1A;" d="M40.2,26.8c1.1-0.9,1.8-2.3,1.8-3.8c0-2.8-2.2-5-5-5s-5,2.2-5,5c0,1.5,0.7,2.9,1.8,3.8
	c-0.5,0.3-1,0.6-1.5,1c-1.2-1.3-2.6-2.4-4.3-3.1c1.8-1.3,3-3.4,3-5.8c0-3.9-3.1-7-7-7s-7,3.1-7,7c0,2.4,1.2,4.5,3,5.8
	c-1.7,0.7-3.2,1.7-4.3,3.1c-0.4-0.4-0.9-0.7-1.5-1c1.1-0.9,1.8-2.3,1.8-3.8c0-2.8-2.2-5-5-5s-5,2.2-5,5c0,1.5,0.7,2.9,1.8,3.8
	C5.5,28,4,30.3,4,33v5h2v-5c0-2.8,2.2-5,5-5c1.3,0,2.6,0.5,3.5,1.5C13.6,31.1,13,33,13,35v5h2v-5c0-5,4-9,9-9s9,4,9,9v5h2v-5
	c0-2-0.6-3.9-1.5-5.5c0.9-0.9,2.2-1.5,3.5-1.5c2.8,0,5,2.2,5,5v4h2v-4C44,30.3,42.5,28,40.2,26.8z M8,23c0-1.7,1.3-3,3-3s3,1.3,3,3
	s-1.3,3-3,3S8,24.7,8,23z M19,19c0-2.8,2.2-5,5-5s5,2.2,5,5s-2.2,5-5,5S19,21.8,19,19z M34,23c0-1.7,1.3-3,3-3s3,1.3,3,3s-1.3,3-3,3
	S34,24.7,34,23z"/>
</svg>
