<?xml version="1.0" encoding="UTF-8"?>
<svg width="18px" height="18px" viewBox="0 0 18 18" version="1.1" xmlns="http://www.w3.org/2000/svg" xmlns:xlink="http://www.w3.org/1999/xlink">
    <!-- Generator: Sketch 52.2 (67145) - http://www.bohemiancoding.com/sketch -->
    <title>Icon/ info</title>
    <desc>Created with Sketch.</desc>
    <g id="Symbols" stroke="none" stroke-width="1" fill="none" fill-rule="evenodd">
        <g id="Print-panel/-print" transform="translate(-214.000000, -24.000000)" fill="#08073F" fill-rule="nonzero">
            <g id="Icon/-info" transform="translate(214.000000, 24.000000)">
                <path d="M2.63588391,2.63588391 C-0.878627968,6.15039578 -0.878627968,11.8496042 2.63588391,15.3641161 C6.15039578,18.878628 11.8496042,18.878628 15.3641161,15.3641161 C18.878628,11.8496042 18.878628,6.15039578 15.3641161,2.63588391 C11.8496042,-0.878627968 6.15039578,-0.878627968 2.63588391,2.63588391 Z M9.01034483,3.5 C9.83793103,3.5 10.5,4.17808219 10.5,5 C10.5,5.82191781 9.81724138,6.5 9.01034483,6.5 C8.18275862,6.5 7.5,5.82191781 7.5,4.97945205 C7.5,4.15753425 8.18275862,3.5 9.01034483,3.5 Z M11.488168,13.3648649 C11.4474692,13.4783784 11.3660716,13.6108108 11.2846741,13.6864865 C10.75559,14.1972973 10.1044095,14.5 9.33113276,14.5 C8.96484376,14.5 8.61890416,14.5 8.25261516,14.4432432 C7.66248289,14.3675676 6.9095555,13.6864865 7.01130245,12.9675676 C7.0927,12.4756757 7.17409756,11.9837838 7.25549511,11.4918919 C7.41829022,10.6405405 7.58108533,9.77027027 7.74388044,8.91891892 C7.74388044,8.86216216 7.76422983,8.80540541 7.76422983,8.74864865 C7.76422983,8.38918919 7.6421335,8.25675676 7.25549511,8.21891892 C7.0927,8.2 6.92990489,8.18108108 6.76710978,8.14324324 C6.58396529,8.08648649 6.48221834,7.93513514 6.50256773,7.8027027 C6.52291712,7.65135135 6.62466406,7.55675676 6.82815795,7.51891892 C6.92990489,7.5 7.05200123,7.5 7.17409756,7.5 C7.62178411,7.5 8.06947066,7.5 8.5375066,7.5 C9.02589193,7.5 9.49392787,7.5 9.9823132,7.5 C10.3282528,7.5 10.5317467,7.65135135 10.5317467,7.97297297 C10.5317467,8.23783784 10.4910479,8.5027027 10.4299997,8.76756757 C10.2468553,9.75135135 10.0433614,10.7162162 9.86021687,11.7 C9.7991687,12.0216216 9.71777115,12.3432432 9.67707237,12.6648649 C9.65672298,12.8162162 9.67707237,12.9864865 9.71777115,13.1378378 C9.77881931,13.3459459 9.94161442,13.4594595 10.1654577,13.4405405 C10.3486022,13.4216216 10.5317467,13.3648649 10.7148912,13.2891892 C10.8573369,13.2324324 10.9794332,13.1378378 11.121879,13.1 C11.3660716,13.0243243 11.5492161,13.1567568 11.488168,13.3648649 Z" id="Shape"></path>
            </g>
        </g>
    </g>
</svg>