<svg xmlns="http://www.w3.org/2000/svg" viewBox="0 0 250 250">
    <path d="M29.412 183.824q0-6.128 4.289-10.417l31.863-31.863q4.289-4.29 10.416-4.29 6.434 0 11.03 4.903-.46.46-2.91 2.834-2.452 2.374-3.294 3.293-.843.92-2.298 2.91-1.455 1.992-1.991 3.907-.537 1.915-.537 4.213 0 6.127 4.29 10.416 4.289 4.29 10.416 4.29 2.298 0 4.213-.537 1.915-.536 3.906-1.991 1.992-1.455 2.91-2.298.92-.842 3.294-3.293 2.375-2.451 2.834-2.91 5.055 4.748 5.055 11.182 0 6.127-4.289 10.416L77.053 216.3q-4.136 4.136-10.417 4.136-6.127 0-10.417-3.983l-22.518-22.365q-4.29-4.29-4.29-10.263zm107.69-107.997q0-6.127 4.289-10.416l31.556-31.71q4.29-4.29 10.417-4.29 5.974 0 10.417 4.137l22.518 22.365q4.29 4.29 4.29 10.263 0 6.128-4.29 10.417l-31.863 31.863q-4.136 4.136-10.416 4.136-6.434 0-11.03-4.749.46-.46 2.91-2.834 2.452-2.374 3.294-3.293.843-.92 2.298-2.91 1.455-1.992 1.991-3.907.537-1.915.537-4.213 0-6.127-4.29-10.416-4.289-4.29-10.416-4.29-2.298 0-4.213.537-1.915.536-3.906 1.991-1.992 1.455-2.91 2.298-.92.842-3.294 3.293-2.375 2.451-2.834 2.91-5.055-4.748-5.055-11.182zM0 183.824q0 18.382 13.02 31.096l22.52 22.366Q48.253 250 66.635 250q18.536 0 31.25-13.02l31.556-31.71q12.715-12.715 12.715-31.097 0-18.842-13.48-32.016l13.48-13.48q13.174 13.48 31.863 13.48 18.382 0 31.25-12.868l31.862-31.863Q250 84.56 250 66.176q0-18.382-13.02-31.096l-22.52-22.366Q201.747 0 183.365 0q-18.536 0-31.25 13.02l-31.556 31.71q-12.715 12.715-12.715 31.097 0 18.842 13.48 32.016l-13.48 13.48q-13.174-13.48-31.863-13.48-18.382 0-31.25 12.868l-31.862 31.863Q0 165.44 0 183.824z"/>
</svg>
