<?xml version="1.0" encoding="iso-8859-1"?>
<!-- Generator: Adobe Illustrator 25.2.0, SVG Export Plug-In . SVG Version: 6.00 Build 0)  -->
<svg version="1.1" id="Artwork" xmlns="http://www.w3.org/2000/svg" xmlns:xlink="http://www.w3.org/1999/xlink" x="0px" y="0px"
	 viewBox="0 0 48 48" style="enable-background:new 0 0 48 48;" xml:space="preserve">
<path style="fill:#000E1A;" d="M24,4C13,4,4,13,4,24v18h2v-9.3C9.2,39.4,16.1,44,24,44c11,0,20-9,20-20S35,4,24,4z M24,42
	c-9.9,0-18-8.1-18-18S14.1,6,24,6s18,8.1,18,18S33.9,42,24,42z M24,17c-3.9,0-7,3.1-7,7s3.1,7,7,7s7-3.1,7-7S27.9,17,24,17z M24,29
	c-2.8,0-5-2.2-5-5s2.2-5,5-5s5,2.2,5,5S26.8,29,24,29z M24,11c3.5,0,6.7,1.4,9.2,3.8l-1.4,1.4C29.7,14.1,26.9,13,24,13V11z"/>
</svg>
