<svg xmlns="http://www.w3.org/2000/svg" viewBox="0 0 30 30">
  <path d="m 30,23.75 v 2.5 q 0,0.50781 -0.37109,0.87891 Q 29.25781,27.5 28.75,27.5 H 1.25 Q 0.74219,27.5 0.37109,27.12891 0,26.75781 0,26.25 v -2.5 Q 0,23.24219 0.37109,22.87109 0.74219,22.5 1.25,22.5 h 27.5 q 0.50781,0 0.87891,0.37109 Q 30,23.24219 30,23.75 Z m 0,-10 v 2.5 q 0,0.50781 -0.37109,0.87891 Q 29.25781,17.5 28.75,17.5 H 1.25 Q 0.74219,17.5 0.37109,17.12891 0,16.75781 0,16.25 v -2.5 Q 0,13.24219 0.37109,12.87109 0.74219,12.5 1.25,12.5 h 27.5 q 0.50781,0 0.87891,0.37109 Q 30,13.24219 30,13.75 Z m 0,-10 v 2.5 Q 30,6.75781 29.62891,7.12891 29.25781,7.5 28.75,7.5 H 1.25 Q 0.74219,7.5 0.37109,7.12891 0,6.75781 0,6.25 V 3.75 Q 0,3.24219 0.37109,2.87109 0.74219,2.5 1.25,2.5 h 27.5 q 0.50781,0 0.87891,0.37109 Q 30,3.24219 30,3.75 Z" />
</svg>
