<?xml version="1.0" encoding="iso-8859-1"?>
<!-- Generator: Adobe Illustrator 25.2.0, SVG Export Plug-In . SVG Version: 6.00 Build 0)  -->
<svg version="1.1" id="Artwork" xmlns="http://www.w3.org/2000/svg" xmlns:xlink="http://www.w3.org/1999/xlink" x="0px" y="0px"
	 viewBox="0 0 48 48" style="enable-background:new 0 0 48 48;" xml:space="preserve">
<path style="fill:#000E1A;" d="M39,14V8H27v6h-6V8H9v6H7c-1.7,0-3,1.3-3,3v20c0,1.7,1.3,3,3,3h34c1.7,0,3-1.3,3-3V17
	c0-1.7-1.3-3-3-3H39z M29,10h8v4c-2.1,0-4.9,0-8,0V10z M11,10h8v4c-3,0-5.8,0-8,0V10z M42,38H6V16h36V38z"/>
</svg>
