<?xml version="1.0" standalone="no"?>
<!DOCTYPE svg PUBLIC "-//W3C//DTD SVG 20010904//EN"
 "http://www.w3.org/TR/2001/REC-SVG-20010904/DTD/svg10.dtd">
<svg version="1.0" xmlns="http://www.w3.org/2000/svg"
 width="450.000000pt" height="432.000000pt" viewBox="0 0 450.000000 432.000000"
 preserveAspectRatio="xMidYMid meet">

<g transform="translate(0.000000,432.000000) scale(0.100000,-0.100000)"
fill="#000000" stroke="none">
<path d="M1142 3513 c55 -148 117 -322 139 -387 22 -66 44 -125 49 -131 12
-14 110 -282 110 -300 0 -8 -47 -141 -105 -296 -58 -156 -105 -291 -105 -302
0 -10 -9 -30 -20 -44 -11 -14 -20 -34 -20 -45 0 -10 -11 -40 -24 -66 -20 -39
-526 -1383 -526 -1397 0 -3 261 -5 580 -5 l580 0 2 -177 3 -178 410 0 410 0 3
178 2 177 70 0 70 0 2 -177 3 -178 410 0 410 0 3 178 2 177 135 0 c74 0 135 2
135 5 0 3 -60 161 -132 352 l-133 348 -5 390 -5 390 -137 3 c-92 2 -139 6
-146 15 -11 14 -245 637 -244 652 1 21 145 431 157 445 11 13 231 579 243 622
4 17 -55 18 -1210 18 l-1215 0 99 -267z m2128 118 c0 -5 -50 -139 -111 -298
-202 -527 -231 -606 -231 -638 0 -17 52 -170 116 -339 64 -170 116 -312 116
-317 0 -5 -87 -10 -192 -11 l-193 -3 -3 -677 -2 -678 -70 0 -70 0 -2 678 -3
677 -410 0 -410 0 -3 -677 -2 -678 -485 0 c-267 0 -485 2 -485 4 0 5 449 1193
480 1271 11 28 20 57 20 66 0 8 4 19 10 25 5 5 62 149 126 319 101 269 115
316 111 355 -2 25 -35 122 -71 215 -37 94 -80 206 -96 250 -16 44 -62 167
-103 273 l-75 192 1019 0 c626 0 1019 -4 1019 -9z m410 -2957 c0 -2 -18 -4
-40 -4 l-40 0 0 108 1 107 39 -104 c22 -57 40 -105 40 -107z"/>
</g>
</svg>
