<?xml version="1.0" encoding="UTF-8"?>
<svg width="30px" height="30px" viewBox="0 0 28 28" version="1.1" xmlns="http://www.w3.org/2000/svg" xmlns:xlink="http://www.w3.org/1999/xlink">
    <!-- Generator: Sketch 57.1 (83088) - https://sketch.com -->
    <title>pms_modify_dont_support_overlap</title>
    <desc>Created with Sketch.</desc>
    <defs>
        <circle id="path-1" cx="21.5" cy="6.5" r="6.5"></circle>
        <mask id="mask-2" maskContentUnits="userSpaceOnUse" maskUnits="objectBoundingBox" x="0" y="0" width="13" height="13" fill="white">
            <use xlink:href="#path-1"></use>
        </mask>
    </defs>
    <g id="pms_modify_dont_support_overlap" stroke="none" stroke-width="1" fill="none" fill-rule="evenodd">
        <g id="Group-4" transform="translate(0.000000, 2.000000)">
            <polygon id="4" fill="#000" transform="translate(11.000000, 12.000000) scale(1, -1) translate(-11.000000, -12.000000) " points="2 3.34399175e-13 20 3.34399175e-13 13 17.5384615 22 24 0 24 9 17.5384615"></polygon>
            <rect id="Rectangle" fill="#000" x="1" y="0" width="1" height="24"></rect>
            <rect id="Rectangle-Copy-9" fill="#000" x="3" y="0" width="1" height="24"></rect>
            <rect id="Rectangle-Copy-10" fill="#000" x="5" y="0" width="1" height="24"></rect>
            <rect id="Rectangle-Copy-11" fill="#000" x="7" y="0" width="1" height="24"></rect>
            <rect id="Rectangle-Copy-24" fill="#000" x="14" y="0" width="1" height="24"></rect>
            <rect id="Rectangle-Copy-25" fill="#000" x="16" y="10" width="1" height="14"></rect>
            <rect id="Rectangle-Copy-27" fill="#000" x="18" y="12" width="1" height="12"></rect>
            <rect id="Rectangle-Copy-28" fill="#000" x="20" y="12" width="1" height="12"></rect>
            <use id="Oval" stroke="#000" mask="url(#mask-2)" stroke-width="2" stroke-dasharray="2,2" xlink:href="#path-1"></use>
        </g>
    </g>
</svg>