<?xml version="1.0" encoding="UTF-8"?>
<svg width="28px" height="28px" viewBox="0 0 28 28" version="1.1" xmlns="http://www.w3.org/2000/svg" xmlns:xlink="http://www.w3.org/1999/xlink">
    <!-- Generator: Sketch 57.1 (83088) - https://sketch.com -->
    <title>pms_modify_overlaps</title>
    <desc>Created with Sketch.</desc>
    <defs>
        <polygon id="path-1" points="1 25 6 9 4 2 18 2 25 2 22 8.27272727 28 25 21 25"></polygon>
        <mask id="mask-2" maskContentUnits="userSpaceOnUse" maskUnits="objectBoundingBox" x="0" y="0" width="27" height="23" fill="white">
            <use xlink:href="#path-1"></use>
        </mask>
    </defs>
    <g id="pms_modify_overlaps" stroke="none" stroke-width="1" fill="none" fill-rule="evenodd">
        <path d="M10.1109336,2 L12.6179373,9.07692308 L7.60392993,25 L-4.79616347e-14,25 L4.84615385,9.07692308 L2.42307692,2 L10.1109336,2 Z" id="Combined-Shape" fill="#000"></path>
        <path d="M17.717,14.213 L18.026,15.23 L9.635,25 L8.453,25 L17.717,14.213 Z M18.427,16.547 L18.737,17.565 L12.351,25 L11.169,25 L18.427,16.547 Z M19.138,18.882 L19.447,19.899 L15.067,25 L13.885,25 L19.138,18.882 Z M19.849,21.218 L20.158,22.234 L17.783,25 L16.601,25 L19.849,21.218 Z M20.559,23.553 L20.869,24.569 L20.499,25 L19.317,25 L20.559,23.553 Z M17.006,11.878 L17.315,12.894 L8,23.743 L8.684,21.57 L17.006,11.878 Z M16.295,9.544 L16.605,10.559 L9.572,18.749 L10.256,16.577 L16.295,9.544 Z M17.594,4.867 L16.81,7.157 L11.144,13.756 L11.828,11.583 L17.594,4.867 Z M18.522,2 L12.567,8.935 L12.222,7.961 L17.341,2 L18.522,2 Z M15.806,2 L11.774,6.696 L11.429,5.722 L14.625,2 L15.806,2 Z M13.091,2 L10.981,4.458 L10.635,3.483 L11.909,2 L13.091,2 Z M10.375,2 L10.188,2.219 L10.1109336,2 L10.375,2 Z" id="Combined-Shape" fill="#000"></path>
        <use id="Path-4" stroke="#000" mask="url(#mask-2)" stroke-width="2" stroke-dasharray="2,2" xlink:href="#path-1"></use>
    </g>
</svg>