<?xml version="1.0" encoding="UTF-8"?>
<svg width="18px" height="18px" viewBox="0 0 18 18" version="1.1" xmlns="http://www.w3.org/2000/svg" xmlns:xlink="http://www.w3.org/1999/xlink">
    <!-- Generator: Sketch 52.6 (67491) - http://www.bohemiancoding.com/sketch -->
    <title>Icon/ guideline on hover</title>
    <desc>Created with Sketch.</desc>
    <g id="Icon/-guideline-on-hover" stroke="none" stroke-width="1" fill="none" fill-rule="evenodd">
        <path d="M16,18 L15,18 L3,18 C1.8954305,18 1,17.1045695 1,16 L1,2 C1,0.8954305 1.8954305,2.02906125e-16 3,0 L15,0 L15,14 L3.5,14 C2.67157288,14 2,14.6715729 2,15.5 C2,16.3284271 2.67157288,17 3.5,17 L15,17 L16,17 L16,16 L4,16 L4,15 L16,15 L16,2 L17,2 L17,18 L16,18 Z M8.75,11.25 C8.75,10.835625 8.414375,10.5 8,10.5 C7.585625,10.5 7.25,10.835625 7.25,11.25 C7.25,11.664375 7.585625,12 8,12 C8.414375,12 8.75,11.664375 8.75,11.25 Z M11,6 C11,4.34325 9.65675,3 8,3 C6.34325,3 5,4.34325 5,6 C5,6.414 5.335625,6.75 5.75,6.75 C6.164375,6.75 6.5,6.414 6.5,6 C6.5,5.171625 7.171625,4.5 8,4.5 C8.828375,4.5 9.5,5.171625 9.5,6 C9.5,6.828375 8.828375,7.5 8,7.5 C7.585625,7.5 7.25,7.836 7.25,8.25 L7.25,9 C7.25,9.414 7.585625,9.75 8,9.75 C8.414375,9.75 8.75,9.414 8.75,9 L8.75,8.893875 C10.041125,8.559 11,7.396125 11,6 Z" id="Combined-Shape" fill="#3282FF"></path>
    </g>
</svg>