<?xml version="1.0" encoding="UTF-8"?>
<svg width="16px" height="12px" viewBox="0 0 16 12" version="1.1" xmlns="http://www.w3.org/2000/svg" xmlns:xlink="http://www.w3.org/1999/xlink">
    <!-- Generator: Sketch 52.2 (67145) - http://www.bohemiancoding.com/sketch -->
    <title>noun_Cloud_377836</title>
    <desc>Created with Sketch.</desc>
    <g id="Symbols" stroke="none" stroke-width="1" fill="none" fill-rule="evenodd">
        <g id="Icon/-group-printer/-cloud" transform="translate(-14.000000, -18.000000)" fill="#3282FF" stroke="#FFFFFF">
            <g id="noun_Cloud_377836" transform="translate(15.000000, 19.000000)">
                <path d="M12.3440271,3.61701809 C13.6201197,4.04206192 14.5,5.3142474 14.5,6.82575758 C14.5,8.61355846 13.1725736,10.1363636 11.55,10.1363636 C9.95687956,10.1363636 9.95687956,10.1363636 7.03230084,10.1363636 C5.5144815,10.1363636 5.5144815,10.1363636 4.18278423,10.1363636 C3.03720902,10.1363636 3.03720902,10.1363636 2.45,10.1363636 C0.827426402,10.1363636 -0.5,8.61355846 -0.5,6.82575758 C-0.5,5.37705632 0.379590151,4.08194163 1.60957212,3.69458679 C1.75103656,1.3361233 3.44417494,-0.5 5.6,-0.5 C6.82422325,-0.5 7.98499907,0.153804932 8.73228719,1.21519021 C8.95750893,1.14169648 9.19251064,1.10606061 9.45,1.10606061 C10.8613861,1.10606061 12.0466587,2.17389831 12.3440271,3.61701809 Z" id="Path"></path>
            </g>
        </g>
    </g>
</svg>