<?xml version="1.0" encoding="UTF-8"?>
<svg width="14px" height="14px" viewBox="0 0 14 14" version="1.1" xmlns="http://www.w3.org/2000/svg" xmlns:xlink="http://www.w3.org/1999/xlink">
    <!-- Generator: Sketch 52.2 (67145) - http://www.bohemiancoding.com/sketch -->
    <title>Artboard Copy 2</title>
    <desc>Created with Sketch.</desc>
    <g id="Artboard-Copy-2" stroke="none" stroke-width="1" fill="none" fill-rule="evenodd">
        <g id="Group" fill="#3282FF">
            <path d="M7,14 C3.13400675,14 0,10.8659932 0,7 C0,3.13400675 3.13400675,0 7,0 C10.8659932,0 14,3.13400675 14,7 C14,10.8659932 10.8659932,14 7,14 Z M9.8,6.08333333 C9.72,5.375 9.12,4.83333333 8.4,4.83333333 C8.2,4.83333333 8.04,4.875 7.88,4.95833333 C7.52,4.375 6.88,4 6.2,4 C5.08,4 4.2,4.91666667 4.2,6.08333333 C4.2,6.08333333 4.2,6.08333333 4.2,6.125 C3.52,6.20833333 3,6.83333333 3,7.54166667 C3,8.33333333 3.64,9 4.4,9 C5,9 8.88,9 9.6,9 C10.36,9 11,8.33333333 11,7.54166667 C11,6.79166667 10.48,6.20833333 9.8,6.08333333 Z" id="Combined-Shape"></path>
        </g>
    </g>
</svg>