<?xml version="1.0" encoding="UTF-8"?>
<svg width="16px" height="16px" viewBox="0 0 16 16" version="1.1" xmlns="http://www.w3.org/2000/svg" xmlns:xlink="http://www.w3.org/1999/xlink">
    <!-- Generator: Sketch 49 (51002) - http://www.bohemiancoding.com/sketch -->
    <title>icn_singlePrinter</title>
    <desc>Created with Sketch.</desc>
    <defs></defs>
    <g id="Visual" stroke="none" stroke-width="1" fill="none" fill-rule="evenodd">
        <g id="Printer-status-icon" transform="translate(-217.000000, -176.000000)" fill="#000000">
            <g id="icn_singlePrinter" transform="translate(217.000000, 176.000000)">
                <path d="M2,13 L14,13 L14,15 L2,15 L2,13 L2,13 Z M2,3 L14,3 L14,5 L2,5 L2,3 L2,3 Z M0,14 L2,14 L2,16 L0,16 L0,14 L0,14 Z M14,14 L16,14 L16,16 L14,16 L14,14 L14,14 Z M0,0 L2,0 L2,14 L0,14 L0,0 L0,0 Z M14,0 L16,0 L16,14 L14,14 L14,0 L14,0 Z M6,5 L10,5 L10,6 L6,6 L6,5 L6,5 Z M7,6 L9,6 L9,8 L7,8 L7,6 L7,6 Z M2,0 L14,0 L14,2 L2,2 L2,0 L2,0 Z M3,12 L13,12 L13,13 L3,13 L3,12 L3,12 Z" id="Rectangle-185-Copy-5-Copy-4"></path>
            </g>
        </g>
    </g>
</svg>