<?xml version="1.0" encoding="UTF-8"?>
<svg width="32px" height="32px" viewBox="0 0 32 32" version="1.1" xmlns="http://www.w3.org/2000/svg" xmlns:xlink="http://www.w3.org/1999/xlink">
    <!-- Generator: Sketch 52.2 (67145) - http://www.bohemiancoding.com/sketch -->
    <title>Icon/ single printer/ disconnected</title>
    <desc>Created with Sketch.</desc>
    <g id="Icon/-single-printer/-disconnected" stroke="none" stroke-width="1" fill="none" fill-rule="evenodd">
        <g id="Group-Copy-7" transform="translate(6.000000, 5.000000)" fill="#08073F" fill-rule="nonzero">
            <g id="UM3" transform="translate(0.000000, 0.000000)">
                <path d="M19.8333333,0.119047619 L0.166666667,0.119047619 C0.0952380952,0.119047619 0.0238095238,0.19047619 0.0238095238,0.261904762 L0.0238095238,22.7142857 C0.0238095238,22.7857143 0.0952380952,22.8571429 0.166666667,22.8571429 L1.45238095,22.8571429 C1.73809524,22.8571429 2.02380952,22.8095238 2.16666667,22.5714286 L2.30952381,22.4285714 C2.5,22.2619048 2.76190476,22.1666667 3.02380952,22.1428571 L16.9761905,22.1428571 C17.2619048,22.1428571 17.547619,22.1904762 17.6904762,22.4285714 L17.8333333,22.5714286 C18.0238095,22.7380952 18.2857143,22.8333333 18.547619,22.8571429 L19.8333333,22.8571429 C19.9047619,22.8571429 19.9761905,22.7857143 19.9761905,22.7142857 L19.9761905,0.261904762 C19.9761905,0.19047619 19.9047619,0.119047619 19.8333333,0.119047619 Z M17.7857143,17.3571429 C17.7857143,18.0238095 17.2380952,18.5714286 16.5714286,18.5714286 L3.38095238,18.5714286 C2.71428571,18.5714286 2.16666667,18.0238095 2.16666667,17.3571429 L2.16666667,2.61904762 C2.16666667,2.38095238 2.35714286,2.16666667 2.61904762,2.16666667 L17.3571429,2.16666667 C17.5952381,2.16666667 17.8095238,2.35714286 17.8095238,2.61904762 L17.8095238,17.3571429 L17.7857143,17.3571429 Z" id="Shape"></path>
            </g>
        </g>
    </g>
</svg>