<?xml version="1.0" standalone="no"?>
<!DOCTYPE svg PUBLIC "-//W3C//DTD SVG 20010904//EN"
 "http://www.w3.org/TR/2001/REC-SVG-20010904/DTD/svg10.dtd">
<svg version="1.0" xmlns="http://www.w3.org/2000/svg"
 width="1280.000000pt" height="1280.000000pt" viewBox="0 0 1280.000000 1280.000000"
 preserveAspectRatio="xMidYMid meet">
<metadata>
Created by potrace 1.16, written by Peter Selinger 2001-2019
</metadata>
<g transform="translate(0.000000,1280.000000) scale(0.100000,-0.100000)"
fill="#000000" stroke="none">
<path d="M5858 12540 c-1230 -54 -2380 -472 -3393 -1232 -1293 -971 -2155
-2411 -2399 -4008 -46 -304 -58 -450 -63 -816 -6 -371 3 -563 38 -849 86 -697
278 -1338 594 -1980 137 -278 237 -454 390 -685 1008 -1524 2658 -2531 4465
-2725 135 -14 486 -34 608 -35 l52 0 0 944 0 944 -62 6 c-440 39 -660 72 -941
142 -765 192 -1416 561 -1972 1118 -721 722 -1120 1554 -1241 2591 -25 209
-25 671 0 880 117 995 565 1900 1285 2597 997 965 2377 1380 3726 1122 743
-143 1414 -465 1970 -945 120 -103 408 -396 401 -407 -3 -5 -361 -215 -795
-468 -435 -252 -789 -463 -788 -468 10 -33 48 -55 3534 -2064 1278 -737 1506
-862 1528 -840 3 3 4 1310 3 2905 l-3 2900 -705 -389 c-388 -214 -781 -431
-873 -483 -92 -52 -171 -95 -176 -95 -4 0 -64 64 -133 143 -490 558 -1014 999
-1618 1361 -191 115 -603 318 -810 399 -598 237 -1187 371 -1848 421 -247 19
-556 25 -774 16z"/>
</g>
</svg>
