<svg xmlns="http://www.w3.org/2000/svg" viewBox="0 0 30 30">
    <switch>
        <g>
            <path d="M23.06 16.491c2.821-1.021 4.44-2.529 4.44-4.196 0-1.881-2.078-3.509-5.304-4.487h.001L24 2.999H6l1.804 4.809C4.579 8.786 2.5 10.414 2.5 12.295c0 1.708 1.669 3.213 4.435 4.212L3 27h24l-3.938-10.499-.002-.01zm3.44-4.196c0 1.208-1.414 2.406-3.791 3.263L21 10.999l.849-2.262c2.916.869 4.651 2.241 4.651 3.558zM6.143 15.077a8.95 8.95 0 0 1-1.078-.605l-.019-.012c-.978-.658-1.546-1.402-1.546-2.165 0-1.317 1.735-2.689 4.652-3.558l.001.004L9 10.999l-1.709 4.559a12.474 12.474 0 0 1-1.148-.481zM4.443 26l3.443-9.183c.989.291 2.087.523 3.282.686.04.006.081.01.121.015l.135.017v2.627l5.18-2.992-5.18-2.992v2.343a21.296 21.296 0 0 1-3.18-.654l1.693-4.515.132-.351-.132-.351-.815-2.173-.259-.689-.091-.245-1.329-3.544h15.114l-1.328 3.544-.221.588-.13.345-.814 2.171-.132.351.132.351 1.7 4.534.35.931L25.557 26H4.443z"/>
        </g>
    </switch>
</svg>
