<svg xmlns="http://www.w3.org/2000/svg" viewBox="0 0 30 30">
    <switch>
        <g>
            <path d="M22.188 17.004l1.804-4.809h-18l1.805 4.813c-3.215.979-5.287 2.605-5.287 4.485 0 1.705 1.705 3.203 4.421 4.197.305.111.622.217.95.314 2.008.6 4.452.949 7.119.949 2.66 0 5.1-.348 7.104-.943.329-.099.646-.203.95-.314 2.727-.994 4.438-2.494 4.438-4.203-.001-1.882-2.079-3.511-5.304-4.489zm-14.91 7.76c-2.379-.867-3.77-2.09-3.77-3.27 0-1.316 1.729-2.687 4.636-3.557l.847 2.258-1.713 4.569zm7.721 1.191c-2.633 0-4.932-.34-6.77-.879l1.698-4.529.132-.352-.132-.351-.812-2.167-.35-.935-1.331-3.548h15.114l-1.329 3.544-.351.935-.814 2.171-.131.351.131.352 1.701 4.534c-1.836.536-4.129.874-6.756.874zm7.707-1.185l-1.715-4.574.848-2.262c2.917.869 4.652 2.242 4.652 3.561 0 1.181-1.396 2.406-3.785 3.275zM11.43 11.441l2.969-5.194-2.287.01a4.498 4.498 0 0 1 1.079-1.839 4.515 4.515 0 0 1 6.373-.104l.696-.718a5.475 5.475 0 0 0-3.922-1.551 5.493 5.493 0 0 0-5.261 4.218l-2.663.011 3.016 5.167z"/>
        </g>
    </switch>
</svg>
