<svg xmlns="http://www.w3.org/2000/svg" viewBox="0 0 30 30">
    <switch>
        <g>
            <path d="M15.251 14.493l-1.694 4.33L1 26.231l18.333 2.502 2.923-8.115L29 16.37l-13.749-1.877zm6.024 5.781l-2.688 7.484-15.016-2 10.989-6.516 1.37-3.672 10.656 1.406-5.311 3.298zM12.01 2.283A11.461 11.461 0 0 1 23.222 9.39l-2.454.628 4.182 4.277 1.615-5.761-2.361.604a12.466 12.466 0 0 0-12.242-7.856c-3.758.19-7.039 2.035-9.197 4.782l.792.612c1.985-2.526 5.001-4.22 8.453-4.393z"/>
        </g>
    </switch>
</svg>
