<svg xmlns="http://www.w3.org/2000/svg" viewBox="0 0 30 30">
    <switch>
        <g>
            <path d="M6.635 12.442l.482-5.964-2.066.98a4.5 4.5 0 0 1 .195-2.122 4.516 4.516 0 0 1 5.727-2.801l.325-.946a5.473 5.473 0 0 0-4.21.262 5.466 5.466 0 0 0-2.791 3.161 5.475 5.475 0 0 0-.181 2.891L1.71 9.045l4.925 3.397z"/>
            <path d="M21.619 14.712l2.682-6.999H8.199l2.684 6.999v.001H4.751l1.7 4.667-3.401 9.333h23.934l-5.365-14.001zm-5.327 13.001l-3.038-8.333 1.701-4.667h-3.002v-.001l-.137-.358-2.163-5.641h13.194l-2.162 5.641-.138.358.138.357 4.846 12.644h-9.239z"/>
        </g>
    </switch>
</svg>
