<svg xmlns="http://www.w3.org/2000/svg" viewBox="0 0 30 30">
  <path
     d="m 20.769231,12.692308 q 0,-3.3353368 -2.370794,-5.7061301 -2.370793,-2.3707933 -5.706129,-2.3707933 -3.335337,0 -5.70613,2.3707933 -2.370793,2.3707933 -2.370793,5.7061301 0,3.335336 2.370793,5.706129 2.370793,2.370794 5.70613,2.370794 3.335336,0 5.706129,-2.370794 2.370794,-2.370793 2.370794,-5.706129 z m 9.230769,15 q 0,0.9375 -0.685096,1.622596 Q 28.629808,30 27.692308,30 26.71875,30 26.069712,29.314904 l -6.183895,-6.165866 q -3.227163,2.235577 -7.193509,2.235577 -2.578125,0 -4.93089,-1.000601 Q 5.408654,23.383413 3.704928,21.679687 2.001202,19.975962 1.000601,17.623197 0,15.270433 0,12.692308 0,10.114183 1.000601,7.7614183 2.001202,5.4086538 3.704928,3.7049279 5.408654,2.0012019 7.761418,1.000601 10.114183,0 12.692308,0 q 2.578125,0 4.930889,1.000601 2.352765,1.0006009 4.05649,2.7043269 1.703726,1.7037259 2.704327,4.0564904 1.000601,2.3527647 1.000601,4.9308897 0,3.966346 -2.235577,7.193509 l 6.183895,6.183895 Q 30,26.736779 30,27.692308 Z" />
</svg>
