<svg width="18" height="18" viewBox="0 0 18 18" xmlns="http://www.w3.org/2000/svg" xmlns:xlink="http://www.w3.org/1999/xlink"><defs><rect id="a" width="16" height="16" rx="8"/></defs><g fill="none" fill-rule="evenodd"><g transform="translate(1 1)"><use fill="#8B9595" xlink:href="#a"/><rect stroke="#272C30" x="-.5" y="-.5" width="17" height="17" rx="8.5"/></g><g fill="#FFF"><path d="M9.013 3.5c-1.723 0-2.48 1.015-2.777 1.62-.247.503-.239.937-.235 1.018l1.589-.08v.024c0-.001.004-.118.074-.26.241-.492.683-.731 1.35-.731.456 0 .803.126 1.061.384.402.403.48 1.01.48 1.15 0 .187-.065 1.145-1.25 1.76-.987.514-1.553 1.52-1.553 2.762v.474l1.59-.003v-.47c0-.451.121-1.051.697-1.35 1.996-1.038 2.105-2.818 2.107-3.165.002-.492-.194-1.527-.944-2.28-.555-.558-1.312-.853-2.189-.853zM7.818 14.386H9.41v-1.25H7.82z"/></g></g></svg>