<?xml version="1.0" encoding="UTF-8"?>
<svg width="14px" height="14px" viewBox="0 0 14 14" version="1.1" xmlns="http://www.w3.org/2000/svg" xmlns:xlink="http://www.w3.org/1999/xlink">
    <!-- Generator: Sketch 46.2 (44496) - http://www.bohemiancoding.com/sketch -->
    <title>Wait cleanup</title>
    <desc>Created with Sketch.</desc>
    <defs></defs>
    <g id="Page-1" stroke="none" stroke-width="1" fill="none" fill-rule="evenodd">
        <g id="00-printer-status-overview" transform="translate(-84.000000, -22.000000)"></g>
        <g id="Wait-cleanup" fill="#7FDB16">
            <path d="M7,14 C3.13400675,14 0,10.8659932 0,7 C0,3.13400675 3.13400675,0 7,0 C10.8659932,0 14,3.13400675 14,7 C14,10.8659932 10.8659932,14 7,14 Z M8.07520384,11.2263517 L8.07520384,10.7137766 C8.07520384,10.2581543 7.84739269,10.0018668 7.36329399,10.0018668 L6.73681332,10.0018668 C6.28119101,10.0018668 6.02490346,10.2296779 6.02490346,10.7137766 L6.02490346,11.2263517 C6.02490346,11.681974 6.25271461,11.9382616 6.73681332,11.9382616 L7.36329399,11.9382616 C7.8189163,11.9382616 8.07520384,11.7104504 8.07520384,11.2263517 Z M8.04672745,7.78070802 L8.21758581,2.74038625 C8.21758581,2.25628755 7.98977466,2 7.50567596,2 L6.59443134,2 C6.11033264,2 5.88252149,2.25628755 5.88252149,2.74038625 L6.05337986,7.78070802 C6.08185625,8.23633033 6.3381438,8.49261788 6.7937661,8.49261788 L7.3063412,8.49261788 C7.76196351,8.49261788 8.04672745,8.23633033 8.04672745,7.78070802 Z" id="Combined-Shape"></path>
        </g>
    </g>
</svg>