<?xml version="1.0" encoding="UTF-8"?>
<svg width="14px" height="14px" viewBox="0 0 14 14" version="1.1" xmlns="http://www.w3.org/2000/svg" xmlns:xlink="http://www.w3.org/1999/xlink">
    <!-- Generator: Sketch 46.2 (44496) - http://www.bohemiancoding.com/sketch -->
    <title>Unknown</title>
    <desc>Created with Sketch.</desc>
    <defs></defs>
    <g id="Page-1" stroke="none" stroke-width="1" fill="none" fill-rule="evenodd">
        <g id="00-printer-status-overview" transform="translate(-165.000000, -22.000000)"></g>
        <g id="Unknown" fill="#000000">
            <path d="M7,14 C3.13400675,14 0,10.8659932 0,7 C0,3.13400675 3.13400675,0 7,0 C10.8659932,0 14,3.13400675 14,7 C14,10.8659932 10.8659932,14 7,14 Z M6.78333984,11.3842884 C7.41672998,11.3842884 7.93020964,10.8704803 7.93020964,10.2374186 C7.93020964,9.60435702 7.41672998,9.09087736 6.78333984,9.09087736 C6.1499497,9.09087736 5.63647003,9.6040285 5.63647003,10.2374186 C5.63647003,10.8708088 6.1499497,11.3842884 6.78333984,11.3842884 Z M7.5343408,7.73605322 C8.81853274,7.61975648 9.82775188,6.53727696 9.82808041,5.22351806 C9.82808041,3.83222799 8.69632261,2.7004702 7.30503254,2.7004702 C5.91374248,2.7004702 4.78198468,3.83255652 4.78198468,5.22351806 L6.33589307,5.22351806 C6.33589307,4.68967004 6.77052748,4.25503562 7.30470402,4.25503562 C7.83920908,4.25503562 8.27351498,4.68967004 8.27351498,5.22351806 C8.27351498,5.75802312 7.83920908,6.19232901 7.30470402,6.19232901 L5.9801039,6.19232901 L5.9801039,8.54355994 L7.5343408,8.54355994 L7.5343408,7.73605322 Z" id="Combined-Shape"></path>
        </g>
    </g>
</svg>