<?xml version="1.0" encoding="UTF-8"?>
<svg width="14px" height="14px" viewBox="0 0 14 14" version="1.1" xmlns="http://www.w3.org/2000/svg" xmlns:xlink="http://www.w3.org/1999/xlink">
    <!-- Generator: Sketch 46.2 (44496) - http://www.bohemiancoding.com/sketch -->
    <title>Busy</title>
    <desc>Created with Sketch.</desc>
    <defs></defs>
    <g id="Page-1" stroke="none" stroke-width="1" fill="none" fill-rule="evenodd">
        <g id="00-printer-status-overview" transform="translate(-17.000000, -22.000000)"></g>
        <g id="Busy" fill="#D8D8D8">
            <path d="M7,14 C3.13400675,14 0,10.8659932 0,7 C0,3.13400675 3.13400675,0 7,0 C10.8659932,0 14,3.13400675 14,7 C14,10.8659932 10.8659932,14 7,14 Z M9.5,7 C9.5,7.83420277 10.1715729,8.5 11,8.5 C11.8342028,8.5 12.5,7.82842712 12.5,7 C12.5,6.16579723 11.8284271,5.5 11,5.5 C10.1657972,5.5 9.5,6.17157288 9.5,7 Z M1.5,7 C1.5,7.83420277 2.17157288,8.5 3,8.5 C3.83420277,8.5 4.5,7.82842712 4.5,7 C4.5,6.16579723 3.82842712,5.5 3,5.5 C2.16579723,5.5 1.5,6.17157288 1.5,7 Z M5.5,7 C5.5,7.83420277 6.17157288,8.5 7,8.5 C7.83420277,8.5 8.5,7.82842712 8.5,7 C8.5,6.16579723 7.82842712,5.5 7,5.5 C6.16579723,5.5 5.5,6.17157288 5.5,7 Z" id="Combined-Shape"></path>
        </g>
    </g>
</svg>