<?xml version="1.0" encoding="UTF-8" standalone="no"?>
<svg
   xmlns:dc="http://purl.org/dc/elements/1.1/"
   xmlns:cc="http://creativecommons.org/ns#"
   xmlns:rdf="http://www.w3.org/1999/02/22-rdf-syntax-ns#"
   xmlns:svg="http://www.w3.org/2000/svg"
   xmlns="http://www.w3.org/2000/svg"
   xmlns:sodipodi="http://sodipodi.sourceforge.net/DTD/sodipodi-0.dtd"
   xmlns:inkscape="http://www.inkscape.org/namespaces/inkscape"
   viewBox="0 0 30 30"
   version="1.1"
   id="svg3711"
   sodipodi:docname="view_left.svg"
   inkscape:version="0.92.2 (5c3e80d, 2017-08-06)"
   width="30"
   height="30">
  <metadata
     id="metadata3717">
    <rdf:RDF>
      <cc:Work
         rdf:about="">
        <dc:format>image/svg+xml</dc:format>
        <dc:type
           rdf:resource="http://purl.org/dc/dcmitype/StillImage" />
        <dc:title></dc:title>
      </cc:Work>
    </rdf:RDF>
  </metadata>
  <defs
     id="defs3715" />
  <sodipodi:namedview
     pagecolor="#ffffff"
     bordercolor="#666666"
     borderopacity="1"
     objecttolerance="10"
     gridtolerance="10"
     guidetolerance="10"
     inkscape:pageopacity="0"
     inkscape:pageshadow="2"
     inkscape:window-width="1920"
     inkscape:window-height="1018"
     id="namedview3713"
     showgrid="false"
     inkscape:zoom="5.30625"
     inkscape:cx="85.96136"
     inkscape:cy="26.757958"
     inkscape:window-x="-8"
     inkscape:window-y="-8"
     inkscape:window-maximized="1"
     inkscape:current-layer="svg3711" />
  <path
     style="line-height:normal;text-indent:0;text-align:start;text-decoration:none;text-decoration-line:none;text-decoration-style:solid;text-decoration-color:#000000;text-transform:none;isolation:auto;mix-blend-mode:normal;stroke-width:0.50000244"
     d="m 0.50002712,0 a 0.50013627,0.49996863 0 0 0 -0.495203,0.569243 v 20.432222 a 0.50013627,0.49996863 0 0 0 0.14651,0.353458 L 8.6528011,29.853539 A 0.50013627,0.49996863 0 0 0 9.0063771,30 H 29.509914 A 0.50013627,0.49996863 0 0 0 30.01,29.500081 V 9.003417 A 0.50013627,0.49996863 0 0 0 29.863491,8.649959 L 21.362024,0.151343 A 0.50013627,0.49996863 0 0 0 21.008448,0.004882 H 0.56351512 a 0.50013627,0.49996863 0 0 0 -0.06349,-0.0049 z M 1.7121501,1.004719 H 20.801381 l 7.501294,7.49878 H 9.2134441 Z m -0.707153,0.706916 7.501294,7.49878 v 0.292921 a 0.50008626,0.49991863 0 0 0 -0.500086,0.499919 0.50008626,0.49991863 0 0 0 0.500086,0.499918 v 1.999675 a 0.50008626,0.49991863 0 0 0 -0.500086,0.499918 0.50008626,0.49991863 0 0 0 0.500086,0.499919 v 1.999675 a 0.50008626,0.49991863 0 0 0 -0.500086,0.499918 0.50008626,0.49991863 0 0 0 0.500086,0.499919 v 1.999674 a 0.50008626,0.49991863 0 0 0 -0.500086,0.499919 0.50008626,0.49991863 0 0 0 0.500086,0.499919 v 1.999674 a 0.50008626,0.49991863 0 0 0 -0.500086,0.499919 0.50008626,0.49991863 0 0 0 0.500086,0.499919 v 1.999674 a 0.50008626,0.49991863 0 0 0 -0.500086,0.499919 0.50008626,0.49991863 0 0 0 0.500086,0.499918 v 2.792515 l -1.325424,-1.32498 a 0.50008626,0.49991863 0 0 0 0.325252,-0.467697 0.50008626,0.49991863 0 0 0 -0.500087,-0.499919 0.50008626,0.49991863 0 0 0 -0.467854,0.325143 l -0.85757,-0.857283 a 0.50008626,0.49991863 0 0 0 0.325252,-0.467697 0.50008626,0.49991863 0 0 0 -0.500087,-0.499919 0.50008626,0.49991863 0 0 0 -0.467854,0.325143 l -0.85757,-0.857283 a 0.50008626,0.49991863 0 0 0 0.325252,-0.467697 0.50008626,0.49991863 0 0 0 -0.500086,-0.499919 0.50008626,0.49991863 0 0 0 -0.467855,0.325143 l -0.857569,-0.857283 a 0.50008626,0.49991863 0 0 0 0.325251,-0.467697 0.50008626,0.49991863 0 0 0 -0.500086,-0.499919 0.50008626,0.49991863 0 0 0 -0.467854,0.325143 l -0.85757,-0.857283 a 0.50008626,0.49991863 0 0 0 0.325251,-0.467697 0.50008626,0.49991863 0 0 0 -0.500086,-0.499919 v -1.999674 a 0.50008626,0.49991863 0 0 0 0.500086,-0.499919 0.50008626,0.49991863 0 0 0 -0.500086,-0.499918 v -1.999675 a 0.50008626,0.49991863 0 0 0 0.500086,-0.499919 0.50008626,0.49991863 0 0 0 -0.500086,-0.499918 v -1.999675 a 0.50008626,0.49991863 0 0 0 0.500086,-0.499918 0.50008626,0.49991863 0 0 0 -0.500086,-0.499919 V 9.003417 A 0.50008626,0.49991863 0 0 0 1.5050831,8.503499 0.50008626,0.49991863 0 0 0 1.0049971,8.00358 V 6.003906 A 0.50008626,0.49991863 0 0 0 1.5050831,5.503987 0.50008626,0.49991863 0 0 0 1.0049971,5.004068 V 3.004394 A 0.50008626,0.49991863 0 0 0 1.5050831,2.504475 0.50008626,0.49991863 0 0 0 1.0049971,2.004557 Z m 1.500259,1.792677 A 0.50008626,0.49991863 0 0 0 2.0051701,4.004231 0.50008626,0.49991863 0 0 0 2.5052561,4.50415 0.50008626,0.49991863 0 0 0 3.0053421,4.004231 0.50008626,0.49991863 0 0 0 2.5052561,3.504312 Z m 1.500259,1.499756 a 0.50008626,0.49991863 0 0 0 -0.500087,0.499919 0.50008626,0.49991863 0 0 0 0.500087,0.499919 0.50008626,0.49991863 0 0 0 0.500086,-0.499919 0.50008626,0.49991863 0 0 0 -0.500086,-0.499919 z m -1.500259,1.499756 a 0.50008626,0.49991863 0 0 0 -0.500086,0.499919 0.50008626,0.49991863 0 0 0 0.500086,0.499919 0.50008626,0.49991863 0 0 0 0.500086,-0.499919 0.50008626,0.49991863 0 0 0 -0.500086,-0.499919 z m 3.000517,0 A 0.50008626,0.49991863 0 0 0 5.0056871,7.003743 0.50008626,0.49991863 0 0 0 5.5057731,7.503662 0.50008626,0.49991863 0 0 0 6.0058601,7.003743 0.50008626,0.49991863 0 0 0 5.5057731,6.503824 Z M 4.0055151,8.00358 A 0.50008626,0.49991863 0 0 0 3.5054281,8.503499 0.50008626,0.49991863 0 0 0 4.0055151,9.003417 0.50008626,0.49991863 0 0 0 4.5056011,8.503499 0.50008626,0.49991863 0 0 0 4.0055151,8.00358 Z m 3.000517,0 A 0.50008626,0.49991863 0 0 0 6.5059461,8.503499 0.50008626,0.49991863 0 0 0 7.0060321,9.003417 0.50008626,0.49991863 0 0 0 7.5061191,8.503499 0.50008626,0.49991863 0 0 0 7.0060321,8.00358 Z m -4.500776,1.499756 a 0.50008626,0.49991863 0 0 0 -0.500086,0.499919 0.50008626,0.49991863 0 0 0 0.500086,0.499918 0.50008626,0.49991863 0 0 0 0.500086,-0.499918 0.50008626,0.49991863 0 0 0 -0.500086,-0.499919 z m 3.000517,0 a 0.50008626,0.49991863 0 0 0 -0.500086,0.499919 0.50008626,0.49991863 0 0 0 0.500086,0.499918 0.50008626,0.49991863 0 0 0 0.500087,-0.499918 0.50008626,0.49991863 0 0 0 -0.500087,-0.499919 z m 4.000691,0 H 29.009828 V 29.000163 H 9.5064641 Z m -5.500949,1.499756 a 0.50008626,0.49991863 0 0 0 -0.500087,0.499919 0.50008626,0.49991863 0 0 0 0.500087,0.499918 0.50008626,0.49991863 0 0 0 0.500086,-0.499918 0.50008626,0.49991863 0 0 0 -0.500086,-0.499919 z m 3.000517,0 a 0.50008626,0.49991863 0 0 0 -0.500086,0.499919 0.50008626,0.49991863 0 0 0 0.500086,0.499918 0.50008626,0.49991863 0 0 0 0.500087,-0.499918 0.50008626,0.49991863 0 0 0 -0.500087,-0.499919 z m -4.500776,1.499756 a 0.50008626,0.49991863 0 0 0 -0.500086,0.499918 0.50008626,0.49991863 0 0 0 0.500086,0.499919 0.50008626,0.49991863 0 0 0 0.500086,-0.499919 0.50008626,0.49991863 0 0 0 -0.500086,-0.499918 z m 3.000517,0 a 0.50008626,0.49991863 0 0 0 -0.500086,0.499918 0.50008626,0.49991863 0 0 0 0.500086,0.499919 0.50008626,0.49991863 0 0 0 0.500087,-0.499919 0.50008626,0.49991863 0 0 0 -0.500087,-0.499918 z m -1.500258,1.499756 a 0.50008626,0.49991863 0 0 0 -0.500087,0.499918 0.50008626,0.49991863 0 0 0 0.500087,0.499919 0.50008626,0.49991863 0 0 0 0.500086,-0.499919 0.50008626,0.49991863 0 0 0 -0.500086,-0.499918 z m 3.000517,0 a 0.50008626,0.49991863 0 0 0 -0.500086,0.499918 0.50008626,0.49991863 0 0 0 0.500086,0.499919 0.50008626,0.49991863 0 0 0 0.500087,-0.499919 0.50008626,0.49991863 0 0 0 -0.500087,-0.499918 z m -4.500776,1.499756 a 0.50008626,0.49991863 0 0 0 -0.500086,0.499918 0.50008626,0.49991863 0 0 0 0.500086,0.499919 0.50008626,0.49991863 0 0 0 0.500086,-0.499919 0.50008626,0.49991863 0 0 0 -0.500086,-0.499918 z m 3.000517,0 a 0.50008626,0.49991863 0 0 0 -0.500086,0.499918 0.50008626,0.49991863 0 0 0 0.500086,0.499919 0.50008626,0.49991863 0 0 0 0.500087,-0.499919 0.50008626,0.49991863 0 0 0 -0.500087,-0.499918 z m -1.500258,1.499756 a 0.50008626,0.49991863 0 0 0 -0.500087,0.499918 0.50008626,0.49991863 0 0 0 0.500087,0.499919 0.50008626,0.49991863 0 0 0 0.500086,-0.499919 0.50008626,0.49991863 0 0 0 -0.500086,-0.499918 z m 3.000517,0 a 0.50008626,0.49991863 0 0 0 -0.500086,0.499918 0.50008626,0.49991863 0 0 0 0.500086,0.499919 0.50008626,0.49991863 0 0 0 0.500087,-0.499919 0.50008626,0.49991863 0 0 0 -0.500087,-0.499918 z m -4.500776,1.499755 a 0.50008626,0.49991863 0 0 0 -0.500086,0.499919 0.50008626,0.49991863 0 0 0 0.500086,0.499919 0.50008626,0.49991863 0 0 0 0.500086,-0.499919 0.50008626,0.49991863 0 0 0 -0.500086,-0.499919 z m 3.000517,0 a 0.50008626,0.49991863 0 0 0 -0.500086,0.499919 0.50008626,0.49991863 0 0 0 0.500086,0.499919 0.50008626,0.49991863 0 0 0 0.500087,-0.499919 0.50008626,0.49991863 0 0 0 -0.500087,-0.499919 z m -1.500258,1.499756 a 0.50008626,0.49991863 0 0 0 -0.500087,0.499919 0.50008626,0.49991863 0 0 0 0.500087,0.499919 0.50008626,0.49991863 0 0 0 0.500086,-0.499919 0.50008626,0.49991863 0 0 0 -0.500086,-0.499919 z m 3.000517,0 a 0.50008626,0.49991863 0 0 0 -0.500086,0.499919 0.50008626,0.49991863 0 0 0 0.500086,0.499919 0.50008626,0.49991863 0 0 0 0.500087,-0.499919 0.50008626,0.49991863 0 0 0 -0.500087,-0.499919 z m -1.500259,1.499756 a 0.50008626,0.49991863 0 0 0 -0.500086,0.499919 0.50008626,0.49991863 0 0 0 0.500086,0.499919 0.50008626,0.49991863 0 0 0 0.500087,-0.499919 0.50008626,0.49991863 0 0 0 -0.500087,-0.499919 z m 1.500259,1.499756 a 0.50008626,0.49991863 0 0 0 -0.500086,0.499919 0.50008626,0.49991863 0 0 0 0.500086,0.499918 0.50008626,0.49991863 0 0 0 0.500087,-0.499918 0.50008626,0.49991863 0 0 0 -0.500087,-0.499919 z"
     id="path3709"
     inkscape:connector-curvature="0" />
</svg>
