<?xml version="1.0" encoding="UTF-8" standalone="no"?>
<svg
   xmlns:dc="http://purl.org/dc/elements/1.1/"
   xmlns:cc="http://creativecommons.org/ns#"
   xmlns:rdf="http://www.w3.org/1999/02/22-rdf-syntax-ns#"
   xmlns:svg="http://www.w3.org/2000/svg"
   xmlns="http://www.w3.org/2000/svg"
   xmlns:sodipodi="http://sodipodi.sourceforge.net/DTD/sodipodi-0.dtd"
   xmlns:inkscape="http://www.inkscape.org/namespaces/inkscape"
   viewBox="0 0 30 30"
   version="1.1"
   id="svg3711"
   sodipodi:docname="view_right.svg"
   inkscape:version="0.92.2 (5c3e80d, 2017-08-06)"
   width="30"
   height="30">
  <metadata
     id="metadata3717">
    <rdf:RDF>
      <cc:Work
         rdf:about="">
        <dc:format>image/svg+xml</dc:format>
        <dc:type
           rdf:resource="http://purl.org/dc/dcmitype/StillImage" />
        <dc:title></dc:title>
      </cc:Work>
    </rdf:RDF>
  </metadata>
  <defs
     id="defs3715" />
  <sodipodi:namedview
     pagecolor="#ffffff"
     bordercolor="#666666"
     borderopacity="1"
     objecttolerance="10"
     gridtolerance="10"
     guidetolerance="10"
     inkscape:pageopacity="0"
     inkscape:pageshadow="2"
     inkscape:window-width="1920"
     inkscape:window-height="1018"
     id="namedview3713"
     showgrid="false"
     inkscape:zoom="5.30625"
     inkscape:cx="85.96136"
     inkscape:cy="26.757958"
     inkscape:window-x="-8"
     inkscape:window-y="-8"
     inkscape:window-maximized="1"
     inkscape:current-layer="svg3711" />
  <path
     style="line-height:normal;text-indent:0;text-align:start;text-decoration:none;text-decoration-line:none;text-decoration-style:solid;text-decoration-color:#000000;text-transform:none;isolation:auto;mix-blend-mode:normal;stroke-width:0.50000244"
     d="M 29.509973,5.8019122e-8 A 0.50013627,0.49996863 0 0 1 30.005176,0.56924306 V 21.001465 a 0.50013627,0.49996863 0 0 1 -0.14651,0.353458 l -8.501467,8.498616 A 0.50013627,0.49996863 0 0 1 21.003623,30 H 0.50008594 A 0.50013627,0.49996863 0 0 1 -5.8019127e-8,29.500081 V 9.0034171 A 0.50013627,0.49996863 0 0 1 0.14650894,8.6499591 L 8.6479759,0.15134306 a 0.50013627,0.49996863 0 0 1 0.353576,-0.146461 H 29.446485 a 0.50013627,0.49996863 0 0 1 0.06349,-0.004900002 z M 28.29785,1.0047191 H 9.2086189 l -7.501294,7.49878 H 20.796556 Z m 0.707153,0.706916 -7.501294,7.49878 v 0.292921 a 0.50008626,0.49991863 0 0 1 0.500086,0.4999189 0.50008626,0.49991863 0 0 1 -0.500086,0.499918 v 1.999675 a 0.50008626,0.49991863 0 0 1 0.500086,0.499918 0.50008626,0.49991863 0 0 1 -0.500086,0.499919 v 1.999675 a 0.50008626,0.49991863 0 0 1 0.500086,0.499918 0.50008626,0.49991863 0 0 1 -0.500086,0.499919 v 1.999674 a 0.50008626,0.49991863 0 0 1 0.500086,0.499919 0.50008626,0.49991863 0 0 1 -0.500086,0.499919 v 1.999674 a 0.50008626,0.49991863 0 0 1 0.500086,0.499919 0.50008626,0.49991863 0 0 1 -0.500086,0.499919 v 1.999674 a 0.50008626,0.49991863 0 0 1 0.500086,0.499919 0.50008626,0.49991863 0 0 1 -0.500086,0.499918 v 2.792515 l 1.325424,-1.32498 a 0.50008626,0.49991863 0 0 1 -0.325252,-0.467697 0.50008626,0.49991863 0 0 1 0.500087,-0.499919 0.50008626,0.49991863 0 0 1 0.467854,0.325143 l 0.85757,-0.857283 a 0.50008626,0.49991863 0 0 1 -0.325252,-0.467697 0.50008626,0.49991863 0 0 1 0.500087,-0.499919 0.50008626,0.49991863 0 0 1 0.467854,0.325143 l 0.85757,-0.857283 a 0.50008626,0.49991863 0 0 1 -0.325252,-0.467697 0.50008626,0.49991863 0 0 1 0.500086,-0.499919 0.50008626,0.49991863 0 0 1 0.467855,0.325143 l 0.857569,-0.857283 a 0.50008626,0.49991863 0 0 1 -0.325251,-0.467697 0.50008626,0.49991863 0 0 1 0.500086,-0.499919 0.50008626,0.49991863 0 0 1 0.467854,0.325143 l 0.85757,-0.857283 a 0.50008626,0.49991863 0 0 1 -0.325251,-0.467697 0.50008626,0.49991863 0 0 1 0.500086,-0.499919 v -1.999674 a 0.50008626,0.49991863 0 0 1 -0.500086,-0.499919 0.50008626,0.49991863 0 0 1 0.500086,-0.499918 v -1.999675 a 0.50008626,0.49991863 0 0 1 -0.500086,-0.499919 0.50008626,0.49991863 0 0 1 0.500086,-0.499918 v -1.999675 a 0.50008626,0.49991863 0 0 1 -0.500086,-0.499918 0.50008626,0.49991863 0 0 1 0.500086,-0.499919 V 9.0034171 a 0.50008626,0.49991863 0 0 1 -0.500086,-0.499918 0.50008626,0.49991863 0 0 1 0.500086,-0.499919 v -1.999674 a 0.50008626,0.49991863 0 0 1 -0.500086,-0.499919 0.50008626,0.49991863 0 0 1 0.500086,-0.499919 v -1.999674 a 0.50008626,0.49991863 0 0 1 -0.500086,-0.499919 0.50008626,0.49991863 0 0 1 0.500086,-0.499918 z m -1.500259,1.792677 a 0.50008626,0.49991863 0 0 1 0.500086,0.499919 0.50008626,0.49991863 0 0 1 -0.500086,0.499919 0.50008626,0.49991863 0 0 1 -0.500086,-0.499919 0.50008626,0.49991863 0 0 1 0.500086,-0.499919 z m -1.500259,1.499756 a 0.50008626,0.49991863 0 0 1 0.500087,0.499919 0.50008626,0.49991863 0 0 1 -0.500087,0.499919 0.50008626,0.49991863 0 0 1 -0.500086,-0.499919 0.50008626,0.49991863 0 0 1 0.500086,-0.499919 z m 1.500259,1.499756 a 0.50008626,0.49991863 0 0 1 0.500086,0.499919 0.50008626,0.49991863 0 0 1 -0.500086,0.499919 0.50008626,0.49991863 0 0 1 -0.500086,-0.499919 0.50008626,0.49991863 0 0 1 0.500086,-0.499919 z m -3.000517,0 a 0.50008626,0.49991863 0 0 1 0.500086,0.499919 0.50008626,0.49991863 0 0 1 -0.500086,0.499919 0.50008626,0.49991863 0 0 1 -0.500087,-0.499919 0.50008626,0.49991863 0 0 1 0.500087,-0.499919 z m 1.500258,1.499756 a 0.50008626,0.49991863 0 0 1 0.500087,0.499919 0.50008626,0.49991863 0 0 1 -0.500087,0.499918 0.50008626,0.49991863 0 0 1 -0.500086,-0.499918 0.50008626,0.49991863 0 0 1 0.500086,-0.499919 z m -3.000517,0 a 0.50008626,0.49991863 0 0 1 0.500086,0.499919 0.50008626,0.49991863 0 0 1 -0.500086,0.499918 0.50008626,0.49991863 0 0 1 -0.500087,-0.499918 0.50008626,0.49991863 0 0 1 0.500087,-0.499919 z m 4.500776,1.499756 a 0.50008626,0.49991863 0 0 1 0.500086,0.4999189 0.50008626,0.49991863 0 0 1 -0.500086,0.499918 0.50008626,0.49991863 0 0 1 -0.500086,-0.499918 0.50008626,0.49991863 0 0 1 0.500086,-0.4999189 z m -3.000517,0 a 0.50008626,0.49991863 0 0 1 0.500086,0.4999189 0.50008626,0.49991863 0 0 1 -0.500086,0.499918 0.50008626,0.49991863 0 0 1 -0.500087,-0.499918 0.50008626,0.49991863 0 0 1 0.500087,-0.4999189 z m -4.000691,0 H 1.0001719 V 29.000163 H 20.503536 Z m 5.500949,1.4997559 a 0.50008626,0.49991863 0 0 1 0.500087,0.499919 0.50008626,0.49991863 0 0 1 -0.500087,0.499918 0.50008626,0.49991863 0 0 1 -0.500086,-0.499918 0.50008626,0.49991863 0 0 1 0.500086,-0.499919 z m -3.000517,0 a 0.50008626,0.49991863 0 0 1 0.500086,0.499919 0.50008626,0.49991863 0 0 1 -0.500086,0.499918 0.50008626,0.49991863 0 0 1 -0.500087,-0.499918 0.50008626,0.49991863 0 0 1 0.500087,-0.499919 z m 4.500776,1.499756 a 0.50008626,0.49991863 0 0 1 0.500086,0.499918 0.50008626,0.49991863 0 0 1 -0.500086,0.499919 0.50008626,0.49991863 0 0 1 -0.500086,-0.499919 0.50008626,0.49991863 0 0 1 0.500086,-0.499918 z m -3.000517,0 a 0.50008626,0.49991863 0 0 1 0.500086,0.499918 0.50008626,0.49991863 0 0 1 -0.500086,0.499919 0.50008626,0.49991863 0 0 1 -0.500087,-0.499919 0.50008626,0.49991863 0 0 1 0.500087,-0.499918 z m 1.500258,1.499756 a 0.50008626,0.49991863 0 0 1 0.500087,0.499918 0.50008626,0.49991863 0 0 1 -0.500087,0.499919 0.50008626,0.49991863 0 0 1 -0.500086,-0.499919 0.50008626,0.49991863 0 0 1 0.500086,-0.499918 z m -3.000517,0 a 0.50008626,0.49991863 0 0 1 0.500086,0.499918 0.50008626,0.49991863 0 0 1 -0.500086,0.499919 0.50008626,0.49991863 0 0 1 -0.500087,-0.499919 0.50008626,0.49991863 0 0 1 0.500087,-0.499918 z m 4.500776,1.499756 a 0.50008626,0.49991863 0 0 1 0.500086,0.499918 0.50008626,0.49991863 0 0 1 -0.500086,0.499919 0.50008626,0.49991863 0 0 1 -0.500086,-0.499919 0.50008626,0.49991863 0 0 1 0.500086,-0.499918 z m -3.000517,0 a 0.50008626,0.49991863 0 0 1 0.500086,0.499918 0.50008626,0.49991863 0 0 1 -0.500086,0.499919 0.50008626,0.49991863 0 0 1 -0.500087,-0.499919 0.50008626,0.49991863 0 0 1 0.500087,-0.499918 z m 1.500258,1.499756 a 0.50008626,0.49991863 0 0 1 0.500087,0.499918 0.50008626,0.49991863 0 0 1 -0.500087,0.499919 0.50008626,0.49991863 0 0 1 -0.500086,-0.499919 0.50008626,0.49991863 0 0 1 0.500086,-0.499918 z m -3.000517,0 a 0.50008626,0.49991863 0 0 1 0.500086,0.499918 0.50008626,0.49991863 0 0 1 -0.500086,0.499919 0.50008626,0.49991863 0 0 1 -0.500087,-0.499919 0.50008626,0.49991863 0 0 1 0.500087,-0.499918 z m 4.500776,1.499755 a 0.50008626,0.49991863 0 0 1 0.500086,0.499919 0.50008626,0.49991863 0 0 1 -0.500086,0.499919 0.50008626,0.49991863 0 0 1 -0.500086,-0.499919 0.50008626,0.49991863 0 0 1 0.500086,-0.499919 z m -3.000517,0 a 0.50008626,0.49991863 0 0 1 0.500086,0.499919 0.50008626,0.49991863 0 0 1 -0.500086,0.499919 0.50008626,0.49991863 0 0 1 -0.500087,-0.499919 0.50008626,0.49991863 0 0 1 0.500087,-0.499919 z m 1.500258,1.499756 a 0.50008626,0.49991863 0 0 1 0.500087,0.499919 0.50008626,0.49991863 0 0 1 -0.500087,0.499919 0.50008626,0.49991863 0 0 1 -0.500086,-0.499919 0.50008626,0.49991863 0 0 1 0.500086,-0.499919 z m -3.000517,0 a 0.50008626,0.49991863 0 0 1 0.500086,0.499919 0.50008626,0.49991863 0 0 1 -0.500086,0.499919 0.50008626,0.49991863 0 0 1 -0.500087,-0.499919 0.50008626,0.49991863 0 0 1 0.500087,-0.499919 z m 1.500259,1.499756 a 0.50008626,0.49991863 0 0 1 0.500086,0.499919 0.50008626,0.49991863 0 0 1 -0.500086,0.499919 0.50008626,0.49991863 0 0 1 -0.500087,-0.499919 0.50008626,0.49991863 0 0 1 0.500087,-0.499919 z m -1.500259,1.499756 a 0.50008626,0.49991863 0 0 1 0.500086,0.499919 0.50008626,0.49991863 0 0 1 -0.500086,0.499918 0.50008626,0.49991863 0 0 1 -0.500087,-0.499918 0.50008626,0.49991863 0 0 1 0.500087,-0.499919 z"
     id="path3709"
     inkscape:connector-curvature="0" />
</svg>
