<?xml version="1.0" encoding="UTF-8" standalone="no"?>
<svg
   xmlns:dc="http://purl.org/dc/elements/1.1/"
   xmlns:cc="http://creativecommons.org/ns#"
   xmlns:rdf="http://www.w3.org/1999/02/22-rdf-syntax-ns#"
   xmlns:svg="http://www.w3.org/2000/svg"
   xmlns="http://www.w3.org/2000/svg"
   xmlns:sodipodi="http://sodipodi.sourceforge.net/DTD/sodipodi-0.dtd"
   xmlns:inkscape="http://www.inkscape.org/namespaces/inkscape"
   viewBox="0 0 30 30"
   version="1.1"
   id="svg3739"
   sodipodi:docname="view_fron.svg"
   width="30"
   height="30"
   inkscape:version="0.92.2 (5c3e80d, 2017-08-06)">
  <metadata
     id="metadata3745">
    <rdf:RDF>
      <cc:Work
         rdf:about="">
        <dc:format>image/svg+xml</dc:format>
        <dc:type
           rdf:resource="http://purl.org/dc/dcmitype/StillImage" />
        <dc:title></dc:title>
      </cc:Work>
    </rdf:RDF>
  </metadata>
  <defs
     id="defs3743" />
  <sodipodi:namedview
     pagecolor="#ffffff"
     bordercolor="#666666"
     borderopacity="1"
     objecttolerance="10"
     gridtolerance="10"
     guidetolerance="10"
     inkscape:pageopacity="0"
     inkscape:pageshadow="2"
     inkscape:window-width="944"
     inkscape:window-height="1002"
     id="namedview3741"
     showgrid="false"
     inkscape:zoom="3.4869203"
     inkscape:cx="54.674699"
     inkscape:cy="-3.7514449"
     inkscape:window-x="960"
     inkscape:window-y="0"
     inkscape:window-maximized="0"
     inkscape:current-layer="svg3739" />
  <path
     style="line-height:normal;text-indent:0;text-align:start;text-decoration:none;text-decoration-line:none;text-decoration-style:solid;text-decoration-color:#000000;text-transform:none;isolation:auto;mix-blend-mode:normal;stroke-width:0.49991912"
     d="m 0.49985961,2e-6 a 0.49996962,0.49996859 0 0 0 -0.4950371,0.569243 v 20.43222 a 0.49996962,0.49996859 0 0 0 0.1464611,0.353458 L 8.6499166,29.853539 A 0.49996962,0.49996859 0 0 0 9.0033756,30 H 29.500081 A 0.49996962,0.49996859 0 0 0 30,29.500081 V 9.003419 A 0.49996962,0.49996859 0 0 0 29.853539,8.649961 L 21.354906,0.151345 A 0.49996962,0.49996859 0 0 0 21.001447,0.004884 H 0.56332661 A 0.49996962,0.49996859 0 0 0 0.49985661,0 Z M 1.7115796,1.004721 H 20.794449 L 28.293244,8.5035 H 9.2103736 Z m -0.706918,0.706916 7.498795,7.498779 v 19.082831 l -7.498795,-7.498779 z m 8.498634,7.791701 h 0.9998394 a 0.49991962,0.4999186 0 0 0 0.49992,0.499918 0.49991962,0.4999186 0 0 0 0.499919,-0.499918 h 1.999679 a 0.49991962,0.4999186 0 0 0 0.499919,0.499918 0.49991962,0.4999186 0 0 0 0.49992,-0.499918 h 1.999679 a 0.49991962,0.4999186 0 0 0 0.499919,0.499918 0.49991962,0.4999186 0 0 0 0.49992,-0.499918 h 1.999678 a 0.49991962,0.4999186 0 0 0 0.49992,0.499918 0.49991962,0.4999186 0 0 0 0.49992,-0.499918 h 1.999678 a 0.49991962,0.4999186 0 0 0 0.49992,0.499918 0.49991962,0.4999186 0 0 0 0.499919,-0.499918 h 1.999679 a 0.49991962,0.4999186 0 0 0 0.499919,0.499918 0.49991962,0.4999186 0 0 0 0.49992,-0.499918 h 1.999679 a 0.49991962,0.4999186 0 0 0 0.499919,0.499918 v 1.999675 a 0.49991962,0.4999186 0 0 0 -0.499919,0.499918 0.49991962,0.4999186 0 0 0 0.499919,0.499919 v 1.999674 a 0.49991962,0.4999186 0 0 0 -0.499919,0.499919 0.49991962,0.4999186 0 0 0 0.499919,0.499918 v 1.999675 a 0.49991962,0.4999186 0 0 0 -0.499919,0.499918 0.49991962,0.4999186 0 0 0 0.499919,0.499919 v 1.999674 a 0.49991962,0.4999186 0 0 0 -0.499919,0.499919 0.49991962,0.4999186 0 0 0 0.499919,0.499918 v 1.999675 a 0.49991962,0.4999186 0 0 0 -0.499919,0.499918 0.49991962,0.4999186 0 0 0 0.499919,0.499919 v 1.999674 a 0.49991962,0.4999186 0 0 0 -0.499919,0.499919 0.49991962,0.4999186 0 0 0 0.499919,0.499919 v 0.999837 h -0.999839 a 0.49991962,0.4999186 0 0 0 -0.49992,-0.499919 0.49991962,0.4999186 0 0 0 -0.499919,0.499919 h -1.999679 a 0.49991962,0.4999186 0 0 0 -0.499919,-0.499919 0.49991962,0.4999186 0 0 0 -0.49992,0.499919 h -1.999679 a 0.49991962,0.4999186 0 0 0 -0.499919,-0.499919 0.49991962,0.4999186 0 0 0 -0.49992,0.499919 h -1.999678 a 0.49991962,0.4999186 0 0 0 -0.49992,-0.499919 0.49991962,0.4999186 0 0 0 -0.49992,0.499919 h -1.999678 a 0.49991962,0.4999186 0 0 0 -0.49992,-0.499919 0.49991962,0.4999186 0 0 0 -0.499919,0.499919 h -1.999679 a 0.49991962,0.4999186 0 0 0 -0.499919,-0.499919 0.49991962,0.4999186 0 0 0 -0.49992,0.499919 H 10.003215 A 0.49991962,0.4999186 0 0 0 9.5032956,28.500244 V 26.50057 A 0.49991962,0.4999186 0 0 0 10.003215,26.000651 0.49991962,0.4999186 0 0 0 9.5032956,25.500733 V 23.501058 A 0.49991962,0.4999186 0 0 0 10.003215,23.00114 0.49991962,0.4999186 0 0 0 9.5032956,22.501221 V 20.501547 A 0.49991962,0.4999186 0 0 0 10.003215,20.001628 0.49991962,0.4999186 0 0 0 9.5032956,19.501709 V 17.502035 A 0.49991962,0.4999186 0 0 0 10.003215,17.002116 0.49991962,0.4999186 0 0 0 9.5032956,16.502198 V 14.502524 A 0.49991962,0.4999186 0 0 0 10.003215,14.002605 0.49991962,0.4999186 0 0 0 9.5032956,13.502686 V 11.503012 A 0.49991962,0.4999186 0 0 0 10.003215,11.003093 0.49991962,0.4999186 0 0 0 9.5032956,10.503175 Z m 2.9995184,0.999837 a 0.49991962,0.4999186 0 0 0 -0.49992,0.499918 0.49991962,0.4999186 0 0 0 0.49992,0.499919 0.49991962,0.4999186 0 0 0 0.499919,-0.499919 0.49991962,0.4999186 0 0 0 -0.499919,-0.499918 z m 2.999517,0 a 0.49991962,0.4999186 0 0 0 -0.499919,0.499918 0.49991962,0.4999186 0 0 0 0.499919,0.499919 0.49991962,0.4999186 0 0 0 0.49992,-0.499919 0.49991962,0.4999186 0 0 0 -0.49992,-0.499918 z m 2.999518,0 a 0.49991962,0.4999186 0 0 0 -0.49992,0.499918 0.49991962,0.4999186 0 0 0 0.49992,0.499919 0.49991962,0.4999186 0 0 0 0.49992,-0.499919 0.49991962,0.4999186 0 0 0 -0.49992,-0.499918 z m 2.999518,0 a 0.49991962,0.4999186 0 0 0 -0.49992,0.499918 0.49991962,0.4999186 0 0 0 0.49992,0.499919 0.49991962,0.4999186 0 0 0 0.499919,-0.499919 0.49991962,0.4999186 0 0 0 -0.499919,-0.499918 z m 2.999518,0 a 0.49991962,0.4999186 0 0 0 -0.49992,0.499918 0.49991962,0.4999186 0 0 0 0.49992,0.499919 0.49991962,0.4999186 0 0 0 0.499919,-0.499919 0.49991962,0.4999186 0 0 0 -0.499919,-0.499918 z m 2.999517,0 a 0.49991962,0.4999186 0 0 0 -0.499919,0.499918 0.49991962,0.4999186 0 0 0 0.499919,0.499919 0.49991962,0.4999186 0 0 0 0.49992,-0.499919 0.49991962,0.4999186 0 0 0 -0.49992,-0.499918 z m -16.497347,1.499756 a 0.49991962,0.4999186 0 0 0 -0.49992,0.499918 0.49991962,0.4999186 0 0 0 0.49992,0.499919 0.49991962,0.4999186 0 0 0 0.499919,-0.499919 0.49991962,0.4999186 0 0 0 -0.499919,-0.499918 z m 2.999517,0 a 0.49991962,0.4999186 0 0 0 -0.499919,0.499918 0.49991962,0.4999186 0 0 0 0.499919,0.499919 0.49991962,0.4999186 0 0 0 0.49992,-0.499919 0.49991962,0.4999186 0 0 0 -0.49992,-0.499918 z m 2.999518,0 a 0.49991962,0.4999186 0 0 0 -0.499919,0.499918 0.49991962,0.4999186 0 0 0 0.499919,0.499919 0.49991962,0.4999186 0 0 0 0.49992,-0.499919 0.49991962,0.4999186 0 0 0 -0.49992,-0.499918 z m 2.999518,0 a 0.49991962,0.4999186 0 0 0 -0.49992,0.499918 0.49991962,0.4999186 0 0 0 0.49992,0.499919 0.49991962,0.4999186 0 0 0 0.49992,-0.499919 0.49991962,0.4999186 0 0 0 -0.49992,-0.499918 z m 2.999518,0 a 0.49991962,0.4999186 0 0 0 -0.49992,0.499918 0.49991962,0.4999186 0 0 0 0.49992,0.499919 0.49991962,0.4999186 0 0 0 0.499919,-0.499919 0.49991962,0.4999186 0 0 0 -0.499919,-0.499918 z m 2.999517,0 a 0.49991962,0.4999186 0 0 0 -0.499919,0.499918 0.49991962,0.4999186 0 0 0 0.499919,0.499919 0.49991962,0.4999186 0 0 0 0.49992,-0.499919 0.49991962,0.4999186 0 0 0 -0.49992,-0.499918 z m -13.497829,1.499755 a 0.49991962,0.4999186 0 0 0 -0.49992,0.499919 0.49991962,0.4999186 0 0 0 0.49992,0.499919 0.49991962,0.4999186 0 0 0 0.499919,-0.499919 0.49991962,0.4999186 0 0 0 -0.499919,-0.499919 z m 2.999517,0 a 0.49991962,0.4999186 0 0 0 -0.499919,0.499919 0.49991962,0.4999186 0 0 0 0.499919,0.499919 0.49991962,0.4999186 0 0 0 0.49992,-0.499919 0.49991962,0.4999186 0 0 0 -0.49992,-0.499919 z m 2.999518,0 a 0.49991962,0.4999186 0 0 0 -0.49992,0.499919 0.49991962,0.4999186 0 0 0 0.49992,0.499919 0.49991962,0.4999186 0 0 0 0.49992,-0.499919 0.49991962,0.4999186 0 0 0 -0.49992,-0.499919 z m 2.999518,0 a 0.49991962,0.4999186 0 0 0 -0.49992,0.499919 0.49991962,0.4999186 0 0 0 0.49992,0.499919 0.49991962,0.4999186 0 0 0 0.499919,-0.499919 0.49991962,0.4999186 0 0 0 -0.499919,-0.499919 z m 2.999518,0 a 0.49991962,0.4999186 0 0 0 -0.49992,0.499919 0.49991962,0.4999186 0 0 0 0.49992,0.499919 0.49991962,0.4999186 0 0 0 0.499919,-0.499919 0.49991962,0.4999186 0 0 0 -0.499919,-0.499919 z m 2.999517,0 a 0.49991962,0.4999186 0 0 0 -0.499919,0.499919 0.49991962,0.4999186 0 0 0 0.499919,0.499919 0.49991962,0.4999186 0 0 0 0.49992,-0.499919 0.49991962,0.4999186 0 0 0 -0.49992,-0.499919 z m -16.497347,1.499756 a 0.49991962,0.4999186 0 0 0 -0.49992,0.499919 0.49991962,0.4999186 0 0 0 0.49992,0.499918 0.49991962,0.4999186 0 0 0 0.499919,-0.499918 0.49991962,0.4999186 0 0 0 -0.499919,-0.499919 z m 2.999517,0 a 0.49991962,0.4999186 0 0 0 -0.499919,0.499919 0.49991962,0.4999186 0 0 0 0.499919,0.499918 0.49991962,0.4999186 0 0 0 0.49992,-0.499918 0.49991962,0.4999186 0 0 0 -0.49992,-0.499919 z m 2.999518,0 a 0.49991962,0.4999186 0 0 0 -0.499919,0.499919 0.49991962,0.4999186 0 0 0 0.499919,0.499918 0.49991962,0.4999186 0 0 0 0.49992,-0.499918 0.49991962,0.4999186 0 0 0 -0.49992,-0.499919 z m 2.999518,0 a 0.49991962,0.4999186 0 0 0 -0.49992,0.499919 0.49991962,0.4999186 0 0 0 0.49992,0.499918 0.49991962,0.4999186 0 0 0 0.49992,-0.499918 0.49991962,0.4999186 0 0 0 -0.49992,-0.499919 z m 2.999518,0 a 0.49991962,0.4999186 0 0 0 -0.49992,0.499919 0.49991962,0.4999186 0 0 0 0.49992,0.499918 0.49991962,0.4999186 0 0 0 0.499919,-0.499918 0.49991962,0.4999186 0 0 0 -0.499919,-0.499919 z m 2.999517,0 a 0.49991962,0.4999186 0 0 0 -0.499919,0.499919 0.49991962,0.4999186 0 0 0 0.499919,0.499918 0.49991962,0.4999186 0 0 0 0.49992,-0.499918 0.49991962,0.4999186 0 0 0 -0.49992,-0.499919 z m -13.497829,1.499756 a 0.49991962,0.4999186 0 0 0 -0.49992,0.499918 0.49991962,0.4999186 0 0 0 0.49992,0.499919 0.49991962,0.4999186 0 0 0 0.499919,-0.499919 0.49991962,0.4999186 0 0 0 -0.499919,-0.499918 z m 2.999517,0 a 0.49991962,0.4999186 0 0 0 -0.499919,0.499918 0.49991962,0.4999186 0 0 0 0.499919,0.499919 0.49991962,0.4999186 0 0 0 0.49992,-0.499919 0.49991962,0.4999186 0 0 0 -0.49992,-0.499918 z m 2.999518,0 a 0.49991962,0.4999186 0 0 0 -0.49992,0.499918 0.49991962,0.4999186 0 0 0 0.49992,0.499919 0.49991962,0.4999186 0 0 0 0.49992,-0.499919 0.49991962,0.4999186 0 0 0 -0.49992,-0.499918 z m 2.999518,0 a 0.49991962,0.4999186 0 0 0 -0.49992,0.499918 0.49991962,0.4999186 0 0 0 0.49992,0.499919 0.49991962,0.4999186 0 0 0 0.499919,-0.499919 0.49991962,0.4999186 0 0 0 -0.499919,-0.499918 z m 2.999518,0 a 0.49991962,0.4999186 0 0 0 -0.49992,0.499918 0.49991962,0.4999186 0 0 0 0.49992,0.499919 0.49991962,0.4999186 0 0 0 0.499919,-0.499919 0.49991962,0.4999186 0 0 0 -0.499919,-0.499918 z m 2.999517,0 a 0.49991962,0.4999186 0 0 0 -0.499919,0.499918 0.49991962,0.4999186 0 0 0 0.499919,0.499919 0.49991962,0.4999186 0 0 0 0.49992,-0.499919 0.49991962,0.4999186 0 0 0 -0.49992,-0.499918 z m -16.497347,1.499756 a 0.49991962,0.4999186 0 0 0 -0.49992,0.499918 0.49991962,0.4999186 0 0 0 0.49992,0.499919 0.49991962,0.4999186 0 0 0 0.499919,-0.499919 0.49991962,0.4999186 0 0 0 -0.499919,-0.499918 z m 2.999517,0 a 0.49991962,0.4999186 0 0 0 -0.499919,0.499918 0.49991962,0.4999186 0 0 0 0.499919,0.499919 0.49991962,0.4999186 0 0 0 0.49992,-0.499919 0.49991962,0.4999186 0 0 0 -0.49992,-0.499918 z m 2.999518,0 a 0.49991962,0.4999186 0 0 0 -0.499919,0.499918 0.49991962,0.4999186 0 0 0 0.499919,0.499919 0.49991962,0.4999186 0 0 0 0.49992,-0.499919 0.49991962,0.4999186 0 0 0 -0.49992,-0.499918 z m 2.999518,0 a 0.49991962,0.4999186 0 0 0 -0.49992,0.499918 0.49991962,0.4999186 0 0 0 0.49992,0.499919 0.49991962,0.4999186 0 0 0 0.49992,-0.499919 0.49991962,0.4999186 0 0 0 -0.49992,-0.499918 z m 2.999518,0 a 0.49991962,0.4999186 0 0 0 -0.49992,0.499918 0.49991962,0.4999186 0 0 0 0.49992,0.499919 0.49991962,0.4999186 0 0 0 0.499919,-0.499919 0.49991962,0.4999186 0 0 0 -0.499919,-0.499918 z m 2.999517,0 a 0.49991962,0.4999186 0 0 0 -0.499919,0.499918 0.49991962,0.4999186 0 0 0 0.499919,0.499919 0.49991962,0.4999186 0 0 0 0.49992,-0.499919 0.49991962,0.4999186 0 0 0 -0.49992,-0.499918 z m -13.497829,1.499755 a 0.49991962,0.4999186 0 0 0 -0.49992,0.499919 0.49991962,0.4999186 0 0 0 0.49992,0.499919 0.49991962,0.4999186 0 0 0 0.499919,-0.499919 0.49991962,0.4999186 0 0 0 -0.499919,-0.499919 z m 2.999517,0 a 0.49991962,0.4999186 0 0 0 -0.499919,0.499919 0.49991962,0.4999186 0 0 0 0.499919,0.499919 0.49991962,0.4999186 0 0 0 0.49992,-0.499919 0.49991962,0.4999186 0 0 0 -0.49992,-0.499919 z m 2.999518,0 a 0.49991962,0.4999186 0 0 0 -0.49992,0.499919 0.49991962,0.4999186 0 0 0 0.49992,0.499919 0.49991962,0.4999186 0 0 0 0.49992,-0.499919 0.49991962,0.4999186 0 0 0 -0.49992,-0.499919 z m 2.999518,0 a 0.49991962,0.4999186 0 0 0 -0.49992,0.499919 0.49991962,0.4999186 0 0 0 0.49992,0.499919 0.49991962,0.4999186 0 0 0 0.499919,-0.499919 0.49991962,0.4999186 0 0 0 -0.499919,-0.499919 z m 2.999518,0 a 0.49991962,0.4999186 0 0 0 -0.49992,0.499919 0.49991962,0.4999186 0 0 0 0.49992,0.499919 0.49991962,0.4999186 0 0 0 0.499919,-0.499919 0.49991962,0.4999186 0 0 0 -0.499919,-0.499919 z m 2.999517,0 a 0.49991962,0.4999186 0 0 0 -0.499919,0.499919 0.49991962,0.4999186 0 0 0 0.499919,0.499919 0.49991962,0.4999186 0 0 0 0.49992,-0.499919 0.49991962,0.4999186 0 0 0 -0.49992,-0.499919 z m -16.497347,1.499756 a 0.49991962,0.4999186 0 0 0 -0.49992,0.499919 0.49991962,0.4999186 0 0 0 0.49992,0.499918 0.49991962,0.4999186 0 0 0 0.499919,-0.499918 0.49991962,0.4999186 0 0 0 -0.499919,-0.499919 z m 2.999517,0 a 0.49991962,0.4999186 0 0 0 -0.499919,0.499919 0.49991962,0.4999186 0 0 0 0.499919,0.499918 0.49991962,0.4999186 0 0 0 0.49992,-0.499918 0.49991962,0.4999186 0 0 0 -0.49992,-0.499919 z m 2.999518,0 a 0.49991962,0.4999186 0 0 0 -0.499919,0.499919 0.49991962,0.4999186 0 0 0 0.499919,0.499918 0.49991962,0.4999186 0 0 0 0.49992,-0.499918 0.49991962,0.4999186 0 0 0 -0.49992,-0.499919 z m 2.999518,0 a 0.49991962,0.4999186 0 0 0 -0.49992,0.499919 0.49991962,0.4999186 0 0 0 0.49992,0.499918 0.49991962,0.4999186 0 0 0 0.49992,-0.499918 0.49991962,0.4999186 0 0 0 -0.49992,-0.499919 z m 2.999518,0 a 0.49991962,0.4999186 0 0 0 -0.49992,0.499919 0.49991962,0.4999186 0 0 0 0.49992,0.499918 0.49991962,0.4999186 0 0 0 0.499919,-0.499918 0.49991962,0.4999186 0 0 0 -0.499919,-0.499919 z m 2.999517,0 a 0.49991962,0.4999186 0 0 0 -0.499919,0.499919 0.49991962,0.4999186 0 0 0 0.499919,0.499918 0.49991962,0.4999186 0 0 0 0.49992,-0.499918 0.49991962,0.4999186 0 0 0 -0.49992,-0.499919 z m -13.497829,1.499756 a 0.49991962,0.4999186 0 0 0 -0.49992,0.499919 0.49991962,0.4999186 0 0 0 0.49992,0.499918 0.49991962,0.4999186 0 0 0 0.499919,-0.499918 0.49991962,0.4999186 0 0 0 -0.499919,-0.499919 z m 2.999517,0 a 0.49991962,0.4999186 0 0 0 -0.499919,0.499919 0.49991962,0.4999186 0 0 0 0.499919,0.499918 0.49991962,0.4999186 0 0 0 0.49992,-0.499918 0.49991962,0.4999186 0 0 0 -0.49992,-0.499919 z m 2.999518,0 a 0.49991962,0.4999186 0 0 0 -0.49992,0.499919 0.49991962,0.4999186 0 0 0 0.49992,0.499918 0.49991962,0.4999186 0 0 0 0.49992,-0.499918 0.49991962,0.4999186 0 0 0 -0.49992,-0.499919 z m 2.999518,0 a 0.49991962,0.4999186 0 0 0 -0.49992,0.499919 0.49991962,0.4999186 0 0 0 0.49992,0.499918 0.49991962,0.4999186 0 0 0 0.499919,-0.499918 0.49991962,0.4999186 0 0 0 -0.499919,-0.499919 z m 2.999518,0 a 0.49991962,0.4999186 0 0 0 -0.49992,0.499919 0.49991962,0.4999186 0 0 0 0.49992,0.499918 0.49991962,0.4999186 0 0 0 0.499919,-0.499918 0.49991962,0.4999186 0 0 0 -0.499919,-0.499919 z m 2.999517,0 a 0.49991962,0.4999186 0 0 0 -0.499919,0.499919 0.49991962,0.4999186 0 0 0 0.499919,0.499918 0.49991962,0.4999186 0 0 0 0.49992,-0.499918 0.49991962,0.4999186 0 0 0 -0.49992,-0.499919 z m -16.497347,1.499756 a 0.49991962,0.4999186 0 0 0 -0.49992,0.499918 0.49991962,0.4999186 0 0 0 0.49992,0.499919 0.49991962,0.4999186 0 0 0 0.499919,-0.499919 0.49991962,0.4999186 0 0 0 -0.499919,-0.499918 z m 2.999517,0 a 0.49991962,0.4999186 0 0 0 -0.499919,0.499918 0.49991962,0.4999186 0 0 0 0.499919,0.499919 0.49991962,0.4999186 0 0 0 0.49992,-0.499919 0.49991962,0.4999186 0 0 0 -0.49992,-0.499918 z m 2.999518,0 a 0.49991962,0.4999186 0 0 0 -0.499919,0.499918 0.49991962,0.4999186 0 0 0 0.499919,0.499919 0.49991962,0.4999186 0 0 0 0.49992,-0.499919 0.49991962,0.4999186 0 0 0 -0.49992,-0.499918 z m 2.999518,0 a 0.49991962,0.4999186 0 0 0 -0.49992,0.499918 0.49991962,0.4999186 0 0 0 0.49992,0.499919 0.49991962,0.4999186 0 0 0 0.49992,-0.499919 0.49991962,0.4999186 0 0 0 -0.49992,-0.499918 z m 2.999518,0 a 0.49991962,0.4999186 0 0 0 -0.49992,0.499918 0.49991962,0.4999186 0 0 0 0.49992,0.499919 0.49991962,0.4999186 0 0 0 0.499919,-0.499919 0.49991962,0.4999186 0 0 0 -0.499919,-0.499918 z m 2.999517,0 a 0.49991962,0.4999186 0 0 0 -0.499919,0.499918 0.49991962,0.4999186 0 0 0 0.499919,0.499919 0.49991962,0.4999186 0 0 0 0.49992,-0.499919 0.49991962,0.4999186 0 0 0 -0.49992,-0.499918 z m -13.497829,1.499756 a 0.49991962,0.4999186 0 0 0 -0.49992,0.499918 0.49991962,0.4999186 0 0 0 0.49992,0.499919 0.49991962,0.4999186 0 0 0 0.499919,-0.499919 0.49991962,0.4999186 0 0 0 -0.499919,-0.499918 z m 2.999517,0 a 0.49991962,0.4999186 0 0 0 -0.499919,0.499918 0.49991962,0.4999186 0 0 0 0.499919,0.499919 0.49991962,0.4999186 0 0 0 0.49992,-0.499919 0.49991962,0.4999186 0 0 0 -0.49992,-0.499918 z m 2.999518,0 a 0.49991962,0.4999186 0 0 0 -0.49992,0.499918 0.49991962,0.4999186 0 0 0 0.49992,0.499919 0.49991962,0.4999186 0 0 0 0.49992,-0.499919 0.49991962,0.4999186 0 0 0 -0.49992,-0.499918 z m 2.999518,0 a 0.49991962,0.4999186 0 0 0 -0.49992,0.499918 0.49991962,0.4999186 0 0 0 0.49992,0.499919 0.49991962,0.4999186 0 0 0 0.499919,-0.499919 0.49991962,0.4999186 0 0 0 -0.499919,-0.499918 z m 2.999518,0 a 0.49991962,0.4999186 0 0 0 -0.49992,0.499918 0.49991962,0.4999186 0 0 0 0.49992,0.499919 0.49991962,0.4999186 0 0 0 0.499919,-0.499919 0.49991962,0.4999186 0 0 0 -0.499919,-0.499918 z m 2.999517,0 a 0.49991962,0.4999186 0 0 0 -0.499919,0.499918 0.49991962,0.4999186 0 0 0 0.499919,0.499919 0.49991962,0.4999186 0 0 0 0.49992,-0.499919 0.49991962,0.4999186 0 0 0 -0.49992,-0.499918 z m -16.497347,1.499755 a 0.49991962,0.4999186 0 0 0 -0.49992,0.499919 0.49991962,0.4999186 0 0 0 0.49992,0.499919 0.49991962,0.4999186 0 0 0 0.499919,-0.499919 0.49991962,0.4999186 0 0 0 -0.499919,-0.499919 z m 2.999517,0 a 0.49991962,0.4999186 0 0 0 -0.499919,0.499919 0.49991962,0.4999186 0 0 0 0.499919,0.499919 0.49991962,0.4999186 0 0 0 0.49992,-0.499919 0.49991962,0.4999186 0 0 0 -0.49992,-0.499919 z m 2.999518,0 a 0.49991962,0.4999186 0 0 0 -0.499919,0.499919 0.49991962,0.4999186 0 0 0 0.499919,0.499919 0.49991962,0.4999186 0 0 0 0.49992,-0.499919 0.49991962,0.4999186 0 0 0 -0.49992,-0.499919 z m 2.999518,0 a 0.49991962,0.4999186 0 0 0 -0.49992,0.499919 0.49991962,0.4999186 0 0 0 0.49992,0.499919 0.49991962,0.4999186 0 0 0 0.49992,-0.499919 0.49991962,0.4999186 0 0 0 -0.49992,-0.499919 z m 2.999518,0 a 0.49991962,0.4999186 0 0 0 -0.49992,0.499919 0.49991962,0.4999186 0 0 0 0.49992,0.499919 0.49991962,0.4999186 0 0 0 0.499919,-0.499919 0.49991962,0.4999186 0 0 0 -0.499919,-0.499919 z m 2.999517,0 a 0.49991962,0.4999186 0 0 0 -0.499919,0.499919 0.49991962,0.4999186 0 0 0 0.499919,0.499919 0.49991962,0.4999186 0 0 0 0.49992,-0.499919 0.49991962,0.4999186 0 0 0 -0.49992,-0.499919 z"
     id="path3737"
     inkscape:connector-curvature="0" />
</svg>
