<?xml version="1.0" encoding="UTF-8" standalone="no"?>
<svg
   xmlns:dc="http://purl.org/dc/elements/1.1/"
   xmlns:cc="http://creativecommons.org/ns#"
   xmlns:rdf="http://www.w3.org/1999/02/22-rdf-syntax-ns#"
   xmlns:svg="http://www.w3.org/2000/svg"
   xmlns="http://www.w3.org/2000/svg"
   xmlns:sodipodi="http://sodipodi.sourceforge.net/DTD/sodipodi-0.dtd"
   xmlns:inkscape="http://www.inkscape.org/namespaces/inkscape"
   viewBox="0 0 30 30"
   version="1.1"
   id="svg3711"
   sodipodi:docname="view_top.svg"
   inkscape:version="0.92.2 (5c3e80d, 2017-08-06)"
   width="30"
   height="30">
  <metadata
     id="metadata3717">
    <rdf:RDF>
      <cc:Work
         rdf:about="">
        <dc:format>image/svg+xml</dc:format>
        <dc:type
           rdf:resource="http://purl.org/dc/dcmitype/StillImage" />
        <dc:title></dc:title>
      </cc:Work>
    </rdf:RDF>
  </metadata>
  <defs
     id="defs3715" />
  <sodipodi:namedview
     pagecolor="#ffffff"
     bordercolor="#666666"
     borderopacity="1"
     objecttolerance="10"
     gridtolerance="10"
     guidetolerance="10"
     inkscape:pageopacity="0"
     inkscape:pageshadow="2"
     inkscape:window-width="1920"
     inkscape:window-height="1018"
     id="namedview3713"
     showgrid="false"
     inkscape:zoom="5.30625"
     inkscape:cx="85.96136"
     inkscape:cy="26.757958"
     inkscape:window-x="-8"
     inkscape:window-y="-8"
     inkscape:window-maximized="1"
     inkscape:current-layer="svg3711" />
  <path
     style="line-height:normal;text-indent:0;text-align:start;text-decoration:none;text-decoration-line:none;text-decoration-style:solid;text-decoration-color:#000000;text-transform:none;isolation:auto;mix-blend-mode:normal;stroke-width:0.50000244"
     d="m 0.00500906,0.49501806 a 0.49996863,0.50013627 0 0 1 0.569243,-0.49520300185 H 21.006474 A 0.49996863,0.50013627 0 0 1 21.359932,0.14632506 l 8.498616,8.50146704 a 0.49996863,0.50013627 0 0 1 0.146461,0.353576 V 29.504905 A 0.49996863,0.50013627 0 0 1 29.50509,30.004991 H 9.0084261 A 0.49996863,0.50013627 0 0 1 8.6549681,29.858482 L 0.15635206,21.357015 a 0.49996863,0.50013627 0 0 1 -0.146461,-0.353576 V 0.55850606 a 0.49996863,0.50013627 0 0 1 -0.0049,-0.06349 z M 1.0097281,1.7071411 V 20.796372 l 7.49878,7.501294 V 9.2084351 Z m 0.706916,-0.70715304 7.49878,7.50129404 h 0.292921 a 0.49991863,0.50008626 0 0 1 0.4999189,-0.500086 0.49991863,0.50008626 0 0 1 0.499918,0.500086 h 1.999675 a 0.49991863,0.50008626 0 0 1 0.499918,-0.500086 0.49991863,0.50008626 0 0 1 0.499919,0.500086 h 1.999675 a 0.49991863,0.50008626 0 0 1 0.499918,-0.500086 0.49991863,0.50008626 0 0 1 0.499919,0.500086 h 1.999674 a 0.49991863,0.50008626 0 0 1 0.499919,-0.500086 0.49991863,0.50008626 0 0 1 0.499919,0.500086 h 1.999674 a 0.49991863,0.50008626 0 0 1 0.499919,-0.500086 0.49991863,0.50008626 0 0 1 0.499919,0.500086 h 1.999674 a 0.49991863,0.50008626 0 0 1 0.499919,-0.500086 0.49991863,0.50008626 0 0 1 0.499918,0.500086 h 2.792515 l -1.32498,-1.325424 a 0.49991863,0.50008626 0 0 1 -0.467697,0.325252 0.49991863,0.50008626 0 0 1 -0.499919,-0.500087 0.49991863,0.50008626 0 0 1 0.325143,-0.467854 l -0.857283,-0.85757 a 0.49991863,0.50008626 0 0 1 -0.467697,0.325252 0.49991863,0.50008626 0 0 1 -0.499919,-0.500087 0.49991863,0.50008626 0 0 1 0.325143,-0.467854 l -0.857283,-0.85757 a 0.49991863,0.50008626 0 0 1 -0.467697,0.325252 0.49991863,0.50008626 0 0 1 -0.499919,-0.500086 0.49991863,0.50008626 0 0 1 0.325143,-0.467855 l -0.857283,-0.857569 a 0.49991863,0.50008626 0 0 1 -0.467697,0.325251 0.49991863,0.50008626 0 0 1 -0.499919,-0.500086 0.49991863,0.50008626 0 0 1 0.325143,-0.467854 l -0.857283,-0.85757 A 0.49991863,0.50008626 0 0 1 20.506555,1.5000741 0.49991863,0.50008626 0 0 1 20.006636,0.99998806 H 18.006962 A 0.49991863,0.50008626 0 0 1 17.507043,1.5000741 0.49991863,0.50008626 0 0 1 17.007125,0.99998806 H 15.00745 A 0.49991863,0.50008626 0 0 1 14.507531,1.5000741 0.49991863,0.50008626 0 0 1 14.007613,0.99998806 H 12.007938 A 0.49991863,0.50008626 0 0 1 11.50802,1.5000741 0.49991863,0.50008626 0 0 1 11.008101,0.99998806 H 9.0084261 A 0.49991863,0.50008626 0 0 1 8.5085081,1.5000741 0.49991863,0.50008626 0 0 1 8.0085891,0.99998806 H 6.0089151 A 0.49991863,0.50008626 0 0 1 5.5089961,1.5000741 0.49991863,0.50008626 0 0 1 5.0090771,0.99998806 H 3.0094031 A 0.49991863,0.50008626 0 0 1 2.5094841,1.5000741 0.49991863,0.50008626 0 0 1 2.0095661,0.99998806 Z m 1.792677,1.50025904 a 0.49991863,0.50008626 0 0 1 0.499919,-0.500086 0.49991863,0.50008626 0 0 1 0.499919,0.500086 0.49991863,0.50008626 0 0 1 -0.499919,0.500086 0.49991863,0.50008626 0 0 1 -0.499919,-0.500086 z m 1.499756,1.500259 a 0.49991863,0.50008626 0 0 1 0.499919,-0.500087 0.49991863,0.50008626 0 0 1 0.499919,0.500087 0.49991863,0.50008626 0 0 1 -0.499919,0.500086 0.49991863,0.50008626 0 0 1 -0.499919,-0.500086 z m 1.499756,-1.500259 a 0.49991863,0.50008626 0 0 1 0.499919,-0.500086 0.49991863,0.50008626 0 0 1 0.499919,0.500086 0.49991863,0.50008626 0 0 1 -0.499919,0.500086 0.49991863,0.50008626 0 0 1 -0.499919,-0.500086 z m 0,3.000517 a 0.49991863,0.50008626 0 0 1 0.499919,-0.500086 0.49991863,0.50008626 0 0 1 0.499919,0.500086 0.49991863,0.50008626 0 0 1 -0.499919,0.500087 0.49991863,0.50008626 0 0 1 -0.499919,-0.500087 z m 1.499756,-1.500258 a 0.49991863,0.50008626 0 0 1 0.499919,-0.500087 0.49991863,0.50008626 0 0 1 0.499918,0.500087 0.49991863,0.50008626 0 0 1 -0.499918,0.500086 0.49991863,0.50008626 0 0 1 -0.499919,-0.500086 z m 0,3.000517 a 0.49991863,0.50008626 0 0 1 0.499919,-0.500086 0.49991863,0.50008626 0 0 1 0.499918,0.500086 0.49991863,0.50008626 0 0 1 -0.499918,0.500087 0.49991863,0.50008626 0 0 1 -0.499919,-0.500087 z m 1.499756,-4.500776 a 0.49991863,0.50008626 0 0 1 0.4999189,-0.500086 0.49991863,0.50008626 0 0 1 0.499918,0.500086 0.49991863,0.50008626 0 0 1 -0.499918,0.500086 0.49991863,0.50008626 0 0 1 -0.4999189,-0.500086 z m 0,3.000517 a 0.49991863,0.50008626 0 0 1 0.4999189,-0.500086 0.49991863,0.50008626 0 0 1 0.499918,0.500086 0.49991863,0.50008626 0 0 1 -0.499918,0.500087 0.49991863,0.50008626 0 0 1 -0.4999189,-0.500087 z m 0,4.000691 V 29.004819 H 29.005172 V 9.5014551 Z m 1.4997559,-5.500949 a 0.49991863,0.50008626 0 0 1 0.499919,-0.500087 0.49991863,0.50008626 0 0 1 0.499918,0.500087 0.49991863,0.50008626 0 0 1 -0.499918,0.500086 0.49991863,0.50008626 0 0 1 -0.499919,-0.500086 z m 0,3.000517 a 0.49991863,0.50008626 0 0 1 0.499919,-0.500086 0.49991863,0.50008626 0 0 1 0.499918,0.500086 0.49991863,0.50008626 0 0 1 -0.499918,0.500087 0.49991863,0.50008626 0 0 1 -0.499919,-0.500087 z m 1.499756,-4.500776 a 0.49991863,0.50008626 0 0 1 0.499918,-0.500086 0.49991863,0.50008626 0 0 1 0.499919,0.500086 0.49991863,0.50008626 0 0 1 -0.499919,0.500086 0.49991863,0.50008626 0 0 1 -0.499918,-0.500086 z m 0,3.000517 a 0.49991863,0.50008626 0 0 1 0.499918,-0.500086 0.49991863,0.50008626 0 0 1 0.499919,0.500086 0.49991863,0.50008626 0 0 1 -0.499919,0.500087 0.49991863,0.50008626 0 0 1 -0.499918,-0.500087 z m 1.499756,-1.500258 a 0.49991863,0.50008626 0 0 1 0.499918,-0.500087 0.49991863,0.50008626 0 0 1 0.499919,0.500087 0.49991863,0.50008626 0 0 1 -0.499919,0.500086 0.49991863,0.50008626 0 0 1 -0.499918,-0.500086 z m 0,3.000517 a 0.49991863,0.50008626 0 0 1 0.499918,-0.500086 0.49991863,0.50008626 0 0 1 0.499919,0.500086 0.49991863,0.50008626 0 0 1 -0.499919,0.500087 0.49991863,0.50008626 0 0 1 -0.499918,-0.500087 z m 1.499756,-4.500776 a 0.49991863,0.50008626 0 0 1 0.499918,-0.500086 0.49991863,0.50008626 0 0 1 0.499919,0.500086 0.49991863,0.50008626 0 0 1 -0.499919,0.500086 0.49991863,0.50008626 0 0 1 -0.499918,-0.500086 z m 0,3.000517 a 0.49991863,0.50008626 0 0 1 0.499918,-0.500086 0.49991863,0.50008626 0 0 1 0.499919,0.500086 0.49991863,0.50008626 0 0 1 -0.499919,0.500087 0.49991863,0.50008626 0 0 1 -0.499918,-0.500087 z m 1.499756,-1.500258 a 0.49991863,0.50008626 0 0 1 0.499918,-0.500087 0.49991863,0.50008626 0 0 1 0.499919,0.500087 0.49991863,0.50008626 0 0 1 -0.499919,0.500086 0.49991863,0.50008626 0 0 1 -0.499918,-0.500086 z m 0,3.000517 a 0.49991863,0.50008626 0 0 1 0.499918,-0.500086 0.49991863,0.50008626 0 0 1 0.499919,0.500086 0.49991863,0.50008626 0 0 1 -0.499919,0.500087 0.49991863,0.50008626 0 0 1 -0.499918,-0.500087 z m 1.499755,-4.500776 a 0.49991863,0.50008626 0 0 1 0.499919,-0.500086 0.49991863,0.50008626 0 0 1 0.499919,0.500086 0.49991863,0.50008626 0 0 1 -0.499919,0.500086 0.49991863,0.50008626 0 0 1 -0.499919,-0.500086 z m 0,3.000517 a 0.49991863,0.50008626 0 0 1 0.499919,-0.500086 0.49991863,0.50008626 0 0 1 0.499919,0.500086 0.49991863,0.50008626 0 0 1 -0.499919,0.500087 0.49991863,0.50008626 0 0 1 -0.499919,-0.500087 z m 1.499756,-1.500258 a 0.49991863,0.50008626 0 0 1 0.499919,-0.500087 0.49991863,0.50008626 0 0 1 0.499919,0.500087 0.49991863,0.50008626 0 0 1 -0.499919,0.500086 0.49991863,0.50008626 0 0 1 -0.499919,-0.500086 z m 0,3.000517 a 0.49991863,0.50008626 0 0 1 0.499919,-0.500086 0.49991863,0.50008626 0 0 1 0.499919,0.500086 0.49991863,0.50008626 0 0 1 -0.499919,0.500087 0.49991863,0.50008626 0 0 1 -0.499919,-0.500087 z m 1.499756,-1.500259 a 0.49991863,0.50008626 0 0 1 0.499919,-0.500086 0.49991863,0.50008626 0 0 1 0.499919,0.500086 0.49991863,0.50008626 0 0 1 -0.499919,0.500087 0.49991863,0.50008626 0 0 1 -0.499919,-0.500087 z m 1.499756,1.500259 a 0.49991863,0.50008626 0 0 1 0.499919,-0.500086 0.49991863,0.50008626 0 0 1 0.499918,0.500086 0.49991863,0.50008626 0 0 1 -0.499918,0.500087 0.49991863,0.50008626 0 0 1 -0.499919,-0.500087 z"
     id="path3709"
     inkscape:connector-curvature="0" />
</svg>
