<?xml version="1.0" encoding="UTF-8" standalone="no"?>
<svg
   xmlns:dc="http://purl.org/dc/elements/1.1/"
   xmlns:cc="http://creativecommons.org/ns#"
   xmlns:rdf="http://www.w3.org/1999/02/22-rdf-syntax-ns#"
   xmlns:svg="http://www.w3.org/2000/svg"
   xmlns="http://www.w3.org/2000/svg"
   xmlns:sodipodi="http://sodipodi.sourceforge.net/DTD/sodipodi-0.dtd"
   xmlns:inkscape="http://www.inkscape.org/namespaces/inkscape"
   viewBox="0 0 30 30"
   version="1.1"
   id="svg3759"
   sodipodi:docname="view_3d.svg"
   width="30"
   height="30"
   inkscape:version="0.92.2 (5c3e80d, 2017-08-06)">
  <metadata
     id="metadata3765">
    <rdf:RDF>
      <cc:Work
         rdf:about="">
        <dc:format>image/svg+xml</dc:format>
        <dc:type
           rdf:resource="http://purl.org/dc/dcmitype/StillImage" />
        <dc:title></dc:title>
      </cc:Work>
    </rdf:RDF>
  </metadata>
  <defs
     id="defs3763" />
  <sodipodi:namedview
     pagecolor="#ffffff"
     bordercolor="#666666"
     borderopacity="1"
     objecttolerance="10"
     gridtolerance="10"
     guidetolerance="10"
     inkscape:pageopacity="0"
     inkscape:pageshadow="2"
     inkscape:window-width="944"
     inkscape:window-height="1002"
     id="namedview3761"
     showgrid="false"
     inkscape:zoom="2.95"
     inkscape:cx="40"
     inkscape:cy="40"
     inkscape:window-x="960"
     inkscape:window-y="0"
     inkscape:window-maximized="0"
     inkscape:current-layer="svg3759" />
  <path
     d="M 0.5,0 A 0.5,0.5 0 0 0 0,0.5 0.5,0.5 0 0 0 0.5,1 0.5,0.5 0 0 0 1,0.5 0.5,0.5 0 0 0 0.5,0 Z m 2,0 A 0.5,0.5 0 0 0 2,0.5 0.5,0.5 0 0 0 2.5,1 0.5,0.5 0 0 0 3,0.5 0.5,0.5 0 0 0 2.5,0 Z m 2,0 A 0.5,0.5 0 0 0 4,0.5 0.5,0.5 0 0 0 4.5,1 0.5,0.5 0 0 0 5,0.5 0.5,0.5 0 0 0 4.5,0 Z m 2,0 A 0.5,0.5 0 0 0 6,0.5 0.5,0.5 0 0 0 6.5,1 0.5,0.5 0 0 0 7,0.5 0.5,0.5 0 0 0 6.5,0 Z m 2,0 A 0.5,0.5 0 0 0 8,0.5 0.5,0.5 0 0 0 8.5,1 0.5,0.5 0 0 0 9,0.5 0.5,0.5 0 0 0 8.5,0 Z m 2,0 A 0.5,0.5 0 0 0 10,0.5 0.5,0.5 0 0 0 10.5,1 0.5,0.5 0 0 0 11,0.5 0.5,0.5 0 0 0 10.5,0 Z m 2,0 A 0.5,0.5 0 0 0 12,0.5 0.5,0.5 0 0 0 12.5,1 0.5,0.5 0 0 0 13,0.5 0.5,0.5 0 0 0 12.5,0 Z m 2,0 A 0.5,0.5 0 0 0 14,0.5 0.5,0.5 0 0 0 14.5,1 0.5,0.5 0 0 0 15,0.5 0.5,0.5 0 0 0 14.5,0 Z m 2,0 A 0.5,0.5 0 0 0 16,0.5 0.5,0.5 0 0 0 16.5,1 0.5,0.5 0 0 0 17,0.5 0.5,0.5 0 0 0 16.5,0 Z m 2,0 A 0.5,0.5 0 0 0 18,0.5 0.5,0.5 0 0 0 18.5,1 0.5,0.5 0 0 0 19,0.5 0.5,0.5 0 0 0 18.5,0 Z m 2,0 A 0.5,0.5 0 0 0 20,0.5 0.5,0.5 0 0 0 20.5,1 0.5,0.5 0 0 0 21,0.5 0.5,0.5 0 0 0 20.5,0 Z M 2,1.5 A 0.5,0.5 0 0 0 1.5,2 0.5,0.5 0 0 0 2,2.5 0.5,0.5 0 0 0 2.5,2 0.5,0.5 0 0 0 2,1.5 Z m 20,0 A 0.5,0.5 0 0 0 21.5,2 0.5,0.5 0 0 0 22,2.5 0.5,0.5 0 0 0 22.5,2 0.5,0.5 0 0 0 22,1.5 Z M 0.5,2 A 0.5,0.5 0 0 0 0,2.5 0.5,0.5 0 0 0 0.5,3 0.5,0.5 0 0 0 1,2.5 0.5,0.5 0 0 0 0.5,2 Z m 3,1 A 0.5,0.5 0 0 0 3,3.5 0.5,0.5 0 0 0 3.5,4 0.5,0.5 0 0 0 4,3.5 0.5,0.5 0 0 0 3.5,3 Z m 20,0 A 0.5,0.5 0 0 0 23,3.5 0.5,0.5 0 0 0 23.5,4 0.5,0.5 0 0 0 24,3.5 0.5,0.5 0 0 0 23.5,3 Z M 0.5,4 A 0.5,0.5 0 0 0 0,4.5 0.5,0.5 0 0 0 0.5,5 0.5,0.5 0 0 0 1,4.5 0.5,0.5 0 0 0 0.5,4 Z M 5,4 A 0.50005,0.50005 0 0 0 4.5,4.5 v 12.603516 a 0.50005,0.50005 0 0 0 0.1464845,0.353515 L 9.042969,21.853516 A 0.50005,0.50005 0 0 0 9.3964845,22 H 15.5 v 2.5 h -2 l 2.5,3 2.5,-3 h -2 V 22 h 5 A 0.50005,0.50005 0 0 0 22,21.5 V 16 h 2.5 v 2 l 3,-2.5 -3,-2.5 v 2 H 22 V 8.896484 A 0.50005,0.50005 0 0 0 21.833984,8.524414 L 16.9375,4.12793 A 0.50005,0.50005 0 0 0 16.603516,4 Z M 25,4.5 A 0.5,0.5 0 0 0 24.5,5 0.5,0.5 0 0 0 25,5.5 0.5,0.5 0 0 0 25.5,5 0.5,0.5 0 0 0 25,4.5 Z M 5.5,5 H 16.412109 L 21,9.119141 V 21 H 9.6035155 L 5.5,16.896484 Z m -5,1 A 0.5,0.5 0 0 0 0,6.5 0.5,0.5 0 0 0 0.5,7 0.5,0.5 0 0 0 1,6.5 0.5,0.5 0 0 0 0.5,6 Z m 6,0 A 0.5,0.5 0 0 0 6,6.5 0.5,0.5 0 0 0 6.5,7 0.5,0.5 0 0 0 7,6.5 0.5,0.5 0 0 0 6.5,6 Z m 20,0 A 0.5,0.5 0 0 0 26,6.5 0.5,0.5 0 0 0 26.5,7 0.5,0.5 0 0 0 27,6.5 0.5,0.5 0 0 0 26.5,6 Z M 8,7.5 A 0.5,0.5 0 0 0 7.5,8 0.5,0.5 0 0 0 8,8.5 0.5,0.5 0 0 0 8.5,8 0.5,0.5 0 0 0 8,7.5 Z m 20,0 A 0.5,0.5 0 0 0 27.5,8 0.5,0.5 0 0 0 28,8.5 0.5,0.5 0 0 0 28.5,8 0.5,0.5 0 0 0 28,7.5 Z M 0.5,8 A 0.5,0.5 0 0 0 0,8.5 0.5,0.5 0 0 0 0.5,9 0.5,0.5 0 0 0 1,8.5 0.5,0.5 0 0 0 0.5,8 Z m 9,1 A 0.5,0.5 0 0 0 9,9.5 0.5,0.5 0 0 0 9.5,10 0.5,0.5 0 0 0 10,9.5 0.5,0.5 0 0 0 9.5,9 Z m 2,0 A 0.5,0.5 0 0 0 11,9.5 0.5,0.5 0 0 0 11.5,10 0.5,0.5 0 0 0 12,9.5 0.5,0.5 0 0 0 11.5,9 Z m 2,0 A 0.5,0.5 0 0 0 13,9.5 0.5,0.5 0 0 0 13.5,10 0.5,0.5 0 0 0 14,9.5 0.5,0.5 0 0 0 13.5,9 Z m 2,0 A 0.5,0.5 0 0 0 15,9.5 0.5,0.5 0 0 0 15.5,10 0.5,0.5 0 0 0 16,9.5 0.5,0.5 0 0 0 15.5,9 Z m 2,0 A 0.5,0.5 0 0 0 17,9.5 0.5,0.5 0 0 0 17.5,10 0.5,0.5 0 0 0 18,9.5 0.5,0.5 0 0 0 17.5,9 Z m 2,0 A 0.5,0.5 0 0 0 19,9.5 0.5,0.5 0 0 0 19.5,10 0.5,0.5 0 0 0 20,9.5 0.5,0.5 0 0 0 19.5,9 Z m 4,0 A 0.5,0.5 0 0 0 23,9.5 0.5,0.5 0 0 0 23.5,10 0.5,0.5 0 0 0 24,9.5 0.5,0.5 0 0 0 23.5,9 Z m 2,0 A 0.5,0.5 0 0 0 25,9.5 0.5,0.5 0 0 0 25.5,10 0.5,0.5 0 0 0 26,9.5 0.5,0.5 0 0 0 25.5,9 Z m 2,0 A 0.5,0.5 0 0 0 27,9.5 0.5,0.5 0 0 0 27.5,10 0.5,0.5 0 0 0 28,9.5 0.5,0.5 0 0 0 27.5,9 Z m 2,0 A 0.5,0.5 0 0 0 29,9.5 0.5,0.5 0 0 0 29.5,10 0.5,0.5 0 0 0 30,9.5 0.5,0.5 0 0 0 29.5,9 Z m -29,1 A 0.5,0.5 0 0 0 0,10.5 0.5,0.5 0 0 0 0.5,11 0.5,0.5 0 0 0 1,10.5 0.5,0.5 0 0 0 0.5,10 Z m 9,1 A 0.5,0.5 0 0 0 9,11.5 0.5,0.5 0 0 0 9.5,12 0.5,0.5 0 0 0 10,11.5 0.5,0.5 0 0 0 9.5,11 Z m 20,0 A 0.5,0.5 0 0 0 29,11.5 0.5,0.5 0 0 0 29.5,12 0.5,0.5 0 0 0 30,11.5 0.5,0.5 0 0 0 29.5,11 Z m -29,1 A 0.5,0.5 0 0 0 0,12.5 0.5,0.5 0 0 0 0.5,13 0.5,0.5 0 0 0 1,12.5 0.5,0.5 0 0 0 0.5,12 Z m 9,1 A 0.5,0.5 0 0 0 9,13.5 0.5,0.5 0 0 0 9.5,14 0.5,0.5 0 0 0 10,13.5 0.5,0.5 0 0 0 9.5,13 Z m 20,0 A 0.5,0.5 0 0 0 29,13.5 0.5,0.5 0 0 0 29.5,14 0.5,0.5 0 0 0 30,13.5 0.5,0.5 0 0 0 29.5,13 Z m -29,1 A 0.5,0.5 0 0 0 0,14.5 0.5,0.5 0 0 0 0.5,15 0.5,0.5 0 0 0 1,14.5 0.5,0.5 0 0 0 0.5,14 Z m 9,1 A 0.5,0.5 0 0 0 9,15.5 0.5,0.5 0 0 0 9.5,16 0.5,0.5 0 0 0 10,15.5 0.5,0.5 0 0 0 9.5,15 Z m 20,0 A 0.5,0.5 0 0 0 29,15.5 0.5,0.5 0 0 0 29.5,16 0.5,0.5 0 0 0 30,15.5 0.5,0.5 0 0 0 29.5,15 Z m -29,1 A 0.5,0.5 0 0 0 0,16.5 0.5,0.5 0 0 0 0.5,17 0.5,0.5 0 0 0 1,16.5 0.5,0.5 0 0 0 0.5,16 Z m 9,1 A 0.5,0.5 0 0 0 9,17.5 0.5,0.5 0 0 0 9.5,18 0.5,0.5 0 0 0 10,17.5 0.5,0.5 0 0 0 9.5,17 Z m 20,0 A 0.5,0.5 0 0 0 29,17.5 0.5,0.5 0 0 0 29.5,18 0.5,0.5 0 0 0 30,17.5 0.5,0.5 0 0 0 29.5,17 Z m -29,1 A 0.5,0.5 0 0 0 0,18.5 0.5,0.5 0 0 0 0.5,19 0.5,0.5 0 0 0 1,18.5 0.5,0.5 0 0 0 0.5,18 Z m 9,1 A 0.5,0.5 0 0 0 9,19.5 0.5,0.5 0 0 0 9.5,20 0.5,0.5 0 0 0 10,19.5 0.5,0.5 0 0 0 9.5,19 Z m 20,0 A 0.5,0.5 0 0 0 29,19.5 0.5,0.5 0 0 0 29.5,20 0.5,0.5 0 0 0 30,19.5 0.5,0.5 0 0 0 29.5,19 Z m -29,1 A 0.5,0.5 0 0 0 0,20.5 0.5,0.5 0 0 0 0.5,21 0.5,0.5 0 0 0 1,20.5 0.5,0.5 0 0 0 0.5,20 Z m 29,1 A 0.5,0.5 0 0 0 29,21.5 0.5,0.5 0 0 0 29.5,22 0.5,0.5 0 0 0 30,21.5 0.5,0.5 0 0 0 29.5,21 Z M 2,22 A 0.5,0.5 0 0 0 1.5,22.5 0.5,0.5 0 0 0 2,23 0.5,0.5 0 0 0 2.5,22.5 0.5,0.5 0 0 0 2,22 Z m 7.5,1 A 0.5,0.5 0 0 0 9,23.5 0.5,0.5 0 0 0 9.5,24 0.5,0.5 0 0 0 10,23.5 0.5,0.5 0 0 0 9.5,23 Z m 20,0 A 0.5,0.5 0 0 0 29,23.5 0.5,0.5 0 0 0 29.5,24 0.5,0.5 0 0 0 30,23.5 0.5,0.5 0 0 0 29.5,23 Z m -26,0.5 A 0.5,0.5 0 0 0 3,24 0.5,0.5 0 0 0 3.5,24.5 0.5,0.5 0 0 0 4,24 0.5,0.5 0 0 0 3.5,23.5 Z M 5,25 A 0.5,0.5 0 0 0 4.5,25.5 0.5,0.5 0 0 0 5,26 0.5,0.5 0 0 0 5.5,25.5 0.5,0.5 0 0 0 5,25 Z m 4.5,0 A 0.5,0.5 0 0 0 9,25.5 0.5,0.5 0 0 0 9.5,26 0.5,0.5 0 0 0 10,25.5 0.5,0.5 0 0 0 9.5,25 Z m 20,0 A 0.5,0.5 0 0 0 29,25.5 0.5,0.5 0 0 0 29.5,26 0.5,0.5 0 0 0 30,25.5 0.5,0.5 0 0 0 29.5,25 Z m -23,1.5 A 0.5,0.5 0 0 0 6,27 0.5,0.5 0 0 0 6.5,27.5 0.5,0.5 0 0 0 7,27 0.5,0.5 0 0 0 6.5,26.5 Z m 3,0.5 A 0.5,0.5 0 0 0 9,27.5 0.5,0.5 0 0 0 9.5,28 0.5,0.5 0 0 0 10,27.5 0.5,0.5 0 0 0 9.5,27 Z m 20,0 A 0.5,0.5 0 0 0 29,27.5 0.5,0.5 0 0 0 29.5,28 0.5,0.5 0 0 0 30,27.5 0.5,0.5 0 0 0 29.5,27 Z M 8,28 A 0.5,0.5 0 0 0 7.5,28.5 0.5,0.5 0 0 0 8,29 0.5,0.5 0 0 0 8.5,28.5 0.5,0.5 0 0 0 8,28 Z m 1.5,1 A 0.5,0.5 0 0 0 9,29.5 0.5,0.5 0 0 0 9.5,30 0.5,0.5 0 0 0 10,29.5 0.5,0.5 0 0 0 9.5,29 Z m 2,0 A 0.5,0.5 0 0 0 11,29.5 0.5,0.5 0 0 0 11.5,30 0.5,0.5 0 0 0 12,29.5 0.5,0.5 0 0 0 11.5,29 Z m 2,0 A 0.5,0.5 0 0 0 13,29.5 0.5,0.5 0 0 0 13.5,30 0.5,0.5 0 0 0 14,29.5 0.5,0.5 0 0 0 13.5,29 Z m 2,0 A 0.5,0.5 0 0 0 15,29.5 0.5,0.5 0 0 0 15.5,30 0.5,0.5 0 0 0 16,29.5 0.5,0.5 0 0 0 15.5,29 Z m 2,0 A 0.5,0.5 0 0 0 17,29.5 0.5,0.5 0 0 0 17.5,30 0.5,0.5 0 0 0 18,29.5 0.5,0.5 0 0 0 17.5,29 Z m 2,0 A 0.5,0.5 0 0 0 19,29.5 0.5,0.5 0 0 0 19.5,30 0.5,0.5 0 0 0 20,29.5 0.5,0.5 0 0 0 19.5,29 Z m 2,0 A 0.5,0.5 0 0 0 21,29.5 0.5,0.5 0 0 0 21.5,30 0.5,0.5 0 0 0 22,29.5 0.5,0.5 0 0 0 21.5,29 Z m 2,0 A 0.5,0.5 0 0 0 23,29.5 0.5,0.5 0 0 0 23.5,30 0.5,0.5 0 0 0 24,29.5 0.5,0.5 0 0 0 23.5,29 Z m 2,0 A 0.5,0.5 0 0 0 25,29.5 0.5,0.5 0 0 0 25.5,30 0.5,0.5 0 0 0 26,29.5 0.5,0.5 0 0 0 25.5,29 Z m 2,0 A 0.5,0.5 0 0 0 27,29.5 0.5,0.5 0 0 0 27.5,30 0.5,0.5 0 0 0 28,29.5 0.5,0.5 0 0 0 27.5,29 Z m 2,0 A 0.5,0.5 0 0 0 29,29.5 0.5,0.5 0 0 0 29.5,30 0.5,0.5 0 0 0 30,29.5 0.5,0.5 0 0 0 29.5,29 Z"
     id="path3757"
     inkscape:connector-curvature="0"
     style="stroke-width:0.5" />
</svg>
