<?xml version="1.0" encoding="UTF-8"?>
<svg width="18px" height="18px" viewBox="0 0 18 18" version="1.1" xmlns="http://www.w3.org/2000/svg" xmlns:xlink="http://www.w3.org/1999/xlink">
    <!-- Generator: Sketch 52.2 (67145) - http://www.bohemiancoding.com/sketch -->
    <title>Icon/warning-s</title>
    <desc>Created with Sketch.</desc>
    <g id="Icon/warning-s" stroke="none" stroke-width="1" fill="none" fill-rule="evenodd">
        <g id="icn/warning" transform="translate(0.000000, 1.000000)" fill="#000000" fill-rule="nonzero">
            <path d="M10.2840021,13.2214915 L10.2840021,11.3934951 C10.2840021,11.3037916 10.252402,11.2286553 10.1892019,11.1680863 C10.1252018,11.1067505 10.0498017,11.0760827 9.96300155,11.0760827 L8.03699845,11.0760827 C7.94979832,11.0760827 7.87439819,11.1067505 7.81079809,11.1680863 C7.74759799,11.2286553 7.71599794,11.3037916 7.71599794,11.3934951 L7.71599794,13.2209164 C7.71599794,13.3106199 7.74759799,13.3859479 7.81079809,13.4469003 C7.87479819,13.5078527 7.95019832,13.5383288 8.03699845,13.5383288 L9.96300155,13.5383288 C10.0502017,13.5383288 10.1256018,13.507661 10.1892019,13.4463252 C10.252402,13.3857562 10.2840021,13.3106199 10.2840021,13.2209164 L10.2840021,13.2214915 Z M10.264202,9.62530099 L10.4448023,5.21142857 C10.4448023,5.13475891 10.4114023,5.07380653 10.3446022,5.02857143 C10.257402,4.95803534 10.1770019,4.9227673 10.1034018,4.9227673 L7.89659823,4.9227673 C7.82299811,4.9227673 7.74259798,4.95803534 7.65539784,5.02857143 C7.58859774,5.07342318 7.55519768,5.14089248 7.55519768,5.23097934 L7.72559796,9.62530099 C7.72559796,9.68932016 7.75919801,9.74222222 7.82639812,9.78400719 C7.89319822,9.82540881 7.97319835,9.84610961 8.0663985,9.84610961 L9.92280148,9.84610961 C10.0168016,9.84610961 10.0954018,9.82540881 10.1586019,9.78400719 C10.222602,9.74183887 10.257802,9.68893681 10.264202,9.62530099 Z M10.1238018,0.644025157 L17.8290142,14.182929 C18.0634145,14.5865948 18.0568145,14.9904522 17.8092141,15.3945013 C17.695614,15.5804253 17.5400137,15.7280144 17.3424134,15.8372686 C17.1452131,15.9457562 16.9330127,16 16.7058124,16 L1.29418764,16 C1.06698727,16 0.854786932,15.9455645 0.657586615,15.8366936 C0.459986298,15.7278227 0.304386049,15.5802336 0.190785866,15.3939263 C-0.056814531,14.9902606 -0.0634145416,14.5865948 0.170985835,14.182929 L7.8761982,0.644025157 C7.98979838,0.445450734 8.14699863,0.288277928 8.34779895,0.172506739 C8.54859928,0.0575022462 8.76599962,-1.42108547e-13 9,-1.42108547e-13 C9.23400038,-1.42108547e-13 9.45140072,0.0575022462 9.65220105,0.172506739 C9.85300137,0.288277928 10.0102016,0.445450734 10.1238018,0.644025157 Z" id="Shape"></path>
        </g>
    </g>
</svg>