<svg width="512" height="512" viewBox="0 0 512 512" fill="none" xmlns="http://www.w3.org/2000/svg">
<g clip-path="url(#clip0_1923_105419)">
<g filter="url(#filter0_i_1923_105419)">
<path d="M461.002 364.531L364.531 461.002H51V147.471L147.471 51H461.002V364.531Z" fill="#196EF0"/>
</g>
<path d="M452 60V360.917L360.917 452H60V151.083L151.083 60H452Z" stroke="#FAFAFA" stroke-width="20"/>
<g filter="url(#filter1_d_1923_105419)">
<path fill-rule="evenodd" clip-rule="evenodd" d="M193.027 188.44C212.068 170.759 237.671 161 264.154 161H338V191H264.154C244.939 191 226.714 198.098 213.441 210.423C200.205 222.714 193 239.135 193 256C193 272.865 200.205 289.286 213.441 301.577C226.714 313.902 244.939 321 264.154 321H338V351H264.154C237.671 351 212.068 341.241 193.027 323.561C173.949 305.845 163 281.569 163 256C163 230.431 173.949 206.155 193.027 188.44Z" fill="#FAFAFA"/>
</g>
</g>
<defs>
<filter id="filter0_i_1923_105419" x="51" y="51" width="410.002" height="410.002" filterUnits="userSpaceOnUse" color-interpolation-filters="sRGB">
<feFlood flood-opacity="0" result="BackgroundImageFix"/>
<feBlend mode="normal" in="SourceGraphic" in2="BackgroundImageFix" result="shape"/>
<feColorMatrix in="SourceAlpha" type="matrix" values="0 0 0 0 0 0 0 0 0 0 0 0 0 0 0 0 0 0 127 0" result="hardAlpha"/>
<feOffset/>
<feGaussianBlur stdDeviation="50"/>
<feComposite in2="hardAlpha" operator="arithmetic" k2="-1" k3="1"/>
<feColorMatrix type="matrix" values="0 0 0 0 0 0 0 0 0 0 0 0 0 0 0 0 0 0 0.5 0"/>
<feBlend mode="normal" in2="shape" result="effect1_innerShadow_1923_105419"/>
</filter>
<filter id="filter1_d_1923_105419" x="123" y="121" width="255" height="270" filterUnits="userSpaceOnUse" color-interpolation-filters="sRGB">
<feFlood flood-opacity="0" result="BackgroundImageFix"/>
<feColorMatrix in="SourceAlpha" type="matrix" values="0 0 0 0 0 0 0 0 0 0 0 0 0 0 0 0 0 0 127 0" result="hardAlpha"/>
<feOffset/>
<feGaussianBlur stdDeviation="20"/>
<feComposite in2="hardAlpha" operator="out"/>
<feColorMatrix type="matrix" values="0 0 0 0 0 0 0 0 0 0 0 0 0 0 0 0 0 0 0.4 0"/>
<feBlend mode="normal" in2="BackgroundImageFix" result="effect1_dropShadow_1923_105419"/>
<feBlend mode="normal" in="SourceGraphic" in2="effect1_dropShadow_1923_105419" result="shape"/>
</filter>
<clipPath id="clip0_1923_105419">
<rect width="512" height="512" fill="white"/>
</clipPath>
</defs>
</svg>
