<?xml version="1.0" encoding="UTF-8" standalone="no"?>
<!-- Generator: Adobe Illustrator 16.2.1, SVG Export Plug-In . SVG Version: 6.00 Build 0)  -->

<svg
   xmlns:dc="http://purl.org/dc/elements/1.1/"
   xmlns:cc="http://creativecommons.org/ns#"
   xmlns:rdf="http://www.w3.org/1999/02/22-rdf-syntax-ns#"
   xmlns:svg="http://www.w3.org/2000/svg"
   xmlns="http://www.w3.org/2000/svg"
   xmlns:sodipodi="http://sodipodi.sourceforge.net/DTD/sodipodi-0.dtd"
   xmlns:inkscape="http://www.inkscape.org/namespaces/inkscape"
   version="1.1"
   id="Layer_1"
   x="0px"
   y="0px"
   width="512px"
   height="512px"
   viewBox="0 0 512 512"
   style="enable-background:new 0 0 512 512;"
   xml:space="preserve"
   inkscape:version="0.91 r13725"
   sodipodi:docname="postprocessing.svg"><metadata
     id="metadata9"><rdf:RDF><cc:Work
         rdf:about=""><dc:format>image/svg+xml</dc:format><dc:type
           rdf:resource="http://purl.org/dc/dcmitype/StillImage" /><dc:title></dc:title></cc:Work></rdf:RDF></metadata><defs
     id="defs7" /><sodipodi:namedview
     pagecolor="#ffffff"
     bordercolor="#666666"
     borderopacity="1"
     objecttolerance="10"
     gridtolerance="10"
     guidetolerance="10"
     inkscape:pageopacity="0"
     inkscape:pageshadow="2"
     inkscape:window-width="1104"
     inkscape:window-height="1006"
     id="namedview5"
     showgrid="false"
     inkscape:zoom="1.3359375"
     inkscape:cx="256"
     inkscape:cy="256"
     inkscape:window-x="701"
     inkscape:window-y="121"
     inkscape:window-maximized="0"
     inkscape:current-layer="Layer_1" /><path
     d="M 402.15234 0 C 371.74552 4.7369516e-015 345.79114 10.752017 324.21875 32.324219 C 302.57788 53.89652 291.82617 79.851497 291.82617 110.18945 C 291.82617 127.34315 295.26662 143.09419 302.16602 157.44531 L 238.38477 221.20312 C 227.77569 210.95036 218.04331 201.50935 209.66016 193.32422 C 207.33386 190.99792 202.68042 189.48707 198.60938 191.92969 L 191.74609 196.11719 C 165.34252 169.24836 154.17609 158.42965 150.57031 145.40234 C 146.84822 131.79345 150.22148 113.64862 153.71094 106.90234 C 156.61882 101.55183 165.69233 96.550326 173.36914 95.96875 L 183.37109 106.20508 C 185.69739 108.53139 189.30456 108.53139 191.63086 106.20508 L 227.57227 69.681641 C 229.89858 67.355335 229.89858 63.517712 227.57227 61.191406 L 169.53125 2.21875 C 167.20494 -0.10755598 163.48147 -0.10755598 161.27148 2.21875 L 125.33008 38.742188 C 123.00378 41.068494 123.00378 44.906116 125.33008 47.232422 L 129.16992 51.1875 C 129.16992 56.88695 128.35573 65.727167 123.70312 70.496094 C 116.49157 77.823958 102.18413 69.332919 92.878906 75.962891 C 83.689998 82.476548 72.05746 92.944493 64.613281 100.38867 C 57.285417 107.83285 29.138171 137.37722 9.015625 187.16016 C -11.106922 236.94311 4.3632369 283.12 15.296875 295.2168 C 21.11264 301.61414 31.696982 308.12804 29.835938 296.03125 C 27.974892 283.81815 24.951448 241.47942 38.792969 224.14844 C 52.634489 206.81746 70.894726 192.62799 94.623047 191.46484 C 117.42084 190.30169 130.56529 198.09417 160.10938 228.10352 L 156.85156 234.15234 C 154.75788 238.10706 155.92175 243.10728 158.24805 245.43359 C 161.95717 248.74082 172.37305 258.96006 186.52539 273.04297 L 6.9511719 452.54883 C 2.2984329 457.14417 1.1842379e-015 462.71497 0 469.14844 C -1.1842379e-015 475.69681 2.2984329 481.15473 6.9511719 485.51953 L 26.308594 505.22266 C 31.018838 509.76054 36.589603 512 42.908203 512 C 49.341623 512 54.800053 509.76054 59.337891 505.22266 L 238.96875 325.6582 C 317.6609 404.95524 424.21289 513.40234 424.21289 513.40234 L 482.25391 454.43164 C 437.71428 411.9686 358.71135 336.76293 291.93164 272.71484 L 354.68945 209.98047 C 369.08663 216.91399 384.90203 220.37891 402.15234 220.37891 C 425.29988 220.37891 446.52947 213.53073 465.77344 199.83398 C 485.08493 186.1372 498.57775 168.33291 506.31641 146.34961 C 510.08303 135.39222 512 126.69334 512 120.25586 C 512 117.79044 511.24662 115.80572 509.87695 114.16211 C 508.50726 112.5185 506.59041 111.69531 504.125 111.69531 C 502.61835 111.69531 496.86414 114.5734 486.72852 120.39453 C 476.6614 126.21564 465.50054 132.85752 453.37891 140.32227 C 441.18878 147.78698 434.7515 151.75888 433.92969 152.23828 L 386.40234 125.94141 L 386.40234 70.8125 L 458.51562 29.242188 C 461.18649 27.461587 462.48633 25.202356 462.48633 22.394531 C 462.48633 19.586706 461.1865 17.325625 458.51562 15.476562 C 451.32484 10.545729 442.4896 6.780346 432.08008 4.0410156 C 421.60206 1.3701797 411.67159 0 402.15234 0 z "
     id="path3" /></svg>