<svg xmlns="http://www.w3.org/2000/svg" xmlns:xlink="http://www.w3.org/1999/xlink" width="24" height="24" viewBox="0 0 24 24">
    <defs>
        <path id="a" d="M13.774 1.412l9.706 18.665A2 2 0 0 1 21.706 23H2.294A2 2 0 0 1 .52 20.077l9.706-18.665a2 2 0 0 1 3.548 0z"/>
    </defs>
    <g fill="none" fill-rule="evenodd">
        <use fill="#FFF" xlink:href="#a"/>
        <path stroke="#000" stroke-width="2.4" d="M12.71 1.966a.8.8 0 0 0-1.42 0L1.584 20.631a.8.8 0 0 0 .71 1.169h19.412a.8.8 0 0 0 .71-1.17L12.71 1.967z"/>
        <path fill="#000" d="M13.144 14.995h-2.29L10.5 8h2.998l-.354 6.995zm-2.612 2.502c0-.475.13-.844.388-1.108.258-.263.633-.395 1.125-.395.488 0 .857.132 1.108.395.251.264.377.633.377 1.108 0 .47-.13.836-.39 1.1-.261.263-.626.395-1.095.395-.473 0-.843-.132-1.111-.396-.268-.263-.402-.63-.402-1.1z"/>
    </g>
</svg>
