<svg width="48px" height="48px" viewBox="0 0 48 48" version="1.1" xmlns="http://www.w3.org/2000/svg" xmlns:xlink="http://www.w3.org/1999/xlink">
    <!-- Generator: Sketch 51.3 (57544) - http://www.bohemiancoding.com/sketch -->
    <desc>Created with Sketch.</desc>
    <defs></defs>
    <g id="Page-1" stroke="none" stroke-width="1" fill="none" fill-rule="evenodd">
        <path d="M39.0204082,32.810726 L39.0204082,40 L0,40 L0,8 L39.0204082,8 L39.0204082,13.382823 L42.565076,11.9601033 C44.1116852,11.3414006 46.2176038,11.5575311 47.3294911,12.5468926 L48,13.1435139 L48,32.1994839 C48,32.8444894 47.6431099,33.4236728 46.9293296,33.9370341 C45.8586592,34.707076 45.395355,34.5806452 44.4537143,34.5806452 C43.7935857,34.5806452 43.1386795,34.4629571 42.5629467,34.2325919 L39.0204082,32.810726 Z M35.0204082,12 L4,12 L4,36 L35.0204082,36 L35.0204082,26.8950804 L37.7653798,27.9968275 L44,30.4992132 L44,15.6943364 L35.0204082,19.298468 L35.0204082,12 Z" id="Shape" fill="#FFFFFF" fill-rule="nonzero"></path>
    </g>
</svg>