<?xml version="1.0" encoding="UTF-8"?>
<svg width="291px" height="209px" viewBox="0 0 291 209" version="1.1" xmlns="http://www.w3.org/2000/svg" xmlns:xlink="http://www.w3.org/1999/xlink">
    <!-- Generator: Sketch 52.5 (67469) - http://www.bohemiancoding.com/sketch -->
    <title>Group 2</title>
    <desc>Created with Sketch.</desc>
    <g id="Page-1" stroke="none" stroke-width="1" fill="none" fill-rule="evenodd">
        <g id="CC--Cloud-connection-succes" transform="translate(-570.000000, -132.000000)">
            <g id="Group-2" transform="translate(570.000000, 132.000000)">
                <g id="Icon/-group-printer/-connected" fill="#08073F" fill-rule="nonzero">
                    <g id="printer-group">
                        <g id="Group-Copy" transform="translate(0.000000, 0.218255)">
                            <g id="UM3">
                                <path d="M151.645765,136.481718 C149.925833,142.069331 149,148.004918 149,154.156745 C149,157.125641 149.215633,160.044173 149.632091,162.897534 L94.5646946,162.897534 C92.6599327,163.073639 90.7551708,163.778061 89.3698894,165.010799 L88.3309283,166.067432 C87.2919673,167.828487 85.2140452,168.180697 83.1361231,168.180697 L73.7854738,168.180697 C73.2659933,168.180697 72.7465127,167.652381 72.7465127,167.124065 L72.7465127,152.918227 L19.3939394,152.918227 C17.7008177,153.074764 16.007696,153.700917 14.7763348,154.796684 L13.8528138,155.735914 C12.9292929,157.301296 11.0822511,157.614372 9.23520921,157.614372 L0.923520928,157.614372 C0.461760462,157.614372 1.42108547e-13,157.144757 1.42108547e-13,156.675142 L1.42108547e-13,9.0596475 C1.42108547e-13,8.59003299 0.461760462,8.12041848 0.923520928,8.12041848 L72.7465127,8.12041848 L72.7465127,1.05663265 C72.7465127,0.528316328 73.2659933,-2.84217094e-14 73.7854738,-2.84217094e-14 L216.815777,-2.84217094e-14 C217.335257,-2.84217094e-14 217.854738,0.528316328 217.854738,1.05663265 L217.854738,8.12041848 L289.677732,8.12041848 C290.139493,8.12041848 290.601253,8.59003299 290.601253,9.0596475 L290.601253,156.675142 C290.601253,157.144757 290.139493,157.614372 289.677732,157.614372 L281.366043,157.614372 C279.672922,157.457833 277.9798,156.831681 276.748439,155.735914 L275.824918,154.796684 C274.901397,153.231303 273.054355,152.918227 271.207313,152.918227 L268.987471,152.918227 C268.818229,144.560013 266.939851,136.621364 263.687558,129.437501 L268.590671,129.437501 C272.900435,129.437501 276.440598,125.837123 276.440598,121.454054 L276.594519,121.454054 L276.594519,24.5569264 C276.594519,22.8350065 275.209237,21.5827012 273.670035,21.5827012 L217.854738,21.5827012 L217.854738,94.8055789 C214.965144,94.3781586 212.008429,94.1567452 209,94.1567452 C206.665515,94.1567452 204.362169,94.2900687 202.097162,94.5495169 L202.097162,21.5827012 L202.097162,18.4910714 C202.097162,16.5539116 200.538721,15.145068 198.807119,15.145068 L161.616164,15.145068 L128.985089,15.145068 L91.6209717,15.145068 C89.7162098,15.145068 88.3309283,16.730017 88.3309283,18.4910714 L88.3309283,21.5827012 L88.3309283,127.50034 C88.3309283,128.164624 88.4032089,128.812928 88.5401496,129.437501 C89.4197136,133.449106 92.9667866,136.481718 97.1620971,136.481718 L128.985089,136.481718 L151.645765,136.481718 Z M72.7465127,129.437501 L72.7465127,21.5827012 L16.7772968,21.5827012 C15.0841751,21.5827012 13.8528138,22.9915447 13.8528138,24.5569264 L13.8528138,121.454054 C13.8528138,125.837123 17.3929774,129.437501 21.7027417,129.437501 L72.7465127,129.437501 Z" id="Combined-Shape"></path>
                            </g>
                        </g>
                    </g>
                </g>
                <g id="Group-cloud" transform="translate(156.000000, 103.000000)">
                    <g id="Group" transform="translate(0.394933, 0.724044)">
                        <circle id="Oval-Copy" fill="#3282FF" cx="52.6050671" cy="52.601776" r="52.1311475"></circle>
                        <path d="M74.8002981,45.4035747 C74.1684054,39.8133538 69.4292101,35.538479 63.7421759,35.538479 C62.1624441,35.538479 60.8986587,35.8673156 59.6348733,36.5249886 C56.7913562,31.9212773 51.7362146,28.9617486 46.3651267,28.9617486 C37.5186289,28.9617486 30.5678092,36.1961521 30.5678092,45.4035747 C30.5678092,45.4035747 30.5678092,45.4035747 30.5678092,45.7324112 C25.1967213,46.3900842 21.0894188,51.322632 21.0894188,56.9128529 C21.0894188,63.1607468 26.1445604,68.4221311 32.147541,68.4221311 C36.8867362,68.4221311 67.533532,68.4221311 73.2205663,68.4221311 C79.2235469,68.4221311 84.2786885,63.1607468 84.2786885,56.9128529 C84.2786885,50.9937956 80.171386,46.3900842 74.8002981,45.4035747 Z" id="Path" fill="#FFFFFF"></path>
                    </g>
                </g>
            </g>
        </g>
    </g>
</svg>