<svg id="Layer_1" data-name="Layer 1" xmlns="http://www.w3.org/2000/svg" viewBox="0 0 120 120"><defs><style>.cls-1{fill:#f2f2f2;}</style></defs><title>logobot-placeholder</title><g id="homepage"><g id="Home-menu"><g id="Menu"><g id="logo"><g id="Robot"><path id="Fill-23" class="cls-1" d="M73.4,14.4a4.43,4.43,0,0,0-1.39.15,2.46,2.46,0,0,0-1.08.62h0l-.47.46h0c-.15.16-.15.31-.3.47h0c-.16.15-.16.31-.16.62h0v.61a4.71,4.71,0,0,0,.31,1.4,2.74,2.74,0,0,0,.77,1.08,4.56,4.56,0,0,0,1.09.77,4.3,4.3,0,0,0,1.39.31h1.08c.15,0,.15,0,.31-.15h.15a2.54,2.54,0,0,0,1.09-.62l.46-.47A1.11,1.11,0,0,0,77,19a3.83,3.83,0,0,0,.31-1.24A4.58,4.58,0,0,0,77,16.41c-.15-.31-.31-.47-.46-.78h0l-.31-.31-.47-.46a1.11,1.11,0,0,0-.62-.31c-.77,0-1.23-.15-1.7-.15"/><path id="Fill-24" class="cls-1" d="M75.72,26.3c-.15-.15-.15-.15-.31-.15S75.1,26,75,26l-17.63-.46h-.46c-.16,0-.16.15-.31.15h0c-.16.16-.16.16-.16.31h0c0,.16-.15.16-.15.31v1.09a.57.57,0,0,0,.15.46c0,.15.16.15.31.31s.16.15.31.15.31.16.46.16l17.63.31h.47c.15,0,.15-.16.31-.16.15-.15.15-.15.15-.31a.56.56,0,0,1,.16-.31v-.92c0-.16,0-.31-.16-.31-.15-.16-.31-.31-.31-.47"/><path id="Fill-25" class="cls-1" d="M56.24,20a5.37,5.37,0,0,0,1.39.93,5.27,5.27,0,0,0,1.55.31H60a.57.57,0,0,0,.46-.15h0c.16,0,.31,0,.31-.16h0a1.11,1.11,0,0,0,.62-.31h0c.16-.15.46-.31.62-.46a8.89,8.89,0,0,0,.93-1.24,4.64,4.64,0,0,0,.31-1.39,5.69,5.69,0,0,0-.31-1.55A2.49,2.49,0,0,0,62,14.7a9.08,9.08,0,0,0-1.24-.92,5.27,5.27,0,0,0-1.54-.31,4.91,4.91,0,0,0-1.55.15,11,11,0,0,0-1.24.62.15.15,0,0,0-.15.16l-.16.15-.31.31c-.15.15-.15.31-.31.31,0,.15-.15.15-.15.31h0a.9.9,0,0,0-.16.62h0a6.56,6.56,0,0,0-.15.77,5.4,5.4,0,0,0,.31,1.55c.31.77.46,1.23.93,1.54"/><path id="Fill-26" class="cls-1" d="M73.56,63.73H75a26.36,26.36,0,0,1,3.25.46,25.84,25.84,0,0,1-3.25.47H73.4l-.15,1.23-.16-1.23c-1.08-.16-2.63-.31-2.63-.31A16.81,16.81,0,0,1,73.09,64l-.46-2.48-4.95-.15-.31,2.94,2.94.15-2.94.16-.31,2.78h.62c1.39,0,4.8.46,4.8.46s-3.41.47-4.8.47h-.62l-.15,1.08-.16-1.08H65.67c-1.39,0-4.79-.47-4.79-.47s3.4-.46,4.79-.46h1.08l-.31-2.78-7.11.46-.62,2.94-.62-2.94-5.56-.62,5.56-.62.62-2.78-7.89-.31L66,60.17l-.15-2.47-4.64-.31-.47,2.47-.46-2.47-9.13-.62,9.13-.62.62-2.63L61.34,56,66,55.69l.31-3.25c-1.39-.16-2.48-.31-2.48-.31l2.63-.31.31-2.47h-.92a57.28,57.28,0,0,1-5.73-.62,57.28,57.28,0,0,1,5.73-.62h1.08l.15-1.86.16,1.86h.93c1.7,0,5.87.62,5.87.62s-4.17.62-5.87.62h-.78l.31,2.32c.62,0,1.24-.16,1.7-.16H71.7c1.55,0,5.72.62,5.72.62a57.35,57.35,0,0,1-5.72.62H69.38a6.72,6.72,0,0,1-1.7-.16l.31,3.1,3.87,1.08L68,57.85l-.15,2.32L72.63,60l.77-5.26L74.18,60l6.49.77-6.49.77-.62,2.17ZM56.39,51.36h1.55a33.46,33.46,0,0,1,3.71.46,33.46,33.46,0,0,1-3.71.46H56.39a29.51,29.51,0,0,1-3.56-.46,29.51,29.51,0,0,1,3.56-.46ZM77.27,56h.15a9.78,9.78,0,0,1,2,.46,9.78,9.78,0,0,1-2,.46H76.5a9.78,9.78,0,0,1-2-.46,9.78,9.78,0,0,1,2-.46Zm8.66-13.77c0-.15,0-.15-.16-.31,0-.15-.15-.15-.15-.31-.15,0-.15-.15-.31-.15h-.46l-38.66.15h-.47a.56.56,0,0,0-.31.16l-.31.31a.57.57,0,0,1-.15.31,75.25,75.25,0,0,0-.47,8.35c-.15,2.78-.15,5.57-.15,8.35s0,5.57.15,8.35.31,5.57.47,8.35c0,.16,0,.31.15.31,0,.15.16.15.31.31a.5.5,0,0,0,.31.15c.31.16,10.67.62,10.67.62A16.83,16.83,0,0,1,58.71,76c.77-.31,1.55-.62,2.48-.93a3.48,3.48,0,0,1,1.23-.31h0c.31,0,.47-.16.78-.16.15,0,.31-.15.46-.15h1.39c.47,0,.93-.16,1.24-.16h3.87A19,19,0,0,1,76,76c.78-.16,9.28-2,9.44-2a.52.52,0,0,0,.3-.15l.31-.31c0-.15.16-.15.16-.31.15-2.63.31-5.1.46-7.73s.16-5.1.16-7.73,0-5.11-.16-7.74a68.32,68.32,0,0,1-.77-7.73Z"/><path id="Fill-27" class="cls-1" d="M58.71,60.79l.62,2.78,7,.47L66,61.1l-7.27-.31"/><path id="Fill-28" class="cls-1" d="M69.69,101.93a11.42,11.42,0,0,0-.15,4c.15.77,3.24.15,3.24.15s-1.7-3.25,1.09-4.17c.62-.16,2.47-.62,4.48-.93,2.94-.62,6.34-1.08,6.34-1.08a11.67,11.67,0,0,0-4.17-.16h-.93l-5.72.77c-2.79.47-3.71.78-4.18,1.4"/><path id="Fill-29" class="cls-1" d="M91.65,76.56V74.24h0l.31-.31c.16-.15.46-.3.62-.46a.57.57,0,0,0,.15-.46,1.19,1.19,0,0,0-.15-.62,1.18,1.18,0,0,0-.31-.62c-.15-.15-.31-.46-.46-.46l-.16-.16v-5h.16A3,3,0,0,0,93,65.58c0,.16.16.16.16.31a8.36,8.36,0,0,1,1.08,1.7,8.09,8.09,0,0,1,.77,2.32c.16,0,1.09,5.42-3.4,6.65Zm0-14.53c.47-.16,1.24-.31,1.7-.47.16,0,.31-.15.47-.15v.46a.52.52,0,0,0-.31.16,14.87,14.87,0,0,1-1.86.77V62Zm0-2.48c.47,0,1.08-.15,1.7-.15a.9.9,0,0,0,.62-.16v.47c-.15,0-.31.15-.62.15-.62.16-1.23.31-1.7.47v-.78Zm0-2.63a12.07,12.07,0,0,1,2.32.16v.31l-2.32.46v-.93Zm0-2.63c.47.16,1.08.16,1.7.31.16,0,.47.16.62.16v.46H91.81v-.93Zm0-2.78a9,9,0,0,1,1.86.62c.15,0,.31.15.46.15v.47c-.15,0-.31-.16-.62-.16-.62-.15-1.23-.15-1.7-.31v-.77Zm0-9.59h0c.77.47,1.55,2.48,2,3.41a7.06,7.06,0,0,1,.62,3.24v.31a.15.15,0,0,1-.15.16l-.16.15H91.5l.15-7.27Zm-2.78,0V77a4.64,4.64,0,0,1-.31,1.39,3,3,0,0,1-.77,1.08,4.92,4.92,0,0,1-1.09.78,4.62,4.62,0,0,1-1.39.3L83,80.74h0l-.15-.46a1.49,1.49,0,0,0-1.24-1.09l-2.47.16L49.74,81.2a1.48,1.48,0,0,0-1.39,1.09l-.62,1.39h0l-2,.15a5,5,0,0,1-1.55-.15,5.83,5.83,0,0,1-1.39-.62A6.4,6.4,0,0,1,41.86,82a4.42,4.42,0,0,1-.31-1.4V41.92a3.6,3.6,0,0,1,.31-1.39,2.41,2.41,0,0,1,.92-1.24,3.07,3.07,0,0,1,1.39-.77,4.71,4.71,0,0,1,1.4-.31h2v-.93a1.05,1.05,0,0,1,1.08-1.08l17.63.31h8.5l8,.15a1.14,1.14,0,0,1,1.08.93v.78h1.24a4.42,4.42,0,0,1,1.39.31,4,4,0,0,1,1.85,1.85,1.88,1.88,0,0,1,.47,1.39ZM77,95.12V84.91h.62v3.25c1.08-.93,2.16-1.85,3.56-1.39a16.34,16.34,0,0,1,1.54.62V94.5L77,95.12Zm-5.41,3.56,8.5-.93,2.63-.31a2.18,2.18,0,0,1,1.08.16,3.3,3.3,0,0,1,.93.61,2.44,2.44,0,0,1,.62,1.09v.15a3,3,0,0,1,.16,1.24v4.64c-.62.15-1.71.15-2.79.46-3.71.47-9.43,1.24-11.44,1.55-3.09.46-2.94-.77-2.94-.77v-3.72a3.46,3.46,0,0,1,.15-1.23c0-.16,0-.16.16-.31a3,3,0,0,1,.62-1.24l.93-.93a2.86,2.86,0,0,1,1.39-.46Zm.77-9.59a3.36,3.36,0,0,0,3.4.62l.31-.16-.62,5.73-5,.46V85.53h.62v4.64c.31-.62.93-1.39,1.24-1.08Zm13.92,17h.15a.16.16,0,0,1,.16.16l.15.15v1.24c0,.15,0,.15-.15.31l-.16.15a.15.15,0,0,0-.15.16L68,110.74h-.31a.15.15,0,0,1-.15-.15l-.16-.16V109c0-.15,0-.15.16-.31l.15-.15a.56.56,0,0,1,.31-.16l14.54-2H83l1.24-.15,1.24-.16Zm-21,4.33v.31c0,.16-.16.16-.16.31a.15.15,0,0,1-.15.16.57.57,0,0,1-.31.15L45.1,114c-.62,0-.77-.77-.46-1.55L33,102.85l12.68,8.82h.47l18.4-2.48h.31a.15.15,0,0,1,.15.16l.16.15v.93ZM34.43,79.66c-.15,0-.31,0-.31.15a.55.55,0,0,0-.46.16H31.34c-.31,0-.62-.16-.93-.16H30s-.16,0-.16-.15h-.15c-.16,0-.16,0-.31-.16h-.16c-.15,0-.15-.15-.31-.15h0l-.15-.16h0a.15.15,0,0,1-.15-.15H28.4l4.79-.16a23.12,23.12,0,0,1-2.47-1.7c-.77-.77,1.08-4.48,1.24-5l-3.71-1.7-.78-.31.93.16,4.18.46c-.31-.46-2.48-.93-3.56-1.39-.46-.15-.62-.31-.46-.46h0a1.73,1.73,0,0,1,.77.15H31.8a26.46,26.46,0,0,0,4.49-.31s0,.16.15.16a20.46,20.46,0,0,1,.93,2.47A9.06,9.06,0,0,1,38,74.24a5,5,0,0,1-.16,2.63h-.46c-.15,0-.31-.15-.62-.15-.15,0-.31-.16-.46-.16h0c-.16,0-.31-.15-.47-.15V76.1c0-.15,0-.31-.15-.31a.55.55,0,0,0-.16-.46.53.53,0,0,0-.15-.31c0-.16-.15-.31-.15-.47l-.31-.31c-.16-.15-.16-.15-.31-.15h-.31a.78.78,0,0,0-.62.31L33,75c-.15.31-.31.46-.31.77a1.19,1.19,0,0,0-.15.62c0,.15.15.31.31.46s.46.31.61.47.31.15.47.31c.15,0,.15.15.31.15a2.52,2.52,0,0,0,.77.31v1.08a.59.59,0,0,1-.15.47.34.34,0,0,1-.31.31c0-.47-.16-.31-.16-.31Zm1.86-15.93v.46c-.16,0-.16.16-.31.16a8.15,8.15,0,0,1-2.48.92c-.15,0-1.08.16-1.85.16H29.79A11.47,11.47,0,0,1,27.63,65v-.62h4a15.43,15.43,0,0,0,1.85-.16A12.18,12.18,0,0,0,36,63.73ZM35.82,62c-1.08.31-2.16.62-2.32.62a16.21,16.21,0,0,1-1.7.15H30.1a13.72,13.72,0,0,1-2.32-.46h-.15v-.47h.15c1.08,0,2.17-.15,2.32-.15h1.7a15.23,15.23,0,0,0,1.7-.16h2.79V62c-.16-.16-.31,0-.47,0Zm-8.5-2.79c1.08-.15,2.63-.46,2.94-.46H33.5c.31,0,1.86.15,2.94.31v.31c-1.08.15-2.63.46-2.94.46H30.26c-.31,0-1.86-.15-2.94-.31v-.31Zm9.12-2.47v.46h-6.8a12.94,12.94,0,0,0-2.48,0v-.62c1.09-.3,2.17-.46,2.48-.61h3.71a7.77,7.77,0,0,1,2.47.61c.31,0,.47,0,.62.16ZM36,54.6a10.92,10.92,0,0,0-2.63-.31c-.16,0-1.08-.15-2-.15H28.4a2.69,2.69,0,0,0-1.08.15v-.61c.31-.16.77-.16,1.08-.31a3.36,3.36,0,0,1,1.08-.16h2a20.08,20.08,0,0,1,2,.16,10.54,10.54,0,0,1,2.63.77c.16,0,.31.15.47.15v.31Zm-9.44-4.79v-.62c.31-2.47,6.35-9.28,6.35-9.28a20.69,20.69,0,0,1,3.71-.77c.77,0,1.54.62,1.39,2.47,0,.31-.62,7.74-.62,7.74a.15.15,0,0,1-.15.15l-.16.16c-1.08.92-9.12.92-9.9.77a.57.57,0,0,1-.62-.62ZM55.46,97.29V87.23h.62v3.41c1.09-.93,2.32-1.86,3.71-1.55a4.7,4.7,0,0,1,2,.93v6.8l-6.34.47Zm-4.94-5.88a3,3,0,0,0,3.55.62l.62-.31-.62,5.72-5.41.62V87.85h.77v4.8c0-.93.62-1.55,1.09-1.24ZM45.26,105a1.21,1.21,0,0,1,.15-.62.55.55,0,0,1,.16-.46,4.76,4.76,0,0,1,1.85-2.17,2.08,2.08,0,0,1,1.24-.46l12.22-1.39a3.08,3.08,0,0,1,1.23.15,4,4,0,0,1,1.09.62,2.44,2.44,0,0,1,.61,1.08c0,.16,0,.16.16.31a2.69,2.69,0,0,1,.15,1.08v5h-.61l-15.62,2-.78.16s-1.54.15-1.85-.93v-2.63c-.62-.46-9.9-8-9.9-8l9.9,6.34ZM44.17,18.88,46,18.73h1.08a.59.59,0,0,1,.47.15c.92.62,1.54,2.63,1.54,5.26,0,3.09-.92,5.57-2,5.57h-2l-2.47.15h-.31c.62-.15,1.08-1.24,1.39-2.78a13.72,13.72,0,0,0,.16-2.63,14.37,14.37,0,0,0-.31-2.79c-.31-1.54-.93-2.47-1.4-2.47l2-.31ZM52.68,4c.62-.15,1.39-.15,1.39.47V7.28h0c-.46.16-.93.47-1.39.62V4Zm2.78,6.19A2.68,2.68,0,0,1,57,10.07l13,.77,4.33.31h.93a5.4,5.4,0,0,1,1.55.31,3.3,3.3,0,0,1,1.23.77,3.41,3.41,0,0,1,.78,1.24,4.64,4.64,0,0,1,.31,1.39V31.41a4.71,4.71,0,0,1-.31,1.39A2.86,2.86,0,0,1,78,33.88l-6-.15-18.09-.31a3.14,3.14,0,0,1-.62-.93A4.44,4.44,0,0,1,53,30.94V13.62a3.6,3.6,0,0,1,.31-1.39,2,2,0,0,1,.93-1.08,1.58,1.58,0,0,1,1.23-.93Zm18.87-6C75,4,75.57,4,75.57,4.65V7.9H74.33V4.19ZM22.68,49.66c-.31,2.78,1.39,3.4,1.39,3.4V65.43l-.15.15a10.94,10.94,0,0,0-1.55,2.17,8.12,8.12,0,0,0-1.08,3.09,8,8,0,0,0,.31,3.87,6.93,6.93,0,0,0,.77,1.54,16,16,0,0,0,4.64,5c2.78,2,7.73,1.55,7.73,1.55V93.11l-.31.31-.15.16-.78.77-.15.15a4,4,0,0,0-.62,1.09c0,.15-.15.15-.15.3a2.14,2.14,0,0,0-.31.93.57.57,0,0,1-.16.47v4.48h0l-.15.16a2.4,2.4,0,0,0-.62,1.08v.15a3.34,3.34,0,0,0-.16,1.24v1.24c0,.15.16.46.16.62s.15.46.31.61.31.47.46.62L41.55,116l.15.15a6.49,6.49,0,0,0,1.39.78,5.44,5.44,0,0,0,1.55.15h.46l19.95-2.78a4.48,4.48,0,0,0,1.55-.47,3.07,3.07,0,0,0,1.7,0l18.25-2.47a8.22,8.22,0,0,0,1.85-.62,3.62,3.62,0,0,0,1.09-1.08,3.15,3.15,0,0,0,.62-1.24,3.49,3.49,0,0,0,.15-1.24v-.61a2.83,2.83,0,0,0-.31-1.24,5.24,5.24,0,0,0-.77-1.24l-.16-.15v-3.71c0-2.17-.62-5.11-3.4-5.88V83.83c.93-.15,5.72-.62,5.72-4.17,1.39-.16,5.26-.93,6.81-6.5a11.61,11.61,0,0,0,.31-4,10.56,10.56,0,0,0-.93-3.09,6.59,6.59,0,0,0-1.39-2.17l-.31-.31V50.74c.31-.16,1.23-.62,1.23-2.63,0-1.24-2.93-8.35-3.86-9.43a13.68,13.68,0,0,0-4.33-3.25,2.46,2.46,0,0,0-.78-.31,8.68,8.68,0,0,0-2.78-.47,1.16,1.16,0,0,0-1.08-.77h-1.7v-4c1.85-.77,2.94-2.63,2.94-5.1,0-1.09-.16-3.87-1.86-5.26a3.35,3.35,0,0,0-.93-.62V14.71a6.41,6.41,0,0,0-.46-2.48,6.55,6.55,0,0,0-1.39-2.16,7,7,0,0,0-2.17-1.55,3,3,0,0,0-1.55-.46V4.19c0-.77-1.39-2-5.87-.47h0A1.31,1.31,0,0,0,70.31,5V7.59L57.63,6.82A7.79,7.79,0,0,0,55.77,7V4c0-.77-1.39-2-5.87-.46a1.46,1.46,0,0,0-1.09,1.24V11.3l-5.87,4.8a15.39,15.39,0,0,0-2.32.31c-2.94.61-4,4.79-4,8.19,0,3.1.77,5.42,2,6.81V35l-5.88,1.7c-1.7.47-9.74,10.21-10,13Z"/><path id="Fill-30" class="cls-1" d="M47,109.5c.77,0,6.49-.77,6.49-.77s-1.23-.31-.77-2.47c.31-1.55,3.25-2.17,5.26-2.63s4.79-.78,4.79-.78a11.83,11.83,0,0,0-4.17-.15h-.93s-8.82,1.08-11,2c-.62.31-.62,2.94-.62,4.18,0,.61.46.61.93.61"/><path id="Fill-31" class="cls-1" d="M48.5,102.24c-.92.15-1.54,1.39-1.54,1.39l7.73-1.09c-.15-.15-2.32-.77-6.19-.3"/><path id="Fill-32" class="cls-1" d="M75.41,99.76a12.17,12.17,0,0,0-3.71-.46,2.35,2.35,0,0,0-1.85,1.54c.77-.77,5.41-1.08,5.56-1.08"/><path id="Fill-33" class="cls-1" d="M33.81,49.19S31,47.64,31.49,46.72c.78-1.39,2.94-.93,3.72-1.86A5.75,5.75,0,0,0,36.13,41s-2.63-.47-3.4.46C31.49,43,28.09,48,27.78,48.57c-1.24,1.55,6,.62,6,.62"/><path id="Fill-34" class="cls-1" d="M47,28.78c.31,0,.77-.93,1.08-2.63h-.15c-.16-.16-.47-.16-.62-.31s-.16-.16-.31-.16c-.31-.3-.31-.61-.62-.92A1.51,1.51,0,0,0,45,24.6a.47.47,0,0,1-.62-.31v.78A8.2,8.2,0,0,1,44,27.23a11.15,11.15,0,0,1-.31,1.24c0,.15-.15.31-.15.46l3.4-.15h0"/></g></g></g></g></g></svg>