<svg id="Layer_1" data-name="Layer 1" xmlns="http://www.w3.org/2000/svg" viewBox="0 0 32 32">
    <title>warning-icon</title>
    <path d="M18.09,1.31A2.35,2.35,0,0,0,16,0a2.31,2.31,0,0,0-2.09,1.31L.27,28.44A2.49,2.49,0,0,0,.11,30.3a2.38,2.38,0,0,0,1.16,1.42A2.33,2.33,0,0,0,2.36,32H29.64A2.4,2.4,0,0,0,32,29.57a2.55,2.55,0,0,0-.27-1.14ZM3.34,29,16,3.83,28.66,29Z"/><polygon points="13.94 25.19 13.94 25.19 13.94 25.19 13.94 25.19"/><polygon points="14.39 21.68 17.61 21.68 18.11 11.85 13.89 11.85 14.39 21.68"/><path d="M16.06,23.08a2.19,2.19,0,0,0-1.56,3.66,2.14,2.14,0,0,0,1.56.55,2.06,2.06,0,0,0,1.54-.55,2.1,2.1,0,0,0,.55-1.55,2.17,2.17,0,0,0-.53-1.55A2.05,2.05,0,0,0,16.06,23.08Z"/>
</svg>