<svg width="16px" height="16px" viewBox="0 0 16 16" version="1.1" xmlns="http://www.w3.org/2000/svg" xmlns:xlink="http://www.w3.org/1999/xlink">
    <g id="Page-1" stroke="none" stroke-width="1" fill="none" fill-rule="evenodd">
        <g id="External-site" fill="#2671E7">
            <path d="M15.2542746,0 L10.117115,0 C9.70521103,0 9.37138968,0.331077601 9.37138968,0.7395961 C9.37138968,1.1481146 9.70521103,1.4791922 10.117115,1.4791922 L13.5368139,1.4791922 L6.21853299,8.73732261 C5.92715567,9.02612743 5.92715567,9.49450277 6.21853299,9.78330758 C6.36413212,9.92770999 6.55504068,10 6.74577014,10 C6.93649962,10 7.12740818,9.92770999 7.2730073,9.78330758 L14.5085492,2.60705849 L14.5085492,5.83435463 C14.5085492,6.24287313 14.8423706,6.57395074 15.2542746,6.57395074 C15.6661786,6.57395074 16,6.24287313 16,5.83435463 L16,0.7395961 C16,0.331077601 15.6661786,0 15.2542746,0 Z" id="Path"></path>
            <path d="M12.2810964,7.69220962 C11.8840075,7.69220962 11.5621929,8.01402427 11.5621929,8.41111317 L11.5621929,14.0829238 C11.5621929,14.3427581 11.3427581,14.5621929 11.0829238,14.5621929 L1.91707615,14.5621929 C1.65724189,14.5621929 1.43780712,14.3427581 1.43780712,14.0829238 L1.43780712,4.91707615 C1.43780712,4.65724189 1.65724189,4.43780712 1.91707615,4.43780712 L7.60891391,4.43780712 C8.00600281,4.43780712 8.32781747,4.11599245 8.32781747,3.71890356 C8.32781747,3.32181465 8.00600281,3 7.60891391,3 L1.91707615,3 C0.859956439,3 0,3.85995644 0,4.91707615 L0,14.0829238 C0,15.1400436 0.859956439,16 1.91707615,16 L11.0829238,16 C12.1400436,16 13,15.1400436 13,14.0829238 L13,8.41111317 C13,8.01419692 12.6781853,7.69220962 12.2810964,7.69220962 Z" id="Path"></path>
        </g>
    </g>
</svg>