<?xml version="1.0" encoding="UTF-8"?>
<svg width="30px" height="30px" viewBox="0 0 28 28" version="1.1" xmlns="http://www.w3.org/2000/svg" xmlns:xlink="http://www.w3.org/1999/xlink">
    <!-- Generator: Sketch 57.1 (83088) - https://sketch.com -->
    <title>pms_printassupport</title>
    <desc>Created with Sketch.</desc>
    <g id="pms_printassupport" stroke="none" stroke-width="1" fill="none" fill-rule="evenodd">
        <g id="Print-as-support" transform="translate(4.000000, 3.000000)">
            <g id="Group">
                <path d="M0.833,19.251 L0.833333333,22 L-7.59392549e-14,22 L0.833,19.251 Z M4.166,8.251 L4.16666667,22 L2.5,22 L2.5,13.749 L4.166,8.251 Z M7.5,0 L7.5,22 L5.83333333,22 L5.83333333,0 L7.5,0 Z M10.8333333,0 L10.8333333,22 L9.16666667,22 L9.16666667,0 L10.8333333,0 Z M15.833,8.251 L17.5,13.751 L17.5,22 L15.8333333,22 L15.833,8.251 Z M14.1666667,0 L14.1666667,22 L12.5,22 L12.5,0 L14.1666667,0 Z M19.166,19.248 L20,22 L19.1666667,22 L19.166,19.248 Z M17.5,0 L17.5,0.563 L15.833,5.452 L15.8333333,0 L17.5,0 Z M4.16666667,0 L4.166,5.452 L2.5,0.566 L2.5,0 L4.16666667,0 Z" id="Combined-Shape" fill="#000"></path>
                <g transform="translate(0.833333, 0.000000)"></g>
            </g>
        </g>
    </g>
</svg>