<svg xmlns="http://www.w3.org/2000/svg" viewBox="0 0 250 250">
    <switch>
        <g>
            <path d="M-.113 31.935c8.904 4.904 17.81 9.802 26.709 14.714 2.507 1.384 4.993 2.807 7.868 4.426C57.24 23.782 85.983 7.847 121.495 5.371c27.659-1.928 53.113 5.077 76.006 20.788 44.611 30.614 63.473 86.919 46.099 137.829-17.883 52.399-66.749 82.265-113.69 81.745v-36.688c25.195-1.141 46.785-10.612 63.364-30.267 11.82-14.013 18.14-30.322 19.349-48.541 2.323-34.992-19.005-68.519-51.909-81.916-32.223-13.12-70.379-4.319-93 22.01l31.263 18.198c-1.545 1.07-2.387 1.747-3.312 2.281a81656.22 81656.22 0 0 1-92.099 53.112c-1.128.65-2.448.967-3.679 1.439V31.935z"/>
        </g>
    </switch>
</svg>
