<svg xmlns="http://www.w3.org/2000/svg" viewBox="-282 405.9 30 30">
    <path fill="none" d="M-253.2 421.1l-13.6 13.6h.4l13.2-13.2zm0-2.2l-15.8 15.8h.4l15.4-15.4zm0 4.4l-11.4 11.4h.4l11-11zm0 2.2l-9.2 9.2h.4l8.8-8.8zm0 9.2v-.4l-.4.4zm0-4.8l-4.8 4.8h.4l4.4-4.4zm0 2.2l-2.6 2.6h.4l2.2-2.2zm0-4.4l-7 7h.4l6.6-6.6zm-14.5-20.6l-13.1 13.1v.4l13.5-13.5zm6.6 0l-19.7 19.7v.4l20.1-20.1zm-10.9 0l-8.8 8.7v.4l9.1-9.1zm2.1 0l-10.9 10.9v.4l11.3-11.3zm4.4 0l-15.3 15.3v.4l15.7-15.7zm-8.7 0l-6.6 6.6v.3l7-6.9zm-4.4 0l-2.2 2.2v.4l2.6-2.6zm-2.2 0v.4l.4-.4zm4.4 0l-4.4 4.4v.4l4.8-4.8zm23.2.9l-26.7 26.7h.4l26.3-26.3zm0 4.3l-22.3 22.4h.3l22-22zm0 2.2l-20.2 20.2h.4l19.8-19.8zm0-4.3l-24.5 24.5h.4l24.1-24.2zm-5.7-3.1l-21.9 21.9v.4l22.3-22.3zm5.7 9.6l-18 18h.4l17.6-17.6zm-1.3-9.6l-26.3 26.3v.4l26.7-26.7zm-2.2 0l-24.1 24.1v.4l24.5-24.5zm-6.6 0l-17.5 17.5v.4l17.9-17.9z"/>
    <path d="M-280.4 407.1l-.4.4v1.8l2.2-2.2zm2.2 0l-2.6 2.6v1.8l4.4-4.4zm2.2 0l-4.8 4.8v1.8l6.6-6.6zm2.2 0l-7 6.9v1.8l8.8-8.7zm2.1 0l-9.1 9.1v1.8l10.9-10.9zm2.2 0l-11.3 11.3v1.8l13.1-13.1zm2.2 0l-13.5 13.5v1.8l15.3-15.3zm2.2 0l-15.7 15.7v1.8l17.5-17.5zm2.2 0l-17.9 17.9v1.8l19.7-19.7zm2.2 0l-20.1 20.1v1.8l21.9-21.9zm2.2 0l-22.3 22.3v1.8l24.1-24.1zm2.2 0l-24.5 24.5v1.8l26.3-26.3zM-282 435zm28.8-27.9h-.9l-26.7 26.7v.9h.9l26.7-26.7zm0 1.3l-26.3 26.3h1.8l24.5-24.5zm0 2.1l-24.1 24.2h1.8l22.3-22.4zm0 2.2l-22 22h1.8l20.2-20.2zm0 2.2l-19.8 19.8h1.8l18-18zm0 2.2l-17.6 17.6h1.8l15.8-15.8zm0 2.2l-15.4 15.4h1.8l13.6-13.6zm0 2.2l-13.2 13.2h1.8l11.4-11.4zm0 2.2l-11 11h1.8l9.2-9.2zm0 2.2l-8.8 8.8h1.8l7-7zm0 2.2l-6.6 6.6h1.8l4.8-4.8zm0 2.2l-4.4 4.4h1.8l2.6-2.6zm-2.2 4.4h1.8l.4-.4v-1.8zm-25.4-27.6h-1.2v1.6l1.2-1.2zm0 8.7l-1.2 1.2v.4l1.2-1.2zm0 6.6l-1.2 1.2v.4l1.2-1.2zm0-8.7l-1.2 1.2v.3l1.2-1.2zm0 4.3l-1.2 1.2v.4l1.2-1.2zm0-8.7l-1.2 1.2v.4l1.2-1.2zm0 2.2l-1.2 1.2v.4l1.2-1.2zm0 8.7l-1.2 1.2v.4l1.2-1.2zm0 13.6v-.4l-1.2 1.2v.1h.3zm0-4.8l-1.2 1.2v.4l1.2-1.2zm0 2.2l-1.2 1.2v.4l1.2-1.2zm0-6.6l-1.2 1.2v.4l1.2-1.2zm0 2.2l-1.2 1.2v.4l1.2-1.2z"/>
    <path d="M-280.8 407.5l-1.2 1.2v1.8l1.2-1.2zm0 2.2l-1.2 1.2v1.8l1.2-1.2zm0 2.2l-1.2 1.2v1.8l1.2-1.2zm0 2.1l-1.2 1.2v1.8l1.2-1.2zm0 2.2l-1.2 1.2v1.8l1.2-1.2zm0 2.2l-1.2 1.2v1.8l1.2-1.2zm0 2.2l-1.2 1.2v1.8l1.2-1.2zm0 2.2l-1.2 1.2v1.8l1.2-1.2zm0 2.2l-1.2 1.2v1.8l1.2-1.2zm0 2.2l-1.2 1.2v1.8l1.2-1.2zm0 2.2l-1.2 1.2v1.8l1.2-1.2zm0 2.2l-1.2 1.2v1.8l1.2-1.2zm-.9 3.1h.9v-.9zm28.5-19.8l1.2-1.2v-.4l-1.2 1.2zm0 4.4l1.2-1.2v-.4l-1.2 1.2zm0-11.3v.4l1.2-1.2v-.1h-.3zm0 15.7l1.2-1.2v-.4l-1.2 1.2zm0-6.6l1.2-1.2v-.4l-1.2 1.2zm0-6.6l1.2-1.2v-.3l-1.2 1.2zm0 2.2l1.2-1.2v-.4l-1.2 1.2zm0 8.8l1.2-1.2v-.4l-1.2 1.2zm0 12.8v.4h1.2v-1.6zm0-8.4l1.2-1.2v-.4l-1.2 1.2zm0 2.2l1.2-1.2v-.4l-1.2 1.2zm0 4.4l1.2-1.2v-.4l-1.2 1.2zm0-2.2l1.2-1.2v-.4l-1.2 1.2z"/>
    <path d="M-252.3 407.1h-.9v.9zm-.9 3.1l1.2-1.2v-1.8l-1.2 1.2zm0 2.1l1.2-1.2v-1.8l-1.2 1.2zm0 2.2l1.2-1.2v-1.8l-1.2 1.2zm0 2.2l1.2-1.2v-1.8l-1.2 1.2zm0 2.2l1.2-1.2v-1.8l-1.2 1.2zm0 2.2l1.2-1.2v-1.8l-1.2 1.2zm0 2.2l1.2-1.2v-1.8l-1.2 1.2zm0 2.2l1.2-1.2v-1.8l-1.2 1.2zm0 2.2l1.2-1.2v-1.8l-1.2 1.2zm0 2.2l1.2-1.2v-1.8l-1.2 1.2zm0 2.2l1.2-1.2v-1.8l-1.2 1.2zm0 2.2l1.2-1.2v-1.8l-1.2 1.2zm-10.1-27.2h.4l1.2-1.2h-2.2l.9.9zm-2.2 0h.4l1.2-1.2h-2.2l.9.9zm-4.4 0h.4l1.2-1.2h-2.2l.9.9zm13.2 0h.4l1.2-1.2h-2.2l.9.9zm2.2 0h.4l.9-.9v-.3h-1.9l.9.9zm-4.4 0h.4l1.2-1.2h-2.2l.9.9zm-2.2 0h.4l1.2-1.2h-2.2l.9.9zm-19.3 0l1.2-1.2h-1.6v1.2zm4 0h.4l1.2-1.2h-2.2l.9.9z"/>
    <path d="M-278.6 407.1h.4l1.2-1.2h-2.2l.9.9zm4.4 0h.4l1.2-1.2h-2.2l.9.9zm2.2 0h.3l1.2-1.2h-2.1l.9.9zm4.3 0h.4l1.2-1.2h-2.2l.9.9z"/>
    <path d="M-278.6 407.1l.3-.3-.9-.9-1.2 1.2zm2.2 0l.3-.3-.9-.9-1.2 1.2zm2.2 0l.3-.3-.9-.9-1.2 1.2zm2.2 0l.3-.3-.9-.9-1.2 1.2zm2.1 0l.3-.3-.9-.9-1.2 1.2zm2.2 0l.3-.3-.9-.9-1.2 1.2zm2.2 0l.3-.3-.9-.9-1.2 1.2zm2.2 0l.3-.3-.9-.9-1.2 1.2zm2.2 0l.3-.3-.9-.9-1.2 1.2zm2.2 0l.3-.3-.9-.9-1.2 1.2zm2.2 0l.3-.3-.9-.9-1.2 1.2zm2.2 0l.3-.3-.9-.9-1.2 1.2zm1.3-.9l-.9.9h.9zm-28.8-.3h1.2v1.2h-1.2zm29.7 1.2h.3v-1.2h-.9l.9.9zm-.6-1.2h-.3v.3z"/>
    <path d="M-253.2 407.1h.9l.3-.3-.9-.9-.3.3zm-13.2 27.6h-.4l-1.2 1.2h2.2l-.9-.9zm2.2 0h-.4l-1.2 1.2h2.2l-.9-.9zm-6.6 0h-.4l-1.2 1.2h2.2l-.9-.9zm2.2 0h-.4l-1.2 1.2h2.2l-.9-.9zm15 0l-1.2 1.2h1.6v-1.2zm-4 0h-.4l-1.2 1.2h2.2l-.9-.9zm-2.2 0h-.4l-1.2 1.2h2.2l-.9-.9zm4.4 0h-.4l-1.2 1.2h2.2l-.9-.9zm-17.6 0h-.4l-1.2 1.2h2.2l-.9-.9zm11 0h-.4l-1.2 1.2h2.2l-.9-.9zm-15.3 0h-.4l-1.2 1.2h2.2l-.9-.9zm2.1 0h-.3l-1.2 1.2h2.1l-.9-.9zm-4.3 0h-.4l-.9.9v.3h1.9l-.9-.9z"/>
    <path d="M-280.8 435.6l.9-.9h-.9zm1.3-.9l-.3.3.9.9 1.2-1.2zm2.2 0l-.3.3.9.9 1.2-1.2zm2.1 0l-.3.3.9.9 1.2-1.2zm2.2 0l-.3.3.9.9 1.2-1.2zm2.2 0l-.3.3.9.9 1.2-1.2zm2.2 0l-.3.3.9.9 1.2-1.2zm2.2 0l-.3.3.9.9 1.2-1.2zm2.2 0l-.3.3.9.9 1.2-1.2zm2.2 0l-.3.3.9.9 1.2-1.2zm2.2 0l-.3.3.9.9 1.2-1.2zm2.2 0l-.3.3.9.9 1.2-1.2zm2.2 0l-.3.3.9.9 1.2-1.2zm-26.6 1.2h.9l-.9-.9zm0-1.2v.3l.3-.3zm.9 1.2h.3v-.3z"/>
    <path d="M-280.8 434.7h-.9l-.3.3.9.9.3-.3zm27.6 0h1.2v1.2h-1.2z"/>
</svg>
