<svg id="Capa_1" data-name="Capa 1" xmlns="http://www.w3.org/2000/svg" viewBox="0 0 1000 1000"><defs><style>.cls-1{fill:none;}.cls-1,.cls-2{stroke:#fff;stroke-miterlimit:10;stroke-width:40.8px;}.cls-2{fill:#fff;}</style></defs><polygon class="cls-1" points="218.96 540.87 423.08 540.87 386.79 622.5 423.08 785.79 218.96 785.79 254.43 622.5 218.96 540.87"/><polygon class="cls-1" points="259.78 214.28 382.25 214.28 382.25 459.21 259.78 459.2 295.25 295.91 259.78 214.28"/><polygon class="cls-1" points="565.96 540.87 770.08 540.87 733.78 622.5 770.08 785.79 565.96 785.79 601.43 622.5 565.96 540.87"/><polygon class="cls-2" points="565.96 214.28 770.08 214.28 733.78 295.92 770.08 459.21 565.96 459.21 601.43 295.92 565.96 214.28"/><line class="cls-1" x1="254.43" y1="622.5" x2="393.05" y2="622.5"/><line class="cls-1" x1="254.43" y1="704.15" x2="393.05" y2="704.15"/></svg>